<?xml version="1.0" encoding="utf-8"?>
<!-- Generator: Adobe Illustrator 22.0.0, SVG Export Plug-In . SVG Version: 6.00 Build 0)  -->
<svg version="1.1" id="logo_x5F_4" xmlns="http://www.w3.org/2000/svg" xmlns:xlink="http://www.w3.org/1999/xlink" x="0px" y="0px"
	 viewBox="0 0 790.2 260.2" style="enable-background:new 0 0 790.2 260.2;" xml:space="preserve">
<style type="text/css">
	.st0{fill:#FFFFFF;}
</style>
<g>
	<polygon class="st0" points="6,237.7 27.5,216.2 6,194.6 20.4,180.3 41.9,201.8 63.4,180.3 77.8,194.6 56.3,216.2 77.8,237.7 
		63.4,252.1 41.9,230.5 20.4,252.1 	"/>
	<polygon class="st0" points="6,65.3 27.5,43.7 6,22.2 20.4,7.8 41.9,29.4 63.4,7.8 77.8,22.2 56.3,43.7 77.8,65.3 63.4,79.6 
		41.9,58.1 20.4,79.6 	"/>
	<polygon class="st0" points="6,151.6 27.5,130 6,108.5 20.4,94.1 41.9,115.7 63.4,94.1 77.8,108.5 56.3,130 77.8,151.6 63.4,165.9 
		41.9,144.4 20.4,165.9 	"/>
	<g>
		<path class="st0" d="M165.2,150.7h13.4l37.5,87h-17.7l-8.1-19.9h-37.7l-7.9,19.9h-17.3L165.2,150.7z M184.8,204.5l-13.4-35.4
			l-13.6,35.4H184.8z"/>
		<path class="st0" d="M223.8,178.7h14v9.2h0.2c2.6-5.5,8.2-10.7,18.1-10.7c9.1,0,15.4,3.6,18.4,10.9c4.3-7.5,10.6-10.9,19.4-10.9
			c15.7,0,21.3,11.2,21.3,25.3v35.1h-14.7v-33.4c0-7.4-2.2-13.8-10.9-13.8c-9.2,0-12.7,7.6-12.7,15.2v32h-14.8v-35.1
			c0-7.2-2.9-12-10.1-12c-9.7,0-13.5,7.1-13.5,15v32.2h-14.7V178.7z"/>
		<path class="st0" d="M362.8,195c-2.8-3.9-6.5-6-11.6-6c-3.9,0-8.6,1.8-8.6,6.3c0,10.6,31.8,2,31.8,24.9c0,14-13.4,18.9-25.4,18.9
			c-9.1,0-17-2.3-23-9.1l9.8-9.2c3.8,4.2,7.7,7.3,14,7.3c4.3,0,9.8-2.1,9.8-6.8c0-12.2-31.8-2.6-31.8-25.1
			c0-13.2,11.8-19.1,23.7-19.1c7.9,0,16.2,2.5,21,9L362.8,195z"/>
		<path class="st0" d="M379,191.2v-12.5h12.2v-17.1h14.7v17.1h16.2v12.5h-16.2V217c0,5.9,1.7,9.6,8.2,9.6c2.6,0,6.1-0.5,8-1.8v12.4
			c-3.1,1.5-8.2,2-11.7,2c-15.6,0-19.3-7-19.3-20.9v-27H379z"/>
		<path class="st0" d="M445.5,213.4c1,8.7,7.6,14,15.9,14c7.4,0,12.2-3.4,15.9-8l10.6,8c-6.9,8.5-15.6,11.8-24.9,11.8
			c-17.8,0-32.1-12.4-32.1-31c0-18.6,14.3-31,32.1-31c16.5,0,27.7,11.6,27.7,32.1v4.1H445.5z M475.7,202.3c-0.1-8.6-5.8-14-15-14
			c-8.7,0-14.1,5.5-15.2,14H475.7z"/>
		<path class="st0" d="M504.2,178.7H519v9.3h0.2c3.2-6.8,9.7-10.8,17.5-10.8c1.8,0,3.6,0.4,5.3,0.9v14.3c-2.5-0.6-4.8-1.1-7.1-1.1
			c-13.9,0-15.9,11.7-15.9,14.9v31.6h-14.7V178.7z"/>
		<path class="st0" d="M596.7,228.8h-0.2c-4.3,7.1-12,10.3-20.3,10.3c-18.2,0-29.1-13.5-29.1-31c0-17.4,11.7-31,28.5-31
			c11.1,0,17,5.2,20,9h0.4v-41.4h14.7v92.9h-14V228.8z M579.1,225.9c10.8,0,17.3-8.5,17.3-17.7c0-9.2-6.5-17.7-17.3-17.7
			s-17.3,8.5-17.3,17.7C561.8,217.4,568.3,225.9,579.1,225.9z"/>
		<path class="st0" d="M664.3,229.6h-0.4c-4.2,6.6-11.1,9.6-18.9,9.6c-10.9,0-21.5-6-21.5-17.7c0-19.2,22.4-20.5,37.1-20.5h3.7v-1.6
			c0-7.3-5.7-11.1-13.5-11.1c-6.1,0-11.8,2.5-15.7,6.1l-7.7-7.7c6.5-6.6,15.7-9.5,25.1-9.5c25.2,0,25.2,18.2,25.2,26.5v33.9h-13.3
			V229.6z M663.4,211.3h-3.1c-8.1,0-22.1,0.6-22.1,9.1c0,5.4,5.5,7.7,10.3,7.7c10.1,0,14.9-5.3,14.9-13.5V211.3z"/>
		<path class="st0" d="M692.8,178.7h14v9.2h0.2c2.6-5.5,8.2-10.7,18.1-10.7c9.1,0,15.4,3.6,18.4,10.9c4.3-7.5,10.6-10.9,19.4-10.9
			c15.7,0,21.3,11.2,21.3,25.3v35.1h-14.7v-33.4c0-7.4-2.2-13.8-10.9-13.8c-9.2,0-12.7,7.6-12.7,15.2v32h-14.7v-35.1
			c0-7.2-2.9-12-10.1-12c-9.7,0-13.5,7.1-13.5,15v32.2h-14.7V178.7z"/>
	</g>
	<g>
		<path class="st0" d="M196.6,41.7c-6.4-6.8-12.3-8.6-18.3-8.6c-17.9,0-29.9,13.8-29.9,31.1c0,18.6,11.9,32.3,29.9,32.3
			c7,0,13.8-3.2,19.5-10.6l12.8,9.1c-7.9,10.8-19.7,15.5-32.4,15.5c-26.8,0-46-18.2-46-45.3c0-27.9,19.2-46.1,46-46.1
			c11.8,0,21.9,3.8,30.5,13.8L196.6,41.7z"/>
		<path class="st0" d="M226.9,20.4c5.4,0,9.6,3.8,9.6,8.8s-4.2,8.8-9.6,8.8c-5.4,0-9.3-4.2-9.3-8.8S221.5,20.4,226.9,20.4z
			 M219.7,49.3h14.7v59h-14.7V49.3z"/>
		<path class="st0" d="M244.3,61.9V49.3h12.2V32.2h14.7v17.1h16.2v12.5h-16.2v25.8c0,5.9,1.7,9.6,8.2,9.6c2.6,0,6.1-0.5,8-1.8v12.4
			c-3.1,1.5-8.2,2-11.7,2c-15.6,0-19.3-7-19.3-20.9v-27H244.3z"/>
		<path class="st0" d="M293.8,49.3H310l16.5,40.9h0.2l14.7-40.9h15.4L328.9,121c-4.3,11.1-9.5,16.8-22.5,16.8
			c-3.8,0-7.6-0.5-11.3-1.5l1.8-13.3c2.3,0.9,4.9,1.5,7.5,1.5c7.3,0,9.2-2.6,11.7-8.7l2.8-7L293.8,49.3z"/>
		<path class="st0" d="M412.8,47.9c17.8,0,32.1,12.4,32.1,31c0,18.6-14.3,31-32.1,31c-17.8,0-32.1-12.4-32.1-31
			C380.7,60.3,394.9,47.9,412.8,47.9z M412.8,96.5c10.8,0,17.3-8.5,17.3-17.7s-6.5-17.7-17.3-17.7c-10.8,0-17.3,8.5-17.3,17.7
			S401.9,96.5,412.8,96.5z"/>
		<path class="st0" d="M462.4,61.9h-12.2V49.3h12.2V41c0-16.3,3.7-27,22-27c3.2,0,6.3,0.2,9.3,0.9l-1,12.5c-2.1-0.5-4.1-0.9-6.1-0.9
			c-8.2,0-9.5,5.7-9.5,12.2v10.7h13.6v12.5h-13.6v46.5h-14.7V61.9z"/>
	</g>
</g>
</svg>
