<svg id="Layer_10" data-name="Layer 10" xmlns="http://www.w3.org/2000/svg" viewBox="0 0 270 84.76"><title>amsterdam-logo</title><polygon points="0 79.77 7.46 72.31 0 64.81 5 59.85 12.46 67.31 19.91 59.85 24.91 64.81 17.45 72.31 24.91 79.77 19.91 84.76 12.46 77.27 5 84.76 0 79.77"/><polygon points="0 19.95 7.46 12.46 0 5 5 0 12.46 7.49 19.91 0 24.91 5 17.45 12.46 24.91 19.95 19.91 24.91 12.46 17.45 5 24.91 0 19.95"/><polygon points="0 49.89 7.46 42.4 0 34.94 5 29.94 12.46 37.44 19.91 29.94 24.91 34.94 17.45 42.4 24.91 49.89 19.91 54.85 12.46 47.39 5 54.85 0 49.89"/><path d="M70.24,157.2h4.65l13,30.19H81.75l-2.81-6.9H65.86l-2.74,6.9h-6ZM77,175.87l-4.65-12.28-4.72,12.28Z" transform="translate(-15 -107.62)"/><path d="M90.57,166.91h4.86v3.19h.07a6.52,6.52,0,0,1,6.28-3.71c3.16,0,5.34,1.25,6.38,3.78a7.12,7.12,0,0,1,6.73-3.78c5.45,0,7.39,3.89,7.39,8.78v12.18h-5.1V175.76c0-2.57-.76-4.79-3.78-4.79-3.19,0-4.41,2.64-4.41,5.27v11.1h-5.13V175.17c0-2.5-1-4.16-3.5-4.16-3.37,0-4.68,2.46-4.68,5.2v11.17h-5.1V166.91Z" transform="translate(-15 -107.62)"/><path d="M138.79,172.57a4.66,4.66,0,0,0-4-2.08c-1.35,0-3,.62-3,2.19,0,3.68,11,.69,11,8.64,0,4.86-4.65,6.56-8.81,6.56-3.16,0-5.9-.8-8-3.16l3.4-3.19c1.32,1.46,2.67,2.53,4.86,2.53,1.49,0,3.4-.73,3.4-2.36,0-4.23-11-.9-11-8.71,0-4.58,4.09-6.63,8.22-6.63,2.74,0,5.62.87,7.29,3.12Z" transform="translate(-15 -107.62)"/><path d="M144.41,171.25v-4.34h4.23V161h5.1v5.93h5.62v4.34h-5.62v9c0,2,.59,3.33,2.85,3.33a5.55,5.55,0,0,0,2.78-.62v4.3a10.64,10.64,0,0,1-4.06.69c-5.41,0-6.7-2.43-6.7-7.25v-9.37h-4.2Z" transform="translate(-15 -107.62)"/><path d="M167.49,179a5.31,5.31,0,0,0,5.52,4.86,6.71,6.71,0,0,0,5.52-2.78l3.68,2.78a10.63,10.63,0,0,1-8.64,4.09c-6.18,0-11.14-4.3-11.14-10.76s5-10.76,11.14-10.76c5.72,0,9.61,4,9.61,11.14V179ZM178,175.1c0-3-2-4.86-5.2-4.86-3,0-4.89,1.91-5.27,4.86Z" transform="translate(-15 -107.62)"/><path d="M187.85,166.91H193v3.23h.07a6.5,6.5,0,0,1,6.07-3.75,6.59,6.59,0,0,1,1.84.31v5a10.64,10.64,0,0,0-2.46-.38,5.17,5.17,0,0,0-5.52,5.17v11h-5.1V166.91Z" transform="translate(-15 -107.62)"/><path d="M219.95,184.3h-.07a7.89,7.89,0,0,1-7,3.57c-6.31,0-10.1-4.68-10.1-10.76s4.06-10.76,9.89-10.76a8.34,8.34,0,0,1,6.94,3.12h.14V155.12h5.1v32.23h-4.86V184.3Zm-6.11-1a6.14,6.14,0,1,0-6-6.14A5.92,5.92,0,0,0,213.84,183.29Z" transform="translate(-15 -107.62)"/><path d="M243.4,184.57h-.14a7.4,7.4,0,0,1-6.56,3.33c-3.78,0-7.46-2.08-7.46-6.14,0-6.66,7.77-7.11,12.87-7.11h1.28v-.56c0-2.53-2-3.85-4.68-3.85a8.16,8.16,0,0,0-5.45,2.12l-2.67-2.67a12,12,0,0,1,8.71-3.3c8.74,0,8.74,6.31,8.74,9.19v11.76h-4.61v-2.78Zm-.31-6.35H242c-2.81,0-7.67.21-7.67,3.16,0,1.87,1.91,2.67,3.57,2.67,3.5,0,5.17-1.84,5.17-4.68v-1.14Z" transform="translate(-15 -107.62)"/><path d="M253.29,166.91h4.86v3.19h.07a6.52,6.52,0,0,1,6.28-3.71c3.16,0,5.34,1.25,6.38,3.78a7.12,7.12,0,0,1,6.73-3.78c5.45,0,7.39,3.89,7.39,8.78v12.18h-5.1V175.76c0-2.57-.76-4.79-3.78-4.79-3.19,0-4.41,2.64-4.41,5.27v11.1h-5.1V175.17c0-2.5-1-4.16-3.5-4.16-3.37,0-4.68,2.46-4.68,5.2v11.17h-5.1V166.91Z" transform="translate(-15 -107.62)"/><path d="M81.13,119.38a8.19,8.19,0,0,0-6.35-3c-6.21,0-10.37,4.79-10.37,10.79,0,6.45,4.13,11.21,10.37,11.21a8.42,8.42,0,0,0,6.77-3.68L86,137.87a13.4,13.4,0,0,1-11.24,5.38c-9.3,0-16-6.31-16-15.72,0-9.68,6.66-16,16-16a13.1,13.1,0,0,1,10.58,4.79Z" transform="translate(-15 -107.62)"/><path d="M91.64,112A3.06,3.06,0,1,1,88.42,115,3.15,3.15,0,0,1,91.64,112Zm-2.5,10h5.1v20.47h-5.1Z" transform="translate(-15 -107.62)"/><path d="M97.68,126.39V122h4.23v-5.93H107V122h5.62v4.34H107v9c0,2,.59,3.33,2.85,3.33a5.55,5.55,0,0,0,2.78-.62v4.3a10.64,10.64,0,0,1-4.06.69c-5.41,0-6.7-2.43-6.7-7.25v-9.37Z" transform="translate(-15 -107.62)"/><path d="M114.85,122h5.62l5.72,14.19h.07l5.1-14.19h5.34L127,146.89c-1.49,3.85-3.3,5.83-7.81,5.83a15,15,0,0,1-3.92-.52l.62-4.61a7.25,7.25,0,0,0,2.6.52c2.53,0,3.19-.9,4.06-3l1-2.43Z" transform="translate(-15 -107.62)"/><path d="M156.14,121.53c6.18,0,11.14,4.3,11.14,10.76s-5,10.76-11.14,10.76S145,138.74,145,132.29,149.93,121.53,156.14,121.53Zm0,16.86a6.14,6.14,0,1,0-6-6.14A5.92,5.92,0,0,0,156.14,138.39Z" transform="translate(-15 -107.62)"/><path d="M173.35,126.39h-4.23V122h4.23v-2.88c0-5.66,1.28-9.37,7.63-9.37a14.15,14.15,0,0,1,3.23.31l-.35,4.34a9.19,9.19,0,0,0-2.12-.31c-2.85,0-3.3,2-3.3,4.23v3.71h4.72v4.34h-4.72v16.13h-5.1V126.39Z" transform="translate(-15 -107.62)"/></svg>