<svg id="Layer_5" data-name="Layer 5" xmlns="http://www.w3.org/2000/svg" viewBox="0 0 248 247.12"><defs><style>.cls-1{fill:#565656;}.cls-2{fill:gray;}.cls-3{fill:#b0b0b0;}.cls-4{fill:#a1a1a1;}.cls-5{fill:#a2a2a2;}.cls-6{fill:#9c9c9c;}.cls-7{fill:#9b9b9b;}.cls-8{fill:#a3a3a3;}.cls-9{fill:#a0a0a0;}.cls-10{fill:#a4a4a4;}.cls-11{fill:#a7a7a7;}.cls-12{fill:#9a9a9a;}.cls-13{fill:#b1b1b1;}.cls-14{fill:#9e9e9e;}.cls-15{fill:#fefefe;}.cls-16{fill:#636363;}.cls-17{fill:#747474;}.cls-18{fill:#6c6c6c;}.cls-19{fill:#646464;}.cls-20{fill:#6b6b6b;}.cls-21{fill:#666;}.cls-22{fill:#6e6e6e;}.cls-23{fill:#848484;}.cls-24{fill:#828282;}.cls-25{fill:#fafafa;}.cls-26{fill:#fbfbfb;}.cls-27{fill:#878787;}.cls-28{fill:#e3e3e3;}.cls-29{fill:#dedede;}.cls-30{fill:#d3d3d3;}.cls-31{fill:#e4e4e4;}.cls-32{fill:#b9b9b9;}.cls-33{fill:#b3b3b3;}.cls-34{fill:#d2d2d2;}.cls-35{fill:#cfcfcf;}.cls-36{fill:#adadad;}.cls-37{fill:#c7c7c7;}.cls-38{fill:#bababa;}.cls-39{fill:#b8b8b8;}.cls-40{fill:#9f9f9f;}.cls-41{fill:#eee;}.cls-42{fill:#c4c4c4;}.cls-43{fill:#afafaf;}.cls-44{fill:#bcbcbc;}.cls-45{fill:#c8c8c8;}.cls-46{fill:#f8f8f8;}.cls-47{fill:#f9f9f9;}.cls-48{fill:#f6f6f6;}.cls-49{fill:#f7f7f7;}.cls-50{fill:#f5f5f5;}.cls-51{fill:#f4f4f4;}.cls-52{fill:#f3f3f3;}.cls-53{fill:#f0f0f0;}.cls-54{fill:#939393;}</style></defs><title>athens-logo</title><path class="cls-1" d="M122.18,37.87a113.61,113.61,0,0,1,55.34,0c6.88,1.2,13.16,4,19.59,6.88a3.13,3.13,0,0,1,.9.6c.6.6.3.9-.3,1-.15,0-.3.15-.6,0-3.29-.6-6.28.9-9.57,1.35,4.64,2.09,9.42,3.29,14.51,1.94,4.19-1.2,6.88,1.65,9.87,3.74.3.15.6.6.45.9s-.75.45-1,.45c-1.94-.3-3.89-.45-5.83-.75a11,11,0,0,0-4.34.3c3.89,2.24,7.93,4,12.27,3.89a12.49,12.49,0,0,1,10,4l6.28,6.28c.3.3.9.9.45,1.35s-1,0-1.5-.3A38.55,38.55,0,0,0,221,65.24a31.76,31.76,0,0,0-4.94-1.65c3,2.69,5.24,5.38,8.08,7.78a9.42,9.42,0,0,0,7,2.39,4.92,4.92,0,0,1,5.24,2.54c1,1.5,2.24,2.84,3.29,4.34.45.6,1.2,1.2.75,1.79s-1.35,0-1.94-.3a8.88,8.88,0,0,1-1.2-.6,15.17,15.17,0,0,0-8.83-2.09,20.46,20.46,0,0,1-4.34-.3,13.63,13.63,0,0,1,4.34,1.5,29.58,29.58,0,0,0,7.18,2.69,5.79,5.79,0,0,0,4.19-.15,1.28,1.28,0,0,1,1.79.45c3,4.34,5.83,8.53,7.63,13.61,0,.3-.15.45-.6.6a14.84,14.84,0,0,1-3.89-3.59,26.21,26.21,0,0,0-3.44-3.59,8,8,0,0,0-7-1.94c-1.2.15-1.5.75-.75,1.65A10.55,10.55,0,0,0,238.85,95c3.14,1.2,6.28,2.54,9.57,3.59a4.94,4.94,0,0,1,3.29,3.14c1.35,3.74,3.14,7.48,4.19,11.52.15.6.6,1.35,0,1.65s-1-.3-1.5-.75a8.3,8.3,0,0,1-2.54-3.44c-1.35-3.74-4-5.83-7.48-7.18A18.91,18.91,0,0,1,237.5,99a10.81,10.81,0,0,0,3.44,4.64,40.8,40.8,0,0,1,7,7.33,7.44,7.44,0,0,0,4.34,3c3.59.9,5.38,3.29,5.83,6.88.15,1.2.45,2.39.6,3.59,0,.45.15,1-.45,1.2s-.9-.3-1.2-.75a11.74,11.74,0,0,0-3.59-3.59,9.29,9.29,0,0,0-4.34-1.35c2.09,4.19,4,7.93,8.83,8.83a1.93,1.93,0,0,1,1.79,1.79c.3,3,.9,6,.9,9,0,.6.15,1.35-.6,1.5s-.9-.6-1-1a23.28,23.28,0,0,0-9.42-8.83,25.26,25.26,0,0,0,3.14,6.73c1.2,1.5,2.84,2.09,4.49,2.84,3.89,1.65,3.89,1.65,3.89,6,0,2.39-.45,4.79-.45,7.18,0,.45,0,1.2-.75,1.35s-.9-.3-1.2-.75c-1.35-1.79-2.54-3.59-3.89-5.38a9.15,9.15,0,0,0-6.28-3.89c2.54,3.59,4.94,7.18,5.24,11.82a3.31,3.31,0,0,0,1.94,2.84c.6.45,1.35.9,1.94,1.35a4.34,4.34,0,0,1,1.5,4.34c-.6,3.59-1.5,7-2.39,10.47a7.51,7.51,0,0,1-.75,1.94c-.15.3-.3.6-.6.6s-.6-.45-.6-.75l-.45-2.24c-.45-2.84-.9-5.53-2.54-7.93a9.42,9.42,0,0,1-1.35-3.59,7.63,7.63,0,0,0-2.09-3.89c-1,6.28,1.2,15.86,4.79,20.94a3.88,3.88,0,0,1,.6,4.19c-.9,2.09-1.65,4-2.54,6.13-.3.6-.45,1.5-1.5,1.65-.15-.15-.3-.3-.3-.45.3-2.84.45-5.68-1-8.23-.15-.3-.15-.6-.6-.75a7.34,7.34,0,0,0-1.65,5.24c.15,3,.9,6,1,9.12a4.3,4.3,0,0,1-.45,2.39A100.87,100.87,0,0,1,238.55,213c-.45.6-.9,1.5-1.65,1.2s-.15-1.35,0-1.94a49.18,49.18,0,0,0,3.59-13.76c.15-2.39-.45-4.79-.3-7.18a19.65,19.65,0,0,1-2.39,6.43,57.39,57.39,0,0,1-2.69,5.24,15.27,15.27,0,0,0-1.5,12.71,4.43,4.43,0,0,1-.9,4.64c-1.5,1.65-3.14,3.29-4.79,4.94-.45.45-.9,1-1.5.6s-.15-1,0-1.65a19,19,0,0,0-.15-8.68,8.8,8.8,0,0,0-3.44,6.73,21.65,21.65,0,0,0,.15,5.38,3.54,3.54,0,0,1-.75,3,56.16,56.16,0,0,1-6.58,5.24,1.16,1.16,0,0,1-1.2.3c-.45-.3-.15-.75,0-1.2,2.39-5.24,1.5-10.77,1.65-16.3a28.46,28.46,0,0,0-5.53,16.75v.15c1,3.44-.9,5.09-3.59,6.43-2.09,1-4.19,2.39-6.28,3.44a3.52,3.52,0,0,1-2.39.75c-.3,0-.45-.15-.6-.45a8.56,8.56,0,0,1,3.89-3,9,9,0,0,0,4.94-6.43c.15-.45.6-.9,0-1.35s-.9,0-1.35.15a18.5,18.5,0,0,0-8.38,6.73c-1.35,1.94-2.69,3.74-3.89,5.83a5.67,5.67,0,0,1-3.44,2.69c-1,.45-2.09.75-3.14,1.2-.45.15-.9.15-1-.3a.72.72,0,0,1,.3-.9c1.35-1.35,2.39-2.84,3.74-4.19a44.46,44.46,0,0,0,5.68-7.18c1.79-3.14,2.39-6.58,2.84-10.17a22.89,22.89,0,0,1-7.93,9.72,13.6,13.6,0,0,0-4.94,7.93c-1,5.09-3.89,7.78-9,8.23a21.18,21.18,0,0,1-3,.6c-.3,0-.75,0-.9-.45s.15-.45.45-.75l.15-.15c4.94-3,7.33-7.93,10.17-12.56.6-1,1.2-1.94,1.79-2.84,0-.15.3-.3.3-.45,0,.15-.15.3-.3.45a38.12,38.12,0,0,1-6.43,4.49,13.57,13.57,0,0,0-7,7.63c-.15.45-.3.75-.45,1.2-1.94,5.38-2.39,4.49-7.93,5.38-.45,0-1,0-1.2-.45s.3-.9.6-1.2a11.9,11.9,0,0,0,3-8.23c0-2.09-.9-2.84-3-2.39-3.59.6-6.13,2.84-8.08,5.83a16,16,0,0,0-1.94,4.64A2.28,2.28,0,0,1,150,257.3a2.25,2.25,0,0,1-2.24-1.65c-1.35-4.34-3.74-7.93-8.08-9.87-.45-.15-.75-.45-1.2-.45-2.84-.6-4.34,0-4,3a13.09,13.09,0,0,0,2.84,7.33c.3.45.9.75.6,1.35s-.9.45-1.5.45a25,25,0,0,1-4.64-.75c-1.5-.3-1.94-1.65-2.54-2.84a30.59,30.59,0,0,0-1.94-4.64,14.45,14.45,0,0,0-5.53-5.68,30,30,0,0,1-6.88-4.79c1.79,3,3.44,5.68,5.09,8.53a15.46,15.46,0,0,0,4.94,5.38,5.86,5.86,0,0,1,1.5,1.2c.3.3.9.6.75,1.2s-.9.45-1.5.45c-.3,0-.75-.15-1-.15a13.06,13.06,0,0,0-3.29-.75c-3.59-.45-5.24-2.69-6.28-5.83l-.45-1.79a15.34,15.34,0,0,0-6.28-9,21.63,21.63,0,0,1-6.73-8.53,22,22,0,0,0,2.84,10,56.47,56.47,0,0,0,6.43,8.08l2.54,3c.15.3.45.6.3.9s-.6.3-.9.15c-2.84-.9-5.53-1.5-7.18-4.49a32.69,32.69,0,0,0-6.43-8.68,16.24,16.24,0,0,0-6.88-3.74c.45,3.14,1.65,5.83,4.49,7.63a21,21,0,0,1,5.24,3.74c0,.3-.3.45-.6.6-1.79-.15-3.29-1.5-4.94-2.24-2.09-1-4-2.24-6.13-3.44a4.06,4.06,0,0,1-2.09-3.89,29.37,29.37,0,0,0-.9-9.57A40.93,40.93,0,0,0,83.14,219c-.75,5.68-.6,11.07,1.5,16.15.15.3.45.75,0,1.2s-.75,0-1.2-.15a63.6,63.6,0,0,1-7-5.53,2.87,2.87,0,0,1-.6-2.69,15.27,15.27,0,0,0,0-6.88,11.21,11.21,0,0,0-3.29-5.53c-.45,2.39-.9,4.64-.45,6.88a6,6,0,0,1,.3,2.84,1.17,1.17,0,0,1-.6.6c-1.79-.45-2.69-2.09-3.89-3.29-2.84-2.39-3.59-4.94-2.39-8.68,1.2-3.44.15-6.88-1.5-10s-3.29-5.68-4.49-8.83a21.81,21.81,0,0,1-1-2.84,34.19,34.19,0,0,0,2.84,19.3c.3.75,1.2,1.94.3,2.39s-1.5-.75-1.94-1.5A114.54,114.54,0,0,1,52.77,202a8.48,8.48,0,0,1-1-6l.9-5.83a7.83,7.83,0,0,0-1.79-6.43c-1.2,2.69-2.24,5.24-1.35,8.23.15.6.6,1.65-.15,1.94s-1-.75-1.2-1.35c-1-2.39-2.09-4.79-3-7.18a3.51,3.51,0,0,1,.45-3.59,28.31,28.31,0,0,0,4.94-15c.15-2.09.15-4.34.3-6.58a9.41,9.41,0,0,0-2.39,4.49,19.4,19.4,0,0,1-2.09,4.79C45,171.59,45,174,44.55,176.38c-.15.9,0,2.39-.9,2.39s-1-1.35-1.35-2.24c-.9-3.44-1.65-7-2.39-10.47-.45-2.24.15-3.89,1.94-4.94,2.54-1.35,3.44-3.29,3.74-6,.45-3.59,2.84-6.43,4.49-9.57a7.7,7.7,0,0,0-4.34,1.94A30.75,30.75,0,0,0,41.41,153a9.08,9.08,0,0,1-1,1.5c-.3.3-.6.75-1.2.75s-.6-.75-.75-1.2c-.6-2.39-.15-4.94-.3-7.33-.3-3,.45-4.94,3.59-5.83a8.74,8.74,0,0,0,6.43-6.58,18.62,18.62,0,0,1,1.5-3,25.51,25.51,0,0,0-9.27,8.23c-.45.75-.9,2.09-1.79,1.65s-.3-1.65-.3-2.54a65.83,65.83,0,0,1,.75-7.63A2.37,2.37,0,0,1,41,129c4.64-1,6.88-4.34,8.53-8.83a10.16,10.16,0,0,0-6.73,3.74c-.6.6-.9,1.5-1.65,1.79-.45,0-.6-.3-.75-.6A25.71,25.71,0,0,1,42,117.45a2.79,2.79,0,0,1,1.79-1.65,19.81,19.81,0,0,0,10-7.78c1.5-2.24,4-3.59,5.83-5.53a9.58,9.58,0,0,0,1.94-2.84,22.67,22.67,0,0,1-7.48,4.49,11,11,0,0,0-6.43,6,12.38,12.38,0,0,1-2.54,4c-.45.45-1,1-1.65.6s-.3-1-.15-1.65a111.8,111.8,0,0,1,4.34-11.82A4.4,4.4,0,0,1,50.08,99c3.44-1.2,6.88-2.54,10.17-3.89a9.65,9.65,0,0,0,5.24-4.79c.6-1.2.45-1.5-.9-1.79-3.74-.6-6.58,1.2-9,3.89-1.2,1.5-2.69,2.84-3.89,4.34a1.33,1.33,0,0,1-1.2.75c-.3,0-.45-.3-.6-.6a2.53,2.53,0,0,1,.45-1.5,89.28,89.28,0,0,1,6.28-10.92,2.24,2.24,0,0,1,3-1c1.65.6,3.14,0,4.79-.3a44.35,44.35,0,0,0,7.33-3,9.9,9.9,0,0,1,3.29-.9,29.26,29.26,0,0,1-5.24.15,12.86,12.86,0,0,0-7,1.65L60.1,82.44c-.45.15-.75.45-1.2,0s-.15-.75.15-1.2a56.16,56.16,0,0,1,5.24-6.58,2.32,2.32,0,0,1,2.09-.75c5.68,1,9.12-2.39,12.71-5.83,1.5-1.35,2.39-3.14,4.19-4.34a35.77,35.77,0,0,0-11.82,5.53c-.6.45-1.2,1-2.09.9a.55.55,0,0,1-.15-.45c1.2-2.24,3.14-3.74,4.94-5.38,1.5-1.5,3.29-2.84,4.79-4.19a5.27,5.27,0,0,1,4-1.5,26.49,26.49,0,0,0,15.26-3.89,5.39,5.39,0,0,0-3.89-.9c-1.94.3-3.89.45-5.83.75-.6.15-1.35.15-1.5-.45s.45-.9.9-1.2c1.5-1,3.14-2.09,4.79-3.14A4.93,4.93,0,0,1,97,49.69c5.24,1.35,10,.15,14.81-1.94-2.09-.15-4-.9-6-1.2a13.24,13.24,0,0,0-3.44,0c-.6,0-1.35.15-1.5-.6s.6-.75,1-1q4.26-2,8.53-3.59A54.78,54.78,0,0,1,122.18,37.87Z" transform="translate(-26 -31.44)"/><path class="cls-2" d="M72.52,224.84a18.38,18.38,0,0,1,.15-10.62A12.34,12.34,0,0,1,76.86,221a14,14,0,0,1-.15,7,2.13,2.13,0,0,0,.75,2.39c2.39,1.94,4.79,3.74,7.48,6-2.84-6.28-2.54-12.41-1.94-19,2.54,4,4.79,7.78,5.68,12.27a48.65,48.65,0,0,1,.3,8.08,2.34,2.34,0,0,0,1.2,2.24,121,121,0,0,0,11.37,6.28.28.28,0,0,0,.45,0c.15-.15,0-.3,0-.45l-6.28-4c-2.84-1.79-2.84-5.09-4.19-7.93a14.11,14.11,0,0,1,7.78,3.74,38.9,38.9,0,0,1,7,9.27,6.42,6.42,0,0,0,3.44,3.14c1.35.45,2.54.9,4.34,1.5-2.09-2.39-3.89-4.49-5.68-6.43-3.59-3.74-6.13-7.93-6.88-13-.15-1.35-.3-2.84-.6-4.64,1.35,1.2,1.5,2.54,2.09,3.74a19.43,19.43,0,0,0,5.68,6.43c3.59,2.39,5.53,6,6.58,10l.45,1.35c.9,2.54,2.24,4.49,5.24,4.94,1.94.3,3.89,1.2,6,1-6.88-3.74-9.12-11.07-13-17.05a4.93,4.93,0,0,1,1.94,1,26.67,26.67,0,0,0,5.38,3.74,15.08,15.08,0,0,1,7.63,8.68c.15.6.45,1,.6,1.65A4.12,4.12,0,0,0,134,256.4c1.2,0,2.39.75,3.89.15a11.46,11.46,0,0,1-3.59-6.88,9.68,9.68,0,0,1-.15-3.59c.15-1.79,2.24-2.69,4.64-1.79a14.45,14.45,0,0,1,8.53,8.23c.3.75.6,1.5.9,2.39a1.8,1.8,0,0,0,1.94,1.5c1.2,0,1.35-.6,1.65-1.5,1.35-4.49,3.89-8.08,8.23-10a7.17,7.17,0,0,1,2.54-.75c2.39-.15,3.14.6,3.14,3a12.62,12.62,0,0,1-3.74,9.42c3.89.9,7-.6,8.23-4.19a16.19,16.19,0,0,1,9.27-10.47c1.94-.9,3.44-2.54,5.24-3.74q.45-.22.45.45c-3.59,5.83-6.13,12.56-12.71,16.3a24.77,24.77,0,0,0,8.83-2.24c1.5-.75,1.94-2.39,2.39-3.89.9-3.14,1.94-6.28,4.19-8.83a14,14,0,0,1,2.69-2.39,22.13,22.13,0,0,0,7-9.12,3.13,3.13,0,0,1,.6-.9,22.08,22.08,0,0,1-3.74,13c-2.54,3.74-6,6.88-8.68,10.62,1.94-.75,4-1.2,5.68-2.24,1.35-.75,1.79-2.54,2.69-3.89,2.69-4,5.24-8.23,10.17-10.17.15,0,.15-.15.3-.15.9-.3,1.94-1.2,2.69-.45s-.3,1.65-.45,2.39c-.45,2.84-2.09,4.64-4.64,6-1.5.9-2.84,1.79-4.34,2.84a1.17,1.17,0,0,1-.6.6c-.15.15,0,.15.15.15.15-.45.6-.15.9-.45,4-1.65,7.63-4,11.37-6.28a1.31,1.31,0,0,0,.75-1.5c-1-6.88,1-13,4.64-18.85l.9-1.35a1.16,1.16,0,0,0,.45-.15c.15,6.28,1,12.41-1.94,18.55a64.38,64.38,0,0,0,7.63-6,2.61,2.61,0,0,0,.45-2.54c-.45-3.14-.6-6.28.9-9.27a10.82,10.82,0,0,1,2.54-3.29c.6-.6,1-.6,1,.45.45,3.44.9,6.73-.45,10.17a45.53,45.53,0,0,0,7-7.18c.45-.6,0-1.35-.15-1.94a16.35,16.35,0,0,1,.75-12.71c1.35-2.84,3-5.53,4.34-8.23.75-1.65,1.35-3.44,2.09-5.24a30.08,30.08,0,0,1,.15,12.12c-.6,4-2.39,7.63-3.44,11.37a94.09,94.09,0,0,0,7.18-10c.75-1.2,1.5-2.39,2.24-3.74,1-1.79.15-3.59,0-5.38-.15-2.09-.6-4.19-.75-6.43s1.2-4,2.24-6.13c1.94,3.44,2.84,6.73,1.79,10.47-.3.45,0,.9-.3,1.35l-.15.15c.45-.3.3-.75.6-1,1.79-2.84,2.69-6.13,4-9.27.3-.6-.15-1-.45-1.35-3.59-5.38-5.68-11.22-5.38-17.8.15-1.79-.6-3.44-.3-5.38,3,1.94,7,12.27,7.63,19.45,1.2-2.24,1.5-4.49,2.09-6.58s.9-4.34,1.5-6.43a3.38,3.38,0,0,0-1.94-4.34c-2.54-1.35-3.29-3.44-3.74-6.13a18.47,18.47,0,0,0-4.94-9.57,3.26,3.26,0,0,1-.6-.75c2.24-.6,5.53.9,7.18,3.14,1.35,1.79,2.54,3.59,3.89,5.38.3.45.75.9,1.5,1.79,0-4.34.6-8.08.45-11.82,0-.75-.6-1-1.2-1.2a38.25,38.25,0,0,0-3.59-1.65,8.08,8.08,0,0,1-4.94-4.94c-.75-1.94-1.65-3.74-2.54-5.53,3,.6,7.93,5.09,11.82,10.77a61,61,0,0,0-.9-10.62c0-.6-.3-1-1.2-1-2.69-.15-4.64-1.79-6.28-3.74a22.37,22.37,0,0,1-3.44-6.13c4.19.15,6,1.35,9.87,6-.3-1.65-.75-3.44-1-5.09-.45-2.84-1.79-4.79-4.64-5.53a10.89,10.89,0,0,1-6.13-4.79,26.25,26.25,0,0,0-5.38-5.38,12.86,12.86,0,0,1-4.64-6.88,53,53,0,0,0,4.79,4c1.65,1,3.44,1.65,5.09,2.54a10.37,10.37,0,0,1,5.53,6c.75,1.94,2.24,3.29,3.89,4.94-1.2-5.24-3.29-9.72-5.09-14.21A3.09,3.09,0,0,0,249,99.5c-3.44-1.35-6.88-2.69-10.32-3.89-2.84-1-4.34-3.29-5.68-5.68-.45-.75-.15-1,.6-1.2a8.5,8.5,0,0,1,8.53,1.94c2.39,2.39,4.64,4.94,7,7.48a.28.28,0,0,0,.45,0v-.3a82.49,82.49,0,0,0-7.33-12.71c-.45-.75-.75-1.2-2.09-.75-2.84,1-5.38-.3-8.08-1.2-3-1-5.53-3-8.83-3.59,3,0,6-.15,9,.15S237.65,82,240.64,83a65.86,65.86,0,0,0-5.83-7.78c-.45-.6-1-.45-1.65-.3-4.94.75-8.68-1.5-11.82-4.94l-5.68-6.13c5.24.75,9.87,3.74,14.51,6.73A95.45,95.45,0,0,0,219,59.86c-.75-.6-1.65-.3-2.39-.3-6,.3-11.22-1.5-16.45-4.49a9.69,9.69,0,0,1,6.13-.6c1.94.45,4,.45,6.58.75A43,43,0,0,0,206.24,51c-1.2-.6-2.54-.15-3.89.15-5.53,1.5-10.62-.15-15.71-2.39,1.35-.75,2.54-.6,3.74-1l4-.9c1.35-.3,2.54.6,4,0a51.07,51.07,0,0,0-9.42-4c-3.74-1.35-7.48-2.54-11.37-3.89,1.35-.3,2.54-.45,4-.75a17.21,17.21,0,0,1-3-6.73,16.45,16.45,0,0,0,4.94,1.79,7.27,7.27,0,0,1,5.09,5.09c1,3,3.44,3.59,6.28,4.49-.6-1.94-1.94-3.14-2.69-4.94,4.49,1.65,8.68,3.59,10.77,7.78,1.5,2.84,4.19,3.44,6.58,4.79-1.79-3.89-3.44-7.78-2.54-12.41,1.5,3,4.34,4.64,5.09,7.78a6.66,6.66,0,0,1-.15,4.19,2,2,0,0,0,1,3c.9.45,1.65,1,2.84,1.79a14.16,14.16,0,0,1-.6-5.38c0-.3,0-.75.3-.9s.6.15.9.45c2.54,2.54,4.79,5.24,4.64,9.12a1.42,1.42,0,0,0,.3,1c1.79,1.65,3.74,3.14,5.68,4.64-1.79-5.24-4-10.17-3.89-16.15,2.09,3.74,4.79,6.73,6.73,10.32a10,10,0,0,1,1.2,8.23,2.57,2.57,0,0,0,.9,3.14c1.5,1.5,2.84,3,4.49,4.49-.3-4.34-1.35-8.68-1-13.31A14.52,14.52,0,0,1,240,68.83a12.86,12.86,0,0,1-.6,6.73,2.51,2.51,0,0,0,.6,3,14.25,14.25,0,0,0,2.54,3,41.19,41.19,0,0,1,1.5-12.27,2.38,2.38,0,0,1,1.35,1.35c3.44,4.94,3.74,10.17,1.35,15.71a2.78,2.78,0,0,0,.15,2.84c1.2,1.79,2.09,3.74,3.14,5.53.3.3.6.45.6.75a.67.67,0,0,1,0-.75c-.75-3.44-.6-6.88-.75-10.77,2.69,3.44,4.49,6.88,4.79,10.77a25.35,25.35,0,0,1,0,5.83c-.6,3.74,1,6.88,2.39,10.62.6-3.59,1.79-6.28,4.64-8.38.75,4.94,1.35,9.42-2.39,13.16a1.13,1.13,0,0,0-.45,1.2c.9,3.59,1.65,7.18,2.84,10.92a33,33,0,0,1,7.78-15.86,19.9,19.9,0,0,1-3,12.86c-1.2,1.79-2.54,3.59-3.89,5.38a2.66,2.66,0,0,0-.6,1.5c.3,3.44.6,6.88,1.2,10.47a38.73,38.73,0,0,1,4.79-6.28,58.83,58.83,0,0,0,6-6.13,23.53,23.53,0,0,1-1.79,9.42,23.23,23.23,0,0,1-8.08,9.72,2.64,2.64,0,0,0-1.2,2.24c-.15,3-.45,6-.6,9.27a63.19,63.19,0,0,0,9.27-8.68c-.15,2.54-1,4.49-1.5,6.43-1.2,4.64-3.29,8.83-7,11.82-3.29,2.54-3.89,6-4.64,9.72v.45a.55.55,0,0,1-.15.45c.15-.3.6-.6.9-.9,3.29-4,7.93-6.13,12.56-8.23.45-.15.75-.3.75.45-1.35,2.24-2.69,4.49-4.19,6.73-2.54,3.89-5.83,6.73-10.47,7.48a3.06,3.06,0,0,0-2.54,2.24c-.45,1.35-1,2.84-1.65,4.19.6.45,1-.15,1.65-.3,3.14-1.35,6.43-2.84,9.87-3.29,2.69-.45,5.09.45,7.48,2.54-1.65.15-2.84.3-4.19.45-2.69.6-5.38,1.65-7.18,3.74-2.39,2.84-5.53,3.59-9,3.44a2.34,2.34,0,0,0-2.69,1.5c-.6,1.5-1.5,2.84-2.24,4.34-.15.3,0,.9-.45.9-.3.3.15.3,0,.15a.46.46,0,0,1,.15-.3,1.27,1.27,0,0,1,.75-.45,29.4,29.4,0,0,1,12-4.64c-3.89,4.79-7.33,10-14.51,9.87a3.21,3.21,0,0,0-2.84,1.65c-1.5,2.09-3.14,4.19-4.79,6.28-.3.45-.75.75-.6,1.35.75.15,1.2-.3,1.79-.6l10.77-4.94a14.71,14.71,0,0,1,6.28-1.2,1.24,1.24,0,0,1,1.2.45c.3.6-.3.6-.6.9a51.87,51.87,0,0,0-4.34,3.74c-1.79,1.94-4.49,2.24-6.88,2.69a67.65,67.65,0,0,1-9.42,1.2,2.72,2.72,0,0,0-2.09.9c-1.5,1.65-3,3.14-4.64,4.79-.15.15-.15.3-.3.45.15.15.45,0,.6,0,4-2.24,8.23-2.09,12.56-.15a14.62,14.62,0,0,1-5.24,2.24c-4.49,1.2-9,2.39-13.46,3.44a4.71,4.71,0,0,0-2.24,1.2c-1.65,1.35-3.44,2.69-5.53,4.34,3.74-.15,6.73.6,9.87-.75a15.72,15.72,0,0,1,10.47-.45c-4.49.6-8.23,2.69-12,5.09a12,12,0,0,1-8.53,1.65c-4-.6-8.08-.6-11.82,1.65-2.54,1.65-5.24,2.69-7.93,4.34a55.57,55.57,0,0,1,19,4.19c-2.54,0-5.09.3-6.88,2.09a8.82,8.82,0,0,1-3.29,1.79,9.49,9.49,0,0,1-6.73-.15c-3.59-1.35-7-2.54-10.62-3.89a4.51,4.51,0,0,0-3.14-.15,81.14,81.14,0,0,1-10.77,2.84,2.27,2.27,0,0,1-1.94.45c.6.15,1.35-.3,1.94.15,4.34-.15,8.38,1.5,12,3.74a71.19,71.19,0,0,0,7.33,4.19,11.29,11.29,0,0,1,2.09,1.65c-5.24-1.35-10.62-1-15.86-.9a4.92,4.92,0,0,1-2.39-1,54.39,54.39,0,0,1-7.18-6,3.86,3.86,0,0,0-3.29-1,60.83,60.83,0,0,1-9.12.9,3.8,3.8,0,0,0-2.09.45c2.69,2.24,3.89,5.24,4.94,8.53a9.28,9.28,0,0,0,5.68,6.13c-.6.75-1,1.5-1.65,2.24-1,1.65-1.35,1.79-2.84.3-1.94-1.79-2.84-4.34-3.74-6.73-1.2-2.84-1.94-5.83-3.74-8.53-.6-.9-1.2-1.5-2.24-.9a1.31,1.31,0,0,1-1,.15c-2.09-.9-2.69.6-3.44,1.94-1.65,2.84-2.54,6.13-3.89,9.27a12.53,12.53,0,0,1-3.74,5.38c-.75.6-1.35.75-1.94-.3a28.06,28.06,0,0,0-1.79-2.69c3.59-1.35,5.24-4.19,6.13-7.78a12.72,12.72,0,0,1,4.64-7c-2.69-.3-5.09-.45-7.33-.6a2.92,2.92,0,0,1-1.2-.15c-3.59-1.2-6.28-.15-8.53,2.69a10.88,10.88,0,0,1-1.35,1.2c-2.84,2.84-6.13,4.34-10.32,3.74-3.29-.45-6.73.15-10,.75-.45.15-.9.15-.9-.45,5.68-3.14,10.77-7.63,17.5-8.68,1-.15,1.94-.15,3-.3.75-.6,1.5,0,2.39-.15-.9-.15-1.79,0-2.39-.6-3.74-.9-7.48-1.79-11.07-3a3.27,3.27,0,0,0-2.39.15c-3.59,1.35-7.18,3-10.92,4s-6.88.75-9.87-1.79c-1.94-1.65-4.34-1.94-6.73-1.94a52.1,52.1,0,0,1,19-4c-.15-.75-.75-.75-1-1a57.39,57.39,0,0,1-5.24-2.69c-4.64-3.14-9.72-3.44-15.11-2.39a9.83,9.83,0,0,1-7-1.79c-3.59-2.39-7.18-4.34-11.82-4.94,1.94-1,6-1,9.27-.15,1.79.45,3.44,1.65,5.24,1.5l5.53-.45c-3-1.79-4.94-4.79-8.53-5.68-5.24-1.35-10.47-2.39-15.56-4.19-.6-.3-1.2-.6-1.94-.9,2.69-2.09,7.18-2.24,11.82-.45.15,0,.45.15.6,0-.15-.15-.15-.3-.3-.45-1.5-1.65-3-3.14-4.34-4.79a2.68,2.68,0,0,0-2.09-.6,72.75,72.75,0,0,1-12.71-2.09,8.13,8.13,0,0,1-3.89-2.39,21.84,21.84,0,0,0-4.94-3.89,10.21,10.21,0,0,1,7.33.45c4,1.65,7.93,3.44,11.82,5.24a2,2,0,0,0,1.94.45c-.9-1.2-1.79-2.09-2.54-3.29a28.76,28.76,0,0,1-1.94-2.54c-1.35-2.69-3.44-3.59-6.28-3.59A9.62,9.62,0,0,1,46.19,207c-1.79-1.79-3.44-3.74-5.09-5.53.15-.9.75-.6,1.2-.45,3.74,1,7.63,2.09,10.62,4.79a10.2,10.2,0,0,1,1,.75,1.79,1.79,0,0,1-.6-1.2c-.9-1.79-1.94-3.59-2.84-5.38a1.23,1.23,0,0,0-1.5-.75H46.34a7.44,7.44,0,0,1-6.13-2.54,15.85,15.85,0,0,0-11.52-5.09c-.15,0-.3-.15-.75-.3a9.17,9.17,0,0,1,9.42-1.94,53.6,53.6,0,0,1,9.42,3.74c-.9-2.39-1.65-4.19-2.54-6.13-.3-.6-1-.6-1.65-.75-5.09-.9-8.53-4-11.22-8.23-1.5-2.39-2.69-5.09-4.64-7.18,5.38,2.54,10.77,4.64,14.66,9.42.15.15.3.45.6.6-.15-.15-.45-.45-.15-.75-.6-1.94-1-4-1.65-6a3.57,3.57,0,0,0-.9-1.65,5.16,5.16,0,0,0-1.35-1.2c-5.83-4.64-7.93-11.07-9.42-17.95-.15-.3-.3-.75.3-.75a68.8,68.8,0,0,0,8.38,7.78c.6-.3.3-.75.3-1-.15-2.54-.45-5.09-.6-7.63a2.9,2.9,0,0,0-1.5-2.54A21.85,21.85,0,0,1,26,132.7v-1.5c0-.15.15-.15.3-.45,3.59,3.89,7.93,7,10.62,12a42.55,42.55,0,0,1,.75-7.63c.6-2.69-.3-4.64-2.09-6.58A21.44,21.44,0,0,1,30,113.71v-.9a.46.46,0,0,0,.3-.15c3.89,4.64,6.73,9.87,7.33,16.15.75-.3.6-.75.75-1.2a3.72,3.72,0,0,0,.15-1.2c.6-2.69,1.2-5.53,1.79-8.23.15-.75.3-1.5-.45-2.09-2.69-2.54-3.14-5.83-3-9.27a1.35,1.35,0,0,1,.15-.75c.3-.9-.3-2.54.75-2.69s1.65,1.2,2.24,2.09a8.91,8.91,0,0,1,1.79,4.79c.15.3.45.3.75,0a19.86,19.86,0,0,0,1.94-10.62,18.54,18.54,0,0,1,4.19-14.81c1,1,.45,2.24.45,3.29a46.49,46.49,0,0,1-.45,6.43c.3.6-.3,1-.15,1.5a1.65,1.65,0,0,1,.9-1.5,45,45,0,0,1,3-5.09,3,3,0,0,0,.15-3c-2.39-5.83-1.94-11.37,1.94-16.3a1.49,1.49,0,0,1,.6-.75c1.65,4,1.79,8.08,1.65,12.27,2.69-1.79,3.59-4,3-6.58-1.35-5.38.15-10,4-14.36.45,4.79-.6,9.12-1,13.76,1.79-2.09,3.74-4,5.53-6.13.3-.3.15-.75,0-1.2-1.2-3.89-.15-7.33,2.09-10.62C72.22,53.88,74,51.33,76,48.49a15.51,15.51,0,0,1-.45,6,63.81,63.81,0,0,1-3.14,9q-.22.67.45.45c1.65-1.35,3.29-2.69,4.94-4.19a1.51,1.51,0,0,0,.6-1c-.15-4.34,2.54-7.33,5.38-10.32.9,2.24.45,4.19-.15,6.43a12.53,12.53,0,0,0,3.89-2.54c.6-.45.15-1,0-1.5a7.87,7.87,0,0,1,1.94-8.68,40.6,40.6,0,0,0,2.84-3.74,18.46,18.46,0,0,1-.45,6.43c-.45,2.09-1.79,3.89-2.39,6.43,2.69-1.94,5.53-2.69,7-5.68,1.94-3.74,5.53-5.38,9.27-6.88.45-.15.75-.3.75.45-.75,1.2-1.5,2.39-2.24,3.74,2.24.15,4.94-1.35,5.68-3.29,1.5-3.44,3.74-6.13,7.78-6.58a14.55,14.55,0,0,0,2.84-1.2,13.4,13.4,0,0,1-3,6.43,13.1,13.1,0,0,0,4.19.9c-3.29,1.35-6.88,2.09-10.17,3.44a96.21,96.21,0,0,0-10.62,4.79c4-.75,7.78.9,12,1.65-4.94,2.24-9.42,3.89-14.51,2.84-1.5-.3-3.14-.3-4.64-.6a1.63,1.63,0,0,0-.75.15,55.32,55.32,0,0,0-6.58,4.34c4.34-.15,8.23-1.94,12.71-.15-3.74,1.79-7,3.59-10.92,4a32.36,32.36,0,0,1-6.58.3c-1.94,0-2.84,1.5-4,2.39a66.57,66.57,0,0,0-8.83,8.38c0,.15-.3.3,0,.45,3.44-2.24,6.73-4.49,10.62-5.83a11.71,11.71,0,0,1,4.64-1c-3.14,2.54-5.38,5.68-8.23,8.08-2.39,1.94-4.64,3.59-7.93,3.14A4.82,4.82,0,0,0,62.5,78c-1.2,1.94-2.69,3.59-3.89,5.53C64,79.75,70,79.75,76,80.2c-3.59.45-6.43,2.69-9.87,3.74-2.54.75-5.09,1.94-7.93.6-.75-.3-.9.45-1.35.9a92.46,92.46,0,0,0-7.18,12.41c-.15.45-.15.6.45.3,1.5-1.65,3-3.14,4.34-4.79,2.54-3,5.53-5.09,9.72-4.64,2.24.3,2.24.6,1.35,2.39-1.94,3.89-5.68,5.09-9.27,6.43-2.24.9-4.64,1.79-6.88,2.54a1.9,1.9,0,0,0-1.35,1,119.3,119.3,0,0,0-5.24,14.06c2.24-1,3-2.69,3.74-4.34,1.35-2.84,3.14-5.24,6.13-6.43a26.67,26.67,0,0,0,9.12-5.68,4.86,4.86,0,0,1-1.5,3.59c-1,1-1.94,2.09-3,3a32.57,32.57,0,0,0-6.43,7.18,6.65,6.65,0,0,1-3.89,2.39c-3.29,1-5.53,2.84-5.68,6.58,0,1.2-.45,2.39-.6,3.74-.15.45-.3.75.3.75,1.94-3.59,5.09-5.38,9.42-6.13-2.09,4.79-4.19,9.12-9.72,10a1.29,1.29,0,0,0-1.2,1.2c-.3,3.44-.75,6.88-.9,10.47,2.84-4.94,7-8.23,12.12-11.07-1.5,3.14-2.54,6.13-4.34,8.83-1.2,1.79-3.74,2.39-5.68,3.14s-2.39,1.5-2.24,3.29c.3,3.29-.3,6.58.6,10,3.59-4.19,5.38-10.17,12.41-10.32a14.35,14.35,0,0,0-2.69,3.44c-1.5,3-3.29,5.83-3.29,9.27a3.25,3.25,0,0,1-2.09,3c-3.14,1.79-3.59,2.69-3,6.13a87.14,87.14,0,0,0,3.14,12.27c.45-2.54.9-4.64,1.2-6.88a7.6,7.6,0,0,1,1.65-3.74c1.2-1.5,1.35-3.44,2.09-5.09a6.79,6.79,0,0,1,3-4c0,7.18-.3,14.21-3.89,20.49a5,5,0,0,1-.45.9c-2.24,1.94-1.5,4-.45,6.28s1.94,4.49,3,6.58c0-1.79-1-3.59-.45-5.53s1.35-3.74,1.94-5.53c3.44,3.29,2.69,7.18,2.09,10.92a20.65,20.65,0,0,0-.45,3,8.3,8.3,0,0,0,1.35,5.53,86.83,86.83,0,0,0,8.23,11.67c-3.14-7.48-4.94-15.11-3.14-23.63.45,1.5.9,2.69,1.35,3.89A49,49,0,0,0,65,203.15a16.64,16.64,0,0,1,1.2,14.06,2.08,2.08,0,0,0,.6,2.54c2.09,1.94,3.59,4.34,5.83,6C72.67,225.44,72.82,225.29,72.52,224.84Z" transform="translate(-26 -31.44)"/><path class="cls-3" d="M49.33,87.08c-.3-1,.3-2.24-.45-3.29.15-.3.3-.45.6-1A10.41,10.41,0,0,1,49.33,87.08Z" transform="translate(-26 -31.44)"/><path class="cls-4" d="M52.92,204.5a22.82,22.82,0,0,1,1.65,2.39l-.3.3-1.79-2.24C52.62,204.65,52.77,204.65,52.92,204.5Z" transform="translate(-26 -31.44)"/><path class="cls-5" d="M247.08,204.5c-.6.6-.75,1.35-1.65,1.94,0-1,.75-1.65,1.2-2.39Z" transform="translate(-26 -31.44)"/><path class="cls-4" d="M126.37,256.85l2.54.45v.3h-2.54Z" transform="translate(-26 -31.44)"/><path class="cls-6" d="M41.71,200.16c-.45.15-.9,0-1.2.45-.45-.3-.9-.45-1.2-1A3.22,3.22,0,0,1,41.71,200.16Z" transform="translate(-26 -31.44)"/><path class="cls-7" d="M258.44,178.92c-.45.6-.75,1.35-1.35,2.09a3.17,3.17,0,0,1,.6-2.09Z" transform="translate(-26 -31.44)"/><path class="cls-8" d="M172.74,257.6h-2.09v-.15c.75-.15,1.5-.3,2.09-.45Z" transform="translate(-26 -31.44)"/><path class="cls-9" d="M49.63,93.51c-.3.45-.45,1-.9,1.65a1.31,1.31,0,0,1,.15-1.65Z" transform="translate(-26 -31.44)"/><path class="cls-5" d="M70.42,226.64a9,9,0,0,1,1.2,1.2c0,.15-.15.15-.15.3a9.08,9.08,0,0,1-1.5-1Z" transform="translate(-26 -31.44)"/><path class="cls-7" d="M228.68,227.54a17.89,17.89,0,0,0-1.79,1.35,2.74,2.74,0,0,1,1.5-1.65A.32.32,0,0,1,228.68,227.54Z" transform="translate(-26 -31.44)"/><path class="cls-5" d="M271.91,171.14c-.15-.3-.45-.3-.75-.45a2.85,2.85,0,0,1,1.5-.75C272.8,170.7,272.21,170.85,271.91,171.14Z" transform="translate(-26 -31.44)"/><path class="cls-10" d="M105.87,266.43a.9.9,0,0,0,.9.45c-.45.45-1,.3-1.65.3C105.13,266.72,105.58,266.58,105.87,266.43Z" transform="translate(-26 -31.44)"/><path class="cls-7" d="M250.52,93.81c.15.45.3,1,.45,1.5-.15,0-.15.15-.3.15a7,7,0,0,1-.75-1.5A.9.9,0,0,1,250.52,93.81Z" transform="translate(-26 -31.44)"/><path class="cls-11" d="M106.77,37.87c-.15-.3-.45-.3-.75-.45.3-.3.9-.75,1.2-.6C107.52,37.27,106.92,37.57,106.77,37.87Z" transform="translate(-26 -31.44)"/><path class="cls-5" d="M73,62.7a6.51,6.51,0,0,0-.9,1,1.66,1.66,0,0,1,.45-1.5Z" transform="translate(-26 -31.44)"/><path class="cls-12" d="M42.75,109.37c0,.3,0,.75-.45.75s-.15-.45-.3-.75C42.3,109.22,42.6,109.37,42.75,109.37Z" transform="translate(-26 -31.44)"/><path class="cls-13" d="M28.69,151.7c-.15.3-.15.45-.3.75-.3-.45-.45-.9-.15-1.2S28.69,151.4,28.69,151.7Z" transform="translate(-26 -31.44)"/><path class="cls-14" d="M41.71,179.22a1.44,1.44,0,0,1,.3,1.2,1.13,1.13,0,0,1-.6-1A.46.46,0,0,0,41.71,179.22Z" transform="translate(-26 -31.44)"/><path class="cls-15" d="M173,86.63A62.55,62.55,0,0,1,192.78,99.8a61.71,61.71,0,0,1,13.31,19.45,8.88,8.88,0,0,0,.6,1.2c1.2,1.2,1.5,2.84,2.09,4.34a62.22,62.22,0,0,1-1,40.69,3.87,3.87,0,0,1-1,1.65A63.05,63.05,0,0,1,192.33,188a64.3,64.3,0,0,1-19.74,12.86,3.81,3.81,0,0,1-1.79,1.2,61.44,61.44,0,0,1-19.45,3.74,65.09,65.09,0,0,1-22.74-3.44,4.77,4.77,0,0,1-2.39-1.35,67.38,67.38,0,0,1-17.8-11.22,63.54,63.54,0,0,1-16-22.59,4.47,4.47,0,0,1-1.5-2.54,61.32,61.32,0,0,1-3.29-26,63.88,63.88,0,0,1,3.44-15.86,4.34,4.34,0,0,1,1.35-2.24,62.4,62.4,0,0,1,33.8-33.8,5.41,5.41,0,0,1,2.69-1.5A69.53,69.53,0,0,1,145.51,82,62.11,62.11,0,0,1,170,85.29,7,7,0,0,1,173,86.63Z" transform="translate(-26 -31.44)"/><path class="cls-2" d="M92.56,120.44a61.49,61.49,0,0,0,0,46.67H61.3c-1.79,0-2.24-.45-2.24-2.24V122.53c0-1.65.3-2.24,2.09-2.24C71.77,120.44,82.24,120.44,92.56,120.44Z" transform="translate(-26 -31.44)"/><path class="cls-2" d="M126.37,200.91a65.59,65.59,0,0,0,16.15,4,62.46,62.46,0,0,0,28.72-3.44c.45-.15,1-.3,1.5-.45v31.41c0,1.5-.3,1.94-1.94,1.94H128.16c-1.35,0-1.79-.3-1.79-1.79C126.52,222,126.37,211.38,126.37,200.91Z" transform="translate(-26 -31.44)"/><path class="cls-2" d="M206.84,167.11a64.3,64.3,0,0,0,4.49-25.43,62.52,62.52,0,0,0-3.89-19.59,5.36,5.36,0,0,0-.6-1.65H238.1c1.65,0,2.54.3,1.94,2.24a3.19,3.19,0,0,0,0,1.2V164c0,3,0,3-3.14,3C226.73,167.11,216.71,167.11,206.84,167.11Z" transform="translate(-26 -31.44)"/><path class="cls-2" d="M173,86.63a69.84,69.84,0,0,0-19.89-4.49,60.86,60.86,0,0,0-24.83,3.74c-.6.15-1.2.45-1.79.6V55.07c0-1.65.45-1.94,1.94-1.94h42.48c1.5,0,1.94.45,1.94,1.94V84.24A3.21,3.21,0,0,0,173,86.63Z" transform="translate(-26 -31.44)"/><path class="cls-16" d="M198.16,245.78a2.84,2.84,0,0,1-1.94.75c.6-.3,1-.75,1.65-1A.32.32,0,0,1,198.16,245.78Z" transform="translate(-26 -31.44)"/><path class="cls-17" d="M185,238.16l-.45-.45a2,2,0,0,1,1.5-1A8,8,0,0,1,185,238.16Z" transform="translate(-26 -31.44)"/><path class="cls-18" d="M249.92,193a2.49,2.49,0,0,1-.6,1.65,2.52,2.52,0,0,1,.6-2.09Z" transform="translate(-26 -31.44)"/><path class="cls-19" d="M50.68,97.1a1.75,1.75,0,0,1-.9.9c-.15-.6.15-.9.6-1.2Z" transform="translate(-26 -31.44)"/><path class="cls-20" d="M102,245.78a1.35,1.35,0,0,1,.9.9c-.6.15-.9-.15-1.2-.6C101.69,245.93,101.84,245.93,102,245.78Z" transform="translate(-26 -31.44)"/><path class="cls-16" d="M72.52,224.84a1.55,1.55,0,0,1,.6,1.2c-.6,0-.75-.45-.9-.75C72.37,225.14,72.52,225,72.52,224.84Z" transform="translate(-26 -31.44)"/><path class="cls-21" d="M69.38,69.88a.86.86,0,0,1-.9.6,1.35,1.35,0,0,1,.9-.9Z" transform="translate(-26 -31.44)"/><path class="cls-16" d="M41.26,125.07c-.15.3-.3.6-.6.45a.93.93,0,0,1,.15-1.2C41,124.63,41,124.92,41.26,125.07Z" transform="translate(-26 -31.44)"/><path class="cls-22" d="M249.17,97.1c.3.3.75.6.3.9s-.6-.3-.75-.6C249,97.4,249,97.25,249.17,97.1Z" transform="translate(-26 -31.44)"/><path class="cls-1" d="M154.34,257.3c-2.54,0-2.84-.45-1.94-1.94,1.5-2.69,2.84-5.38,5.83-6.73,1.2-.45,2.69-1.35,3.89-.15s.3,2.69-.3,3.89C160.17,255.51,156.88,256.4,154.34,257.3Z" transform="translate(-26 -31.44)"/><path class="cls-1" d="M145.66,257.15c-3.89-.6-7.48-2.54-8.68-6.58a2,2,0,0,1,2.24-2.69,8.57,8.57,0,0,1,5.83,3.74c.75,1,1.5,2.24,2.09,3.29C148.06,256.7,147.61,257.3,145.66,257.15Z" transform="translate(-26 -31.44)"/><path class="cls-2" d="M188.14,117.3c-.75-1.79-1.5-3.14-3.74-3-1.5.15-2.54-.9-3.59-1.79l-3-3a17.19,17.19,0,0,1,4.19,1.35.45.45,0,0,0,.6,0c.15-.15,0-.3-.15-.45-1.5-1.65-3.14-3.14-5.68-3-1.79.15-3.59-.75-5.24-1.79,1.35-.75,2.54-.15,3.74-.15.3,0,.75.45.75-.3a5.13,5.13,0,0,0-4.64-1,7.27,7.27,0,0,1-5.68-1.2,10.09,10.09,0,0,1,4.79-.6,36.12,36.12,0,0,0-4.19-2.09c-1.35-.45-2.54-.9-3.89-1.35,1.94-1-.45-2.09,0-3.29,1.94.3,3.74,1,4.49,3.29a1.09,1.09,0,0,0,1.35.9c.9-.3-.15-.9.15-1.2,3.44.15,4.19,4,7,5.09-.45-1.79-1.35-3.29-1-5.24,1.5,1.65,3,3,2.09,5.38-.3.75.45.9,1,1.2.6-.6,0-1.5.6-2.09a3.29,3.29,0,0,1,1.94,2.54c.15,1.94,1.35,2.69,2.69,3.89-.45-2.24-1.79-4.19-1.35-6.88,1,1.65,2.09,3.14,3,4.64a3,3,0,0,1,.6,2.24c-.6,2.09.75,3,2.09,4.49,0-1.94-.6-3.59-.3-5.53a5.38,5.38,0,0,1,1.65,5.53,2.7,2.7,0,0,0,1,3c.3-1.65.15-3.29.9-4.94a5.46,5.46,0,0,1,1.5,6,4.6,4.6,0,0,0,.6,4.19c.6-.15.6-.15.3-1.5v-2.39a7.72,7.72,0,0,1,2.09,5.68c0,1.94-.45,3.89.9,5.53.6-.9.75-2.24,2.09-2.84.3,1.94.45,3.74-.9,5.38-.6.6-.3,1.2-.15,1.79.3,1,.45,2.09.9,3.29a15.54,15.54,0,0,1,3.44-6.58c.15,2.54-.3,4.64-1.79,6.28-1.94,2.09-1.2,4.19-1,6.43a32.89,32.89,0,0,1,4.49-4.64,8.36,8.36,0,0,1-2.69,6.88c-2.09,2.09-2.24,2.39-1.94,5.68A37.77,37.77,0,0,0,201.9,148c-.6,2.69-1,5.38-3.29,7.48a4.15,4.15,0,0,0-1.94,3.14c-.15.3-.6.9.3.75a18.4,18.4,0,0,1,4.64-2.84c.45-.15.45,0,.45.45-1.5,2.69-3,5.24-6.43,6-.9.15-.9,1.2-1.2,2.24,2.69-.3,5.09-2.54,7.93-.15a7.78,7.78,0,0,0-5.68,2.54,2.8,2.8,0,0,1-2.09.75c-1.79.15-1.79.15-2.69,2.24,1.65-.3,3-1.5,4.94-1.35-1.5,2.24-3.14,3.89-5.83,4.19-2.09.15-2.24,2.39-3.44,3.44,2.84-.45,5.09-2.84,8.23-2.24-1.79,2.54-4.34,3.44-7.18,3.59a4.8,4.8,0,0,0-4.49,2.54,7.14,7.14,0,0,1,5.24.3c-3.44,2.09-8.08,1.35-10.92,4.64,2.69.9,5.09-1.35,8.08-.3-3.44.9-6,3.74-9.87,3-2.54-.6-4.64,1.35-7,2.39,2.84.6,5.53.75,7.93,2.09a4.93,4.93,0,0,0-3.29,1.2,3.64,3.64,0,0,1-3.29.6c-.45-.15-1-.3-1.5-.45-4.49-1.5-4.49-1.5-9.72,0,3.59.3,6,2.09,8.38,3.74-3.29,0-6.88,1-9.27-2.24a2.84,2.84,0,0,0-3.29-1,22.67,22.67,0,0,1-3.44.3c1.65,1.5,1.5,4,3.59,5.09.6.3,0,.75-.15,1-.3.6-.75.45-1.2.15-1.2-1-1.5-2.54-2.24-3.89-.45-.75-.6-1.65-1.79-1.79a2.32,2.32,0,0,0-2.54,1.5,14.75,14.75,0,0,1-1.94,3.74c-.45.45-.75,1.2-1.5.3s-.15-1,.45-1.5c1.65-1,1.5-3.29,3.14-4.64-1.79-.15-3.44-.45-4.94-.6a1.42,1.42,0,0,0-1,.3c-2.54,3.29-6.13,3.44-9.87,3.29-.3.15-.75.3-.75-.3,2.69-1.5,5.09-3.44,8.38-3.74-3.14-1.35-6-1.79-9.12-.15-1.94,1-4.19,1.2-6-.6-.6-.6-1.65-.45-2.69-.6a22.79,22.79,0,0,1,7.93-1.94c-2.69-1.79-5.53-3-9-2.39-1.35.3-2.39-.3-3.59-1a7.15,7.15,0,0,0-3.44-1.5c-.15-.3-.9.15-.75-.6a10,10,0,0,1,4.64.6,5,5,0,0,0,3.29,0c-2.84-3.29-7.33-2.54-10.77-4.49,1.5-1,3-.6,4.34-.9-.45-1.2-1-1.79-2.24-1.79-.6,0-1.2-.15-1.79-.15a8.58,8.58,0,0,1-6.88-3.59,5.39,5.39,0,0,1,4,.75,17.45,17.45,0,0,0,3.89,1.5c-1-1.5-1.35-3.44-3.74-3.59-2.69-.15-3.89-2.24-5.68-4.19a12.12,12.12,0,0,1,5.24,1.79c-.45-1.65-.9-2.69-2.69-2.54a2.47,2.47,0,0,1-2.24-.75,7.42,7.42,0,0,0-5.68-2.39c3.14-2.39,5.38-.45,8.08.3-.3-1.35-.6-2.54-2.24-2.84s-3.14-1.79-4-3.29a29.34,29.34,0,0,1-1.79-3.14,20.83,20.83,0,0,1,5.38,3c.9.15.6-.3.45-.75a1.93,1.93,0,0,0-.75-1.65c-2.69-2.09-3.74-4.94-4.49-8.38,1.5.9,2.39,2.39,3.89,3.14,0-1.2-.15-2.24-.15-3.29s-.75-1.5-1.35-1.94a8.63,8.63,0,0,1-3.29-7.18,15.86,15.86,0,0,1,4.49,4.94c.15-2.54,1-4.79-1-7a6.88,6.88,0,0,1-1.65-6,13.24,13.24,0,0,1,3.29,6c.45-1.94,1.65-3.74.15-5.83a4.45,4.45,0,0,1-.15-4.34c1.2.6,1.35,1.65,1.94,2.69a4.82,4.82,0,0,0,.9-3.44,9.55,9.55,0,0,1,1.94-7.48v3.74c-.15.15-.15.6,0,.6s.15-.3.45-.3a5,5,0,0,0,.75-4.79c-.75-2.09.15-3.89,1.5-5.68.9,1.65.75,3.29.9,5.09,1-.9,1.5-1.5,1.2-2.84a5.82,5.82,0,0,1,1.79-6c.45,1.65-.15,2.84-.15,4.19,0,.45-.6.9.3,1,1.2-1.2,1.94-2.24,1.65-4.19-.3-1.65,1-3,1.94-4.34a11.42,11.42,0,0,1,1.2-1.65c.9.15.45.6.45,1-.3,1-.45,2.09-.75,3.14-.15.45-.45.9.45.75a2.72,2.72,0,0,0,1.5-2.24,4.62,4.62,0,0,1,2.24-3.29c.45.75.15,1.5.3,2.24.75-.15,1.5-.45,1.35-1.2-.75-2.24.75-3.74,2.09-5.24.45,1.79-.15,3.29-1,5.09,3.14-1,3.89-4.94,7.18-4.94.3.45-.6.9-.3,1.5.75-.15,1.65-.3,1.94-1.2.75-2.09,2.39-2.84,4.49-3.14.45,1-1,1.65-.6,2.69.3.15.6.3.3.6a35.51,35.51,0,0,0-7.48,3,16.51,16.51,0,0,1,4.34.75,7.6,7.6,0,0,1-6.13,1.2c-1.65-.45-2.84.3-4.19,1.5,1.65.15,3-.3,4.64.15a7.58,7.58,0,0,1-5.09,1.79c-2.69-.3-4.34,1.2-6,2.84l-1.2,1.2c1.94-.45,3.14-1.65,4.64-1.94.45-.15.45.15.45.45a34.17,34.17,0,0,1-3.29,3.29c-.75.45-1.5,1-2.24.9-2.39-.3-3.14,1.35-4,3-.15.6-.75.75-1,1-.75,1.35-1.65,2.69-2.39,4-.15.3-.6.6-.15,1,.15.9-.75,1-1,1.65-1.2,1.79-1.5,3.74-2.54,6.13,1.94-1,1.94-3.14,3.44-3.89a19.07,19.07,0,0,0,4.19-2.39c.3.3.3.6.15.75-2.24,1.94-3.74,4.94-6.88,6.13-1.5.6-1.5.75-1.94,4,1-.75,1.79-1.79,2.84-1.94.3,0,.6-.15.9,0s0,.6-.15.75c-.6,1-1.2,2.39-2.24,2.69-2.09.6-2.09,2.09-2.09,3.74v1.5a13,13,0,0,1,4.79-4.19c-.6,1.65-.9,3.59-2.69,4.19-2.39.75-2.69,2.24-2.39,4.34.15.6.15,1.2.3,1.94,1.65-1.65,2.39-4.19,5.09-4.19-1.2,1.79-2.39,3.44-2.54,5.68a.82.82,0,0,1-.45.75c-2.54,1.2-1.79,3.14-1.35,5.09.15.75.3,1.35.45,2.09a.31.31,0,0,0,.6,0c.15-2.54,1.5-4.64,2.54-6.73.9.15.45.75.45,1.2a12.65,12.65,0,0,1-2.09,8.08c-.6.9,0,1.65.3,2.24a6.21,6.21,0,0,0,1,1.94,5.41,5.41,0,0,1,.9-3.74,3.1,3.1,0,0,1,.9,3.59c-1.2,3.74,1.2,6.13,3.29,8.68a18.56,18.56,0,0,1-.9-9.12c.75,2.39,2.09,4.34,3,6.28a5.55,5.55,0,0,1,.45,3.44c-.75,2.09.15,3.29,1.5,4.49l1,1c-.15-1.65-.6-3.29.3-4.79,1.35,1,2.09,2.54,1.65,3.89-.6,2.39.75,3.44,2.24,4.49a3.29,3.29,0,0,1,.9.75,20.2,20.2,0,0,1-.75-7.93,11,11,0,0,1,2.69,7.78c0,1.2.3,1.94,1.35,2.24.3,0,.45.15.75,0-.15-.15-.3-.3-.3-.45-.3-.75-.45-1.5-.75-2.54a7.14,7.14,0,0,1,4.49,2.84c1.2,1.5,1.79,3.89,4.64,4.34-1.79-2.84-4.64-4.79-4.94-8.23,0-.45-.45-.9.3-1a22.14,22.14,0,0,0,1.2,1.94,15.51,15.51,0,0,1,4.94,7c.45,1.65,2.24,1.5,3.74,1.65-2.24-1.79-3.14-4.34-4.64-6.58,2.39,1.5,5.24,2.24,6.13,5.24a3,3,0,0,0,3.59,2.39c-.6-1.2-1.35-2.24-1.35-3.59s.75-2.09,2.09-1.5a5.5,5.5,0,0,1,3.74,4.64c-.75.15-.9-.45-1.2-.75s-.6-.75-.9-1c-.6-.3-1.2-.9-1.65-.15s.15,1.2.6,1.5a3.72,3.72,0,0,0,3.29,1,5,5,0,0,0,1.5,0,4,4,0,0,0,3.89-1.65c.15-.3.45-.6.15-.9s-.75-.3-1,0c-.75.3-1.2,1.2-1.79,1.65-.15.15-.45.3-.6.15a5.25,5.25,0,0,1,4.19-4.49c1,0,1.5.45,1.5,1.5a7.53,7.53,0,0,1-1.5,3.89c1.79.15,3.14-.45,3.59-2.24a6.07,6.07,0,0,1,3.29-3.89c.9-.45,1.65-1,2.69-1.5-1.2,2.24-2.24,4.79-4.49,6.28-.3.45,0,.6.45.45a4.07,4.07,0,0,0,4.19-3.59,5.11,5.11,0,0,1,1.94-3.14,10.18,10.18,0,0,0,3.74-4.79c.3,3.29-.45,4.49-5.09,10a4,4,0,0,0,3.44-2.24c1-1.79,2.24-3.59,4.19-4.49.45-.15.9-.75,1.5-.3s-.15.9-.15,1.35a2,2,0,0,1-.75,1.35c-.15.3-.3.3-.45.6.3-.15.6-.15.9-.3,1.35-.6,2.09-1.2,1.94-3a10.72,10.72,0,0,1,2.54-7.33,17.25,17.25,0,0,1-.45,7.33c2.54-1,3.14-1.79,3-4.34v-1c.15-1.2.45-2.84,1.65-2.84.9,0,.3,1.65.45,2.69v1C186,178,186.5,177.13,186,175a7.15,7.15,0,0,1,.75-4.64,26.52,26.52,0,0,0,2.39-5.09c.9,1.65.9,2.39-.75,8.53a8.74,8.74,0,0,0,3.44-7.48c-.15-1.65-.75-3.29.9-4.79a5.07,5.07,0,0,1,.9,3.14c-.15.15-.15.6,0,.6s.15-.3.3-.3a5.31,5.31,0,0,1,.6-1.35,3.19,3.19,0,0,0-.15-3.44,12.33,12.33,0,0,1-1.5-8.68,21.28,21.28,0,0,1,3.14,7.78,27,27,0,0,0,1.35-5.24c.15-.6.15-1.35-.45-1.65-1.65-.75-1.79-2.24-2.09-3.59a10.39,10.39,0,0,0-2.09-3.74c3,0,3.59,2.69,5.38,4.34v-4.64a1.28,1.28,0,0,0-1-1.2c-2.39-.6-3.14-2.69-4-4.94a16.88,16.88,0,0,1,5.09,4,29,29,0,0,1-.3-3.59c0-.6-.45-.75-.9-.9-2.09-.9-2.69-1.65-3.59-4,1.65-.15,2.54.75,3.44,1.79.45.3.6,0,.45-.45-.15-1.94-1-3-3-3.89-2.39-1.35-3.89-3.89-5.83-6.13,1.5.75,3,1.5,4.34,2.24,1.65.75,1.65,2.84,3.29,3.89a30.13,30.13,0,0,0-1.94-5.53c-.3-.75-1-.75-1.65-1-1.65-.75-3.59-1-5.09-2.24-.6-.45-1.5-1.2-1-2.09s1.5-.45,2.39-.15c1.79.6,2.54,2.09,4.19,3.74-.75-2.39-2.09-3.89-3-5.68A3.8,3.8,0,0,1,188.14,117.3Z" transform="translate(-26 -31.44)"/><path class="cls-23" d="M149.7,181.91a38.22,38.22,0,1,1,38.14-38.14A38.24,38.24,0,0,1,149.7,181.91Z" transform="translate(-26 -31.44)"/><path class="cls-24" d="M106.32,125.07c-.15-.9.75-1,1-1.65l2.24-2.24a3.64,3.64,0,0,1,3.59-1c.3,0,.6.15.45.6a4.27,4.27,0,0,1-2.54,2.54C109.61,123.88,108,124.48,106.32,125.07Z" transform="translate(-26 -31.44)"/><path class="cls-25" d="M148.8,193a4,4,0,0,1-4.49-2.39c-.3-1,.15-1.35,1-1.2a3.39,3.39,0,0,1,2.24,1.5c.45.45.45,1.2,1.2,1.5l.3.3C149.1,192.83,148.8,192.83,148.8,193Z" transform="translate(-26 -31.44)"/><path class="cls-26" d="M150.9,191.94c.9-.75,1.2-2.09,2.54-2.39.6-.15,1.2-.45,1.65,0s.15,1-.15,1.65A3.83,3.83,0,0,1,150.6,193c-.3-.15-.3-.3,0-.3A1.14,1.14,0,0,1,150.9,191.94Z" transform="translate(-26 -31.44)"/><path class="cls-27" d="M109.91,118.34c.3-.45.45-1,1-1,1.94-.75,3.89-1.5,6.13-.9C114.85,117.6,112.61,118.79,109.91,118.34Z" transform="translate(-26 -31.44)"/><path class="cls-27" d="M188.14,117.3c.75,0,.75.6,1,1-2.69.75-4.94-.75-7.33-1.94A9,9,0,0,1,188.14,117.3Z" transform="translate(-26 -31.44)"/><path class="cls-28" d="M125.32,185.65c.45.3.9.75,1.5,1.2a2.36,2.36,0,0,1-1.94-.75Q125.1,186.1,125.32,185.65Z" transform="translate(-26 -31.44)"/><path class="cls-29" d="M173.78,186.55a5.17,5.17,0,0,1-1.79,1,4.06,4.06,0,0,1,1.5-1.35A.32.32,0,0,1,173.78,186.55Z" transform="translate(-26 -31.44)"/><path class="cls-30" d="M192.93,120.44a4.26,4.26,0,0,1,.3,2.39,1.08,1.08,0,0,1-.6-.9C193.08,121.48,192.63,120.89,192.93,120.44Z" transform="translate(-26 -31.44)"/><path class="cls-31" d="M182.46,110.42a2.08,2.08,0,0,1,1,1.2,3.1,3.1,0,0,1-1.5-.9C182.16,110.57,182.31,110.42,182.46,110.42Z" transform="translate(-26 -31.44)"/><path class="cls-31" d="M117.54,108.32c-.3.3-.45.75-1,.9a3.14,3.14,0,0,1,.6-1.65C117.09,107.87,117.09,108.17,117.54,108.32Z" transform="translate(-26 -31.44)"/><path class="cls-32" d="M129.21,181.17c-.45.3-.3.75-.3,1-.45-.6-.3-1.2-.3-1.94A.93.93,0,0,1,129.21,181.17Z" transform="translate(-26 -31.44)"/><path class="cls-33" d="M117.84,104.28c-.15-.3,0-.9-.45-1,.15-.3.3-.45.6-1A2,2,0,0,1,117.84,104.28Z" transform="translate(-26 -31.44)"/><path class="cls-34" d="M197.12,158.88c-.15.3-.45.9-.6.6s0-.9.3-1.35C196.82,158.43,197,158.58,197.12,158.88Z" transform="translate(-26 -31.44)"/><path class="cls-35" d="M112.76,113.26c-.15.3-.3.75-.6.45s-.15-1,.15-1.5C112.46,112.51,112.31,113,112.76,113.26Z" transform="translate(-26 -31.44)"/><path class="cls-36" d="M107.07,152.45c-.15-.3,0-.9-.45-1.2.15-.3.45-.6.6-.45A1.34,1.34,0,0,1,107.07,152.45Z" transform="translate(-26 -31.44)"/><path class="cls-37" d="M104.08,158.13c0,.3.3.75-.15.75s-.45-.45-.45-.9A1.13,1.13,0,0,0,104.08,158.13Z" transform="translate(-26 -31.44)"/><path class="cls-38" d="M106.62,122.23a7.29,7.29,0,0,0-.45,1,.94.94,0,0,1,0-1.35C106.32,121.93,106.47,122.08,106.62,122.23Z" transform="translate(-26 -31.44)"/><path class="cls-39" d="M193.53,164.56a7.29,7.29,0,0,0-.45,1c-.45-.6-.3-.9.15-1.35Z" transform="translate(-26 -31.44)"/><path class="cls-32" d="M196.52,135.1c.3.3.6.9.15,1s-.45-.45-.6-.75C196.22,135.4,196.37,135.25,196.52,135.1Z" transform="translate(-26 -31.44)"/><path class="cls-39" d="M175.88,105c.3.15.75.3.45.45s-.75.15-1.2-.15A1.14,1.14,0,0,0,175.88,105Z" transform="translate(-26 -31.44)"/><path class="cls-11" d="M120.68,110.12l-.45-.45a.91.91,0,0,1,1.2-.15A2.63,2.63,0,0,0,120.68,110.12Z" transform="translate(-26 -31.44)"/><path class="cls-40" d="M131.15,197c.3.15.45.3.75.3-.45.3-.9.45-1.2.15S130.85,197,131.15,197Z" transform="translate(-26 -31.44)"/><path class="cls-41" d="M102.43,157.68c.3.45.6.9.15,1.35-.15.15-.45-.3-.6-.45C102.28,158.43,102.28,158.13,102.43,157.68Z" transform="translate(-26 -31.44)"/><path class="cls-5" d="M150.6,192.53v.3H148.8c.15-.15.15-.3.3-.45A4.61,4.61,0,0,0,150.6,192.53Z" transform="translate(-26 -31.44)"/><path class="cls-42" d="M160.62,191.94c-.3.3-.75.6-1.2.15-.15-.15.45-.45.75-.6Z" transform="translate(-26 -31.44)"/><path class="cls-43" d="M202.2,156.34l-.45-.45c.3-.3.6-.75.9-.3S202.5,156.19,202.2,156.34Z" transform="translate(-26 -31.44)"/><path class="cls-44" d="M136.84,98.9a1.13,1.13,0,0,1-.3-.6c.3,0,.75-.15.9.3S137.14,98.9,136.84,98.9Z" transform="translate(-26 -31.44)"/><path class="cls-45" d="M113.2,184.46c.3.15.45.45.75.6-.45,0-1,.15-1.2-.45C112.61,184.46,112.9,184.31,113.2,184.46Z" transform="translate(-26 -31.44)"/><path class="cls-1" d="M117.09,143.62c-.3-17.65,14.36-31.86,30.81-32.46a32.63,32.63,0,0,1,34.4,32.46c0,18.4-14.21,32.61-32.76,32.76C131.6,176.53,116.64,161.42,117.09,143.62Z" transform="translate(-26 -31.44)"/><path class="cls-2" d="M163.31,162.77a5,5,0,0,1-1.5,0c-1.79-.6-2.09.15-1.94,1.79.15,1.35-.15,2.54,1.2,3.59a1.4,1.4,0,0,1,0,1.94c-.45.6-1,1.2-1.94.9a21.32,21.32,0,0,1-4.19-1.94c-.45-.3-1-.6-1.5-.9a13.52,13.52,0,0,0-3.14-1.2c-1.35-.15-1.5,1.5-2.24,2.24-1.94,2.09-5.68,2.39-8.68.9-2.39-1.35-3.14-3.44-2.39-6.58.6-2.69,1.65-5.09,2.39-7.63a11.2,11.2,0,0,0,.3-3.14c0-.9-.15-1.79-1-1.79s-1.94.3-2.09,1.35a4,4,0,0,1-3,3.29c-1,.45-1.35,1.35-1.79,2.09-.75,1.2-1.65,1.35-2.69.3s-1.35-2.84-1.5-4.34c-.6-4.94-1.5-9.87-1.2-15,.6-10,5.68-16.9,16.3-19.74a36.41,36.41,0,0,1,15.56-.9,47,47,0,0,0,6.58.45,2.46,2.46,0,0,1,2.39,1c.45.9-.15,1.65-.75,2.39l-.9.9c-.6.45-1.5.75-1.2,1.5s1,.9,1.65.9c1.79.3,2.54,1.65,2.84,3.29a16.15,16.15,0,0,1,.3,6,19.69,19.69,0,0,0,2.69,12,5.53,5.53,0,0,1,.75,1.65c.6,1.65-.15,3.14-1.94,3.29-1,.15-1,.45-1,1.5a19.38,19.38,0,0,1-1.35,7.78A5,5,0,0,1,163.31,162.77Z" transform="translate(-26 -31.44)"/><path class="cls-26" d="M163.31,129.71c-.3.15-.6.45-.9.6-1.79,1-2.24.75-2.24-1.2a6.14,6.14,0,0,0-.15-1.65,1.44,1.44,0,0,0-1.35-.9c-.6,0-.9.6-1,1a16.48,16.48,0,0,0-.3,2.69c-.15,1.5-.15,3-1.35,4.19a2.08,2.08,0,0,1-2.24.6,6.88,6.88,0,0,0,.6-4.19c-.3-1.35-.9-1.65-1.94-.6a6,6,0,0,0-2.09,4,8.53,8.53,0,0,1-.15,1.94c0,.45,0,1-.45,1s-.6-.6-.75-1c-.15-.9-.15-1.65-.3-2.54a1.63,1.63,0,0,0-1.65-1.5c-1,0-1.5.75-1.65,1.65a7.64,7.64,0,0,0,.45,4.49,3.59,3.59,0,0,1,0,4.19,2.47,2.47,0,0,0,0,2.84c1.65,2.69.9,5.68.6,8.53a3.19,3.19,0,0,1-3.59,2.39c-1.5-.45-1.94-1.5-1.94-3a5.47,5.47,0,0,1,1.35-4.19,6,6,0,0,0,1.35-3.14,2.76,2.76,0,0,0-4-2.69c-.6.3-1,.6-1,1.35s.45,1,1,1.35c.3.15.6.15.9.3.75.15,1.35.45,1.2,1.2s-.75.9-1.5,1a6.16,6.16,0,0,1-6.13-4c-2.09-5.68.75-14.81,5.53-18.4,2.54-1.94,5.68-2.54,8.68-3a28.21,28.21,0,0,1,15.26,2.09c1.5.75,2.09,1.5,1.2,3.14C164.66,129.11,164.06,129.56,163.31,129.71Z" transform="translate(-26 -31.44)"/><path class="cls-26" d="M167.35,134.95c.15.15.3.15.3.3-.6,4.49,1.2,8.23,3.29,12,.45.75,1.2,1.65.45,2.69s-1.79.75-2.84.45h-.9c.45,1,.6,1.94-.6,2.69-.75.45-.75,1.35-.15,2.09,1.5,1.79.9,3.44,0,5.09s-2.69,2.09-4.49,1.79a11.23,11.23,0,0,1-6.28-3,30,30,0,0,1-5.24-6.28,4.56,4.56,0,0,1-.45-2.39c-.15-.9.15-1.2,1-1.2h2.39c2.54-.15,3.29-.9,3.44-3.59.15-3.59.15-3.59,3.44-1.79,2.84,1.65,3.59,1.35,4.79-1.65.15-.3.15-.75.6-.9s1,0,.9-.75a1.62,1.62,0,0,0-1.2-1.2c-2.24-.6-4.49-.9-6.43.75-.3.3-.75.75-1.2.6,0-2.69.9-3.74,3.59-3.59C163.91,137.49,165.86,136.44,167.35,134.95Z" transform="translate(-26 -31.44)"/><path class="cls-26" d="M150.75,154.54a28.37,28.37,0,0,0,7.48,7.18c.6.3.9,4.19.45,4.49s-.6.15-1,0a33.43,33.43,0,0,1-7.48-3.29,1.14,1.14,0,0,1-.75-1.35A36.51,36.51,0,0,0,150.75,154.54Z" transform="translate(-26 -31.44)"/><path class="cls-46" d="M165.26,128.66c.45-.15.9-.75,1.35-.15s.3,1.2-.3,1.79a46.26,46.26,0,0,1-8.23,6c-.45.15-.45,0-.3-.3a55.2,55.2,0,0,0,6.13-5.68A1.75,1.75,0,0,1,165.26,128.66Z" transform="translate(-26 -31.44)"/><path class="cls-47" d="M142.37,165.61c1,.15,3-.15,3,1.2s-1.79,1-3,1c-.9,0-2.39,0-2.39-1C139.83,165.46,141.32,165.76,142.37,165.61Z" transform="translate(-26 -31.44)"/><path class="cls-48" d="M128.91,143.92c-.75,0-1.65,0-1.5-.75.3-1.5,1.65-1.5,2.84-1.65.6-.15,1.65,0,1.35.9C131.3,143.62,130,143.62,128.91,143.92Z" transform="translate(-26 -31.44)"/><path class="cls-46" d="M131,129.41c1.2.3,2.54.45,2.69,1.79.15.9-1,.75-1.65.75-1-.15-2.24-.3-2.39-1.65C129.66,129.41,130.55,129.56,131,129.41Z" transform="translate(-26 -31.44)"/><path class="cls-49" d="M131.3,146.76c.45.15,1.35.15,1,.9-.45,1.35-1.65,1.65-2.84,1.79-.45,0-1-.15-.9-.75C128.91,147.36,130.11,147.06,131.3,146.76Z" transform="translate(-26 -31.44)"/><path class="cls-48" d="M129.51,138.09c-.9,0-1.94,0-2.09-1s1-1.2,1.94-1.2,2.09,0,2.09,1S130.41,137.94,129.51,138.09Z" transform="translate(-26 -31.44)"/><path class="cls-48" d="M148.06,135.4c0,.75.15,2.09-.9,2.09s-.9-1.2-.9-2.09,0-1.94,1-1.94C148.06,133.6,147.91,134.65,148.06,135.4Z" transform="translate(-26 -31.44)"/><path class="cls-50" d="M136.54,122.68a3.11,3.11,0,0,1,2.09,2.39c.15.45-.15.75-.6.75-.75,0-2.09-1.5-2.09-2.39C135.79,123.13,135.94,122.68,136.54,122.68Z" transform="translate(-26 -31.44)"/><path class="cls-51" d="M145.06,121.48c0,.6,0,1.5-.6,1.35-1.2-.15-1.35-1.35-1.5-2.39-.15-.6.15-1.35.75-1.2C144.91,119.54,145.06,120.59,145.06,121.48Z" transform="translate(-26 -31.44)"/><path class="cls-46" d="M149.7,120c.15-.6-.15-1.65.9-1.65s1,1,1,1.94,0,1.65-.9,1.65S149.7,120.74,149.7,120Z" transform="translate(-26 -31.44)"/><path class="cls-52" d="M157.63,120.44c-.15.75,0,1.79-.9,1.79s-.9-.9-.9-1.5-.15-1.79.9-1.79C157.48,118.79,157.33,119.84,157.63,120.44Z" transform="translate(-26 -31.44)"/><path class="cls-50" d="M143.87,164.26c-.75,0-1.5,0-1.65-.9s.6-.9,1.2-.9,1.5,0,1.65.9S144.32,164.11,143.87,164.26Z" transform="translate(-26 -31.44)"/><path class="cls-53" d="M168.4,153c0,.75.3,1.5-.3,1.79-.3.15-.6-.15-.6-.45Q167.05,153.27,168.4,153Z" transform="translate(-26 -31.44)"/><path class="cls-52" d="M161.37,141.53c.75-.9,1.65-.75,2.84-.6C163.16,142,162.27,141.68,161.37,141.53Z" transform="translate(-26 -31.44)"/><path class="cls-54" d="M165.26,128.66c-.45.45-.9,1-1.35,1.5l-.45-.45,1.5-1.5C165,128.51,165.11,128.51,165.26,128.66Z" transform="translate(-26 -31.44)"/><path class="cls-29" d="M157.63,136c.15.15.3.15.3.3a2.06,2.06,0,0,1-1.2.75C156.73,136.29,157.33,136.14,157.63,136Z" transform="translate(-26 -31.44)"/></svg>