<svg id="Layer_9" data-name="Layer 9" xmlns="http://www.w3.org/2000/svg" viewBox="0 0 258 85.76"><defs><style>.cls-1{fill:#fff;}</style></defs><title>barcelona-logo</title><g id="dsgn"><path d="M279,150.06c0,23.59-18.51,42.82-41.25,42.82H79.66c17.05-6.29,29.27-23.1,29.27-42.82s-12.22-36.65-29.27-42.94H237.75C260.49,107.12,279,126.35,279,150.06Z" transform="translate(-21 -107.12)"/><path d="M106.27,150.06c0,23.59-18.51,42.82-41.25,42.82H21V107.12H65.15C87.89,107.12,106.27,126.35,106.27,150.06Z" transform="translate(-21 -107.12)"/><path class="cls-1" d="M241.5,161.31c0,2.06-1.45,3.14-3.51,3.14a1.79,1.79,0,0,1-1.94-1.69,2,2,0,0,1,1.94-1.81l3.51-.24Zm4.35,5.32v-2.42h-.36c-.6,0-.73-.24-.73-.85v-5.08a7.06,7.06,0,0,0-.36-2.78c-.85-2.06-2.78-2.78-5.2-2.78-3,0-5.56,1.33-5.68,4.48h3.14c.12-1.21,1-1.94,2.54-1.94,1.94,0,2.3.85,2.3,2.18v.85l-4,.24c-2.66.24-4.6,1.69-4.6,4.35,0,2.3,1.69,4.35,5,4.35a4.73,4.73,0,0,0,4.11-2.06,2.17,2.17,0,0,0,2.3,1.94A4.83,4.83,0,0,0,245.86,166.63Zm-15.85.12v-9.19c0-2.9-1.69-5-4.6-5a4.32,4.32,0,0,0-4,2.06l-.24-1.81H218.4v13.67h3.27v-5.56a9.11,9.11,0,0,1,.48-3.63,2.63,2.63,0,0,1,2.42-1.69c1.69,0,2.3,1,2.3,2.54v8.47H230ZM211.75,160a5.69,5.69,0,0,1-1,3.51,2.92,2.92,0,0,1-2.06.85,2.71,2.71,0,0,1-2.06-.85,4.84,4.84,0,0,1-1-3.51,5.69,5.69,0,0,1,1-3.51,2.92,2.92,0,0,1,2.06-.85,2.71,2.71,0,0,1,2.06.85,4.84,4.84,0,0,1,1,3.51m3.39,0a8,8,0,0,0-1.57-5.08,6.13,6.13,0,0,0-4.84-2.18,6.32,6.32,0,0,0-4.84,2.18,7.31,7.31,0,0,0-1.57,5.08,8,8,0,0,0,1.57,5.08,6.13,6.13,0,0,0,4.84,2.18,6.32,6.32,0,0,0,4.84-2.18,8,8,0,0,0,1.57-5.08m-14.64,6.77V164h-.6c-1.09,0-1.33-.48-1.33-1.33V147.76H195.3v15.6c0,2.66,1.45,3.75,3.75,3.75.73-.12.85-.24,1.45-.36M189,158.53h-5.93a3.38,3.38,0,0,1,.73-2.18,3,3,0,0,1,2.3-1.09,2.71,2.71,0,0,1,2.06.85,3.29,3.29,0,0,1,.85,2.42m3.39,1.57a8.74,8.74,0,0,0-1.21-4.84,5.82,5.82,0,0,0-5-2.54,6,6,0,0,0-4.35,1.69,7.51,7.51,0,0,0-1.94,5.44A7.39,7.39,0,0,0,182,165.3a6.22,6.22,0,0,0,4.35,1.69,6,6,0,0,0,4.6-1.94,6.19,6.19,0,0,0,1.21-2.54H189a3.78,3.78,0,0,1-.6,1.21,2.63,2.63,0,0,1-2.06.6,2.92,2.92,0,0,1-2.06-.85,3.46,3.46,0,0,1-1-2.66h9.19c-.24-.12-.12-.73-.12-.73m-14.64,1.81h-3.27a2.86,2.86,0,0,1-.36,1.21,2.27,2.27,0,0,1-2.06,1,2.92,2.92,0,0,1-2.06-.85,6.84,6.84,0,0,1,0-7,2.71,2.71,0,0,1,2.06-.85,2.35,2.35,0,0,1,2.06,1.09,2,2,0,0,1,.36,1.21h3.27a4.65,4.65,0,0,0-1.09-3,6.05,6.05,0,0,0-4.72-2.18,5.87,5.87,0,0,0-4.72,2.18,7.54,7.54,0,0,0-1.45,5,7.8,7.8,0,0,0,1.45,5,6.2,6.2,0,0,0,9.43,0,3.21,3.21,0,0,0,1.09-2.66m-12.94-5.81V153c-.36,0-.73-.12-1.09-.12a3.83,3.83,0,0,0-3.87,2.3l-.24-2.06h-2.78v13.67h3.27v-6.89c0-2.18,1.21-3.87,3.51-3.87.36,0,.85.12,1.21.12m-15.36,5.2c0,2.06-1.45,3.14-3.51,3.14a1.72,1.72,0,0,1-1.94-1.69,2,2,0,0,1,1.94-1.81l3.51-.24Zm4.48,5.32v-2.42h-.36c-.6,0-.73-.24-.73-.85v-5.08a7.06,7.06,0,0,0-.36-2.78c-.85-2.06-2.78-2.78-5.2-2.78-3,0-5.56,1.33-5.68,4.48h3.14c.12-1.21,1-1.94,2.54-1.94,1.94,0,2.3.85,2.3,2.18v.85l-4,.24c-2.66.24-4.6,1.69-4.6,4.35,0,2.3,1.69,4.35,5,4.35a5.14,5.14,0,0,0,4.23-2.06,2.17,2.17,0,0,0,2.3,1.94A6.82,6.82,0,0,0,153.93,166.63Zm-18.51-5.32c0,1.94-1.69,2.54-3.27,2.54h-4.23v-5.2h4.35c1.69-.12,3.14.6,3.14,2.66m-.36-7.86c0,1.81-1.33,2.3-2.78,2.3H128V151h4.11c1.45,0,2.9.6,2.9,2.42m3.87,8a4.77,4.77,0,0,0-2.66-4.23,4.3,4.3,0,0,0,2.3-4,5.22,5.22,0,0,0-2.18-4.11,7.49,7.49,0,0,0-4.35-1h-7.5v18.75H132a7.81,7.81,0,0,0,5-1.21,5.38,5.38,0,0,0,1.94-4.23" transform="translate(-21 -107.12)"/><path class="cls-1" d="M243.32,134.94h-4.23a2.43,2.43,0,0,1,.48-1.57,2,2,0,0,1,1.69-.73,1.65,1.65,0,0,1,1.45.6,2.39,2.39,0,0,1,.6,1.69m2.3,1.09a5.68,5.68,0,0,0-.85-3.39,4.31,4.31,0,0,0-3.63-1.81A4.38,4.38,0,0,0,238,132a5.59,5.59,0,0,0-1.45,4,5.2,5.2,0,0,0,1.57,4,4.38,4.38,0,0,0,3.14,1.21,4,4,0,0,0,3.27-1.33,5,5,0,0,0,.85-1.81h-2.3a2,2,0,0,1-.48.85,1.77,1.77,0,0,1-1.45.48,2,2,0,0,1-1.45-.6,2.75,2.75,0,0,1-.73-1.94h6.53a3.87,3.87,0,0,0,.12-.85M233,135.91c0,1.45-.36,3.14-2.3,3.14a2.16,2.16,0,0,1-1.57-.73,4,4,0,0,1-.6-2.42,4.25,4.25,0,0,1,.6-2.42,1.8,1.8,0,0,1,1.57-.73c1.94,0,2.3,1.69,2.3,3.14m2.3,5V127.2h-2.42v4.48a3.85,3.85,0,0,0-5-.12,5.24,5.24,0,0,0-1.81,4.35,5.73,5.73,0,0,0,1.69,4.35,3.9,3.9,0,0,0,2.42.85,3.13,3.13,0,0,0,2.78-1.33l.12,1.09Zm-14-.12v-1.94a7.44,7.44,0,0,1-1.57.12,1,1,0,0,1-1.09-1.09V133h2.42v-1.94h-2.42v-3.14l-2.42.6v2.54h-1.81V133h1.81v5a2.69,2.69,0,0,0,3,3,11.92,11.92,0,0,0,2.06-.24m-7.62.12v-6.53a3.21,3.21,0,0,0-3.39-3.51,3.28,3.28,0,0,0-2.9,1.57l-.12-1.21h-1.94V141h2.42v-4.11a6.75,6.75,0,0,1,.36-2.66,1.82,1.82,0,0,1,1.69-1.21c1.21,0,1.57.73,1.57,1.81v6Zm-12.22-5.93h-4.23a2.43,2.43,0,0,1,.48-1.57,2,2,0,0,1,1.69-.73,1.65,1.65,0,0,1,1.45.6,2.39,2.39,0,0,1,.6,1.69m2.3,1.09a5.68,5.68,0,0,0-.85-3.39,4.31,4.31,0,0,0-3.63-1.81,4.38,4.38,0,0,0-3.14,1.21,6.21,6.21,0,0,0,0,8,4.38,4.38,0,0,0,3.14,1.21,4,4,0,0,0,3.27-1.33,5,5,0,0,0,.85-1.81h-2.3a2,2,0,0,1-.48.85,1.77,1.77,0,0,1-1.45.48,2,2,0,0,1-1.45-.6,2.75,2.75,0,0,1-.73-1.94h6.53a2.09,2.09,0,0,0,.24-.85m-10.28,4.84v-6.65c0-2.06-1.09-3.39-3.14-3.39a3.46,3.46,0,0,0-3,1.57,3.25,3.25,0,0,0-5.56,0l-.24-1.33h-1.94v9.8h2.3v-5.32c0-1.21.6-2.66,1.94-2.66s1.57.73,1.57,1.94V141h2.3v-5.32c0-1.21.6-2.66,1.94-2.66s1.57.73,1.57,1.94v6.17h2.3Zm-18.51-4a2.29,2.29,0,0,1-2.54,2.3A1.35,1.35,0,0,1,171,138c0-.85.73-1.21,1.45-1.33l2.54-.24Zm3.14,3.87v-1.69h-.24c-.36,0-.6-.12-.6-.6v-3.63a5.33,5.33,0,0,0-.24-1.94,3.66,3.66,0,0,0-3.63-2.06c-2.18,0-4,1-4.11,3.14h2.3c0-1,.73-1.45,1.81-1.45,1.33,0,1.69.6,1.69,1.57v.6l-2.9.24c-1.81.12-3.39,1.21-3.39,3.14,0,1.57,1.21,3,3.51,3a3.65,3.65,0,0,0,3-1.45A1.53,1.53,0,0,0,177,141,2.89,2.89,0,0,0,178.12,140.75Zm-9.8,0v-1.94a7.44,7.44,0,0,1-1.57.12,1,1,0,0,1-1.09-1.09V133h2.54v-1.94h-2.54v-3.14l-2.42.6v2.54h-1.81V133h1.81v5a2.69,2.69,0,0,0,3,3,10.65,10.65,0,0,0,2.06-.24m-7.62.12v-6.53a3.21,3.21,0,0,0-3.39-3.51,3.28,3.28,0,0,0-2.9,1.57l-.12-1.21h-1.94V141h2.42v-4.11a6.75,6.75,0,0,1,.36-2.66,1.82,1.82,0,0,1,1.69-1.21c1.21,0,1.57.73,1.57,1.81v6Zm-10.52,0v-9.8h-2.42v5.2a2.67,2.67,0,0,1-.73,2.18,1.85,1.85,0,0,1-1.21.48c-1.21,0-1.69-.73-1.69-1.81v-6h-2.42v6.53a3.27,3.27,0,0,0,3.39,3.51,3.06,3.06,0,0,0,2.78-1.57l.12,1.33Zm-10.4,1.33V130.95h-2.42v10.77a1,1,0,0,1-1.09,1.09,5.55,5.55,0,0,1-1.21-.12v2.06c.48.12.73.12,1.09.24H137a2.6,2.6,0,0,0,2.78-2.78m0-15.12h-2.54v2.42h2.54ZM132,136h-3.87l1.94-5.68Zm4.23,4.84-4.72-13.43h-2.66l-4.72,13.43h2.42l.85-2.54h5.32l.85,2.54Z" transform="translate(-21 -107.12)"/><path class="cls-1" d="M64.3,125a1.1,1.1,0,0,0-.48,1,.91.91,0,0,0,1.09,0,1.1,1.1,0,0,0,.48-1c0,.48.12.85.48,1A1.16,1.16,0,0,0,67,126a1.08,1.08,0,0,0-.48-1,1.16,1.16,0,0,0-1.09,0,1.08,1.08,0,0,0,0-1.94,1.08,1.08,0,0,0,0,1.94,1.16,1.16,0,0,0-1.09,0" transform="translate(-21 -107.12)"/><path class="cls-1" d="M68.41,125.26a1.28,1.28,0,0,0-.73.85,1.23,1.23,0,0,0,1.09.24,1.28,1.28,0,0,0,.73-.85,1.09,1.09,0,0,0,.24,1.09,1.14,1.14,0,0,0,1.09.12,1.09,1.09,0,0,0-.24-1.09,1.14,1.14,0,0,0-1.09-.12,1.46,1.46,0,0,0,.85-.85c.12-.36-.12-.73-.36-1.09a1.28,1.28,0,0,0-.85.73c-.12.36.12.73.36,1.09a1.71,1.71,0,0,0-1.09-.12" transform="translate(-21 -107.12)"/><path class="cls-1" d="M73.37,126.72a1.36,1.36,0,0,0,1-.6,1.18,1.18,0,0,0-.12-1.09,1.36,1.36,0,0,0-1,.6.92.92,0,0,0,.12,1.09.89.89,0,0,0-1-.48,1,1,0,0,0-.85.73.89.89,0,0,0,1,.48c.36,0,.6-.24.85-.73" transform="translate(-21 -107.12)"/><path class="cls-1" d="M60.19,125.75a1.09,1.09,0,0,0-.24,1.09,1.14,1.14,0,0,0,1.09-.12,1.09,1.09,0,0,0,.24-1.09c-.48-.24-.85-.24-1.09.12" transform="translate(-21 -107.12)"/><path class="cls-1" d="M62,126.35a1.23,1.23,0,0,0,1.09-.24,1.28,1.28,0,0,0-.73-.85,1.23,1.23,0,0,0-1.09.24c.36-.36.48-.73.36-1a1.06,1.06,0,0,0-.85-.73,1,1,0,0,0-.36,1.09,1.09,1.09,0,0,0,.73.73,1.63,1.63,0,0,0,.85.73" transform="translate(-21 -107.12)"/><path class="cls-1" d="M57.53,125.63a1,1,0,0,0-1-.6.92.92,0,0,0-.12,1.09c.12.36.48.48,1,.6a1.63,1.63,0,0,0,.85.73,1.1,1.1,0,0,0,1-.48,1.63,1.63,0,0,0-.85-.73,1.1,1.1,0,0,0-1,.48,1.18,1.18,0,0,0,.12-1.09" transform="translate(-21 -107.12)"/><path class="cls-1" d="M65.39,117.28a1,1,0,0,0,1-1,1,1,0,0,0-1-1,.89.89,0,0,0-1,1,1,1,0,0,0,1,1" transform="translate(-21 -107.12)"/><path class="cls-1" d="M65.39,128.53A16.06,16.06,0,0,1,71.8,130l.85-1.21a17.15,17.15,0,0,0-7.14-1.57,16.73,16.73,0,0,0-7.14,1.57l.85,1.21a12.57,12.57,0,0,1,6.17-1.45" transform="translate(-21 -107.12)"/><path class="cls-1" d="M55.84,124.78l1.09-1.09a1.68,1.68,0,0,1-.6-1.21,2.17,2.17,0,0,1,2.3-1.81,1.79,1.79,0,0,1,.85.12c0,.24-.12.36-.12.6a2.89,2.89,0,0,0,.6,1.69L61,122a1.72,1.72,0,0,1-.24-.73,2.17,2.17,0,0,1,2.3-1.81,3.22,3.22,0,0,1,1.45.36v2.06H66V119.7a2.44,2.44,0,0,1,1.33-.36,2.08,2.08,0,0,1,2.3,1.81,1.72,1.72,0,0,1-.24.73L70.47,123a2.89,2.89,0,0,0,.6-1.69,1.09,1.09,0,0,0-.12-.6,2.06,2.06,0,0,1,.85-.12,2.08,2.08,0,0,1,2.3,1.81,1.68,1.68,0,0,1-.6,1.21l1.09,1.09a3.16,3.16,0,0,0,1.09-2.18c0-1.81-1.69-3.27-3.87-3.27a6.13,6.13,0,0,0-1.57.24,3.93,3.93,0,0,0-3-1.33,5.7,5.7,0,0,0-2.06.48,4,4,0,0,0-2.06-.48,3.76,3.76,0,0,0-3,1.33,6.13,6.13,0,0,0-1.57-.24,3.53,3.53,0,0,0-3.75,3.27,3.74,3.74,0,0,0,1.09,2.3" transform="translate(-21 -107.12)"/><path class="cls-1" d="M65.75,154.78h4.72v5.81H65.75Zm-.73-.6H60.31v-5.81H65Zm0-8.23H60.31v-8l-2.3,2.3v5.68H52.33l-2.3,2.3h8v5.81H44.22l-.36.36.36.36h2.06v2.06l2.3,2.3v-4.48h2.3v6.77l2.3,2.3v-9.07h2.3v11.49l2.3,2.3V154.78h2.3v16.09l2.3,2.3V154.78h2.3v20.8l.36.36.36-.36V163h4.72v8l2.3-2.3V163h5.68l2.3-2.3h-8V154.9H86.2l.36-.36-.36-.36H84.14V152l-2.3-2.3v4.48h-2.3V147.4l-2.3-2.3v9.07h-2.3V142.68l-2.3-2.3v13.79h-2.3V138l-2.3-2.3v18.51h-2.3v-20.8l-.36-.36-.36.36Z" transform="translate(-21 -107.12)"/><path class="cls-1" d="M65.39,179.09a1,1,0,1,0,1,1,1,1,0,0,0-1-1" transform="translate(-21 -107.12)"/><path class="cls-1" d="M39.87,153.57a1,1,0,1,0,1,1,1,1,0,0,0-1-1" transform="translate(-21 -107.12)"/><path class="cls-1" d="M90.91,153.57a1,1,0,1,0,1,1,1,1,0,0,0-1-1" transform="translate(-21 -107.12)"/><path class="cls-1" d="M65.39,177.52l-23-23.1,23-23.1,23,23.1Zm0-46.45s-4.72,2.66-12.82,10.77S42,154.41,42,154.41s2.66,4.72,10.77,12.82,12.58,10.52,12.58,10.52S70.11,175,78.21,167s10.52-12.58,10.52-12.58S86.07,149.7,78,141.59s-12.58-10.52-12.58-10.52" transform="translate(-21 -107.12)"/></g></svg>