<svg id="Layer_5" data-name="Layer 5" xmlns="http://www.w3.org/2000/svg" viewBox="0 0 233.05 78.93"><defs><style>.cls-1{fill:#1a171b;}.cls-2{fill:#565655;}.cls-3{fill:#fff;}</style></defs><title>barcelona_left-logo</title><path class="cls-1" d="M8,84.06H203c21,0,38,17.56,38,39.4S224,163,203,163H8Z" transform="translate(-7.95 -84.06)"/><path class="cls-2" d="M8,84.06H48.36c21,0,38,17.56,38,39.4s-17,39.53-38,39.53H8Z" transform="translate(-7.95 -84.06)"/><path class="cls-3" d="M48.56,148.06l20.57-20.57L48.56,106.92,28,127.49Zm20.87-20.57s-2.3,4.13-9.4,11.24-11.47,9.62-11.47,9.62-4.12-2.3-11.23-9.41-9.63-11.45-9.63-11.45,2.31-4.13,9.41-11.23,11.45-9.62,11.45-9.62,4.13,2.29,11.24,9.4,9.63,11.45,9.63,11.45M48.56,148.06l20.57-20.57L48.56,106.92,28,127.49Zm20.87-20.57s-2.3,4.13-9.4,11.24-11.47,9.62-11.47,9.62-4.12-2.3-11.23-9.41-9.63-11.45-9.63-11.45,2.31-4.13,9.41-11.23,11.45-9.62,11.45-9.62,4.13,2.29,11.24,9.4,9.63,11.45,9.63,11.45m-2-.29H65.55v-1.89Zm-4-4v4H61.37v-6.06Zm-4.17-4.17v8.14H57.21V117Zm-4.17-4.17V127.2H53V112.81ZM51,110.72V127.2H48.87V108.64ZM29.7,127.79h1.89v1.9Zm4,4v-4h2.09v6.06Zm4.16,4.17v-8.15h2.09V138ZM42,140.11V127.79H44.1v14.4Zm4.16,4.16V127.79h2.09v18.56Zm2.69-16.48H53V133H48.87ZM53,142.19l-4.17,4.16V135.07H53ZM44.1,112.8l4.17-4.16v11.29H44.1Zm4.17,14.4H44.1V122h4.17Zm22.21.3a.84.84,0,0,1,.85-.84.85.85,0,0,1,.85.84.86.86,0,0,1-.85.85.85.85,0,0,1-.85-.85M25,127.5a.85.85,0,0,1,1.7,0,.85.85,0,0,1-1.7,0m22.77,22.76a.85.85,0,0,1,1.69,0,.85.85,0,1,1-1.69,0M43.33,97.57a2.69,2.69,0,0,0-.78-.12c-1.17,0-2.1.71-2.1,1.57A1.43,1.43,0,0,0,41,100.1l-.92.92a2.66,2.66,0,0,1-.93-2,3.18,3.18,0,0,1,3.41-2.89,3.87,3.87,0,0,1,1.38.25,3.62,3.62,0,0,1,2.74-1.17,3.81,3.81,0,0,1,1.88.48,3.87,3.87,0,0,1,1.89-.48,3.61,3.61,0,0,1,2.74,1.17,3.85,3.85,0,0,1,1.39-.25A3.18,3.18,0,0,1,58,99a2.71,2.71,0,0,1-.94,2l-.92-.92A1.43,1.43,0,0,0,56.68,99c0-.86-.94-1.57-2.1-1.57a2.67,2.67,0,0,0-.79.12,2.33,2.33,0,0,1,.06.54,2.6,2.6,0,0,1-.53,1.56l-.94-.95a1.19,1.19,0,0,0,.16-.62c0-.88-.94-1.58-2.09-1.58a2.62,2.62,0,0,0-1.2.29v1.9H47.93V96.85a2.49,2.49,0,0,0-1.26-.32,1.89,1.89,0,0,0-2.09,1.58,1.32,1.32,0,0,0,.16.62l-.94.95a2.58,2.58,0,0,1-.53-1.56,2.22,2.22,0,0,1,.06-.54m-1.17,6.91.73,1.1a13.25,13.25,0,0,1,11.34,0l.73-1.1a15.08,15.08,0,0,0-12.81,0m5.53-11a.89.89,0,1,1,.89.88.88.88,0,0,1-.89-.88m-5.51,10a.59.59,0,1,1,.11-1.08,1,1,0,0,1,.78.63,1,1,0,0,1-.88.45m-.62-1.61a1,1,0,0,0-.84-.54.91.91,0,0,0,.68,1.52,1,1,0,0,0,.16-1m4,.64a1,1,0,0,1-.63-.77,1.07,1.07,0,0,1,1-.26,1,1,0,0,1,.62.78,1,1,0,0,1-1,.26m-.89.19a1,1,0,0,0,.26-1,.91.91,0,0,0-1.23,1.12,1,1,0,0,0,1-.15m.61-1.89a1,1,0,0,0-.69-.7,1,1,0,0,0-.36.92,1,1,0,0,0,.7.7,1,1,0,0,0,.35-.92m9.68,2.66A.59.59,0,1,0,54,103a1,1,0,0,0,.87.45m.61-1.61a1,1,0,0,1,.83-.54,1,1,0,0,1,.16,1,1,1,0,0,1-.83.54,1,1,0,0,1-.16-1m-4,.64a1,1,0,0,0,.63-.77,1.05,1.05,0,0,0-1-.26.59.59,0,1,0,.33,1m.88.19a1,1,0,0,1-.26-1,.91.91,0,0,1,1.23,1.12,1,1,0,0,1-1-.15m-.61-1.89a1,1,0,0,1,.71-.7,1,1,0,0,1,.35.92,1,1,0,0,1-.7.7,1,1,0,0,1-.35-.92m-3.72,1.42a1,1,0,0,0,.45-.88,1,1,0,0,0-1-.05.59.59,0,1,0,.54.93m.9,0a1,1,0,0,1-.45-.88,1,1,0,0,1,1-.05,1,1,0,0,1,.45.88,1,1,0,0,1-1,0m-1-1.71a1,1,0,0,1,.54-.83,1,1,0,0,1,.55.83,1,1,0,0,1-.55.83,1,1,0,0,1-.54-.83" transform="translate(-7.95 -84.06)"/><polygon class="cls-3" points="47.17 56.04 47.17 56.04 47.17 51.01 52.2 51.01 47.17 56.04"/><polygon class="cls-3" points="29.03 35.87 34.06 30.82 34.06 35.87 29.03 35.87"/><polygon class="cls-3" points="47.17 43.74 47.17 46.33 47.17 48.93 50.73 48.93 54.29 48.93 59.47 43.74 47.17 43.74"/><polygon class="cls-3" points="26.95 37.95 21.75 43.15 34.06 43.15 34.06 37.95 26.95 37.95"/><path class="cls-3" d="M207.7,133.48c0,1.82-1.3,2.81-3.14,2.81a1.62,1.62,0,0,1-1.75-1.54,1.72,1.72,0,0,1,1.77-1.6l3.11-.24Zm3.94,4.74V136a1.76,1.76,0,0,1-.38,0c-.5,0-.68-.21-.68-.78v-4.55a6.79,6.79,0,0,0-.35-2.48c-.7-1.84-2.5-2.5-4.6-2.5-2.74,0-4.93,1.23-5.09,4h2.85c.07-1.14.87-1.75,2.24-1.75,1.67,0,2.08.78,2.08,1.94v.76l-3.61.26c-2.34.16-4.15,1.5-4.15,3.84,0,2,1.51,3.85,4.43,3.85a4.3,4.3,0,0,0,3.73-1.84,1.92,1.92,0,0,0,2.08,1.72A3,3,0,0,0,211.64,138.22Zm-14.17.14v-8.18c0-2.55-1.53-4.39-4.15-4.39a4,4,0,0,0-3.61,1.89l-.22-1.58H187v12.26H190v-5a8.53,8.53,0,0,1,.4-3.28,2.31,2.31,0,0,1,2.12-1.56c1.56,0,2,.87,2,2.31v7.52Zm-16.27-6.13a4.52,4.52,0,0,1-.87,3.09,2.62,2.62,0,0,1-3.73,0,5.9,5.9,0,0,1,0-6.18,2.62,2.62,0,0,1,3.73,0,4.52,4.52,0,0,1,.87,3.09m3,0a6.68,6.68,0,0,0-1.44-4.53,5.78,5.78,0,0,0-8.59,0,7.86,7.86,0,0,0,0,9.06,5.78,5.78,0,0,0,8.59,0,6.68,6.68,0,0,0,1.44-4.53m-13,6.1v-2.47c-.17,0-.23,0-.5,0-1,0-1.18-.47-1.18-1.18v-13.4h-3V135.2c0,2.33,1.34,3.3,3.35,3.3a4.88,4.88,0,0,0,1.3-.17M160.86,131h-5.3a3,3,0,0,1,.63-1.91,2.52,2.52,0,0,1,2.05-.94,2.47,2.47,0,0,1,1.86.71,3.2,3.2,0,0,1,.75,2.15m2.95,1.32a6.91,6.91,0,0,0-1.06-4.27,5.18,5.18,0,0,0-4.48-2.26,5.32,5.32,0,0,0-3.92,1.56,6.89,6.89,0,0,0-1.77,4.9,6.65,6.65,0,0,0,1.88,4.91,5.36,5.36,0,0,0,3.87,1.51,5.26,5.26,0,0,0,4.13-1.72,4.82,4.82,0,0,0,1-2.26h-2.83a2.24,2.24,0,0,1-.59,1,2.29,2.29,0,0,1-1.79.59,2.59,2.59,0,0,1-1.82-.76,3.25,3.25,0,0,1-.9-2.41h8.21c0-.26,0-.83,0-.83m-13,1.7h-2.9a2.31,2.31,0,0,1-.35,1.13,2.14,2.14,0,0,1-1.89.92,2.42,2.42,0,0,1-1.79-.78,4.51,4.51,0,0,1-.82-3.09,4.58,4.58,0,0,1,.82-3.12,2.4,2.4,0,0,1,1.79-.75,2.14,2.14,0,0,1,1.89.92,2.32,2.32,0,0,1,.35,1.13h2.9a4.81,4.81,0,0,0-.94-2.67,5.36,5.36,0,0,0-4.2-1.93,5.6,5.6,0,0,0-4.27,1.93,8.16,8.16,0,0,0,0,9,5.6,5.6,0,0,0,4.27,1.93,5.35,5.35,0,0,0,4.2-1.93,4.81,4.81,0,0,0,.94-2.67m-11.65-5.19V126a6.16,6.16,0,0,0-.92-.07,3.53,3.53,0,0,0-3.47,2l-.26-1.84H132v12.26h3v-6.18c0-2,1.08-3.47,3.16-3.47a5,5,0,0,1,1,.12m-13.65,4.65c0,1.82-1.3,2.81-3.14,2.81a1.62,1.62,0,0,1-1.74-1.54,1.72,1.72,0,0,1,1.77-1.6l3.11-.24Zm3.94,4.74V136a1.75,1.75,0,0,1-.38,0c-.49,0-.68-.21-.68-.78v-4.55a6.83,6.83,0,0,0-.35-2.48c-.71-1.84-2.5-2.5-4.6-2.5-2.74,0-4.93,1.23-5.09,4h2.85c.07-1.14.87-1.75,2.24-1.75,1.68,0,2.08.78,2.08,1.94v.76l-3.61.26c-2.34.16-4.15,1.5-4.15,3.84,0,2,1.51,3.85,4.43,3.85a4.31,4.31,0,0,0,3.73-1.84,1.92,1.92,0,0,0,2.07,1.72A3,3,0,0,0,129.44,138.22Zm-16.51-4.78c0,1.7-1.53,2.22-3,2.22h-3.75V131h3.84c1.61,0,2.86.64,2.86,2.43m-.35-7.05c0,1.58-1.16,2.08-2.53,2.08h-3.82v-4.2H110c1.37,0,2.6.52,2.6,2.12M116,133.5a4.09,4.09,0,0,0-2.4-3.77,3.8,3.8,0,0,0,2-3.54,4.35,4.35,0,0,0-1.93-3.63,7.08,7.08,0,0,0-3.87-.92h-6.65v16.74h6.65a7,7,0,0,0,4.46-1.13,4.49,4.49,0,0,0,1.7-3.75" transform="translate(-7.95 -84.06)"/><path class="cls-3" d="M209.34,109.87h-3.81a2.16,2.16,0,0,1,.46-1.37,1.81,1.81,0,0,1,1.47-.68,1.77,1.77,0,0,1,1.34.51,2.3,2.3,0,0,1,.54,1.54m2.11.95a5,5,0,0,0-.76-3.07,3.72,3.72,0,0,0-3.22-1.62,3.82,3.82,0,0,0-2.81,1.12,4.94,4.94,0,0,0-1.26,3.52,4.78,4.78,0,0,0,1.35,3.52,3.84,3.84,0,0,0,2.77,1.08,3.77,3.77,0,0,0,3-1.23,3.46,3.46,0,0,0,.74-1.63h-2a1.59,1.59,0,0,1-.42.75,1.64,1.64,0,0,1-1.29.42,1.85,1.85,0,0,1-1.3-.54,2.33,2.33,0,0,1-.65-1.73h5.89c0-.19,0-.59,0-.59m-11.25-.08c0,1.27-.34,2.85-2,2.85a1.74,1.74,0,0,1-1.42-.69,3.56,3.56,0,0,1-.56-2.15,3.51,3.51,0,0,1,.56-2.13,1.74,1.74,0,0,1,1.42-.69c1.66,0,2,1.56,2,2.83m2,4.42V102.92H200.1v4a3,3,0,0,0-2.3-.83,3.31,3.31,0,0,0-2.15.71,4.82,4.82,0,0,0-1.57,3.93,4.73,4.73,0,0,0,1.56,3.84,3.36,3.36,0,0,0,2.15.75,2.88,2.88,0,0,0,2.47-1.17l.13,1ZM189.64,115v-1.78a10.52,10.52,0,0,1-1.37.09c-.68,0-1-.29-1-1v-4.28h2.22v-1.74h-2.22v-2.76l-2.11.52v2.23h-1.61v1.74h1.61v4.47a2.41,2.41,0,0,0,2.65,2.71,7.23,7.23,0,0,0,1.81-.24m-6.8.12v-5.88a3,3,0,0,0-5.57-1.79l-.15-1.13h-1.77v8.8h2.11v-3.59a6.09,6.09,0,0,1,.29-2.35,1.65,1.65,0,0,1,1.52-1.12c1.12,0,1.45.62,1.45,1.66v5.4Zm-10.91-5.28h-3.81a2.17,2.17,0,0,1,.46-1.37,1.8,1.8,0,0,1,1.47-.68,1.76,1.76,0,0,1,1.34.51,2.29,2.29,0,0,1,.54,1.54m2.12.95a5,5,0,0,0-.76-3.07,3.72,3.72,0,0,0-3.21-1.62,3.81,3.81,0,0,0-2.81,1.12,4.94,4.94,0,0,0-1.27,3.52,4.78,4.78,0,0,0,1.35,3.52,3.83,3.83,0,0,0,2.77,1.08,3.76,3.76,0,0,0,3-1.23,3.44,3.44,0,0,0,.75-1.63h-2a1.6,1.6,0,0,1-.42.75,1.65,1.65,0,0,1-1.29.42,1.85,1.85,0,0,1-1.3-.54,2.31,2.31,0,0,1-.64-1.73H174c0-.19,0-.59,0-.59m-9.27,4.33V109.2c0-1.83-1-3.08-2.86-3.08a2.93,2.93,0,0,0-2.66,1.44,2.61,2.61,0,0,0-2.52-1.44,2.82,2.82,0,0,0-2.5,1.39l-.17-1.17h-1.76v8.8h2.1v-4.81c0-1.1.54-2.37,1.74-2.37s1.35.63,1.35,1.71v5.47h2.1v-4.81c0-1.1.52-2.37,1.73-2.37s1.35.63,1.35,1.71v5.47Zm-16.46-3.5a2,2,0,0,1-2.25,2,1.16,1.16,0,0,1-1.25-1.1,1.24,1.24,0,0,1,1.27-1.15l2.23-.17Zm2.82,3.4v-1.55a1.27,1.27,0,0,1-.27,0c-.36,0-.49-.15-.49-.56V109.7a4.91,4.91,0,0,0-.25-1.78c-.51-1.32-1.79-1.79-3.3-1.79-2,0-3.54.88-3.66,2.86h2c.05-.81.63-1.25,1.61-1.25,1.2,0,1.49.56,1.49,1.39v.54l-2.59.19c-1.67.12-3,1.08-3,2.76,0,1.44,1.08,2.76,3.18,2.76A3.09,3.09,0,0,0,148.6,114a1.38,1.38,0,0,0,1.49,1.23A2.15,2.15,0,0,0,151.14,115Zm-8.78,0v-1.78a10.53,10.53,0,0,1-1.37.09c-.68,0-1-.29-1-1v-4.28h2.22v-1.74H140v-2.76l-2.11.52v2.23h-1.61v1.74h1.61v4.47a2.41,2.41,0,0,0,2.65,2.71,7.24,7.24,0,0,0,1.81-.24m-6.8.12v-5.88a3,3,0,0,0-5.56-1.79l-.15-1.13h-1.77v8.8h2.11v-3.59a6.13,6.13,0,0,1,.29-2.35,1.65,1.65,0,0,1,1.52-1.12c1.12,0,1.46.62,1.46,1.66v5.4Zm-9.46,0v-8.8H124V111a2.7,2.7,0,0,1-.64,2,1.45,1.45,0,0,1-1.08.44c-1.12,0-1.52-.64-1.52-1.68v-5.4h-2.12v5.88a2.9,2.9,0,0,0,3,3.15,2.72,2.72,0,0,0,2.52-1.37l.15,1.15Zm-9.32,1.22v-10h-2.13V116a.89.89,0,0,1-1,.95,9,9,0,0,1-1-.1v1.79a7.14,7.14,0,0,0,1,.19,5.91,5.91,0,0,0,.74,0,2.26,2.26,0,0,0,2.47-2.45m.05-13.46h-2.26v2.18h2.26Zm-6.87,8h-3.42l1.71-5.06Zm3.74,4.26-4.21-12H107.1l-4.21,12h2.2l.78-2.3h4.77l.78,2.3Z" transform="translate(-7.95 -84.06)"/></svg>