<svg id="Layer_5" data-name="Layer 5" xmlns="http://www.w3.org/2000/svg" viewBox="0 0 234 79.84"><defs><style>.cls-1{fill:#565655;}.cls-2{fill:#fff;}</style></defs><title>barcelona_middle-logo</title><path d="M86.83,123.56A39.91,39.91,0,0,0,47.38,83.65h153.7a39.92,39.92,0,1,1,0,79.83H47A39.92,39.92,0,0,0,86.83,123.56Z" transform="translate(-7 -83.64)"/><path class="cls-1" d="M46.92,83.64h.47A39.92,39.92,0,0,1,47,163.48h-.05a39.92,39.92,0,0,1,0-79.84Z" transform="translate(-7 -83.64)"/><path class="cls-2" d="M46.7,148.46l20.93-20.93L46.7,106.6,25.77,127.53Zm21.23-20.93s-2.34,4.2-9.57,11.43-11.67,9.79-11.67,9.79-4.19-2.34-11.43-9.58-9.8-11.65-9.8-11.65,2.35-4.2,9.58-11.43,11.65-9.79,11.65-9.79,4.21,2.33,11.44,9.56,9.8,11.66,9.8,11.66M46.7,148.46l20.93-20.93L46.7,106.6,25.77,127.53Zm21.23-20.93s-2.34,4.2-9.57,11.43-11.67,9.79-11.67,9.79-4.19-2.34-11.43-9.58-9.8-11.65-9.8-11.65,2.35-4.2,9.58-11.43,11.65-9.79,11.65-9.79,4.21,2.33,11.44,9.56,9.8,11.66,9.8,11.66m-2-.3H64v-1.92Zm-4-4v4H59.74v-6.17ZM57.62,119v8.28H55.5V116.83Zm-4.25-4.25v12.53H51.26V112.59Zm-4.24-4.24v16.77H47V108.35ZM27.52,127.84h1.92v1.93Zm4,4v-4h2.12V134Zm4.23,4.24v-8.29h2.13v10.4ZM40,140.37V127.84h2.12v14.65Zm4.23,4.24V127.84h2.13v18.88ZM47,127.84h4.25v5.28H47Zm4.25,14.65L47,146.72V135.24h4.25Zm-9.1-29.91,4.24-4.23v11.48H42.16Zm4.24,14.65H42.16V122h4.24Zm22.6.31a.85.85,0,0,1,.86-.86.86.86,0,0,1,.87.86.88.88,0,0,1-.87.87.87.87,0,0,1-.86-.87m-46.32,0a.87.87,0,0,1,1.73,0,.87.87,0,0,1-1.73,0M45.85,150.7a.86.86,0,1,1,.86.86.86.86,0,0,1-.86-.86M41.39,97.09a2.8,2.8,0,0,0-.79-.12c-1.19,0-2.14.72-2.14,1.6A1.44,1.44,0,0,0,39,99.66l-.94.94a2.7,2.7,0,0,1-.95-2,3.23,3.23,0,0,1,3.47-2.94,3.92,3.92,0,0,1,1.4.25,3.69,3.69,0,0,1,2.79-1.19,3.87,3.87,0,0,1,1.91.48,4,4,0,0,1,1.92-.48,3.68,3.68,0,0,1,2.79,1.19,3.91,3.91,0,0,1,1.41-.25,3.23,3.23,0,0,1,3.47,2.94,2.75,2.75,0,0,1-1,2l-.93-.94A1.45,1.45,0,0,0,55,98.57c0-.88-1-1.6-2.13-1.6a2.73,2.73,0,0,0-.8.12,2.47,2.47,0,0,1,.06.55,2.62,2.62,0,0,1-.54,1.59l-1-1a1.22,1.22,0,0,0,.17-.63c0-.89-.95-1.61-2.13-1.61a2.66,2.66,0,0,0-1.22.29v1.93H46.06V96.36A2.51,2.51,0,0,0,44.78,96c-1.17,0-2.13.71-2.13,1.61a1.33,1.33,0,0,0,.17.63l-1,1a2.63,2.63,0,0,1-.54-1.59,2.25,2.25,0,0,1,.06-.55m-1.19,7,.75,1.12a13.5,13.5,0,0,1,11.54,0l.74-1.12a15.35,15.35,0,0,0-13,0m5.62-11.23a.9.9,0,1,1,.9.9.9.9,0,0,1-.9-.9M40.21,103a1,1,0,0,1-.79-.64,1,1,0,0,1,.9-.46.61.61,0,1,1-.11,1.1m-.63-1.64a1,1,0,0,0-.85-.54.93.93,0,0,0,.69,1.54,1,1,0,0,0,.16-1m4,.65a1,1,0,0,1-.64-.78,1.07,1.07,0,0,1,1-.27A.6.6,0,1,1,43.6,102m-.9.2a1,1,0,0,0,.26-1,.92.92,0,0,0-1.25,1.13,1,1,0,0,0,1-.15m.62-1.92a1,1,0,0,0-.71-.71,1,1,0,0,0-.37.94,1,1,0,0,0,.72.71,1,1,0,0,0,.36-.94M53.17,103a.61.61,0,1,0-.12-1.1,1,1,0,0,0-.77.64,1.06,1.06,0,0,0,.89.46m.62-1.64a1.06,1.06,0,0,1,.84-.54,1,1,0,0,1,.17,1,1,1,0,0,1-.85.55,1,1,0,0,1-.17-1m-4,.65a1,1,0,0,0,.64-.78,1.06,1.06,0,0,0-1-.27,1,1,0,0,0-.64.79,1,1,0,0,0,1,.26m.9.2a1,1,0,0,1-.26-1,.92.92,0,0,1,1.25,1.13,1,1,0,0,1-1-.15m-.62-1.92a1,1,0,0,1,.72-.71,1.06,1.06,0,0,1,.35.94,1,1,0,0,1-.71.71,1,1,0,0,1-.36-.94m-3.78,1.45a1,1,0,0,0,.46-.9,1,1,0,0,0-1-.05,1,1,0,0,0-.46.9,1,1,0,0,0,1,0m.92,0a1,1,0,0,1-.46-.9,1,1,0,0,1,1-.05,1,1,0,0,1,.46.9,1,1,0,0,1-1,0m-1-1.74a1,1,0,0,1,.55-.85,1,1,0,0,1,.56.85,1.05,1.05,0,0,1-.56.84,1,1,0,0,1-.55-.84" transform="translate(-7 -83.64)"/><polygon class="cls-2" points="46.38 56.72 46.38 56.72 46.38 51.6 51.5 51.6 46.38 56.72"/><polygon class="cls-2" points="27.92 36.2 33.04 31.06 33.04 36.2 27.92 36.2"/><polygon class="cls-2" points="46.38 44.2 46.38 46.84 46.38 49.48 50 49.48 53.62 49.48 58.9 44.2 46.38 44.2"/><polygon class="cls-2" points="25.8 38.31 20.52 43.59 33.04 43.59 33.04 38.31 25.8 38.31"/><path class="cls-2" d="M207.76,133.73c0,1.83-1.31,2.83-3.16,2.83a1.63,1.63,0,0,1-1.76-1.54,1.73,1.73,0,0,1,1.78-1.61l3.13-.24Zm4,4.77v-2.18a1.82,1.82,0,0,1-.38,0c-.5,0-.69-.21-.69-.78V131a6.81,6.81,0,0,0-.36-2.49c-.71-1.85-2.51-2.51-4.62-2.51-2.75,0-5,1.23-5.12,4h2.87c.07-1.14.88-1.76,2.26-1.76,1.69,0,2.09.78,2.09,1.95V131l-3.63.26c-2.35.16-4.17,1.51-4.17,3.86,0,2,1.52,3.87,4.46,3.87a4.32,4.32,0,0,0,3.75-1.85,1.94,1.94,0,0,0,2.09,1.73A3,3,0,0,0,211.72,138.5Zm-14.26.14v-8.23c0-2.56-1.54-4.41-4.17-4.41a4.07,4.07,0,0,0-3.63,1.9l-.21-1.59H187v12.33h3v-5a8.56,8.56,0,0,1,.4-3.3,2.33,2.33,0,0,1,2.14-1.57c1.57,0,2,.88,2,2.32v7.57Zm-16.37-6.17a4.55,4.55,0,0,1-.88,3.11,2.63,2.63,0,0,1-3.75,0,5.95,5.95,0,0,1,0-6.22,2.64,2.64,0,0,1,3.75,0,4.55,4.55,0,0,1,.88,3.11m3,0a6.72,6.72,0,0,0-1.44-4.55,5.81,5.81,0,0,0-8.63,0,7.9,7.9,0,0,0,0,9.11,5.81,5.81,0,0,0,8.63,0,6.73,6.73,0,0,0,1.44-4.56M171,138.62v-2.49c-.17,0-.24,0-.5,0-1,0-1.19-.47-1.19-1.19V121.49h-3v14c0,2.35,1.35,3.32,3.37,3.32a4.93,4.93,0,0,0,1.31-.16m-10.35-7.37H155.3a3,3,0,0,1,.64-1.92,2.53,2.53,0,0,1,2.07-.95,2.49,2.49,0,0,1,1.87.71,3.22,3.22,0,0,1,.76,2.16m3,1.33a7,7,0,0,0-1.07-4.29A5.21,5.21,0,0,0,158,126a5.35,5.35,0,0,0-3.94,1.56,6.94,6.94,0,0,0-1.78,4.94,6.69,6.69,0,0,0,1.9,4.94,5.38,5.38,0,0,0,3.89,1.52,5.3,5.3,0,0,0,4.15-1.73,4.89,4.89,0,0,0,1-2.28h-2.85a2.23,2.23,0,0,1-.59,1,2.31,2.31,0,0,1-1.8.59,2.6,2.6,0,0,1-1.82-.76,3.26,3.26,0,0,1-.9-2.42h8.26c0-.26,0-.83,0-.83m-13.07,1.71h-2.92a2.43,2.43,0,0,1-.36,1.14,2.16,2.16,0,0,1-1.9.93,2.42,2.42,0,0,1-1.8-.78,4.53,4.53,0,0,1-.83-3.11,4.59,4.59,0,0,1,.83-3.13,2.4,2.4,0,0,1,1.8-.76,2.16,2.16,0,0,1,1.9.93,2.41,2.41,0,0,1,.36,1.14h2.92a4.82,4.82,0,0,0-1-2.68,5.39,5.39,0,0,0-4.22-1.94,5.63,5.63,0,0,0-4.29,1.94,8.2,8.2,0,0,0,0,9,5.63,5.63,0,0,0,4.29,1.94,5.39,5.39,0,0,0,4.22-1.94,4.81,4.81,0,0,0,1-2.68m-11.72-5.22v-2.84a6.07,6.07,0,0,0-.92-.07,3.55,3.55,0,0,0-3.49,2l-.26-1.85h-2.52v12.33h3v-6.22c0-2,1.09-3.49,3.18-3.49a5,5,0,0,1,1,.12m-13.73,4.67c0,1.83-1.31,2.83-3.16,2.83a1.62,1.62,0,0,1-1.76-1.54,1.73,1.73,0,0,1,1.78-1.61l3.13-.24Zm4,4.77v-2.18a1.82,1.82,0,0,1-.38,0c-.5,0-.69-.21-.69-.78V131a6.89,6.89,0,0,0-.36-2.49c-.71-1.85-2.51-2.51-4.63-2.51-2.75,0-5,1.23-5.12,4h2.87c.07-1.14.88-1.76,2.26-1.76,1.69,0,2.09.78,2.09,1.95V131l-3.63.26c-2.35.16-4.17,1.51-4.17,3.86,0,2,1.52,3.87,4.46,3.87a4.33,4.33,0,0,0,3.75-1.85,1.93,1.93,0,0,0,2.09,1.73A3,3,0,0,0,129,138.5Zm-16.6-4.81c0,1.71-1.54,2.23-3,2.23H105.7v-4.68h3.87c1.62,0,2.87.64,2.87,2.45m-.36-7.09c0,1.59-1.16,2.09-2.54,2.09H105.7v-4.23h3.77c1.38,0,2.61.52,2.61,2.14m3.46,7.16a4.11,4.11,0,0,0-2.42-3.8,3.82,3.82,0,0,0,2.06-3.56,4.37,4.37,0,0,0-1.94-3.65,7.11,7.11,0,0,0-3.89-.92h-6.69v16.84h6.69a7,7,0,0,0,4.48-1.14,4.52,4.52,0,0,0,1.71-3.77" transform="translate(-7 -83.64)"/><path class="cls-2" d="M209.41,110h-3.83a2.18,2.18,0,0,1,.46-1.38,1.82,1.82,0,0,1,1.48-.68,1.78,1.78,0,0,1,1.35.51,2.31,2.31,0,0,1,.54,1.55m2.13,1a5,5,0,0,0-.77-3.09,3.75,3.75,0,0,0-3.24-1.63,3.84,3.84,0,0,0-2.82,1.12,5,5,0,0,0-1.27,3.54,4.81,4.81,0,0,0,1.36,3.54,3.87,3.87,0,0,0,2.79,1.09,3.8,3.8,0,0,0,3-1.24,3.51,3.51,0,0,0,.75-1.64h-2a1.61,1.61,0,0,1-.43.75,1.66,1.66,0,0,1-1.29.43,1.87,1.87,0,0,1-1.31-.55,2.33,2.33,0,0,1-.65-1.74h5.92c0-.19,0-.59,0-.59m-11.32-.09c0,1.28-.34,2.86-2,2.86a1.75,1.75,0,0,1-1.43-.7,3.58,3.58,0,0,1-.56-2.16,3.53,3.53,0,0,1,.56-2.15,1.75,1.75,0,0,1,1.43-.7c1.67,0,2,1.57,2,2.84m2,4.44V103h-2.13v4.05a3,3,0,0,0-2.31-.83,3.33,3.33,0,0,0-2.16.71,4.85,4.85,0,0,0-1.58,4,4.76,4.76,0,0,0,1.57,3.87,3.38,3.38,0,0,0,2.16.75,2.89,2.89,0,0,0,2.49-1.17l.13,1Zm-12.65-.12v-1.79a10.55,10.55,0,0,1-1.38.08c-.68,0-1-.29-1-1v-4.31h2.23v-1.75h-2.23v-2.78l-2.13.53v2.25h-1.62v1.75h1.62v4.5a2.43,2.43,0,0,0,2.67,2.72,7.28,7.28,0,0,0,1.82-.24m-6.84.12v-5.91a3.06,3.06,0,0,0-5.6-1.8l-.15-1.14h-1.78v8.85h2.13v-3.61a6.14,6.14,0,0,1,.29-2.37,1.66,1.66,0,0,1,1.53-1.12c1.12,0,1.46.63,1.46,1.67v5.43Zm-11-5.31H168a2.17,2.17,0,0,1,.46-1.38,1.81,1.81,0,0,1,1.48-.68,1.78,1.78,0,0,1,1.35.51,2.3,2.3,0,0,1,.54,1.55m2.13,1a5,5,0,0,0-.77-3.09,3.74,3.74,0,0,0-3.23-1.63,3.83,3.83,0,0,0-2.82,1.12,5,5,0,0,0-1.28,3.54,4.81,4.81,0,0,0,1.36,3.54,3.86,3.86,0,0,0,2.79,1.09,3.8,3.8,0,0,0,3-1.24,3.55,3.55,0,0,0,.75-1.64h-2a1.61,1.61,0,0,1-.43.75,1.65,1.65,0,0,1-1.29.43,1.86,1.86,0,0,1-1.31-.55,2.34,2.34,0,0,1-.65-1.74h5.92c0-.19,0-.59,0-.59m-9.33,4.36v-6c0-1.84-1-3.1-2.87-3.1a3,3,0,0,0-2.67,1.44,2.62,2.62,0,0,0-2.54-1.44,2.83,2.83,0,0,0-2.52,1.39l-.17-1.17H152v8.85h2.11v-4.84c0-1.11.55-2.38,1.75-2.38s1.36.63,1.36,1.72v5.5h2.11v-4.84c0-1.11.53-2.38,1.74-2.38s1.36.63,1.36,1.72v5.5ZM148,111.77a2,2,0,0,1-2.26,2,1.17,1.17,0,0,1-1.26-1.11,1.24,1.24,0,0,1,1.28-1.16l2.25-.17Zm2.84,3.42v-1.56a1.3,1.3,0,0,1-.27,0c-.36,0-.49-.15-.49-.56v-3.29a4.94,4.94,0,0,0-.26-1.79c-.51-1.33-1.8-1.8-3.32-1.8-2,0-3.55.88-3.68,2.88h2.06c.05-.82.63-1.26,1.62-1.26,1.21,0,1.5.56,1.5,1.4v.54l-2.61.19c-1.68.12-3,1.09-3,2.78,0,1.45,1.09,2.77,3.2,2.77a3.11,3.11,0,0,0,2.69-1.33,1.39,1.39,0,0,0,1.5,1.24A2.16,2.16,0,0,0,150.87,115.19Zm-8.83,0v-1.79a10.62,10.62,0,0,1-1.38.08c-.68,0-1-.29-1-1v-4.31h2.23v-1.75h-2.23v-2.78l-2.13.53v2.25h-1.62v1.75h1.62v4.5a2.43,2.43,0,0,0,2.67,2.72,7.31,7.31,0,0,0,1.82-.24m-6.84.12v-5.91a3.06,3.06,0,0,0-5.6-1.8l-.15-1.14h-1.78v8.85h2.13v-3.61a6.18,6.18,0,0,1,.29-2.37,1.66,1.66,0,0,1,1.53-1.12c1.13,0,1.46.63,1.46,1.67v5.43Zm-9.51,0v-8.85h-2.12v4.68a2.71,2.71,0,0,1-.65,2,1.46,1.46,0,0,1-1.09.44c-1.12,0-1.53-.65-1.53-1.69v-5.43h-2.13v5.91a2.92,2.92,0,0,0,3.06,3.16,2.74,2.74,0,0,0,2.54-1.38l.15,1.16Zm-9.38,1.23V106.44h-2.14v9.67a.9.9,0,0,1-1,1,9.28,9.28,0,0,1-1-.1v1.8a7.49,7.49,0,0,0,1,.19,5.73,5.73,0,0,0,.75,0,2.28,2.28,0,0,0,2.48-2.47m.05-13.54h-2.28v2.2h2.28Zm-6.91,8H106l1.72-5.09Zm3.76,4.29L109,103.22h-2.4l-4.24,12.07h2.21l.78-2.32h4.8l.78,2.32Z" transform="translate(-7 -83.64)"/></svg>