<?xml version="1.0" encoding="utf-8"?>
<!-- Generator: Adobe Illustrator 22.0.0, SVG Export Plug-In . SVG Version: 6.00 Build 0)  -->
<svg version="1.1" xmlns="http://www.w3.org/2000/svg" xmlns:xlink="http://www.w3.org/1999/xlink" x="0px" y="0px"
	 viewBox="0 0 226.8 85" style="enable-background:new 0 0 226.8 85;" xml:space="preserve">
<style type="text/css">
	.st0{fill:#FFFFFF;}
</style>
<g id="Capa_1">
</g>
<g id="dsgn">
	<g>
		<path class="st0" d="M80.1,43.9c0-17.5-11.9-32.3-28-36.8h132.8c20.4,0,36.8,16.5,36.8,36.9c0,20.3-16.5,36.8-36.8,36.8
			c0,0,0,0-0.1,0H52C68.2,76.3,80.1,61.5,80.1,43.9z"/>
		<path class="st0" d="M41.8,8.5c19.5,0,35.4,15.9,35.4,35.4c0,19.5-15.9,35.4-35.4,35.4c-19.5,0-35.4-15.9-35.4-35.4
			C6.4,24.4,22.3,8.5,41.8,8.5z"/>
	</g>
	<g>
		<g>
			<g>
				<path d="M40.9,23.3c-0.3,0.2-0.4,0.5-0.4,0.8c0.3,0.2,0.6,0.2,0.9,0c0.3-0.2,0.4-0.5,0.4-0.8c0,0.4,0.1,0.7,0.4,0.8
					c0.3,0.1,0.6,0.1,0.9,0c0-0.4-0.1-0.7-0.4-0.8c-0.2-0.2-0.6-0.1-0.9,0c0.3-0.2,0.5-0.5,0.5-0.8c0-0.3-0.2-0.6-0.5-0.8
					c-0.3,0.2-0.5,0.5-0.5,0.8c0,0.3,0.2,0.6,0.5,0.8C41.5,23.2,41.1,23.1,40.9,23.3"/>
				<path d="M44.2,23.4c-0.3,0.1-0.5,0.4-0.6,0.7c0.3,0.2,0.6,0.3,0.9,0.2c0.3-0.1,0.5-0.4,0.6-0.7c-0.1,0.4,0,0.7,0.2,0.9
					c0.2,0.2,0.5,0.2,0.9,0.1c0.1-0.4,0-0.7-0.2-0.9c-0.2-0.2-0.5-0.2-0.9-0.1c0.3-0.1,0.6-0.4,0.6-0.7c0.1-0.3-0.1-0.6-0.3-0.9
					c-0.3,0.1-0.6,0.3-0.6,0.6c-0.1,0.3,0.1,0.6,0.3,0.9C44.7,23.4,44.4,23.3,44.2,23.4"/>
				<path d="M48.1,24.7c0.3-0.1,0.6-0.2,0.7-0.5c0.1-0.3,0.1-0.6-0.1-0.9c-0.3,0.1-0.6,0.2-0.8,0.5C47.9,24.1,47.9,24.4,48.1,24.7
					c-0.2-0.3-0.5-0.5-0.8-0.4c-0.3,0-0.5,0.3-0.7,0.6c0.2,0.3,0.5,0.5,0.8,0.4C47.8,25.3,48,25,48.1,24.7"/>
				<path d="M37.6,23.8c-0.2,0.2-0.3,0.5-0.2,0.9c0.3,0.1,0.7,0.1,0.9-0.1c0.2-0.2,0.3-0.5,0.2-0.9C38.1,23.6,37.8,23.6,37.6,23.8"
					/>
				<path d="M39,24.4c0.3,0.1,0.6,0,0.9-0.2c-0.1-0.3-0.3-0.6-0.6-0.7c-0.3-0.1-0.6,0-0.8,0.2c0.2-0.3,0.4-0.6,0.3-0.9
					c-0.1-0.3-0.3-0.5-0.6-0.7c-0.2,0.3-0.4,0.6-0.3,0.9c0.1,0.3,0.3,0.5,0.6,0.6C38.5,24,38.7,24.3,39,24.4"/>
				<path d="M35.5,23.8c-0.1-0.3-0.4-0.5-0.7-0.5c-0.2,0.3-0.3,0.6-0.1,0.9c0.1,0.3,0.4,0.5,0.8,0.5c0.2,0.3,0.4,0.5,0.7,0.6
					c0.3,0,0.6-0.1,0.8-0.4c-0.2-0.3-0.4-0.5-0.7-0.6c-0.3,0-0.6,0.1-0.8,0.4C35.5,24.4,35.6,24.1,35.5,23.8"/>
				<path d="M41.8,16.8c0.4,0,0.8-0.4,0.8-0.8c0-0.5-0.4-0.8-0.8-0.8c-0.4,0-0.8,0.4-0.8,0.8C41,16.5,41.3,16.8,41.8,16.8"/>
				<path d="M41.7,26.1c1.9,0,3.6,0.5,5.1,1.2l0.7-1c-1.7-0.8-3.6-1.3-5.7-1.3c-2.1,0-4.1,0.5-5.8,1.3l0.7,1
					C38.2,26.6,39.9,26.1,41.7,26.1"/>
				<path d="M34.1,23.1l0.8-0.9c-0.3-0.3-0.5-0.6-0.5-1c0-0.8,0.8-1.5,1.9-1.5c0.3,0,0.5,0,0.7,0.1c0,0.2-0.1,0.3-0.1,0.5
					c0,0.5,0.2,1,0.5,1.5l0.8-0.9c-0.1-0.2-0.2-0.4-0.2-0.6c0-0.8,0.8-1.5,1.9-1.5c0.4,0,0.8,0.1,1.1,0.3v1.7h1.2v-1.8
					c0.3-0.2,0.7-0.3,1.1-0.3c1,0,1.9,0.7,1.9,1.5c0,0.2-0.1,0.4-0.2,0.6l0.8,0.9c0.3-0.4,0.5-0.9,0.5-1.5c0-0.2,0-0.3-0.1-0.5
					c0.2-0.1,0.5-0.1,0.7-0.1c1,0,1.9,0.7,1.9,1.5c0,0.4-0.2,0.7-0.5,1l0.8,0.9c0.5-0.5,0.8-1.1,0.8-1.8c0-1.5-1.4-2.7-3.1-2.7
					c-0.4,0-0.9,0.1-1.2,0.2c-0.6-0.7-1.4-1.1-2.5-1.1c-0.6,0-1.2,0.2-1.7,0.4c-0.5-0.3-1.1-0.4-1.7-0.4c-1,0-1.9,0.4-2.5,1.1
					c-0.4-0.1-0.8-0.2-1.2-0.2c-1.7,0-3.1,1.2-3.1,2.7C33.3,21.9,33.6,22.6,34.1,23.1"/>
				<path d="M42,48h3.7v4.8H42V48z M41.5,47.4h-3.7v-4.8h3.7V47.4z M41.5,40.7h-3.7V34L35.9,36v4.7h-4.5l-1.9,1.9h6.4v4.8h-11
					l-0.3,0.3l0.3,0.3h1.7v1.8l1.9,1.9V48h1.9v5.6l1.9,1.9V48H34v9.5l1.9,1.9V48h1.9v13.4l1.9,1.9V48h1.9v17.3l0.3,0.3l0.3-0.3V54.8
					h3.7v6.6l1.9-1.9v-4.7h4.5l1.9-1.9h-6.4V48h11l0.3-0.3l-0.3-0.3H57v-1.8l-1.9-1.9v3.7h-1.9v-5.6l-1.9-1.9v7.6h-1.9v-9.5L47.6,36
					v11.5h-1.9V34l-1.9-1.9v15.3H42V30.2l-0.3-0.3l-0.3,0.3V40.7z"/>
				<path d="M41.8,68.1c-0.4,0-0.8,0.4-0.8,0.8c0,0.4,0.3,0.8,0.8,0.8c0.4,0,0.8-0.4,0.8-0.8C42.5,68.5,42.2,68.1,41.8,68.1"/>
				<path d="M21.3,46.9c-0.4,0-0.8,0.4-0.8,0.8c0,0.4,0.3,0.8,0.8,0.8c0.4,0,0.8-0.4,0.8-0.8C22.1,47.3,21.7,46.9,21.3,46.9"/>
				<path d="M62.2,46.9c-0.4,0-0.8,0.4-0.8,0.8c0,0.4,0.3,0.8,0.8,0.8c0.4,0,0.8-0.4,0.8-0.8C62.9,47.3,62.6,46.9,62.2,46.9"/>
				<path d="M41.7,66.9L23.3,47.7l18.5-19.1l18.5,19.1L41.7,66.9z M41.7,28.3c0,0-3.8,2.2-10.3,9C25.1,43.9,23,47.7,23,47.7
					s2.2,4,8.6,10.7c6.4,6.6,10.1,8.8,10.1,8.8s3.8-2.3,10.3-9c6.4-6.6,8.4-10.5,8.4-10.5s-2.2-4-8.6-10.7
					C45.5,30.4,41.7,28.3,41.7,28.3"/>
			</g>
		</g>
	</g>
	<g>
		<path d="M187.2,53.3c0,1.7-1.2,2.6-2.9,2.6c-0.9,0-1.6-0.5-1.6-1.4c0-0.9,0.8-1.4,1.6-1.5l2.9-0.2V53.3z M190.8,57.7v-2
			c0,0-0.2,0-0.4,0c-0.5,0-0.6-0.2-0.6-0.7v-4.2c0-0.8,0-1.6-0.3-2.3c-0.7-1.7-2.3-2.3-4.3-2.3c-2.5,0-4.6,1.1-4.7,3.7h2.6
			c0.1-1,0.8-1.6,2.1-1.6c1.5,0,1.9,0.7,1.9,1.8v0.7l-3.3,0.2c-2.2,0.2-3.8,1.4-3.8,3.6c0,1.9,1.4,3.6,4.1,3.6
			c1.6,0,2.9-0.8,3.4-1.7c0.1,0.8,0.7,1.6,1.9,1.6C190.1,58,190.4,57.9,190.8,57.7z M177.7,57.8v-7.6c0-2.4-1.4-4.1-3.8-4.1
			c-1.3,0-2.7,0.5-3.3,1.7l-0.2-1.5H168v11.4h2.7v-4.6c0-1,0-2.1,0.4-3c0.4-0.8,1-1.4,2-1.4c1.4,0,1.9,0.8,1.9,2.1v7H177.7z
			 M162.6,52.1c0,1.1-0.2,2.1-0.8,2.9c-0.4,0.4-1,0.7-1.7,0.7c-0.7,0-1.4-0.3-1.7-0.7c-0.7-0.7-0.8-1.8-0.8-2.9
			c0-1.1,0.2-2.1,0.8-2.9c0.4-0.4,1-0.7,1.7-0.7c0.7,0,1.4,0.3,1.7,0.7C162.5,50,162.6,51,162.6,52.1 M165.4,52.1
			c0-1.9-0.5-3.1-1.3-4.2c-0.8-1-2.2-1.8-4-1.8c-1.7,0-3.2,0.8-4,1.8c-0.9,1.1-1.3,2.3-1.3,4.2c0,1.9,0.5,3.1,1.3,4.2
			c0.8,1,2.2,1.8,4,1.8c1.7,0,3.2-0.8,4-1.8C164.9,55.2,165.4,54,165.4,52.1 M153.3,57.8v-2.3c-0.2,0-0.2,0-0.5,0
			c-0.9,0-1.1-0.4-1.1-1.1V42H149v12.9c0,2.2,1.2,3.1,3.1,3.1C152.7,57.9,152.8,57.9,153.3,57.8 M143.8,51h-4.9
			c0-0.7,0.2-1.3,0.6-1.8c0.4-0.5,1.1-0.9,1.9-0.9c0.8,0,1.3,0.3,1.7,0.7C143.5,49.5,143.8,50.1,143.8,51 M146.5,52.2
			c0-1.4-0.1-2.7-1-4c-0.9-1.4-2.5-2.1-4.2-2.1c-1.5,0-2.8,0.6-3.6,1.4c-1.1,1.1-1.6,2.7-1.6,4.5c0,1.9,0.6,3.5,1.7,4.5
			c0.9,0.9,2,1.4,3.6,1.4c1.4,0,2.9-0.5,3.8-1.6c0.4-0.5,0.9-1.4,1-2.1h-2.6c-0.1,0.4-0.3,0.7-0.5,1c-0.4,0.4-0.9,0.5-1.7,0.5
			c-0.7,0-1.3-0.3-1.7-0.7c-0.5-0.5-0.9-1.4-0.8-2.2h7.6C146.5,52.7,146.5,52.2,146.5,52.2 M134.5,53.8h-2.7c0,0.4-0.2,0.8-0.3,1
			c-0.3,0.5-0.9,0.9-1.7,0.9c-0.7,0-1.3-0.3-1.7-0.7c-0.7-0.7-0.8-1.8-0.8-2.9c0-1.1,0.1-2.2,0.8-2.9c0.4-0.4,0.9-0.7,1.7-0.7
			c0.8,0,1.4,0.3,1.7,0.9c0.2,0.3,0.3,0.6,0.3,1h2.7c0-0.9-0.3-1.8-0.9-2.5c-0.8-1-2.2-1.8-3.9-1.8c-1.7,0-3.2,0.8-4,1.8
			c-0.8,1.1-1.2,2.5-1.2,4.1c0,1.7,0.4,3.1,1.2,4.1c0.8,1,2.2,1.8,4,1.8c1.7,0,3.1-0.8,3.9-1.8C134.2,55.6,134.5,54.7,134.5,53.8
			 M123.7,49v-2.6c-0.3,0-0.6-0.1-0.9-0.1c-1.3,0-2.7,0.5-3.2,1.9l-0.2-1.7h-2.3v11.4h2.8v-5.7c0-1.8,1-3.2,2.9-3.2
			C123.1,48.9,123.4,48.9,123.7,49 M111.1,53.3c0,1.7-1.2,2.6-2.9,2.6c-0.9,0-1.6-0.5-1.6-1.4c0-0.9,0.8-1.4,1.6-1.5l2.9-0.2V53.3z
			 M114.7,57.7v-2c0,0-0.2,0-0.4,0c-0.5,0-0.6-0.2-0.6-0.7v-4.2c0-0.8,0-1.6-0.3-2.3c-0.7-1.7-2.3-2.3-4.3-2.3
			c-2.5,0-4.6,1.1-4.7,3.7h2.6c0.1-1,0.8-1.6,2.1-1.6c1.6,0,1.9,0.7,1.9,1.8v0.7l-3.3,0.2c-2.2,0.2-3.8,1.4-3.8,3.6
			c0,1.9,1.4,3.6,4.1,3.6c1.6,0,2.9-0.8,3.5-1.7c0.1,0.8,0.7,1.6,1.9,1.6C114,58,114.3,57.9,114.7,57.7z M99.4,53.2
			c0,1.6-1.4,2.1-2.7,2.1h-3.5V51h3.6C98.3,51,99.4,51.6,99.4,53.2 M99.1,46.7c0,1.5-1.1,1.9-2.3,1.9h-3.5v-3.9h3.5
			C98,44.7,99.1,45.2,99.1,46.7 M102.3,53.3c0-1.4-0.8-2.8-2.2-3.5c1.3-0.6,1.9-2,1.9-3.3c0-1.3-0.7-2.6-1.8-3.4
			c-1-0.7-2.3-0.8-3.6-0.8h-6.2v15.5h6.2c1.5,0,2.9-0.1,4.1-1C101.8,55.9,102.3,54.7,102.3,53.3"/>
		<g>
			<path d="M188.7,31.4h-3.5c0-0.5,0.1-0.9,0.4-1.3c0.3-0.4,0.8-0.6,1.4-0.6c0.6,0,1,0.2,1.2,0.5C188.5,30.3,188.7,30.8,188.7,31.4
				 M190.7,32.3c0-1-0.1-1.9-0.7-2.8c-0.7-1-1.8-1.5-3-1.5c-1.1,0-2,0.4-2.6,1c-0.8,0.8-1.2,2-1.2,3.3c0,1.3,0.4,2.5,1.3,3.3
				c0.6,0.6,1.5,1,2.6,1c1,0,2.1-0.3,2.7-1.1c0.3-0.4,0.6-1,0.7-1.5h-1.9c-0.1,0.3-0.2,0.5-0.4,0.7c-0.3,0.3-0.6,0.4-1.2,0.4
				c-0.5,0-0.9-0.2-1.2-0.5c-0.4-0.4-0.6-1-0.6-1.6h5.5C190.6,32.7,190.7,32.3,190.7,32.3 M180.2,32.2c0,1.2-0.3,2.6-1.8,2.6
				c-0.6,0-1-0.3-1.3-0.6c-0.4-0.5-0.5-1.3-0.5-2c0-0.7,0.1-1.4,0.5-2c0.3-0.4,0.7-0.6,1.3-0.6C179.9,29.6,180.2,31,180.2,32.2
				 M182.1,36.3V25h-2v3.7c-0.3-0.4-1.1-0.8-2.1-0.8c-0.8,0-1.5,0.2-2,0.7c-1,0.8-1.5,2-1.5,3.6c0,1.5,0.5,2.8,1.4,3.6
				c0.5,0.4,1.2,0.7,2,0.7c0.9,0,1.8-0.3,2.3-1.1l0.1,0.9H182.1z M170.5,36.2v-1.6c-0.5,0.1-0.9,0.1-1.3,0.1c-0.6,0-0.9-0.3-0.9-0.9
				v-4h2.1v-1.6h-2.1v-2.6l-2,0.5v2.1h-1.5v1.6h1.5v4.1c0,1.6,0.8,2.5,2.5,2.5C169.4,36.4,169.9,36.3,170.5,36.2 M164.2,36.3v-5.4
				c0-1.7-1-2.9-2.8-2.9c-0.9,0-1.9,0.4-2.4,1.3l-0.1-1h-1.6v8.2h2V33c0-0.7,0-1.5,0.3-2.2c0.3-0.6,0.7-1,1.4-1c1,0,1.3,0.6,1.3,1.5
				v5H164.2z M154.1,31.4h-3.5c0-0.5,0.1-0.9,0.4-1.3c0.3-0.4,0.8-0.6,1.4-0.6c0.6,0,1,0.2,1.2,0.5C153.9,30.3,154,30.8,154.1,31.4
				 M156,32.3c0-1-0.1-1.9-0.7-2.8c-0.7-1-1.8-1.5-3-1.5c-1.1,0-2,0.4-2.6,1c-0.8,0.8-1.2,2-1.2,3.3c0,1.3,0.4,2.5,1.3,3.3
				c0.6,0.6,1.5,1,2.6,1c1,0,2.1-0.3,2.7-1.1c0.3-0.4,0.6-1,0.7-1.5h-1.9c-0.1,0.3-0.2,0.5-0.4,0.7c-0.3,0.3-0.6,0.4-1.2,0.4
				c-0.5,0-0.9-0.2-1.2-0.5c-0.4-0.4-0.6-1-0.6-1.6h5.5C156,32.7,156,32.3,156,32.3 M147.4,36.3v-5.5c0-1.7-0.9-2.9-2.6-2.9
				c-1.1,0-2,0.5-2.5,1.3c-0.4-0.8-1.2-1.3-2.3-1.3c-1.1,0-1.9,0.5-2.3,1.3l-0.2-1.1h-1.6v8.2h1.9v-4.5c0-1,0.5-2.2,1.6-2.2
				c1,0,1.3,0.6,1.3,1.6v5.1h1.9v-4.5c0-1,0.5-2.2,1.6-2.2c1,0,1.3,0.6,1.3,1.6v5.1H147.4z M132.2,33.1c0,1.2-0.9,1.9-2.1,1.9
				c-0.6,0-1.2-0.4-1.2-1c0-0.7,0.6-1,1.2-1.1l2.1-0.2V33.1z M134.8,36.2v-1.4c0,0-0.1,0-0.2,0c-0.3,0-0.4-0.1-0.4-0.5v-3
				c0-0.5,0-1.1-0.2-1.6c-0.5-1.2-1.7-1.7-3.1-1.7c-1.8,0-3.3,0.8-3.4,2.6h1.9c0-0.8,0.6-1.2,1.5-1.2c1.1,0,1.4,0.5,1.4,1.3v0.5
				l-2.4,0.2c-1.5,0.1-2.8,1-2.8,2.6c0,1.3,1,2.6,2.9,2.6c1.2,0,2.1-0.6,2.5-1.2c0.1,0.6,0.5,1.1,1.4,1.1
				C134.3,36.4,134.5,36.3,134.8,36.2z M126.7,36.2v-1.6c-0.5,0.1-0.9,0.1-1.3,0.1c-0.6,0-0.9-0.3-0.9-0.9v-4h2.1v-1.6h-2.1v-2.6
				l-2,0.5v2.1h-1.5v1.6h1.5v4.1c0,1.6,0.8,2.5,2.5,2.5C125.6,36.4,126.1,36.3,126.7,36.2 M120.4,36.3v-5.4c0-1.7-1-2.9-2.8-2.9
				c-0.9,0-1.9,0.4-2.4,1.3l-0.1-1h-1.6v8.2h2V33c0-0.7,0-1.5,0.3-2.2c0.3-0.6,0.7-1,1.4-1c1,0,1.3,0.6,1.3,1.5v5H120.4z
				 M111.6,36.3v-8.2h-2v4.3c0,0.7-0.1,1.4-0.6,1.8c-0.2,0.2-0.5,0.4-1,0.4c-1,0-1.4-0.6-1.4-1.6v-5h-2v5.4c0,1.7,1.1,2.9,2.8,2.9
				c1,0,1.9-0.5,2.3-1.3l0.1,1.1H111.6z M103,37.4v-9.3h-2v8.9c0,0.5-0.3,0.9-0.9,0.9c-0.3,0-0.4,0-1-0.1v1.7
				c0.4,0.1,0.6,0.1,0.9,0.2c0.2,0,0.5,0,0.7,0C102.2,39.7,103,38.8,103,37.4 M103,25h-2.1v2h2.1V25z M96.7,32.4h-3.2l1.6-4.7
				L96.7,32.4z M100.1,36.3l-3.9-11.1H94l-3.9,11.1h2l0.7-2.1h4.4l0.7,2.1H100.1z"/>
		</g>
	</g>
</g>
</svg>
