<?xml version="1.0" encoding="utf-8"?>
<!-- Generator: Adobe Illustrator 22.0.0, SVG Export Plug-In . SVG Version: 6.00 Build 0)  -->
<svg version="1.1" xmlns="http://www.w3.org/2000/svg" xmlns:xlink="http://www.w3.org/1999/xlink" x="0px" y="0px"
	 viewBox="0 0 217.6 75.5" style="enable-background:new 0 0 217.6 75.5;" xml:space="preserve">
<style type="text/css">
	.st0{fill:#FFFFFF;}
</style>
<g id="Capa_1">
</g>
<g id="dsgn">
	<g>
		<path class="st0" d="M215.4,37.9c0,19.5-15.3,35.4-34.1,35.4H50.6c14.1-5.2,24.2-19.1,24.2-35.4c0-16.4-10.1-30.3-24.2-35.5h130.7
			C200.1,2.4,215.4,18.3,215.4,37.9z"/>
		<path class="st0" d="M72.6,37.9c0,19.5-15.3,35.4-34.1,35.4H2.1V2.4h36.5C57.4,2.4,72.6,18.3,72.6,37.9z"/>
	</g>
	<path d="M184.4,47.2c0,1.7-1.2,2.6-2.9,2.6c-0.8,0-1.6-0.5-1.6-1.4c0-0.9,0.8-1.4,1.6-1.5l2.9-0.2V47.2z M188,51.6v-2
		c0,0-0.2,0-0.3,0c-0.5,0-0.6-0.2-0.6-0.7v-4.2c0-0.8,0-1.6-0.3-2.3c-0.7-1.7-2.3-2.3-4.3-2.3c-2.5,0-4.6,1.1-4.7,3.7h2.6
		c0.1-1,0.8-1.6,2.1-1.6c1.6,0,1.9,0.7,1.9,1.8v0.7l-3.3,0.2c-2.2,0.2-3.8,1.4-3.8,3.6c0,1.9,1.4,3.6,4.1,3.6c1.6,0,2.9-0.8,3.4-1.7
		c0.1,0.8,0.7,1.6,1.9,1.6C187.3,51.9,187.6,51.8,188,51.6z M174.9,51.7v-7.6c0-2.4-1.4-4.1-3.8-4.1c-1.3,0-2.7,0.5-3.3,1.7
		l-0.2-1.5h-2.3v11.3h2.7v-4.6c0-1,0-2.1,0.4-3c0.4-0.8,1-1.4,2-1.4c1.4,0,1.9,0.8,1.9,2.1v7H174.9z M159.8,46.1
		c0,1.1-0.2,2.1-0.8,2.9c-0.4,0.4-1,0.7-1.7,0.7c-0.7,0-1.4-0.3-1.7-0.7c-0.7-0.7-0.8-1.8-0.8-2.9c0-1.1,0.2-2.1,0.8-2.9
		c0.4-0.4,1-0.7,1.7-0.7c0.7,0,1.4,0.3,1.7,0.7C159.7,43.9,159.8,45,159.8,46.1 M162.6,46.1c0-1.9-0.5-3.1-1.3-4.2
		c-0.8-1-2.2-1.8-4-1.8c-1.7,0-3.2,0.8-4,1.8c-0.9,1.1-1.3,2.3-1.3,4.2c0,1.9,0.5,3.1,1.3,4.2c0.8,1,2.2,1.8,4,1.8
		c1.7,0,3.2-0.8,4-1.8C162.1,49.2,162.6,48,162.6,46.1 M150.5,51.7v-2.3c-0.2,0-0.2,0-0.5,0c-0.9,0-1.1-0.4-1.1-1.1V36h-2.7v12.9
		c0,2.2,1.2,3.1,3.1,3.1C149.9,51.9,150,51.8,150.5,51.7 M141,44.9h-4.9c0-0.7,0.2-1.3,0.6-1.8c0.4-0.5,1.1-0.9,1.9-0.9
		c0.8,0,1.3,0.3,1.7,0.7C140.8,43.4,141,44.1,141,44.9 M143.8,46.2c0-1.4-0.2-2.7-1-4c-0.9-1.4-2.5-2.1-4.1-2.1
		c-1.6,0-2.8,0.6-3.6,1.4c-1.1,1.1-1.6,2.7-1.6,4.5c0,1.9,0.6,3.4,1.7,4.5c0.9,0.8,2,1.4,3.6,1.4c1.4,0,2.9-0.5,3.8-1.6
		c0.4-0.5,0.9-1.4,1-2.1h-2.6c-0.1,0.4-0.3,0.7-0.5,1c-0.4,0.4-0.9,0.5-1.7,0.5c-0.7,0-1.3-0.3-1.7-0.7c-0.5-0.5-0.9-1.4-0.8-2.2
		h7.6C143.7,46.7,143.8,46.2,143.8,46.2 M131.7,47.7h-2.7c0,0.4-0.2,0.8-0.3,1c-0.3,0.5-0.9,0.8-1.7,0.8c-0.7,0-1.3-0.3-1.7-0.7
		c-0.7-0.7-0.8-1.8-0.8-2.9c0-1.1,0.1-2.2,0.8-2.9c0.4-0.4,0.9-0.7,1.7-0.7c0.8,0,1.4,0.4,1.7,0.9c0.2,0.3,0.3,0.6,0.3,1h2.7
		c0-0.9-0.3-1.8-0.9-2.5c-0.8-1-2.2-1.8-3.9-1.8c-1.7,0-3.2,0.8-3.9,1.8c-0.9,1.1-1.2,2.5-1.2,4.1c0,1.7,0.4,3.1,1.2,4.1
		c0.8,1,2.2,1.8,3.9,1.8c1.7,0,3.1-0.8,3.9-1.8C131.4,49.5,131.7,48.6,131.7,47.7 M121,42.9v-2.6c-0.3,0-0.6-0.1-0.9-0.1
		c-1.3,0-2.7,0.5-3.2,1.9l-0.2-1.7h-2.3v11.3h2.7V46c0-1.8,1-3.2,2.9-3.2C120.3,42.8,120.7,42.9,121,42.9 M108.3,47.2
		c0,1.7-1.2,2.6-2.9,2.6c-0.9,0-1.6-0.5-1.6-1.4c0-0.9,0.8-1.4,1.6-1.5l2.9-0.2V47.2z M112,51.6v-2c0,0-0.2,0-0.3,0
		c-0.5,0-0.6-0.2-0.6-0.7v-4.2c0-0.8,0-1.6-0.3-2.3c-0.7-1.7-2.3-2.3-4.3-2.3c-2.5,0-4.6,1.1-4.7,3.7h2.6c0.1-1,0.8-1.6,2.1-1.6
		c1.6,0,1.9,0.7,1.9,1.8v0.7l-3.3,0.2c-2.2,0.2-3.8,1.4-3.8,3.6c0,1.9,1.4,3.6,4.1,3.6c1.6,0,2.9-0.8,3.5-1.7
		c0.1,0.8,0.7,1.6,1.9,1.6C111.3,51.9,111.5,51.8,112,51.6z M96.7,47.2c0,1.6-1.4,2.1-2.7,2.1h-3.5v-4.3h3.6
		C95.5,44.9,96.7,45.5,96.7,47.2 M96.4,40.7c0,1.5-1.1,1.9-2.3,1.9h-3.5v-3.9H94C95.2,38.7,96.4,39.2,96.4,40.7 M99.6,47.3
		c0-1.4-0.8-2.8-2.2-3.5c1.3-0.6,1.9-2,1.9-3.3c0-1.3-0.7-2.6-1.8-3.4c-1-0.7-2.3-0.8-3.6-0.8h-6.2v15.5h6.2c1.5,0,2.9-0.1,4.1-1
		C99.1,49.9,99.6,48.6,99.6,47.3"/>
	<path d="M185.9,25.4h-3.5c0-0.5,0.1-0.9,0.4-1.3c0.3-0.4,0.8-0.6,1.4-0.6c0.6,0,1,0.2,1.2,0.5C185.7,24.3,185.9,24.8,185.9,25.4
		 M187.8,26.3c0-1-0.1-1.9-0.7-2.8c-0.7-1-1.8-1.5-3-1.5c-1.1,0-2,0.4-2.6,1c-0.8,0.8-1.2,2-1.2,3.3c0,1.3,0.4,2.5,1.3,3.3
		c0.6,0.6,1.5,1,2.6,1c1,0,2.1-0.3,2.7-1.1c0.3-0.4,0.6-1,0.7-1.5h-1.9c-0.1,0.3-0.2,0.5-0.4,0.7c-0.3,0.3-0.6,0.4-1.2,0.4
		c-0.5,0-0.9-0.2-1.2-0.5c-0.4-0.4-0.6-1-0.6-1.6h5.4C187.8,26.6,187.8,26.3,187.8,26.3 M177.4,26.2c0,1.2-0.3,2.6-1.9,2.6
		c-0.6,0-1-0.3-1.3-0.6c-0.4-0.5-0.5-1.3-0.5-2c0-0.7,0.1-1.4,0.5-2c0.3-0.4,0.7-0.6,1.3-0.6C177.1,23.6,177.4,25,177.4,26.2
		 M179.3,30.3V19h-2v3.7c-0.3-0.4-1.1-0.8-2.1-0.8c-0.8,0-1.5,0.2-2,0.7c-1,0.8-1.5,2-1.5,3.6c0,1.5,0.5,2.8,1.4,3.6
		c0.5,0.4,1.2,0.7,2,0.7c0.9,0,1.8-0.3,2.3-1.1l0.1,0.9H179.3z M167.7,30.2v-1.6c-0.5,0.1-0.9,0.1-1.3,0.1c-0.6,0-0.9-0.3-0.9-0.9
		v-4h2v-1.6h-2v-2.6l-2,0.5v2.1H162v1.6h1.5v4.1c0,1.6,0.8,2.5,2.5,2.5C166.6,30.4,167.1,30.3,167.7,30.2 M161.4,30.3v-5.4
		c0-1.7-1-2.9-2.8-2.9c-0.9,0-1.9,0.4-2.4,1.3l-0.1-1h-1.6v8.1h2V27c0-0.7,0-1.5,0.3-2.2c0.3-0.6,0.7-1,1.4-1c1,0,1.3,0.6,1.3,1.5v5
		H161.4z M151.3,25.4h-3.5c0-0.5,0.1-0.9,0.4-1.3c0.3-0.4,0.8-0.6,1.4-0.6c0.6,0,1,0.2,1.2,0.5C151.1,24.3,151.3,24.8,151.3,25.4
		 M153.2,26.3c0-1-0.1-1.9-0.7-2.8c-0.7-1-1.8-1.5-3-1.5c-1.1,0-2,0.4-2.6,1c-0.8,0.8-1.2,2-1.2,3.3c0,1.3,0.4,2.5,1.2,3.3
		c0.6,0.6,1.5,1,2.6,1c1,0,2.1-0.3,2.7-1.1c0.3-0.4,0.6-1,0.7-1.5h-1.9c-0.1,0.3-0.2,0.5-0.4,0.7c-0.3,0.3-0.6,0.4-1.2,0.4
		c-0.5,0-0.9-0.2-1.2-0.5c-0.4-0.4-0.6-1-0.6-1.6h5.4C153.2,26.6,153.2,26.3,153.2,26.3 M144.7,30.3v-5.5c0-1.7-0.9-2.8-2.6-2.8
		c-1.1,0-2,0.5-2.5,1.3c-0.4-0.8-1.2-1.3-2.3-1.3c-1.1,0-1.9,0.5-2.3,1.3l-0.2-1.1h-1.6v8.1h1.9v-4.4c0-1,0.5-2.2,1.6-2.2
		c1,0,1.3,0.6,1.3,1.6v5.1h1.9v-4.4c0-1,0.5-2.2,1.6-2.2c1,0,1.3,0.6,1.3,1.6v5.1H144.7z M129.4,27c0,1.2-0.9,1.9-2.1,1.9
		c-0.6,0-1.2-0.4-1.2-1c0-0.7,0.6-1,1.2-1.1l2.1-0.2V27z M132,30.2v-1.4c0,0-0.1,0-0.2,0c-0.3,0-0.5-0.1-0.5-0.5v-3
		c0-0.5,0-1.1-0.2-1.6c-0.5-1.2-1.7-1.7-3-1.7c-1.8,0-3.3,0.8-3.4,2.6h1.9c0-0.8,0.6-1.2,1.5-1.2c1.1,0,1.4,0.5,1.4,1.3v0.5
		l-2.4,0.2c-1.5,0.1-2.8,1-2.8,2.6c0,1.3,1,2.5,2.9,2.5c1.2,0,2.1-0.6,2.5-1.2c0.1,0.6,0.5,1.1,1.4,1.1
		C131.5,30.4,131.7,30.3,132,30.2z M123.9,30.2v-1.6c-0.5,0.1-0.9,0.1-1.3,0.1c-0.6,0-0.9-0.3-0.9-0.9v-4h2.1v-1.6h-2.1v-2.6l-2,0.5
		v2.1h-1.5v1.6h1.5v4.1c0,1.6,0.8,2.5,2.5,2.5C122.8,30.4,123.4,30.3,123.9,30.2 M117.6,30.3v-5.4c0-1.7-1-2.9-2.8-2.9
		c-0.9,0-1.9,0.4-2.4,1.3l-0.1-1h-1.6v8.1h2V27c0-0.7,0-1.5,0.3-2.2c0.3-0.6,0.7-1,1.4-1c1,0,1.3,0.6,1.3,1.5v5H117.6z M108.9,30.3
		v-8.1h-2v4.3c0,0.7-0.1,1.4-0.6,1.8c-0.2,0.2-0.6,0.4-1,0.4c-1,0-1.4-0.6-1.4-1.5v-5h-2v5.4c0,1.7,1.1,2.9,2.8,2.9
		c1,0,1.9-0.5,2.3-1.3l0.1,1.1H108.9z M100.3,31.4v-9.3h-2V31c0,0.5-0.3,0.9-0.9,0.9c-0.3,0-0.4,0-1-0.1v1.7
		c0.4,0.1,0.6,0.1,0.9,0.2c0.2,0,0.5,0,0.7,0C99.4,33.7,100.3,32.8,100.3,31.4 M100.3,18.9h-2.1v2h2.1V18.9z M93.9,26.3h-3.2
		l1.6-4.7L93.9,26.3z M97.4,30.3l-3.9-11.1h-2.2l-3.9,11.1h2l0.7-2.1h4.4l0.7,2.1H97.4z"/>
	<g>
		<g>
			<g>
				<path d="M37.9,17.2c-0.3,0.2-0.4,0.5-0.4,0.8c0.3,0.2,0.6,0.2,0.9,0c0.3-0.2,0.4-0.5,0.4-0.8c0,0.4,0.1,0.7,0.4,0.8
					c0.3,0.2,0.6,0.1,0.9,0c0-0.4-0.2-0.7-0.4-0.8c-0.3-0.2-0.6-0.1-0.9,0c0.3-0.2,0.5-0.5,0.5-0.8c0-0.3-0.2-0.6-0.5-0.8
					c-0.3,0.2-0.5,0.5-0.5,0.8c0,0.3,0.2,0.6,0.5,0.8C38.5,17.1,38.2,17,37.9,17.2"/>
				<path d="M41.3,17.4c-0.3,0.1-0.5,0.4-0.6,0.7c0.3,0.2,0.6,0.3,0.9,0.2c0.3-0.1,0.5-0.4,0.6-0.7c-0.1,0.4,0,0.7,0.2,0.9
					c0.2,0.2,0.6,0.2,0.9,0.1c0.1-0.4,0-0.7-0.2-0.9c-0.2-0.2-0.6-0.2-0.9-0.1c0.3-0.1,0.6-0.4,0.7-0.7c0.1-0.3-0.1-0.6-0.3-0.9
					c-0.3,0.1-0.6,0.3-0.7,0.6c-0.1,0.3,0.1,0.6,0.3,0.9C41.9,17.4,41.6,17.3,41.3,17.4"/>
				<path d="M45.4,18.6c0.4-0.1,0.6-0.2,0.8-0.5c0.1-0.3,0.1-0.6-0.1-0.9c-0.4,0.1-0.6,0.2-0.8,0.5C45.1,18,45.2,18.3,45.4,18.6
					c-0.2-0.3-0.5-0.5-0.8-0.4c-0.3,0-0.6,0.3-0.7,0.6c0.2,0.3,0.5,0.5,0.8,0.4C45,19.2,45.2,19,45.4,18.6"/>
				<path d="M34.5,17.8c-0.2,0.2-0.3,0.5-0.2,0.9c0.3,0.1,0.7,0.1,0.9-0.1c0.2-0.2,0.3-0.5,0.2-0.9C35,17.5,34.7,17.5,34.5,17.8"/>
				<path d="M36,18.3c0.3,0.1,0.6,0,0.9-0.2c-0.1-0.3-0.3-0.6-0.6-0.7c-0.3-0.1-0.6,0-0.9,0.2c0.3-0.3,0.4-0.6,0.3-0.8
					c-0.1-0.3-0.3-0.5-0.7-0.6c-0.3,0.2-0.4,0.6-0.3,0.9c0.1,0.3,0.3,0.5,0.6,0.6C35.5,18,35.7,18.2,36,18.3"/>
				<path d="M32.3,17.7c-0.1-0.3-0.4-0.5-0.8-0.5c-0.2,0.3-0.3,0.6-0.1,0.9c0.1,0.3,0.4,0.4,0.8,0.5c0.2,0.3,0.4,0.5,0.7,0.6
					c0.3,0,0.6-0.1,0.8-0.4c-0.2-0.3-0.4-0.5-0.7-0.6c-0.3,0-0.6,0.1-0.8,0.4C32.4,18.3,32.4,18,32.3,17.7"/>
				<path d="M38.8,10.8c0.5,0,0.8-0.4,0.8-0.8c0-0.4-0.4-0.8-0.8-0.8C38.3,9.2,38,9.5,38,10C38,10.4,38.3,10.8,38.8,10.8"/>
				<path d="M38.8,20.1c1.9,0,3.7,0.5,5.3,1.2l0.7-1c-1.7-0.8-3.8-1.3-5.9-1.3c-2.2,0-4.2,0.5-5.9,1.3l0.7,1
					C35.1,20.5,36.9,20.1,38.8,20.1"/>
				<path d="M30.9,17l0.9-0.9c-0.3-0.3-0.5-0.6-0.5-1c0-0.8,0.9-1.5,1.9-1.5c0.3,0,0.5,0,0.7,0.1c0,0.2-0.1,0.3-0.1,0.5
					c0,0.5,0.2,1,0.5,1.4l0.9-0.9c-0.1-0.2-0.2-0.4-0.2-0.6c0-0.8,0.9-1.5,1.9-1.5c0.4,0,0.8,0.1,1.2,0.3v1.7h1.2v-1.8
					c0.3-0.2,0.7-0.3,1.1-0.3c1.1,0,1.9,0.7,1.9,1.5c0,0.2-0.1,0.4-0.2,0.6l0.9,0.9c0.3-0.4,0.5-0.9,0.5-1.4c0-0.2,0-0.3-0.1-0.5
					c0.2-0.1,0.5-0.1,0.7-0.1c1.1,0,1.9,0.7,1.9,1.5c0,0.4-0.2,0.7-0.5,1l0.9,0.9c0.5-0.5,0.9-1.1,0.9-1.8c0-1.5-1.4-2.7-3.2-2.7
					c-0.5,0-0.9,0.1-1.3,0.2c-0.6-0.7-1.5-1.1-2.5-1.1c-0.6,0-1.2,0.2-1.7,0.4c-0.5-0.3-1.1-0.4-1.7-0.4c-1,0-2,0.4-2.5,1.1
					c-0.4-0.1-0.8-0.2-1.3-0.2c-1.7,0-3.1,1.2-3.1,2.7C30.1,15.9,30.4,16.5,30.9,17"/>
				<path d="M39.1,41.8h3.9v4.8h-3.9V41.8z M38.5,41.3h-3.9v-4.8h3.9V41.3z M38.5,34.5h-3.9v-6.6l-1.9,1.9v4.7h-4.7l-1.9,1.9h6.6
					v4.8H21.3L21,41.5l0.3,0.3h1.7v1.7l1.9,1.9v-3.7h1.9v5.6l1.9,1.9v-7.5h1.9v9.5l1.9,1.9V41.8h1.9v13.3l1.9,1.9V41.8h1.9V59
					l0.3,0.3l0.3-0.3V48.6h3.9v6.6l1.9-1.9v-4.7h4.7l1.9-1.9h-6.6v-4.8h11.4l0.3-0.3l-0.3-0.3h-1.7v-1.8l-1.9-1.9v3.7h-1.9v-5.6
					l-1.9-1.9v7.5h-1.9v-9.5l-1.9-1.9v11.4h-1.9V27.9L41,26v15.3h-1.9V24.1l-0.3-0.3l-0.3,0.3V34.5z"/>
				<path d="M38.8,61.9c-0.4,0-0.8,0.4-0.8,0.8c0,0.4,0.4,0.8,0.8,0.8c0.4,0,0.8-0.4,0.8-0.8C39.6,62.2,39.2,61.9,38.8,61.9"/>
				<path d="M17.7,40.8c-0.4,0-0.8,0.4-0.8,0.8c0,0.4,0.4,0.8,0.8,0.8c0.4,0,0.8-0.4,0.8-0.8C18.5,41.1,18.1,40.8,17.7,40.8"/>
				<path d="M59.9,40.8c-0.4,0-0.8,0.4-0.8,0.8c0,0.4,0.4,0.8,0.8,0.8c0.4,0,0.8-0.4,0.8-0.8C60.7,41.1,60.3,40.8,59.9,40.8"/>
				<path d="M38.8,60.6l-19-19.1l19-19.1l19,19.1L38.8,60.6z M38.8,22.2c0,0-3.9,2.2-10.6,8.9c-6.6,6.6-8.7,10.4-8.7,10.4
					s2.2,3.9,8.9,10.6c6.6,6.6,10.4,8.7,10.4,8.7s3.9-2.3,10.6-8.9c6.6-6.6,8.7-10.4,8.7-10.4s-2.2-3.9-8.9-10.6
					C42.6,24.3,38.8,22.2,38.8,22.2"/>
			</g>
		</g>
	</g>
</g>
</svg>
