<svg id="Layer_1" data-name="Layer 1" xmlns="http://www.w3.org/2000/svg" viewBox="0 0 67.94 138"><defs><style>.cls-1{fill:#fff;}</style></defs><title>euro-cities-logo</title><polygon class="cls-1" points="56.11 56.06 67.79 56.06 67.79 67.75 56.11 67.75 56.11 56.06 56.11 56.06"/><polygon class="cls-1" points="56.11 42.05 67.79 42.05 67.79 53.73 56.11 53.73 56.11 42.05 56.11 42.05"/><polygon class="cls-1" points="56.11 28.03 67.79 28.03 67.79 39.71 56.11 39.71 56.11 28.03 56.11 28.03"/><polygon class="cls-1" points="56.11 14.02 67.79 14.02 67.79 25.7 56.11 25.7 56.11 14.02 56.11 14.02"/><polygon class="cls-1" points="56.11 0 67.79 0 67.79 11.68 56.11 11.68 56.11 0 56.11 0"/><polygon class="cls-1" points="42.09 56.06 53.77 56.06 53.77 67.75 42.09 67.75 42.09 56.06 42.09 56.06"/><polygon class="cls-1" points="42.09 42.05 53.77 42.05 53.77 53.73 42.09 53.73 42.09 42.05 42.09 42.05"/><polygon class="cls-1" points="42.09 28.03 53.77 28.03 53.77 39.71 42.09 39.71 42.09 28.03 42.09 28.03"/><polygon class="cls-1" points="42.09 14.02 53.77 14.02 53.77 25.7 42.09 25.7 42.09 14.02 42.09 14.02"/><polygon class="cls-1" points="42.09 0 53.77 0 53.77 11.68 42.09 11.68 42.09 0 42.09 0"/><polygon class="cls-1" points="28.08 56.06 39.76 56.06 39.76 67.75 28.08 67.75 28.08 56.06 28.08 56.06"/><polygon class="cls-1" points="28.08 42.05 39.76 42.05 39.76 53.73 28.08 53.73 28.08 42.05 28.08 42.05"/><polygon class="cls-1" points="28.08 28.03 39.76 28.03 39.76 39.71 28.08 39.71 28.08 28.03 28.08 28.03"/><polygon class="cls-1" points="28.08 14.02 39.76 14.02 39.76 25.7 28.08 25.7 28.08 14.02 28.08 14.02"/><polygon class="cls-1" points="28.08 0 39.76 0 39.76 11.68 28.08 11.68 28.08 0 28.08 0"/><polygon class="cls-1" points="14.06 56.06 25.74 56.06 25.74 67.75 14.06 67.75 14.06 56.06 14.06 56.06"/><polygon class="cls-1" points="14.06 42.05 25.74 42.05 25.74 53.73 14.06 53.73 14.06 42.05 14.06 42.05"/><polygon class="cls-1" points="14.06 28.03 25.74 28.03 25.74 39.71 14.06 39.71 14.06 28.03 14.06 28.03"/><polygon class="cls-1" points="14.06 14.02 25.74 14.02 25.74 25.7 14.06 25.7 14.06 14.02 14.06 14.02"/><polygon class="cls-1" points="14.06 0 25.74 0 25.74 11.68 14.06 11.68 14.06 0 14.06 0"/><polygon class="cls-1" points="0.04 56.06 11.72 56.06 11.72 67.75 0.04 67.75 0.04 56.06 0.04 56.06"/><polygon class="cls-1" points="0.04 42.05 11.72 42.05 11.72 53.73 0.04 53.73 0.04 42.05 0.04 42.05"/><polygon class="cls-1" points="0.04 28.03 11.72 28.03 11.72 39.71 0.04 39.71 0.04 28.03 0.04 28.03"/><polygon class="cls-1" points="0.04 14.02 11.72 14.02 11.72 25.7 0.04 25.7 0.04 14.02 0.04 14.02"/><polygon class="cls-1" points="0.04 0 11.72 0 11.72 11.68 0.04 11.68 0.04 0 0.04 0"/><polygon class="cls-1" points="57.17 29.09 66.73 29.09 66.73 38.65 57.17 38.65 57.17 29.09 57.17 29.09"/><polygon class="cls-1" points="57.17 15.08 66.73 15.08 66.73 24.64 57.17 24.64 57.17 15.08 57.17 15.08"/><polygon class="cls-1" points="43.15 43.11 52.71 43.11 52.71 52.67 43.15 52.67 43.15 43.11 43.15 43.11"/><polygon class="cls-1" points="43.15 15.08 52.71 15.08 52.71 24.64 43.15 24.64 43.15 15.08 43.15 15.08"/><polygon class="cls-1" points="43.15 1.06 52.71 1.06 52.71 10.62 43.15 10.62 43.15 1.06 43.15 1.06"/><polygon class="cls-1" points="29.14 1.06 38.7 1.06 38.7 10.62 29.14 10.62 29.14 1.06 29.14 1.06"/><polygon class="cls-1" points="15.12 29.09 24.68 29.09 24.68 38.65 15.12 38.65 15.12 29.09 15.12 29.09"/><polygon class="cls-1" points="15.12 15.08 24.68 15.08 24.68 24.64 15.12 24.64 15.12 15.08 15.12 15.08"/><polygon class="cls-1" points="15.12 1.06 24.68 1.06 24.68 10.62 15.12 10.62 15.12 1.06 15.12 1.06"/><polygon class="cls-1" points="1.1 43.11 10.66 43.11 10.66 52.67 1.1 52.67 1.1 43.11 1.1 43.11"/><polygon class="cls-1" points="1.1 29.09 10.66 29.09 10.66 38.65 1.1 38.65 1.1 29.09 1.1 29.09"/><polygon class="cls-1" points="1.1 15.08 10.66 15.08 10.66 24.64 1.1 24.64 1.1 15.08 1.1 15.08"/><rect class="cls-1" y="70.06" width="67.94" height="67.94"/><path d="M72.16,91.95c-.32,0-.63,0-1-.07v8.65c0,3.78-1,5.82-4.43,6v0c-3.41-.2-4.43-2.24-4.43-6V91.88c-.36,0-.68.07-1,.07s-.68,0-1-.07v9c0,1.81.2,3.82,1.63,5.11a6.7,6.7,0,0,0,4.71,1.57h.19A6.7,6.7,0,0,0,71.53,106c1.42-1.29,1.6-3.3,1.63-5.11v-9C72.84,91.9,72.5,91.95,72.16,91.95Z" transform="translate(-41.03 -6)"/><path d="M77.49,92.71a20.3,20.3,0,0,1,3.32,0,2.64,2.64,0,0,1,2.49,2.85,3.29,3.29,0,0,1-2.89,3.23,12.54,12.54,0,0,1-2.91.11Zm-2,14.62c.32,0,.66-.07,1-.07s.63,0,1,.07V99.79h.86l1.81,2.12,2.67,3.46c.47.63.93,1.27,1.42,2,.41,0,.86-.07,1.29-.07s.84,0,1.31.07l-.43-.56-1.08-1.27-4.65-5.9c2.28-.41,4.63-1.67,4.63-4.29,0-2.28-1.54-3.43-5-3.43H75.5Z" transform="translate(-41.03 -6)"/><path d="M102.85,99.6c0-4.91-3.63-8-8.27-8.07h0c-4.63,0-8.26,3.15-8.26,8.07s3.35,8,8.34,8h0C99.65,107.6,102.85,104.44,102.85,99.6Zm-8.2,7.25h0c-3.31-.06-6.12-2.45-6.12-7s2.27-7.43,6.05-7.58h0c3.79.16,6.05,3.12,6.05,7.58S97.93,106.77,94.64,106.85Z" transform="translate(-41.03 -6)"/><path d="M57.89,105.92a16.08,16.08,0,0,1-2.08.2c-1.27,0-2.54.12-3.84.09-.12-1.36-.24-3.7-.24-5.82v-.78h3.49c.68,0,1.33.09,2,.11,0-.25-.07-.45-.07-.63a4.66,4.66,0,0,1,.07-.59c-.68,0-1.33.11-2,.11H51.73V98.4c0-1.79.11-4.16.23-5.46h1.5l2.26,0a15.6,15.6,0,0,1,2,.25c0-.23-.07-.45-.07-.68s0-.43.07-.68h-8v15.39h8.16c0-.23-.07-.45-.07-.68S57.86,106.17,57.89,105.92Z" transform="translate(-41.03 -6)"/><path d="M59.61,126.24a5.94,5.94,0,0,1-3.72,1.36h0c-3.31-.06-6.12-2.45-6.12-7s2.27-7.43,6-7.59a5.87,5.87,0,0,1,3.78,1.47,7.61,7.61,0,0,1,1.06-.83,8.92,8.92,0,0,0-4.83-1.4h0c-4.63,0-8.26,3.15-8.26,8.07s3.35,8,8.34,8h0a8.89,8.89,0,0,0,4.8-1.27A7.3,7.3,0,0,1,59.61,126.24Z" transform="translate(-41.03 -6)"/><path d="M62.81,112.64c.32,0,.66.07,1,.07s.63,0,1-.07V128.1c-.36,0-.68-.07-1-.07s-.68,0-1,.07Z" transform="translate(-41.03 -6)"/><path d="M73.17,128.14c-.36,0-.68-.07-1-.07s-.68,0-1,.07V113.73a42,42,0,0,0-4.95.27c0-.23.07-.45.07-.68s0-.43-.07-.68H77.89c0,.25-.07.45-.07.68s0,.45.07.68a39.24,39.24,0,0,0-4.72-.27Z" transform="translate(-41.03 -6)"/><path d="M79.31,112.64c.32,0,.65.07,1,.07s.63,0,1-.07V128.1c-.36,0-.68-.07-1-.07s-.68,0-1,.07Z" transform="translate(-41.03 -6)"/><path d="M92.18,126.67a16.08,16.08,0,0,1-2.08.2c-1.27,0-2.55.12-3.84.09-.13-1.36-.24-3.7-.24-5.82v-.78h3.49c.68,0,1.33.09,2,.11,0-.25-.07-.45-.07-.63a4.5,4.5,0,0,1,.07-.59c-.68,0-1.33.11-2,.11H86v-.21c0-1.79.11-4.16.23-5.46h1.5l2.26,0a15.52,15.52,0,0,1,2,.25c0-.23-.07-.45-.07-.68s0-.43.07-.68H84V128h8.16c0-.23-.07-.45-.07-.68S92.15,126.92,92.18,126.67Z" transform="translate(-41.03 -6)"/><path d="M97.57,128.37h0Z" transform="translate(-41.03 -6)"/><path d="M103.31,123.1c0-4.81-7.59-3.14-7.59-7.3a2.71,2.71,0,0,1,2.58-2.49l1.26,0a3,3,0,0,1,2,.73l.86-.79a5.82,5.82,0,0,0-3.23-.91h-.38c-2.54.13-4.87,1.66-4.87,4.44,0,5.11,7.54,3.25,7.54,7.46a3.29,3.29,0,0,1-3.38,3.18l-.63,0-.57,0a3,3,0,0,1-2.18-.9l-.85.74a6,6,0,0,0,3.62,1.14C100.59,128.35,103.31,126.32,103.31,123.1Z" transform="translate(-41.03 -6)"/></svg>