<svg id="Layer_4" data-name="Layer 4" xmlns="http://www.w3.org/2000/svg" xmlns:xlink="http://www.w3.org/1999/xlink" viewBox="0 0 250.05 250.05"><defs><style>.cls-1{fill:none;}.cls-2{clip-path:url(#clip-path);}</style><clipPath id="clip-path" transform="translate(-23.98 -27.98)"><rect class="cls-1" x="24" y="28" width="250" height="250"/></clipPath></defs><title>grenoble-logo</title><g class="cls-2"><path d="M155.25,125.79l1.1-2.21a4.66,4.66,0,0,0,.37-2.21v-1.1l11,5.88v.74l-.37.37h0l-12.5-1.1Zm-3.68-10.66h-.74l9.19-8.82h.74v.37h0l-5.15,11.76-.37-.74c-.37-.74-1.1-1.1-1.84-1.84a2.81,2.81,0,0,0-1.84-.74m-1.1,24.26h0l-.37.37-.37-.37h0l-2.94-12.13.74.37a5.45,5.45,0,0,0,2.57.37,4.66,4.66,0,0,0,2.21-.37l.74-.37Zm-4.41-23.53a3.67,3.67,0,0,0-1.47,1.84l-.37.74-5.15-11.76v-.74h.37l9.19,8.82h-.74A8,8,0,0,1,146.06,115.87Zm-13.6,11.4h0l-.37-.37v-.37h0l11-5.88v1.1a4.66,4.66,0,0,0,.37,2.21l1.1,2.21.37.37Zm25.37,8.82a6.78,6.78,0,0,0-1.47-4.78,11.44,11.44,0,0,1-1.47-2.21c.37-.37.74-.37,1.1-.74a8,8,0,0,0,1.47,1.84,7.32,7.32,0,0,0,4.41,2.94,8,8,0,0,0,10.29-4.78c1.47-4-1.1-8.46-5.51-9.93-1.84-.37-3.68-.74-5.15,0a6.82,6.82,0,0,0-2.57.74c0-.37-.37-1.1-.37-1.47a7.62,7.62,0,0,1,2.21-.74,9.38,9.38,0,0,0,4.41-3.31c2.57-3.68,2.21-8.82-1.47-11.4-3.31-2.57-8.46-1.47-11,2.21a8.66,8.66,0,0,0-1.84,4.78v2.57h-1.47v-2.21a8.78,8.78,0,0,0-1.84-5.15c-2.57-3.68-7.72-4.78-11-2.21s-4,7.35-1.47,11.4a11.49,11.49,0,0,0,4,3.31,5.31,5.31,0,0,0,2.57.74c0,.37,0,.37-.37.74,0,.37,0,.37-.37.74-.74-.37-1.84-.37-2.21-.74a9.63,9.63,0,0,0-5.51.37,8.21,8.21,0,0,0-5.51,9.93A8,8,0,0,0,138,133.51a7.32,7.32,0,0,0,4.41-2.94,11.44,11.44,0,0,0,1.47-2.21c.37.37.74.74,1.1.74a8,8,0,0,1-1.47,1.84,8.44,8.44,0,0,0-1.47,5.15,7.85,7.85,0,0,0,7.72,8.09,8.16,8.16,0,0,0,8.09-8.09" transform="translate(-23.98 -27.98)"/></g><g class="cls-2"><path d="M136.87,135.35h-1.1a13.06,13.06,0,0,1-3.68-.74h-.37V135a23.7,23.7,0,0,0-1.1,7.35,18.45,18.45,0,0,0,.74,4.41v.37h.74c3.68,0,7.72-2.21,10.29-4l.37-.37-.37-.74a7.63,7.63,0,0,1-2.21-3.68v-.74l-.37.74a23.38,23.38,0,0,1-5.88,5.15c.37-1.84,1.47-4,2.94-7.35Z" transform="translate(-23.98 -27.98)"/></g><g class="cls-2"><path d="M126.94,120.28h.74a11.19,11.19,0,0,1,2.94-2.94l.74-.37-.74-.37a43.47,43.47,0,0,1-6.62-4h1.84a17.2,17.2,0,0,1,5.88.74h.74l-.74-.74a8.09,8.09,0,0,1-.37-2.94v-1.47H131c-3.68,0-8.09.74-11,2.94h-.37v.37c1.1,3.68,4.41,7,7.35,8.82" transform="translate(-23.98 -27.98)"/></g><g class="cls-2"><path d="M159.66,137.93v.74a7.63,7.63,0,0,1-2.21,3.68l-.37.37.37.37c2.94,1.84,6.62,4,10.66,4h.74v-.37a18.45,18.45,0,0,0,.74-4.41,44.11,44.11,0,0,0-1.1-7.35v-.37h-.37a13.06,13.06,0,0,1-3.68.74h-1.1l.37.74c1.47,2.94,2.57,5.15,2.94,7.35a23.38,23.38,0,0,1-5.88-5.15Z" transform="translate(-23.98 -27.98)"/></g><g class="cls-2"><path d="M174.37,112.56h1.84c-1.47,1.47-3.68,2.57-6.62,4l-.74.37.74.37a11.19,11.19,0,0,1,2.94,2.94l.37.37.37-.37c2.94-2.21,6.25-5.51,7.35-9.19v-.37h-.37c-2.94-2.21-7.72-2.94-11-2.94h-.37v1.47a7.17,7.17,0,0,1-.37,2.94l-.37.74h.74a29.72,29.72,0,0,1,5.51-.37" transform="translate(-23.98 -27.98)"/></g><g class="cls-2"><path d="M147.53,101.16l.37.37v-.74a34.06,34.06,0,0,1,1.84-7.72,26.26,26.26,0,0,1,1.84,7.72v.74l.37-.37a17.17,17.17,0,0,1,3.68-1.84H156V99c-1.1-3.31-3.31-7.72-6.25-9.56H149c-3.31,2.21-5.15,6.25-6.25,9.56v.37h.37a12.27,12.27,0,0,1,4.41,1.84" transform="translate(-23.98 -27.98)"/></g><g class="cls-2"><path d="M107.09,189v-.74l-.37.37a32.14,32.14,0,0,1-5.88,5.15c.37-1.84,1.47-4,2.94-7.35l.37-.74H103a13.06,13.06,0,0,1-3.68-.74l-.37-.37V185a23.7,23.7,0,0,0-1.1,7.35,18.45,18.45,0,0,0,.74,4.41v.37h.74c3.68,0,7.72-2.21,10.29-4l.37-.37-.37-.37a5.52,5.52,0,0,1-2.57-3.31" transform="translate(-23.98 -27.98)"/></g><g class="cls-2"><path d="M97.16,167.71l.74-.37-.74-.37a43.47,43.47,0,0,1-6.62-4h1.84a18.27,18.27,0,0,1,5.88.74H99l-.37-.74a7.17,7.17,0,0,1-.37-2.94v-1.47H97.9c-3.68,0-8.09.74-11,2.94H86.5v.37c1.1,3.68,4.41,7,7.35,9.19l.37.37.37-.37a8,8,0,0,1,2.57-3.31" transform="translate(-23.98 -27.98)"/></g><g class="cls-2"><path d="M135,185l-.37.37a13.06,13.06,0,0,1-3.68.74h-1.1l.37.74a50.7,50.7,0,0,1,2.94,7.35,23.38,23.38,0,0,1-5.88-5.15l-.37-.37v.74a7.63,7.63,0,0,1-2.21,3.68l-.37.37.37.37a18.12,18.12,0,0,0,10.66,4h.74v-.37a18.45,18.45,0,0,0,.74-4.41,44.11,44.11,0,0,0-1.1-7.35Z" transform="translate(-23.98 -27.98)"/></g><g class="cls-2"><path d="M135.76,158.51h-.37V160a7.17,7.17,0,0,1-.37,2.94l-.37.74h.74a46.93,46.93,0,0,1,6.25-.74h1.84c-1.47,1.47-3.68,2.57-6.62,4l-.74.37.74.37a11.19,11.19,0,0,1,2.94,2.94l.37.37.37-.37c2.94-2.21,6.25-5.51,7.35-9.19v-.37h-.37a27.24,27.24,0,0,0-11.76-2.57" transform="translate(-23.98 -27.98)"/></g><g class="cls-2"><path d="M114.44,151.53l.37.37v-.74a34.06,34.06,0,0,1,1.84-7.72,26.26,26.26,0,0,1,1.84,7.72v.74l.37-.37a17.17,17.17,0,0,1,3.68-1.84h.37v-.37c-1.1-3.31-3.31-7.72-6.25-9.56h-.74c-3.31,2.21-5.15,6.25-6.25,9.56v.37H110a12.27,12.27,0,0,1,4.41,1.84" transform="translate(-23.98 -27.98)"/></g><g class="cls-2"><path d="M171.79,189v-.74l-.74.37a23.38,23.38,0,0,1-5.88,5.15c.37-1.84,1.47-4,2.94-7.35l.37-.74h-1.1a13.06,13.06,0,0,1-3.68-.74l-.37-.37V185a23.7,23.7,0,0,0-1.1,7.35,18.45,18.45,0,0,0,.74,4.41v.37h.74c3.68,0,7.72-2.21,10.29-4l.37-.37-.37-.37a4.9,4.9,0,0,1-2.21-3.31" transform="translate(-23.98 -27.98)"/></g><g class="cls-2"><path d="M161.5,167.71l.74-.37-.74-.37a43.47,43.47,0,0,1-6.62-4h1.84a20.42,20.42,0,0,1,6.25.74h.74l-.37-.74A7.17,7.17,0,0,1,163,160v-1.47h-.37c-3.68,0-8.09.74-11,2.94h-.37v.37c1.1,3.68,4.41,7,7.35,9.19l.37.37.37-.37a5.35,5.35,0,0,1,2.21-3.31" transform="translate(-23.98 -27.98)"/></g><g class="cls-2"><path d="M199.37,185l-.37.37a13.06,13.06,0,0,1-3.68.74h-1.1l.37.74c1.47,2.94,2.57,5.15,2.94,7.35a23.38,23.38,0,0,1-5.88-5.15l-.37-.37v.74a7.63,7.63,0,0,1-2.21,3.68l-.37.37.37.37c2.94,2.21,6.62,4,10.29,4h.74v-.37a18.45,18.45,0,0,0,.74-4.41,44.11,44.11,0,0,0-1.1-7.35Z" transform="translate(-23.98 -27.98)"/></g><g class="cls-2"><path d="M200.1,158.51h-.37V160a7.17,7.17,0,0,1-.37,2.94l-.37.74h.74a50.35,50.35,0,0,1,5.88-.74h1.84c-1.47,1.47-3.68,2.57-6.62,4l-.74.37.74.37a11.19,11.19,0,0,1,2.94,2.94l.37.37.37-.37c2.94-2.21,6.25-5.51,7.35-9.19v-.37h-.37a24.63,24.63,0,0,0-11.4-2.57" transform="translate(-23.98 -27.98)"/></g><g class="cls-2"><path d="M178.78,151.53l.37.37v-.74a34.06,34.06,0,0,1,1.84-7.72,26.26,26.26,0,0,1,1.84,7.72v.74l.37-.37a17.17,17.17,0,0,1,3.68-1.84h.37v-.37c-1.1-3.31-3.31-7.72-6.25-9.56h-.74c-2.57,2.21-4.41,6.25-5.51,9.56v.37h.37a17.17,17.17,0,0,1,3.68,1.84" transform="translate(-23.98 -27.98)"/></g><g class="cls-2"><path d="M134.29,177.63h0l-12.5-1.1.37-.37,1.1-2.21a4.66,4.66,0,0,0,.37-2.21v-1.1l11,5.88v.37l-.37.74ZM118.49,165.5l-.74-.37,9.19-8.82h.74v.37h0l-5.15,11.76-.37-.74c-.37-.74-1.1-1.1-1.84-1.84a15.92,15.92,0,0,0-1.84-.37m-1.1,24.26h0l-.37.37-.37-.37h0l-2.57-12.13.74.37a5.45,5.45,0,0,0,2.57.37,4.66,4.66,0,0,0,2.21-.37l.74-.37ZM113,166.6a3.67,3.67,0,0,0-1.47,1.84l-.37.74L106,157.41v-.74h.37l9.19,8.82h-.74a3.36,3.36,0,0,0-1.84,1.1Zm-13.6,11h0l-.37-.37v-.37h0L110,171v1.1a4.66,4.66,0,0,0,.37,2.21l1.1,2.21.37.37Zm34.19-8.82a12.64,12.64,0,0,0-5.15-.37,9.35,9.35,0,0,0-2.57.74c0-.37-.37-1.1-.37-1.47a7.62,7.62,0,0,1,2.21-.74,9.38,9.38,0,0,0,4.41-3.31c2.57-3.68,2.21-8.82-1.47-11.4-3.31-2.57-8.46-1.47-11,2.21a8.66,8.66,0,0,0-1.84,4.78v2.57h-1.47v-2.21a8.78,8.78,0,0,0-1.84-5.15c-2.57-3.68-7.72-4.78-11-2.21s-4,7.35-1.47,11.4a11.49,11.49,0,0,0,4,3.31,5.31,5.31,0,0,0,2.57.74c0,.37,0,.37-.37.74,0,.37,0,.37-.37.74-.74-.37-1.84-.37-2.21-.74a9.63,9.63,0,0,0-5.51.37,8.21,8.21,0,0,0-5.51,9.93,8,8,0,0,0,10.29,4.78,9.37,9.37,0,0,0,4.41-2.94,11.44,11.44,0,0,0,1.47-2.21c.37.37.74.74,1.1.74a8,8,0,0,1-1.47,1.84,8.44,8.44,0,0,0-1.47,5.15,7.73,7.73,0,1,0,15.44,0,6.78,6.78,0,0,0-1.47-4.78,11.44,11.44,0,0,1-1.47-2.21c.37-.37.74-.74,1.1-.74a8,8,0,0,0,1.47,1.84,7.32,7.32,0,0,0,4.41,2.94,8,8,0,0,0,10.29-4.78c1.84-3.68-.74-8.09-5.15-9.56" transform="translate(-23.98 -27.98)"/></g><g class="cls-2"><path d="M198.63,177.63h0l-12.87-1.1.37-.37,1.1-2.21a4.66,4.66,0,0,0,.37-2.21v-1.1l11,5.88v1.1ZM182.82,165.5l-.74-.37,9.19-8.82H192v.37h0l-5.15,11.76-.37-.74c-.37-.74-1.1-1.1-1.84-1.84a15.92,15.92,0,0,0-1.84-.37m-1.1,24.26h0l-.37.37-.37-.37h0l-2.57-12.13.74.37a5.45,5.45,0,0,0,2.57.37,4.66,4.66,0,0,0,2.21-.37l.74-.37Zm-4.41-23.16a3.67,3.67,0,0,0-1.47,1.84l-.37.74-5.15-11.76v-.74h.37l9.19,8.82h-.74a3.36,3.36,0,0,0-1.84,1.1m-13.6,11h0l-.37-.37v-.37h0l11-5.88v1.1a4.66,4.66,0,0,0,.37,2.21l1.1,2.21.37.37Zm34.19-8.82a12.64,12.64,0,0,0-5.15-.37,9.35,9.35,0,0,0-2.57.74c0-.37-.37-1.1-.37-1.47A7.62,7.62,0,0,1,192,167a9.38,9.38,0,0,0,4.41-3.31c2.57-3.68,2.21-8.82-1.47-11.4-3.31-2.57-8.46-1.47-11,2.21a8.66,8.66,0,0,0-1.84,4.78v2.57h-1.47v-2.21a8.78,8.78,0,0,0-1.84-5.15c-2.57-3.68-7.72-4.78-11-2.21s-4,7.35-1.47,11.4a11.49,11.49,0,0,0,4,3.31,5.31,5.31,0,0,0,2.57.74c0,.37-.37.37-.37.74s0,.37-.37.74c-.74-.37-1.84-.37-2.21-.74a9.63,9.63,0,0,0-5.51.37,8.21,8.21,0,0,0-5.51,9.93,8,8,0,0,0,10.29,4.78,9.37,9.37,0,0,0,4.41-2.94,11.44,11.44,0,0,0,1.47-2.21c.37.37.74.74,1.1.74a8,8,0,0,1-1.47,1.84,8.44,8.44,0,0,0-1.47,5.15,7.73,7.73,0,1,0,15.44,0,6.78,6.78,0,0,0-1.47-4.78,11.44,11.44,0,0,1-1.47-2.21c.37-.37.74-.74,1.1-.74a8,8,0,0,0,1.47,1.84,7.32,7.32,0,0,0,4.41,2.94A8,8,0,0,0,203,178.37c1.84-3.68-.74-8.09-5.15-9.56" transform="translate(-23.98 -27.98)"/></g><g class="cls-2"><path d="M211.87,220.28a3.3,3.3,0,0,0-.74-3.31c-1.84-1.84-4.41-1.47-7.35,1.1a16,16,0,0,0-2.21,2.57l5.15,5.88a8,8,0,0,0,1.84-1.47c1.84-1.84,2.94-3.31,3.31-4.78" transform="translate(-23.98 -27.98)"/></g><g class="cls-2"><path d="M218.85,223.22c-2.21,0-4.41,1.1-6.62,2.94l-2.94,2.94,7,7.72a35.6,35.6,0,0,0,3.31-2.57c1.84-1.84,3.31-3.68,3.68-5.15a5.08,5.08,0,0,0-1.1-4.41c-.37-1.1-1.84-1.47-3.31-1.47" transform="translate(-23.98 -27.98)"/></g><g class="cls-2"><path d="M177.31,233.51a13.22,13.22,0,0,0-4,.74c-7.35,2.21-11.4,8.46-9.19,15.07a11.92,11.92,0,0,0,11.76,8.46,15.63,15.63,0,0,0,4-.74c7.35-2.21,11.4-8.46,9.19-15.07-1.47-5.15-5.88-8.46-11.76-8.46" transform="translate(-23.98 -27.98)"/></g><g class="cls-2"><path d="M256.72,184.25l-.37-1.1a5.45,5.45,0,0,0-4.41-2.94l-18.75-3.31c-2.21-.37-3.68-.37-5.15,1.1l-.74.74L231,158.15l5.51,1.1-.37.37a9.69,9.69,0,0,0-2.57,5.88,18,18,0,0,0-.37,4.78l7.35,1.47,1.47-8.46,5.51,1.1-.74.37c-1.1.74-1.47,2.21-1.84,5.15l-.37,2.94,9.56,1.84c.74-2.57,1.1-4.41,1.47-5.88a18.1,18.1,0,0,0-.74-9.93l-.37-1.1,6.25,4v.37Zm-4.41,12.5L241.65,216.6v-1.1c-.37-2.21-1.47-2.94-3.31-4l-16.91-9.19a5.93,5.93,0,0,0-3.31-1.1,3.31,3.31,0,0,0-1.84.37l-1.1.37,5.88-10.66v1.1c.37,2.21,1.47,2.94,3.31,4L242,205.94a55.66,55.66,0,0,0,3.31-5.15,17.81,17.81,0,0,0,2.57-9.56v-1.1l4.41,6.62Zm-30.51,41.18-9.19,8.46.37-1.1c.37-2.21-.37-3.31-1.84-5.15l-12.87-14.34c-1.47-1.47-2.57-2.57-4.78-2.21h-1.1l9.93-8.82c3.31-2.94,6.62-4.78,9.19-4.78a5.27,5.27,0,0,1,4,1.84c1.47,1.84,1.47,4,.37,7.35,4.78-2.21,8.46-1.84,11,.74,4,4.78,2.21,11.4-5.15,18m-29,14.71c-2.57,3.68-6.62,6.25-11.76,8.09a28,28,0,0,1-7.72,1.1,21.41,21.41,0,0,1-7-1.1,15.5,15.5,0,0,1-8.82-9.19,13.35,13.35,0,0,1,.74-9.93,21.82,21.82,0,0,1,13.6-11c5.51-1.47,10.66-1.47,14.71,0a15.17,15.17,0,0,1,8.82,9.56c1.47,3.68.37,8.46-2.57,12.5m-41.91-15.81a5.45,5.45,0,0,0-2.94,4.41l-4.78,25h-.37c-3.31-.74-5.15-2.94-7-6.25l-14-21.32-3.31,16.54c-.37,2.21-.74,3.68,1.1,5.15l.74.74-9.93-1.84,1.1-.37c2.21-1.1,2.57-2.21,2.94-4.41l3.68-18.75c.37-2.21.37-3.68-1.1-5.15l-1.1-1.1,8.46,1.47h0l15.81,25,2.94-15.81c.37-2.21.37-3.68-1.1-5.15l-.37-.37,9.93,1.84Zm-42.28-6.62a10.78,10.78,0,0,0-4.41-4.78,24.48,24.48,0,0,0-4.41-2.21l-4,6.25,7.35,4.78L100.1,239v-.74c-.37-1.47-1.47-2.21-3.68-3.68l-2.21-1.47L88,241.24a27.85,27.85,0,0,0,4.78,3.68,21.22,21.22,0,0,0,9.56,3.31h1.1l-6.25,4h-.37L78,239.76h1.1c2.21,0,3.31-1.1,4.41-2.94L93.85,221c1.1-1.84,1.84-2.94,1.1-5.15l-.37-1.1,17.65,11.4-2.94,4.78ZM70,225.79c-.37,1.47-.37,3.68-.74,5.88v1.1l-2.57-3.31a8.41,8.41,0,0,1-1.47-7.72l3.68-16.18.37.37q4.41,4.41,7.72,4.41a5.23,5.23,0,0,0,2.21-.74A3.86,3.86,0,0,0,81,206.31a7.17,7.17,0,0,0-1.84-4.78A11.73,11.73,0,0,0,76.94,199L60,211.09c-1.84,1.1-2.94,2.21-2.94,4.41v1.1l-7-9.56,1.1.37c2.21.74,3.31,0,5.15-1.47l15.44-11c1.84-1.1,2.94-2.21,2.94-4.41v-1.1l7.72,10.66a14.55,14.55,0,0,1,3.31,8.46c0,2.57-.74,4.78-2.57,5.88-2.57,1.84-6.25,1.47-10.66-1.84ZM44.22,193.07a72.27,72.27,0,0,1-4-11.4,29.08,29.08,0,0,1-.37-12.5c1.47-5.88,5.51-10.29,11-11.4,4.41-1.1,8.82.37,12.87,3.68,3.68,2.94,5.88,7.35,7.35,12.87.37,2.57.74,5.15,1.1,8.82v.37l-5.51,1.1v-.74c.74-3.31,1.1-6.25.37-9.19C65.54,168.07,61.13,164,55.62,164a9.14,9.14,0,0,0-2.94.37A10.31,10.31,0,0,0,45,169.91c-1.47,2.94-1.84,6.62-.74,11a25.64,25.64,0,0,0,2.21,6.25l5.88-1.47c2.21-.37,3.31-.74,4.41-2.94l.37-1.1,1.84,8.09-14.71,3.31Zm15.44-54a5.51,5.51,0,1,1-5.51-5.51c2.94.37,5.51,2.57,5.51,5.51m-13.6-30.15h0a9.35,9.35,0,0,0,2.57.74l21.69,2.21L58.93,97.12l-2.21-2.21c-.74-.37-1.47-.37-3.31.37l-.74.37,4.78-8.82L78,114.4l-.37.37c-1.84,2.21-4,2.94-7.35,2.94H68.12l-18.38-1.47H46.79a11.33,11.33,0,0,0-3.68.37l-.74-.37ZM74,69.91V71c-.37,2.21.74,3.31,2.21,4.78l13.6,13.6c1.47,1.47,2.57,2.57,4.78,2.21h1.1l-8.46,8.46V99c.37-2.21-.74-3.31-2.21-4.78l-13.6-13.6C70,79.1,68.85,78,66.65,78.37h-1.1Zm19.49-13.6-.37,1.1c-.74,2.21-.37,3.31.74,5.15l9.93,17.28a41.38,41.38,0,0,0,5.51-2.57,18.21,18.21,0,0,0,7-7l.37-.74,1.1,7.35L97.9,88.29l.37-1.1c.74-2.21.37-3.31-.74-5.15L88,65.5c-1.1-1.84-1.84-2.94-4-3.31h-1.1Zm34.19-12.87-.74.74c-1.47,1.47-1.47,2.94-1.1,5.15l3.68,19.85c2.57-.37,4.78-.37,6.25-.74A20,20,0,0,0,144.59,64l.74-.74-1.47,7.35-22.43,4.41.74-.74c1.47-1.84,1.47-2.94,1.1-5.15l-3.68-18.75c-.37-2.21-.74-3.68-2.94-4.41l-1.1-.37ZM147.9,83.51a70.42,70.42,0,1,1-69.12,71.69A70.3,70.3,0,0,1,147.9,83.51m1.47-13.24c1.84-1.1,2.21-2.57,2.57-4.78l2.57-18.75c.37-2.21.37-3.68-1.1-5.15l-.74-.74,20.59,2.94-.74,5.51-.37-.37a9.69,9.69,0,0,0-5.88-2.57,20.71,20.71,0,0,0-4.78,0L160,53.74l8.46,1.1-.74,5.51-.37-.74c-.74-1.1-2.57-1.47-5.15-1.84l-2.94-.37-1.47,9.93c2.57.74,4.41,1.1,5.88,1.47a22.41,22.41,0,0,0,9.93-1.1l1.1-.37L171.06,74l-22.43-3.31Zm43.38,11c2.21.37,3.31-.74,4.78-2.21l12.87-14c1.47-1.47,2.21-2.57,1.84-4.78l-.37-1.1,9.93,9.19c4,3.68,7,7.35,8.09,12.5,1.1,4.78.37,9.19-2.94,12.5a14.14,14.14,0,0,1-10.66,4.41h0c-5.15,0-9.93-2.57-16.18-8.46l-8.46-8.09ZM250.1,139a5.51,5.51,0,1,1-5.51-5.51c2.94.37,5.51,2.57,5.51,5.51m-8.82-39.34c1.84-.74,3.31-1.47,3.68-3.68l.37-1.1,8.82,18.75L249,116.24v-.74a9.91,9.91,0,0,0-1.1-6.25c-.74-1.1-1.47-2.57-2.57-4l-7,3.31,3.68,7.72-5.15,2.21.37-.74c.37-1.1-.37-2.94-1.47-5.15l-1.1-2.57-8.82,4a33.53,33.53,0,0,0,2.21,5.88,21.49,21.49,0,0,0,6.25,7.72l.74.74-7.72.37-9.56-20.59,1.1.37a5.23,5.23,0,0,0,2.21.74,4.17,4.17,0,0,0,2.94-1.1ZM146.79,28C77.68,29.1,22.9,86.09,24,155.21S82.09,279.47,151.21,278c69.12-1.1,124.26-58.09,122.79-127.21C272.9,81.68,215.91,26.9,146.79,28" transform="translate(-23.98 -27.98)"/></g><g class="cls-2"><path d="M204.88,88.29a14.73,14.73,0,0,0,9.56,4A10,10,0,0,0,222.16,89c2.21-2.57,3.31-5.15,2.94-8.46s-2.21-6.25-5.15-9.19a16.32,16.32,0,0,0-4-2.94L201.21,84.25a20.83,20.83,0,0,0,3.68,4" transform="translate(-23.98 -27.98)"/></g></svg>