<svg id="Layer_3" data-name="Layer 3" xmlns="http://www.w3.org/2000/svg" viewBox="0 0 284.55 132"><title>helsinki-logo</title><path d="M284.08,92.25v75.9a26.53,26.53,0,0,1-26.67,26.32H176.2a38.82,38.82,0,0,0-26.2,10,39.1,39.1,0,0,0-26.2-10H42.41A26.37,26.37,0,0,1,16,168.15V92.25h268.1ZM154.33,211.73a30.82,30.82,0,0,1,21.93-9.06h81.15a34.72,34.72,0,0,0,34.86-34.52V84H7.73v84.09a34.61,34.61,0,0,0,34.69,34.52H123.8a31,31,0,0,1,21.93,9.06l4.33,4.33,4.27-4.27Z" transform="translate(-7.73 -84)"/><path d="M252.85,126.83a4.56,4.56,0,1,1-4.56-4.39,4.26,4.26,0,0,1,4.56,4.39m-8.54,35.84h7.91V134.56h-7.91Zm-14.2-17,10.33,17h-8.6l-6.93-11.25-3.75,4.73v6.52h-7.85v-40.4h7.85v18.64a68.5,68.5,0,0,1-.4,6.93h.17s1.85-3.06,3.41-5.25l6-8h9.23l-9.47,11.14Zm-24.76-1c0-7-3.41-10.79-8.83-10.79a9.1,9.1,0,0,0-8.43,5.31h-.17l.4-4.62h-7.85v28.11h7.85V146c0-3.23,1.9-5.48,4.85-5.48s4.21,2,4.21,5.71v16.45h7.91l.06-18Zm-32.44-17.83a4.56,4.56,0,1,1-4.56-4.39,4.23,4.23,0,0,1,4.56,4.39m-8.54,35.84h7.91V134.56h-7.91Zm-13.62-7.85c0-2.25-3.12-2.71-6.75-3.75-4.21-1.1-9.52-3.23-9.52-8.6s5.08-8.66,11.08-8.66c5.6,0,10.74,2.66,12.87,6.41L151.67,144a5.91,5.91,0,0,0-5.89-4.44c-2,0-3.69.87-3.69,2.54,0,2.14,3.69,2.37,7.85,3.69,4.39,1.39,8.43,3.41,8.43,8.54,0,5.66-5.25,9-11.31,9-6.58,0-11.77-2.77-14.08-7.27l6.87-3.87a7.09,7.09,0,0,0,7.1,5.37c2.25,0,3.81-.92,3.81-2.77m-25-32.32h-7.91v32.38c0,2.89.63,5,1.85,6.35s3.23,2,5.94,2a15.67,15.67,0,0,0,2.83-.29,9.28,9.28,0,0,0,2.37-.87l.69-5.31a8.54,8.54,0,0,1-3.35.58,1.9,1.9,0,0,1-1.85-.81,4.71,4.71,0,0,1-.58-2.77V122.5Zm-26.32,17c-2.89,0-5.25,2.08-5.89,5.89h11.08c.06-3.35-2.14-5.89-5.19-5.89m12.18,11.2H93.44c.35,4.56,2.89,6.81,6.18,6.81a5.34,5.34,0,0,0,5.43-4.62l6.64,3.75a13.46,13.46,0,0,1-12.06,6.7c-7.85,0-13.62-5.48-13.62-14.72s5.89-14.72,13.45-14.72,12.58,5.37,12.58,13a22,22,0,0,1-.4,3.81M71.39,162.67h8.2V124h-8.2v15.3H56V124.06h-8.2v38.61H56v-16H71.39v16Z" transform="translate(-7.73 -84)"/></svg>