<svg id="Layer_1" data-name="Layer 1" xmlns="http://www.w3.org/2000/svg" viewBox="0 0 111.16 208.2"><defs><style>.cls-1{fill:#010101;}.cls-2{fill:none;stroke:#e52521;stroke-miterlimit:10;}</style></defs><title>kansas-city-logo</title><g id="Design"><path class="cls-1" d="M135.34,173.46V96.16a28.86,28.86,0,0,1,28.83-28.83h4.44a28.86,28.86,0,0,1,28.83,28.83v5.7L201,94.62h0c0-17.94-14.5-31-32.44-31h-4.44a32.56,32.56,0,0,0-32.53,32.53l0,70.67Z" transform="translate(-92.99 -28.71)"/><path class="cls-1" d="M168.6,71.57h-4.44a24.62,24.62,0,0,0-24.6,24.6V181l3.7,6.62V96.16a20.92,20.92,0,0,1,20.89-20.89h4.44A20.92,20.92,0,0,1,189.5,96.16v21.59l3.7-7.42V96.16A24.62,24.62,0,0,0,168.6,71.57Z" transform="translate(-92.99 -28.71)"/><path class="cls-1" d="M151.1,195.3l.1-99.14a13,13,0,0,1,13-13h4.44a13,13,0,0,1,13,13v37.48l3.7-7.42V96.16A16.68,16.68,0,0,0,168.6,79.5h-4.44A16.68,16.68,0,0,0,147.5,96.16v99.11" transform="translate(-92.99 -28.71)"/><path class="cls-1" d="M99.11,101l1.5,3V96.16a28.86,28.86,0,0,1,28.83-28.83h4.44A28.86,28.86,0,0,1,162.7,96.16v78.19l3.63-6.55.07-71.64a32.56,32.56,0,0,0-32.53-32.53h-4.44A32.56,32.56,0,0,0,96.91,96.16v.38Z" transform="translate(-92.99 -28.71)"/><path class="cls-1" d="M108.55,119.95V96.16a20.92,20.92,0,0,1,20.89-20.89h4.44a20.92,20.92,0,0,1,20.89,20.89l0,92.54,3.72-6.71V96.16a24.62,24.62,0,0,0-24.6-24.6h-4.44a24.62,24.62,0,0,0-24.6,24.6V112.5l1.47,3Z" transform="translate(-92.99 -28.71)"/><path class="cls-1" d="M151.1,195.3l.1-99.14a13,13,0,0,1,13-13h4.44a13,13,0,0,1,13,13v37.48l3.7-7.42V96.16A16.68,16.68,0,0,0,168.6,79.5h-4.44a16.68,16.68,0,0,0-14.88,9.18,17.72,17.72,0,0,0-15.4-9.18h-4.44a16.68,16.68,0,0,0-16.66,16.66v32.3l3.7,7.45V96.16a13,13,0,0,1,13-13h4.44c7.15,0,13.62,5.82,13.62,13v99" transform="translate(-92.99 -28.71)"/><path class="cls-1" d="M147.5,195.08" transform="translate(-92.99 -28.71)"/><path class="cls-2" d="M155,208.63" transform="translate(-92.99 -28.71)"/><path class="cls-1" d="M151.1,195.3" transform="translate(-92.99 -28.71)"/><polyline class="cls-1" points="58.11 166.59 56.33 169.77 54.51 166.56"/></g><g id="Layer_4" data-name="Layer 4"><path class="cls-1" d="M97.2,37.77l-.31.07-.31.05-.33,0h-.31A2.76,2.76,0,0,1,93.88,37Q93,36.08,93,33.49a6.35,6.35,0,0,1,.78-3.73,2.51,2.51,0,0,1,2.07-1l.43,0,.46.06.17,0,.19,0V30L97,30l-.12,0-.4-.08-.35,0a1.4,1.4,0,0,0-1.27.83,6,6,0,0,0-.45,2.72,4.85,4.85,0,0,0,.49,2.53,1.92,1.92,0,0,0,1.06.89l.19,0h.3a2.32,2.32,0,0,0,.43-.07,1.93,1.93,0,0,0,.35-.12v1.11Z" transform="translate(-92.99 -28.71)"/><path class="cls-1" d="M99.47,28.79h1.28v9H99.47Z" transform="translate(-92.99 -28.71)"/><path class="cls-1" d="M104.66,29.83H103v-1h4.54v1h-1.53v7.94h-1.39Z" transform="translate(-92.99 -28.71)"/><path class="cls-1" d="M110.88,34l-2-5.25h1.49l1.3,4.22.2-1.41.89-2.81h1.5L112.28,34v3.73h-1.41V34Z" transform="translate(-92.99 -28.71)"/><path class="cls-1" d="M129.15,29.94a7.38,7.38,0,0,1,.66,3.54,8.5,8.5,0,0,1-.52,3.22,2,2,0,0,1-2,1.25,2.44,2.44,0,0,1-2-1,5.76,5.76,0,0,1-.75-3.42,9.41,9.41,0,0,1,.53-3.44,2,2,0,0,1,2.05-1.34A2.2,2.2,0,0,1,129.15,29.94Zm-3,1a10.4,10.4,0,0,0-.23,2.39,7.61,7.61,0,0,0,.37,2.84q.37.81.93.81t.93-.91a10.2,10.2,0,0,0,.27-2.74,7.26,7.26,0,0,0-.33-2.6,1.06,1.06,0,0,0-1-.77Q126.38,29.93,126.15,30.91Z" transform="translate(-92.99 -28.71)"/><path class="cls-1" d="M132.4,28.79h3.88v1.14H133.9v2.72H136v1H133.9v4.11h-1.5v-9Z" transform="translate(-92.99 -28.71)"/><path class="cls-1" d="M146.65,28.79h3.88v1.14h-2.38v2.72h2.07v1h-2.07v4.11h-1.5Z" transform="translate(-92.99 -28.71)"/><path class="cls-1" d="M156.8,29.94a7.38,7.38,0,0,1,.66,3.54,8.48,8.48,0,0,1-.52,3.22A2,2,0,0,1,155,38a2.44,2.44,0,0,1-2-1,5.76,5.76,0,0,1-.75-3.42,9.41,9.41,0,0,1,.53-3.44,2,2,0,0,1,2.05-1.34A2.2,2.2,0,0,1,156.8,29.94Zm-3,1a10.4,10.4,0,0,0-.23,2.39,7.6,7.6,0,0,0,.37,2.84q.37.81.93.81t.93-.91a10.2,10.2,0,0,0,.27-2.74,7.24,7.24,0,0,0-.33-2.6,1.06,1.06,0,0,0-1-.77Q154,29.93,153.79,30.91Z" transform="translate(-92.99 -28.71)"/><path class="cls-1" d="M161.55,28.79v6.86a1.92,1.92,0,0,0,.2.93.79.79,0,0,0,.77.37,1,1,0,0,0,.8-.32,1.57,1.57,0,0,0,.3-1.08V28.79h1.28v6.86a2.39,2.39,0,0,1-.61,1.86,2.43,2.43,0,0,1-1.68.54,2.51,2.51,0,0,1-1.77-.54,2.47,2.47,0,0,1-.58-1.86V28.79Z" transform="translate(-92.99 -28.71)"/><path class="cls-1" d="M167.7,28.79h1.39l2.4,6.86-.33-3.19V28.79h1.39v9h-1.18l-2.6-7,.31,3.19v3.83H167.7Z" transform="translate(-92.99 -28.71)"/><path class="cls-1" d="M176.22,29.83h-1.61v-1h4.54v1h-1.53v7.94h-1.39Z" transform="translate(-92.99 -28.71)"/><path class="cls-1" d="M182.71,28.79h1.07l2.29,9h-1.5L184.23,36h-2.05l-.33,1.76h-1.39Zm.53,1.32L182.38,35H184Z" transform="translate(-92.99 -28.71)"/><path class="cls-1" d="M188.22,28.79h1.28v9h-1.28Z" transform="translate(-92.99 -28.71)"/><path class="cls-1" d="M192.54,28.79h1.39l2.4,6.86L196,32.45V28.79h1.39v9h-1.18l-2.6-7,.31,3.19v3.83h-1.39Z" transform="translate(-92.99 -28.71)"/><path class="cls-1" d="M200.38,36.44a2.6,2.6,0,0,0,.36.19l.34.11a1.45,1.45,0,0,0,.33,0,1.29,1.29,0,0,0,.82-.28,1,1,0,0,0,.38-.77v-.22a1.61,1.61,0,0,0-.34-1.07,5.65,5.65,0,0,0-.8-.78l-.16-.12-.14-.12a6.23,6.23,0,0,1-1-1,2.49,2.49,0,0,1-.45-1.59,2.21,2.21,0,0,1,0-.39,2.26,2.26,0,0,1,.13-.45,2.22,2.22,0,0,1,.67-.9,2.14,2.14,0,0,1,1.41-.41,4.84,4.84,0,0,1,.75.07,6.25,6.25,0,0,1,.89.22V30.2a3.36,3.36,0,0,0-.69-.28,2.28,2.28,0,0,0-.58-.09,1.16,1.16,0,0,0-.84.29,1.27,1.27,0,0,0-.38.63.61.61,0,0,1,0,.1.55.55,0,0,0,0,.09,1.36,1.36,0,0,0,.27.85,4.3,4.3,0,0,0,.68.7l.27.24.29.24a7.09,7.09,0,0,1,1,1.05,2.64,2.64,0,0,1,.51,1.53,2.28,2.28,0,0,1-.7,1.64,2.4,2.4,0,0,1-1.79.72,3.51,3.51,0,0,1-.78-.1,3.59,3.59,0,0,1-.84-.31V36.2A2.69,2.69,0,0,0,200.38,36.44Z" transform="translate(-92.99 -28.71)"/><path class="cls-1" d="M102.77,45.16h1V48h1.46V45.16h1V52.6h-1V48.89h-1.46V52.6h-1Z" transform="translate(-92.99 -28.71)"/><path class="cls-1" d="M108.23,45.16h2.67v.94h-1.68v2.17h1.45v.84h-1.45v2.56h1.68v.92h-2.67Z" transform="translate(-92.99 -28.71)"/><path class="cls-1" d="M113.6,45.16h.75L116,52.6H114.9l-.23-1.46h-1.45L113,52.6h-1Zm.38,1.09-.61,4h1.16Z" transform="translate(-92.99 -28.71)"/><path class="cls-1" d="M117.49,45.16h1.28a1.76,1.76,0,0,1,1.38.45,2.26,2.26,0,0,1,.39,1.49,2.61,2.61,0,0,1-.27,1.25,1.16,1.16,0,0,1-.72.62l1.36,3.63h-1.06l-1.38-3.78V52.6h-1V45.16Zm1.8,3a1.89,1.89,0,0,0,.19-1,1.81,1.81,0,0,0-.16-.86.69.69,0,0,0-.66-.29h-.19v2.48A1,1,0,0,0,119.29,48.14Z" transform="translate(-92.99 -28.71)"/><path class="cls-1" d="M123,46h-1.14v-.86h3.21V46H124V52.6h-1V46Z" transform="translate(-92.99 -28.71)"/><path class="cls-1" d="M135.57,46.12a7,7,0,0,1,.46,2.93,8.12,8.12,0,0,1-.37,2.66,1.39,1.39,0,0,1-1.41,1,1.65,1.65,0,0,1-1.44-.8,5.42,5.42,0,0,1-.53-2.83,9,9,0,0,1,.38-2.85,1.44,1.44,0,0,1,1.45-1.11A1.53,1.53,0,0,1,135.57,46.12Zm-2.13.8a10,10,0,0,0-.17,2,7.29,7.29,0,0,0,.26,2.35q.26.67.66.67t.66-.75a9.79,9.79,0,0,0,.19-2.27,6.92,6.92,0,0,0-.23-2.15q-.23-.63-.7-.63T133.45,46.92Z" transform="translate(-92.99 -28.71)"/><path class="cls-1" d="M137.87,45.16h2.75v.94h-1.68v2.25h1.46v.84h-1.46v3.4h-1.06V45.16Z" transform="translate(-92.99 -28.71)"/><path class="cls-1" d="M148.55,46h-1.14v-.86h3.21V46h-1.09V52.6h-1V46Z" transform="translate(-92.99 -28.71)"/><path class="cls-1" d="M152,45.16h1V48h1.46V45.16h1V52.6h-1V48.89H153V52.6h-1Z" transform="translate(-92.99 -28.71)"/><path class="cls-1" d="M157.45,45.16h2.67v.94h-1.68v2.17h1.45v.84h-1.45v2.56h1.68v.92h-2.67Z" transform="translate(-92.99 -28.71)"/><path class="cls-1" d="M167.7,45.16h1l1.69,5.67-.23-2.64v-3h1V52.6h-.83l-1.84-5.81.22,2.64V52.6h-1Z" transform="translate(-92.99 -28.71)"/><path class="cls-1" d="M174.26,45.16H175l1.62,7.43h-1.06l-.23-1.46h-1.45l-.23,1.46h-1Zm.38,1.09-.61,4h1.16Z" transform="translate(-92.99 -28.71)"/><path class="cls-1" d="M178.69,46h-1.14v-.86h3.21V46h-1.09V52.6h-1V46Z" transform="translate(-92.99 -28.71)"/><path class="cls-1" d="M182.21,45.16h.91V52.6h-.91Z" transform="translate(-92.99 -28.71)"/><path class="cls-1" d="M188.39,46.12a7,7,0,0,1,.46,2.93,8.13,8.13,0,0,1-.36,2.66,1.39,1.39,0,0,1-1.41,1,1.65,1.65,0,0,1-1.44-.8,5.42,5.42,0,0,1-.53-2.83,9,9,0,0,1,.38-2.85,1.44,1.44,0,0,1,1.45-1.11A1.53,1.53,0,0,1,188.39,46.12Zm-2.13.8a10,10,0,0,0-.17,2,7.29,7.29,0,0,0,.26,2.35q.26.67.66.67t.66-.75a9.82,9.82,0,0,0,.19-2.27,7,7,0,0,0-.23-2.15q-.23-.63-.7-.63T186.26,46.92Z" transform="translate(-92.99 -28.71)"/><path class="cls-1" d="M190.68,45.16h1l1.69,5.67-.23-2.64v-3h1V52.6h-.83l-1.84-5.81.22,2.64V52.6h-1Z" transform="translate(-92.99 -28.71)"/><path class="cls-1" d="M98.69,216h2v3.51l2.88-3.51h2.21l-3.15,3.51L106,223h-2.37l-2.88-3.42V223h-2v-7Z" transform="translate(-92.99 -28.71)"/><path class="cls-1" d="M112.28,216h1.56l3.36,7H115l-.48-1.37h-3L111,223h-2Zm.78,1-1.27,3.81h2.41Z" transform="translate(-92.99 -28.71)"/><path class="cls-1" d="M121.14,216h2l3.52,5.34-.48-2.49V216h2v7h-1.73l-3.82-5.47.46,2.49v3h-2Z" transform="translate(-92.99 -28.71)"/><path class="cls-1" d="M133.56,221.93l.53.15.51.08a3.88,3.88,0,0,0,.48,0,3.11,3.11,0,0,0,1.21-.22q.52-.22.56-.6v-.17a1,1,0,0,0-.51-.83,8.13,8.13,0,0,0-1.17-.61l-.23-.09-.21-.09a8.79,8.79,0,0,1-1.47-.78,1.41,1.41,0,0,1-.67-1.24,1,1,0,0,1,.06-.31,1.22,1.22,0,0,1,.2-.35,2.41,2.41,0,0,1,1-.7,5.28,5.28,0,0,1,2.07-.32q.48,0,1.1.05t1.31.17v.94a7.89,7.89,0,0,0-1-.22,6.19,6.19,0,0,0-.85-.07,2.76,2.76,0,0,0-1.23.23,1.13,1.13,0,0,0-.56.49.25.25,0,0,1,0,.08.23.23,0,0,0,0,.07.8.8,0,0,0,.4.66,6,6,0,0,0,1,.54l.4.19.43.19a9.65,9.65,0,0,1,1.48.82,1.58,1.58,0,0,1,.75,1.19q0,.72-1,1.28a5.47,5.47,0,0,1-2.62.56,9.41,9.41,0,0,1-1.14-.07,8.56,8.56,0,0,1-1.23-.24v-1A4.77,4.77,0,0,0,133.56,221.93Z" transform="translate(-92.99 -28.71)"/><path class="cls-1" d="M145.47,216H147l3.36,7h-2.21l-.48-1.37h-3l-.48,1.37h-2Zm.78,1L145,220.8h2.41Z" transform="translate(-92.99 -28.71)"/><path class="cls-1" d="M154.58,221.93l.53.15.51.08a3.88,3.88,0,0,0,.48,0,3.11,3.11,0,0,0,1.21-.22q.52-.22.56-.6v-.17a1,1,0,0,0-.51-.83,8.14,8.14,0,0,0-1.17-.61l-.23-.09-.21-.09a8.79,8.79,0,0,1-1.47-.78,1.41,1.41,0,0,1-.67-1.24,1,1,0,0,1,.06-.31,1.23,1.23,0,0,1,.2-.35,2.41,2.41,0,0,1,1-.7,5.28,5.28,0,0,1,2.07-.32q.48,0,1.1.05t1.31.17v.94a7.91,7.91,0,0,0-1-.22,6.19,6.19,0,0,0-.85-.07,2.75,2.75,0,0,0-1.23.23,1.14,1.14,0,0,0-.56.49.26.26,0,0,1,0,.08.23.23,0,0,0,0,.07.8.8,0,0,0,.4.66,6,6,0,0,0,1,.54l.4.19.43.19a9.67,9.67,0,0,1,1.48.82,1.58,1.58,0,0,1,.75,1.19q0,.72-1,1.28a5.47,5.47,0,0,1-2.62.56,9.39,9.39,0,0,1-1.14-.07,8.56,8.56,0,0,1-1.23-.24v-1A4.71,4.71,0,0,0,154.58,221.93Z" transform="translate(-92.99 -28.71)"/><path class="cls-1" d="M174.49,223,174,223l-.45,0-.47,0h-.45a5.87,5.87,0,0,1-3-.73,2.88,2.88,0,0,1-1.28-2.75,3.29,3.29,0,0,1,1.13-2.91,5.17,5.17,0,0,1,3-.77l.62,0,.66,0,.25,0,.27,0v.87l-.17,0-.17,0-.57-.06-.51,0a2.47,2.47,0,0,0-1.82.65,2.9,2.9,0,0,0-.65,2.12,2.43,2.43,0,0,0,.7,2,3,3,0,0,0,1.53.69l.27,0h.43a5.79,5.79,0,0,0,.62-.05,4.46,4.46,0,0,0,.51-.1V223Z" transform="translate(-92.99 -28.71)"/><path class="cls-1" d="M178.66,216h1.85v7h-1.85Z" transform="translate(-92.99 -28.71)"/><path class="cls-1" d="M187,216.78h-2.32V216h6.53v.81H189V223h-2v-6.19Z" transform="translate(-92.99 -28.71)"/><path class="cls-1" d="M196.86,220.06,193.93,216h2.14l1.87,3.29.29-1.1,1.28-2.19h2.16l-2.79,4.09V223h-2v-2.91Z" transform="translate(-92.99 -28.71)"/><path class="cls-1" d="M98.59,231.37h1.52L102,235.3l1.66-3.93h1.63l1.26,5.37h-1.81l-.4-3.69-1.64,3.69h-1.28L99.68,233l-.4,3.69H97.51Z" transform="translate(-92.99 -28.71)"/><path class="cls-1" d="M115.26,231.37h1.64v5.37h-1.64Z" transform="translate(-92.99 -28.71)"/><path class="cls-1" d="M126.6,235.95l.46.11.44.07.42,0a3,3,0,0,0,1-.17q.45-.17.49-.46v-.13a.73.73,0,0,0-.44-.64,7.43,7.43,0,0,0-1-.47l-.2-.07-.18-.07a8,8,0,0,1-1.28-.6,1.05,1.05,0,0,1-.58-.95.66.66,0,0,1,0-.24.92.92,0,0,1,.17-.27,2.1,2.1,0,0,1,.86-.54,5.1,5.1,0,0,1,1.79-.24q.42,0,1,0t1.14.13v.72a7.59,7.59,0,0,0-.88-.17,6.05,6.05,0,0,0-.74-.05,2.65,2.65,0,0,0-1.07.17,1,1,0,0,0-.49.38.19.19,0,0,1,0,.06.15.15,0,0,0,0,.05.61.61,0,0,0,.35.51,5.43,5.43,0,0,0,.87.42l.35.14.37.14a8.81,8.81,0,0,1,1.29.63,1.21,1.21,0,0,1,.65.91q0,.55-.9,1a5.26,5.26,0,0,1-2.27.43,9.35,9.35,0,0,1-1-.06,8.21,8.21,0,0,1-1.07-.19v-.78Z" transform="translate(-92.99 -28.71)"/><path class="cls-1" d="M139.92,235.95l.46.11.44.07.42,0a3,3,0,0,0,1-.17q.45-.17.49-.46v-.13a.73.73,0,0,0-.44-.64,7.43,7.43,0,0,0-1-.47l-.2-.07-.18-.07a8,8,0,0,1-1.28-.6,1.05,1.05,0,0,1-.58-.95.66.66,0,0,1,0-.24.92.92,0,0,1,.17-.27,2.1,2.1,0,0,1,.86-.54,5.1,5.1,0,0,1,1.79-.24q.42,0,1,0t1.14.13v.72a7.59,7.59,0,0,0-.88-.17,6.05,6.05,0,0,0-.74-.05,2.65,2.65,0,0,0-1.07.17,1,1,0,0,0-.49.38.19.19,0,0,1,0,.06.15.15,0,0,0,0,.05.61.61,0,0,0,.35.51,5.43,5.43,0,0,0,.87.42l.35.14.37.14a8.81,8.81,0,0,1,1.29.63,1.21,1.21,0,0,1,.65.91q0,.55-.9,1a5.26,5.26,0,0,1-2.27.43,9.35,9.35,0,0,1-1-.06,8.21,8.21,0,0,1-1.07-.19v-.78Z" transform="translate(-92.99 -28.71)"/><path class="cls-1" d="M158.65,232.06a2.59,2.59,0,0,1,.84,2.12,2.81,2.81,0,0,1-.66,1.92,3.32,3.32,0,0,1-2.53.75,5,5,0,0,1-2.59-.58,2.19,2.19,0,0,1-1-2,3.07,3.07,0,0,1,.68-2.06,3.34,3.34,0,0,1,2.61-.8A4.07,4.07,0,0,1,158.65,232.06Zm-3.83.58a3.11,3.11,0,0,0-.3,1.43,2.42,2.42,0,0,0,.47,1.7,1.58,1.58,0,0,0,1.19.48,1.3,1.3,0,0,0,1.19-.54,3.09,3.09,0,0,0,.35-1.64,2.29,2.29,0,0,0-.42-1.55,1.62,1.62,0,0,0-1.26-.46A1.23,1.23,0,0,0,154.82,232.64Z" transform="translate(-92.99 -28.71)"/><path class="cls-1" d="M170.31,231.37v4.1a.7.7,0,0,0,.26.56,1.55,1.55,0,0,0,1,.22,2.28,2.28,0,0,0,1-.19.67.67,0,0,0,.38-.65v-4h1.64v4.1a1.13,1.13,0,0,1-.78,1.11,5.67,5.67,0,0,1-2.13.32,5.9,5.9,0,0,1-2.25-.32,1.13,1.13,0,0,1-.74-1.11v-4.1Z" transform="translate(-92.99 -28.71)"/><path class="cls-1" d="M183.91,231.37h2.31a6.59,6.59,0,0,1,2.48.32,1.11,1.11,0,0,1,.71,1.08,1.08,1.08,0,0,1-.48.9,2.62,2.62,0,0,1-1.3.45l2.45,2.62h-1.91L185.69,234v2.74h-1.77v-5.37Zm3.24,2.15a.78.78,0,0,0,.35-.7.71.71,0,0,0-.29-.62A2.26,2.26,0,0,0,186,232h-.34v1.79A3.28,3.28,0,0,0,187.15,233.52Z" transform="translate(-92.99 -28.71)"/><path class="cls-1" d="M198.47,231.37h1.63v5.37h-1.63Z" transform="translate(-92.99 -28.71)"/></g></svg>