<svg id="Layer_2" data-name="Layer 2" xmlns="http://www.w3.org/2000/svg" viewBox="0 0 264.93 130"><defs><style>.cls-1{fill:#fff;}.cls-2{fill:#575756;}.cls-3{fill:#878787;}</style></defs><title>milano-logo</title><path d="M189.48,146.84v-1.08c-1.8,0-2.52.1-3.75.1s-2.16-.1-3.75-.1l-8.43,20.56L165,145.76c-1.59,0-2.21.1-3.86.1s-2.42-.1-3.86-.1v1.08l1.7.05c1.49.05,1.7.1,1.7,1.08v25.14H162V149.2l9.36,22.46h1.23l9.36-22.46v19.74c0,3.6,1.13,4.52,3.65,4.52H186V148c0-1,.31-1,1.7-1.08Z" transform="translate(-17.53 -85)"/><path d="M198.88,173.41V154.86c0-.31-.1-.41-.46-.41s-3.44.26-6.17.26v1l2.31.05c.51,0,.62.21.62.72v13.06c0,2.31.87,3.91,3,3.91h.67Z" transform="translate(-17.53 -85)"/><path d="M257.9,173.41V159.33c0-3.08-2.47-5.4-6.07-5.4a6.43,6.43,0,0,0-6.22,4.06v-3.14c0-.36-.1-.41-.51-.41s-3.44.26-6.17.26v1l2.31.05c.46,0,.62.21.62.67v16.65h3.7V161.8c0-3.19,2.11-6.22,5-6.22,2.06,0,3.5,1.29,3.5,4.22v9.66c0,2.31.87,3.91,3,3.91h.77Z" transform="translate(-17.53 -85)"/><path d="M211.53,169.51V146c0-.36-.1-.41-.51-.41s-3.44.26-6.17.26v1l2.31.05c.51,0,.62.21.62.72v25.86h.67c2.26-.05,3.08-1.64,3.08-4" transform="translate(-17.53 -85)"/><path d="M229.68,166.73c0,2.67-1.7,5.65-4.27,5.65-2.31,0-3.6-1.08-3.6-4,0-2.78,2.21-4.88,6.37-5.09l.87-.05c.57-.05.62.05.62.62v2.88Zm3.86,6.68c0-.87-.26-2.83-.26-3.91V158.76c0-3.08-2.93-4.78-6.48-4.78-4.73,0-7.66,2.67-7.66,3.86s.72,1.54,1.64,1.54c2.67,0,1.7-4.32,5.55-4.32,2.11,0,3.34,1.08,3.34,3.24v3.44c0,.57-.05.62-.62.62l-1.13.05c-5.76.21-10.18,2.72-10.18,6.17s2.31,5,7.25,5a4.84,4.84,0,0,0,4.68-3.29c.21,2.47,1.44,3.19,3.24,3.19h.62Z" transform="translate(-17.53 -85)"/><path d="M278.25,163.49c0,5.6-.87,8.94-5.14,8.94S268,169.1,268,163.49c0-4.68.82-8.43,5.14-8.43,4.47,0,5.14,3.8,5.14,8.43m4.22,0a9.33,9.33,0,1,0-18.66,0c0,5.71,3.75,10,9.3,10s9.36-4.32,9.36-10" transform="translate(-17.53 -85)"/><path d="M274.35,133c0,2.36-.77,4-2.36,4-1.85,0-2.36-1.7-2.36-4,0-2.11.41-3.8,2.36-3.8,1.75.05,2.36,1.9,2.36,3.8m1.7,4.57V124.89c0-.15-.05-.21-.21-.21s-1.59.1-2.83.1v.46h1.08a.27.27,0,0,1,.31.31V130a2.53,2.53,0,0,0-2.47-1.54,4.35,4.35,0,0,0-4.22,4.42c0,2.67,1.44,4.63,4.06,4.63a2.58,2.58,0,0,0,2.67-1.9c0,1.13.36,1.85,1.39,1.85H276Z" transform="translate(-17.53 -85)"/><path d="M281.34,137.53V129c0-.15-.05-.21-.26-.21s-1.59.1-2.83.1v.46h1.08a.27.27,0,0,1,.31.31v6.07c0,1.08.41,1.8,1.39,1.8h.31Z" transform="translate(-17.53 -85)"/><path d="M171.95,135.27v-1.34a7.58,7.58,0,0,1-6.07,3.14c-3.8,0-5.14-2.52-5.14-8.94,0-5.45,1.29-8.43,5.29-8.43,3,0,4.93,1.7,5.19,4.32h.72c0-.57-.05-1.39-.05-2.06s.05-1.39.05-2.06c-.62,0-3-1-5.91-1-4.47,0-8.43,3.34-8.43,9.25,0,6.63,3.55,9.87,8.22,9.87a7.79,7.79,0,0,0,6.12-2.72" transform="translate(-17.53 -85)"/><path d="M185,131.16c0,3.8-.62,6.07-3.5,6.07S178,135,178,131.16c0-3.14.57-5.71,3.5-5.71s3.5,2.57,3.5,5.71m2.83,0a6.32,6.32,0,1,0-12.65,0c0,3.86,2.57,6.79,6.32,6.79s6.32-2.88,6.32-6.79" transform="translate(-17.53 -85)"/><path d="M211.12,137.89v-9.56a3.65,3.65,0,0,0-4-3.65,4.52,4.52,0,0,0-4.11,2.72,3.74,3.74,0,0,0-3.91-2.72,4.29,4.29,0,0,0-4.06,2.72V125.3c0-.21-.05-.26-.31-.26s-2.31.15-4.16.15v.67h1.59c.31,0,.41.15.41.46v11.31h2.52V130c0-2.16,1.54-4.22,3.29-4.22,1.39,0,2.21.87,2.21,2.88v6.58c0,1.59.57,2.67,2.06,2.67h.46V130c0-2.11,1.49-4.22,3.29-4.22,1.39,0,2.21.87,2.21,2.88v6.58c0,1.59.57,2.67,2.06,2.67h.41Z" transform="translate(-17.53 -85)"/><path d="M227.47,137.89V125.2h-2.52v7.45c0,2.16-1.39,4.22-3.34,4.22-1.39,0-2.31-.87-2.31-2.88V125.3c0-.21-.05-.26-.36-.26s-2.31.15-4.16.15v.67h1.59c.36,0,.41.15.41.46v8c0,2.11,1.59,3.65,4.06,3.65a4.22,4.22,0,0,0,4.11-2.72c0,1.59.57,2.67,2.06,2.67Z" transform="translate(-17.53 -85)"/><path d="M244,137.89v-9.56c0-2.11-1.64-3.65-4.11-3.65a4.31,4.31,0,0,0-4.22,2.72V125.3c0-.21-.05-.26-.31-.26s-2.31.15-4.16.15v.67h1.59c.31,0,.41.15.41.46v11.31h2.52V130c0-2.16,1.44-4.22,3.44-4.22,1.44,0,2.36.87,2.36,2.88v6.58c0,1.59.62,2.67,2.06,2.67H244Z" transform="translate(-17.53 -85)"/><path d="M257.13,130.24c0,.41,0,.46-.41.46h-4.93c-.41,0-.41,0-.41-.41,0-2.72.93-4.83,3-4.83s2.78,2.11,2.78,4.78m2.78.51c0-3-2.26-6.07-5.55-6.07s-5.86,3-5.86,6.48c0,3.91,2.06,6.79,6.07,6.79a6.1,6.1,0,0,0,4.93-2.06v-1.18a5.67,5.67,0,0,1-4.78,2.42c-2.62,0-3.39-2.16-3.39-5.29,0-.41.05-.46.46-.46h7.76c.26.05.36-.1.36-.62" transform="translate(-17.53 -85)"/><path class="cls-1" d="M79.78,180.46c4-2.47,9-2.78,13.78-3.5,6.27-.93,11.05-5.24,11.05-11.82v-51H55v50.94c0,6.63,4.78,10.9,11.05,11.82,4.73.77,9.77,1.08,13.78,3.55" transform="translate(-17.53 -85)"/><polygon class="cls-2" points="87.39 53.15 69.34 53.15 69.34 28.53 55.16 28.53 55.16 53.15 36.8 53.15 36.8 67.34 55.16 67.34 55.16 93.66 62.25 96.18 69.34 93.66 69.34 67.34 87.39 67.34 87.39 53.15"/><path class="cls-3" d="M43.54,106.85c2,3,1.23,7.66-.67,10.49A13.3,13.3,0,0,1,40,120.57c-2,1.9-4.16,3.8-5.19,6.37,0,0-.1.05-.15,0l-.05-.05a37.55,37.55,0,0,1,2.26-6.79c1-2.67,2.88-4.63,4.16-7a2.49,2.49,0,0,0,.31-1.59c-.05-.1-.21-.1-.31-.1a11.77,11.77,0,0,0-2.36,2.67,38.24,38.24,0,0,0-3.24,5.19v.1h-.1a39.11,39.11,0,0,0-2.42,6.32c-.05.1.05.36-.1.36-.21-1.85-1.08-3.39-1.29-5.19a16.57,16.57,0,0,1,6.37-10.38,12.69,12.69,0,0,0,4-4.57.62.62,0,0,1,.67-.15c.46.21.67.67,1,1.08" transform="translate(-17.53 -85)"/><path class="cls-3" d="M30.43,114.2c.21.36-.05.67-.05,1.08-1.23,3.34-.62,7.4.51,10.59a17.5,17.5,0,0,1,.21,7.66.14.14,0,0,1-.21-.1,9.43,9.43,0,0,1-.67-1.23,19.7,19.7,0,0,1-3-8.12c-.15-1.29.21-2.57,0-3.8-.05-.1-.1-.26-.21-.31-.41-.1-.46.41-.72.67-1.54,4.47.51,8.89,2.62,12.49a14.43,14.43,0,0,1,1.39,2.83,17.69,17.69,0,0,1,1.7,9.15,9.58,9.58,0,0,1-.36,1.75h-.05a7.44,7.44,0,0,0-2.42-3.19l-.51-.21a20.42,20.42,0,0,0-.87-4.42c-.82-3.14-2.78-5.6-3.8-8.69-.1-.05-.1-.15-.1-.26a14.78,14.78,0,0,1-.82-7.66,12.2,12.2,0,0,1,5.6-8.12c.46-.1,1.34-.77,1.8-.1" transform="translate(-17.53 -85)"/><path class="cls-3" d="M45.24,120.83c1.34,4,.15,8.33-2,11.46-1.64,2.67-4.52,4.22-6.63,6.48a16.27,16.27,0,0,0-2.83,3.44c-.15-.1,0-.46-.1-.67a11,11,0,0,0-.57-2.93,5.51,5.51,0,0,0,.67-1c2.11-2.83,5.35-4.57,7.2-7.56a9.81,9.81,0,0,0,1.85-4.16c-.05-.26.05-.57-.26-.67-.51,0-.72.57-1,.87A21.94,21.94,0,0,1,35.78,133a16.52,16.52,0,0,0-3.34,3.75h-.05a12.53,12.53,0,0,1,.05-1.39c.72-5.19,4.37-9.41,8.33-12.29a9.06,9.06,0,0,0,2.62-3.6c.1-.15.21-.31.41-.26.93,0,1.13.93,1.44,1.59" transform="translate(-17.53 -85)"/><path class="cls-3" d="M22.62,131.88a1.73,1.73,0,0,1,.26.87,23.27,23.27,0,0,0,1.9,7.15,1.27,1.27,0,0,1,.21.46c1.18,2.31,2.72,4.42,3.55,6.89.26.62.41,1.23.62,1.8a15.22,15.22,0,0,1,.72,3.7h-.05c-1.8-2.11-4.22-3.65-5.55-6A16.71,16.71,0,0,1,22,140.67c-.15-.67-.15-1.39-.36-2a.91.91,0,0,0-.41-.46c-.46.1-.41.67-.57,1a14.62,14.62,0,0,0,.67,5.6c.21.36.26.77.46,1.18,1,2.62,3.08,4.73,5.14,6.63a23.79,23.79,0,0,1,3.7,4.42A26.53,26.53,0,0,0,29,161l-.05.05c-.51-.87-1-1.7-1.59-2.52-1.7-2.62-3.91-4.32-6-6.63a16.5,16.5,0,0,1-3.86-10.59,13.2,13.2,0,0,1,3.7-9c.36-.41,1-.77,1.39-.41" transform="translate(-17.53 -85)"/><path class="cls-3" d="M44,136.66c.41.51,0,1.13-.15,1.64-1,2.62-.41,5.86-1.44,8.48-1.13,3.86-3.8,6.63-6,9.87a12.11,12.11,0,0,1-.77,1.29,15.57,15.57,0,0,0-2,6.89h-.05a5.19,5.19,0,0,0-3-2.31c-.1-.15.05-.31.05-.46a26.57,26.57,0,0,1,4.47-8.64c2.47-3.08,5-6.37,5.5-10.49.05-.41.1-1-.26-1.18-.57.1-.72.77-.93,1.23a27,27,0,0,1-1.7,4c-.67,1-1.23,2-2,3-1.18,1.75-2.78,3.29-3.91,5.09,0,0-.1.1-.1,0-.41-6.53,2.93-12.08,7.45-16a19.22,19.22,0,0,1,3.44-2.31c.41-.1.93-.31,1.34,0" transform="translate(-17.53 -85)"/><path class="cls-3" d="M21.49,154.45a20.5,20.5,0,0,0,7,8.22,20.68,20.68,0,0,1,6.12,8c-.1.1-.26-.05-.36-.05-4.37-2.06-8.89-4.57-11.21-9-.31-.41-.46-.93-1-1-.31.21-.21.67-.15,1,.67,2.78,2.67,4.73,4.83,6.53,3,2.52,6.89,3.39,9.92,5.81a16.42,16.42,0,0,1,4.88,5.24c0,.1-.15.1-.21.05a6.36,6.36,0,0,0-1.64-.62,4.28,4.28,0,0,0-2.42.1l-.1-.05a19.19,19.19,0,0,0-4.73-3.6,15.71,15.71,0,0,0-2.62-1.34,24.22,24.22,0,0,1-5.09-3c-4.06-3.29-6.53-8.48-5.29-14a5.11,5.11,0,0,1,1.08-2.78.64.64,0,0,1,.62-.15,7.61,7.61,0,0,0,.41.67" transform="translate(-17.53 -85)"/><path class="cls-3" d="M43.59,154.45c1.59,4.11.62,9.2-1.23,12.9-1,2.42-2.06,4.88-1.7,7.66a5.88,5.88,0,0,1-.87-.77c-.67-.57-1.39-1.18-2.16-1.75.15-.26.1-.62.21-.93a13.06,13.06,0,0,1,.77-2.52,10,10,0,0,1,.41-1.13c.57-1.39,1.34-2.67,1.85-4.11.62-1.7,1.34-3.6.93-5.55a.4.4,0,0,0-.21-.21c-.36-.1-.46.36-.62.57a28.17,28.17,0,0,1-1.75,4.93c-1.08,2.26-2.42,4.37-2.83,6.94-.1,0-.1-.15-.15-.21a14.9,14.9,0,0,1-.72-4.32,13.18,13.18,0,0,1,3.14-8.28,14.34,14.34,0,0,0,2.57-5.35.73.73,0,0,1,.46-.41c1.08.31,1.54,1.59,1.9,2.52" transform="translate(-17.53 -85)"/><path class="cls-3" d="M27.81,175c2.11,2.21,5.09,3.5,7.81,4.68A28.39,28.39,0,0,1,38.45,181a2.35,2.35,0,0,1,.72.36,21.44,21.44,0,0,1,3.8,2.83,10.77,10.77,0,0,1,.72.87,24.2,24.2,0,0,0-2.78-.26c-.21-.05-.46,0-.62-.1a16.62,16.62,0,0,1-9.1-4.22c-.36-.21-.67-.57-1.13-.46-.31.41.15.82.26,1.23,2.36,3.08,6.07,4.57,9.87,5.19a33.62,33.62,0,0,1,6.17,1.23c.15.1.1.26.15.41A22.2,22.2,0,0,0,48,191.51c-.15.1-.31,0-.46-.15a45.27,45.27,0,0,0-8.38-2,26.34,26.34,0,0,1-3.44-1,16,16,0,0,1-7.92-6.79,13.86,13.86,0,0,1-1.59-5.24c-.05-.72-.1-1.59.51-2,.57-.21.87.31,1.13.62" transform="translate(-17.53 -85)"/><path class="cls-3" d="M46.58,167A10.86,10.86,0,0,1,47,169.3c.57,2.36,2.11,4.32,2.52,6.73.82,3.55,1,7.35,2,10.85A19.63,19.63,0,0,0,54,192.23a7.38,7.38,0,0,0-2.62-.41,3,3,0,0,0-1,.21c-2.57-3.65-2.93-8.33-3.29-13a41.32,41.32,0,0,0-1-5.6,1.89,1.89,0,0,0-.51-.87c-.41-.05-.36.41-.57.67-.26,2.31.51,4.42.57,6.68.21,1.7.1,3.44.36,5.09a.51.51,0,0,1-.21-.26,8.05,8.05,0,0,1-.87-1.08A14.36,14.36,0,0,1,42.36,174a19,19,0,0,1,1-3.91c.1-.1.1-.26.15-.36a8.71,8.71,0,0,1,2-2.72c.31-.26.87-.36,1,0" transform="translate(-17.53 -85)"/><path class="cls-3" d="M42.93,192.18a22.67,22.67,0,0,0,7.3,1.29,15.71,15.71,0,0,1,7.45,2.67l-.1.05c-4-.31-8.22.77-11.77-.77-.31-.1-.72-.31-1.08-.1a.39.39,0,0,0-.1.26,4,4,0,0,0,1.7,1.23,19,19,0,0,0,8,.87A24.6,24.6,0,0,1,65.85,200V200a25.11,25.11,0,0,0-4.93,1.54,25.72,25.72,0,0,0-6.63-.67c-.36-.05-.77.05-1.18,0-.93,0-1.8-.15-2.67-.21a11.38,11.38,0,0,1-2.67-.72,13.58,13.58,0,0,1-8-7.2,2.5,2.5,0,0,1-.15-1.49c.05-.15.26-.26.36-.31a12.07,12.07,0,0,1,2.93,1.18" transform="translate(-17.53 -85)"/><path class="cls-3" d="M54.18,181c3.5.77,6.12,3.7,7.56,6.73,2.11,4,4.63,8.33,8.53,10.79a2.43,2.43,0,0,1,.62.36c-.05.15-.31.21-.51.21-4,.51-6.89-2.47-8.53-5.4-1-1.9-1.85-3.91-2.93-5.71a7.54,7.54,0,0,0-2.47-2.78.35.35,0,0,0-.31.21c-.05.57.36,1,.51,1.49,1.9,2.72,2.57,6.17,4.68,8.79,0,.05,0,.1-.05.1a10.17,10.17,0,0,1-6.37-6.12c-1-2.57-1.18-5.55-2.67-7.92-.05-.26-.15-.57.1-.72a2.42,2.42,0,0,1,1.8-.1Z" transform="translate(-17.53 -85)"/><path class="cls-3" d="M116.84,180.92v-1.49a.79.79,0,0,0,.67-.26c1.23-1.59.41-4,1.39-5.65a1.5,1.5,0,0,1,1.18-.87,3.21,3.21,0,0,1,1.59,1.59,1.1,1.1,0,0,0,.67.82.16.16,0,0,1,.21,0c1.18-.62,1.39-2,1.8-3.14a9.48,9.48,0,0,1,1-2.62,2.48,2.48,0,0,1,1.29-1.13c.1-.1.26.05.36,0a1.48,1.48,0,0,1,.87,1.49.68.68,0,0,0,.36.46c.72.1,1.08-.57,1.49-1,.87-1.54,2.06-3.19,3.91-3.55a1.4,1.4,0,0,1,1.39.62c.77,1.44-.1,3-.57,4.37a1.46,1.46,0,0,0,.1,1.13c.41.15.93,0,1.39.15a1,1,0,0,1,.62.82c-.15,1.59-1.64,2.57-2.78,3.34-.93.62-2,1-2.57,2v.41c.15.26.46.21.67.31a1.22,1.22,0,0,1,1.13.82c.1,1-.82,1.39-1.39,1.9a19.68,19.68,0,0,1-4.11,1.49,4.24,4.24,0,0,0-1.8,1.18c-.05.15-.15.36,0,.51.41.46,1.13.15,1.64.46a1.31,1.31,0,0,1,1.13,1c-.1,1.08-1.29,1.59-2.16,2-.15.05-.31.05-.41.15a8.22,8.22,0,0,1-1.08.26,8,8,0,0,1-2.21.1,4,4,0,0,0-.62-4.16l-.62-.51c1.54-1.29,2.93-2.67,4.37-4.06,0-.1.15-.21.26-.31.77-.87,1.59-1.75,2.36-2.62a13.48,13.48,0,0,0,.87-1.08c.51-.62.93-1.29,1.39-2a.44.44,0,0,1,.15-.26,7,7,0,0,0,1.13-2.42.87.87,0,0,0-.05-.36.25.25,0,0,0-.31-.1,3.71,3.71,0,0,0-1.29,1.23c-3.29,4.27-7.35,7.81-11.36,11.36l-.72.15a4.7,4.7,0,0,0-1.29.36,3.89,3.89,0,0,1,.1-2.42Z" transform="translate(-17.53 -85)"/><path class="cls-3" d="M123.84,137.89c.82-.31,2.36,1,2.47-.57-.31-1.9-2-3.19-2.52-4.93a3.29,3.29,0,0,1-.31-2.11,1.16,1.16,0,0,1,.41-.57,1.8,1.8,0,0,1,1.29.05,1,1,0,0,0,.93.1.6.6,0,0,0,.26-.57,12,12,0,0,0-1.39-2.52c-.41-1-1.08-2.16-.51-3.24a.64.64,0,0,1,.41-.31,1.41,1.41,0,0,1,1,.05c.41.15,1,.51,1.44-.26.77-1.29-.05-3,.21-4.52.15-.82.46-1.85,1.34-2.16a1.29,1.29,0,0,1,1,.15c1.54.93,1.7,2.88,2.83,4.16a.88.88,0,0,0,.67.36c.57-.31.87-1,1.54-1a1,1,0,0,1,.93.62c1,2.36-.41,4.73-.26,7.15a1,1,0,0,0,.46.82c.31.15.57-.1.82-.26a1.85,1.85,0,0,1,1.49-.82,1,1,0,0,1,.62.67c.36,2.21-1.23,3.86-2,5.76-.05.36-.26.87,0,1.23a.62.62,0,0,0,.77.1,1.51,1.51,0,0,1,1.54-.1c.57.51.31,1.49.05,2.11a6,6,0,0,1-.77,1.39,3.12,3.12,0,0,0-3.39.21,6.7,6.7,0,0,0-2.52,5,4.52,4.52,0,0,0-1.39-.51c.26-1.54.41-3.19.67-4.78a.16.16,0,0,1,0-.21c.1-1.39.21-2.93.21-4.37a49.79,49.79,0,0,0-.77-9.2c-.36-.77-.36-1.75-1.13-2.21-.26.05-.31.36-.36.57a19.52,19.52,0,0,0,.31,3,49.36,49.36,0,0,1-.21,11.36c-.15.87-.21,1.8-.41,2.72-.51,3.34-1.18,6.58-1.85,9.82a.18.18,0,0,1-.1.05,3.57,3.57,0,0,0-1.44-.41c-.05-.26,0-.62-.05-.93a15.16,15.16,0,0,0-2-6.58,6.83,6.83,0,0,1-.93-3.39c.05-.41.21-.87.62-1" transform="translate(-17.53 -85)"/><path class="cls-3" d="M129.28,154.24c-.1-.05.05-.15,0-.26a6.49,6.49,0,0,0-.21-2c.31.1.67.41,1.08.21a.63.63,0,0,0,.26-.51,2.94,2.94,0,0,0-.05-1.49,11.37,11.37,0,0,1-.67-3.44,1.44,1.44,0,0,1,.87-1.49c1-.15,1.39.62,2,1.13.21.05.46.15.67,0a4.26,4.26,0,0,0,1.18-2.67,5.84,5.84,0,0,1,2.06-3.5,1.35,1.35,0,0,1,1.39.1c1.08.82,1.13,2.26,1.23,3.6a2.3,2.3,0,0,0-.05.62,1.36,1.36,0,0,0,.41,1.13c.51.15.72-.36,1.13-.36a1.13,1.13,0,0,1,.72-.1c.51.1.67.67.77,1.13,0,2.31-1.54,4-2.67,5.86-.1.31-.31.77-.05,1.08.41.36,1,0,1.39.05a1.17,1.17,0,0,1,.57.15,1.07,1.07,0,0,1,.36,1.08,3.94,3.94,0,0,1-1,1.8,6.61,6.61,0,0,1-1,1.08c-.15.1-.26.26-.41.31-.72.87-1.85,1.34-2.11,2.52,0,.15.1.36.26.36.62.1,1.18-.21,1.85-.1a1.51,1.51,0,0,1,1,.51c.41,1.08-.62,2-1.34,2.57a11.47,11.47,0,0,1-2.47,1.34c-.05.05-.15-.05-.15-.1a3.16,3.16,0,0,0-2.88-1.13,4.32,4.32,0,0,0-2.21,1,2.33,2.33,0,0,0-1-1.39c.93-1.29,1.85-2.62,2.62-3.91.46-.62.77-1.34,1.23-2a34.26,34.26,0,0,0,1.59-3.39c.21-.62.51-1.23.67-1.9a12.8,12.8,0,0,0,.57-5.24.89.89,0,0,0-.31-.57c-.36,0-.46.46-.62.72-.31,1-.41,2-.77,3a35.39,35.39,0,0,1-3.8,8.12,2.23,2.23,0,0,0-1.75-1.54,2.5,2.5,0,0,0-.87,0c-.1-.26.15-.46.15-.72a4.56,4.56,0,0,0,.41-1.64" transform="translate(-17.53 -85)"/><path class="cls-3" d="M114.22,112.14a2.13,2.13,0,0,1,1.39-.1.5.5,0,0,0,.46-.05c.77-.21.87-1.23.67-1.75-.41-1.08-2-2.21-1.75-3.6a1.54,1.54,0,0,1,.82-1c1.75-.67,3.65,1.64,5,2.52.57.31,1.08.82,1.85.67.51-.36.51-1.08,1.13-1.29a1.54,1.54,0,0,1,1.44.82,13.4,13.4,0,0,1,1.29,5.35c.05.72.1,1.44.1,2.16a5.76,5.76,0,0,0-.77,2.11,11.35,11.35,0,0,0,.1,3.24,5.78,5.78,0,0,0-1-.1,26.35,26.35,0,0,0-4.06-9.66c-.41-.46-.87-1.18-1.54-1.23a.47.47,0,0,0-.15.41,1.46,1.46,0,0,0,.21.67c0,.21.15.36.21.57a36.94,36.94,0,0,1,3.6,9.92c.05.36-.31.46-.41.82a6.59,6.59,0,0,0-.26,1.39l-.05.05c-1.13-1.64-4.06-2-5.14-3.6a1.43,1.43,0,0,1-.26-1.29c.36-.62,1.13-.36,1.7-.51a.54.54,0,0,0,.26-.46c-.26-.93-1.23-1.49-2-2a6.05,6.05,0,0,1-3.24-3.24.83.83,0,0,1,.36-.87" transform="translate(-17.53 -85)"/><path class="cls-3" d="M114.63,122.06c.36-.26.77-.1,1.23-.1a4.85,4.85,0,0,1,.46.15c1.44.67,4.11,3,5.76,3.29a.9.9,0,0,0,.72-.26,6.7,6.7,0,0,0,.93,2.16c.1.05.15.21.21.31a2.56,2.56,0,0,0-1.7,1.39l-.15.26a8.41,8.41,0,0,0-2.83-2.52.3.3,0,0,0-.36.26c-.05.93.77,1.59,1.23,2.26a22.11,22.11,0,0,1,3.14,6.84,2.9,2.9,0,0,0-1.08.87,4.91,4.91,0,0,0,.1,4.47c.36.82.93,1.59,1.23,2.42a17.14,17.14,0,0,1,1.18,4.22c0,.62-.05,1.29,0,1.85-.1.05,0,.15-.1.21-.1-.1-.05-.26-.15-.31-.87-2.88-5.24-5.76-7.09-8-.93-1.29-1.9-2.72-1.54-4.37a1,1,0,0,1,.93-.67,13.68,13.68,0,0,1,1.44.15.74.74,0,0,0,.57-.36c.21-.72-.31-1.34-.67-1.9-.57-.77-1.29-1.29-2-2.06-.05-.05-.05-.15-.15-.21-.67-.77-1.49-1.44-1.18-2.62.26-.51.82-.46,1.29-.51.15-.1.36-.26.36-.46.05-1.44-1-2.36-1.59-3.44a4.55,4.55,0,0,1-.67-2.62,1.15,1.15,0,0,1,.46-.72" transform="translate(-17.53 -85)"/><path class="cls-3" d="M113.81,165.76a8.46,8.46,0,0,1,.26-1.64c.15-.57.36-1.23,1-1.39.87-.1,1.54,1.54,2.26.41a3.72,3.72,0,0,0-.15-2.47c-.26-.87-.72-1.59-.93-2.52a7,7,0,0,1-.62-2.57,1.71,1.71,0,0,1,.51-1.29c.41-.41.93.1,1.39-.15.21.05.31-.15.41-.31.26-1.54-.72-2.67-.51-4.27a2.69,2.69,0,0,1,1-2.21A2,2,0,0,1,121,148a14.12,14.12,0,0,1,1.59,2.67c.62,1.34.93,2.52,2.47,1.44.46-.36.87-.87,1.54-.82a1.11,1.11,0,0,1,.82.82,5.28,5.28,0,0,1-.21,2.83,7.84,7.84,0,0,0-.41,1.9,2.63,2.63,0,0,0,.1,1.29c.1.15.15.36.36.36.36,0,.67-.36,1-.36a1.59,1.59,0,0,1,1.29-.05,1.12,1.12,0,0,1,.36,1c-.21,1.8-1.9,2.83-2.57,4.37a1.15,1.15,0,0,0,0,.72.32.32,0,0,0,.31.21.1.1,0,0,1,.15,0,2.71,2.71,0,0,0,.62-.15c.51,0,1.08.05,1.34.51.36,1-.41,1.7-1,2.36h-.1a2.65,2.65,0,0,0-2.31-.93c-2.42.62-3.19,3.14-3.86,5.71a3.14,3.14,0,0,0-.93-.93,28,28,0,0,0,.72-15.27c-.26-1-.31-2-1.08-2.67a.34.34,0,0,0-.36.21,5.09,5.09,0,0,0-.1,1.54c.82,7,.36,11.31-1,15.78a2.49,2.49,0,0,0-1.39.46,5.48,5.48,0,0,0-1.8,4.73,3.5,3.5,0,0,1-.36,1.44c-1.08-3-2.57-3.34-3.65-2.78,1.8-2.57,1.34-5.35,1.18-8.58" transform="translate(-17.53 -85)"/><path class="cls-3" d="M100.65,183.8c.51-.57,1.23-1.34,2-.93s.26,1.54,1,2,1.23-1,1.49-1.8a33.3,33.3,0,0,1,1.23-4c.36-.67.72-1.39,1.59-1.13.62.21.57,1.75,1.54,1.64,1.29-.15,1.9-3.86,3.8-3.44.93.21,1.8,1.85,1.85,4,0,1.39-.57,2.78-.15,4.11.05.1.15.21.15.31a21.55,21.55,0,0,1-1.7,1.34,2.78,2.78,0,0,0-.77-1.13c-.26-.21-.57-.36-.82-.57a6.91,6.91,0,0,0,.72-3.34.52.52,0,0,0-.46-.1c-.72.51-1.13,2.11-1.9,3.39-2.21.51-3.44,2.36-4.42,4.27-.1,0-.05-.15-.15-.26a2.42,2.42,0,0,0-2.36-.87c-2.36.51-3.6,3-4.93,5-.36-1-1.08-1.13-2-1.44,2.16-2.52,2.57-5.24,4.27-7.09" transform="translate(-17.53 -85)"/><path class="cls-3" d="M92.38,196.34c1.08-1.39,1.85-3,3.29-3.8a1.32,1.32,0,0,1,1.08-.05c.46.26.51,1.49,1.29,1.44,1-.05,2.42-1.9,3.14-2.93a4.34,4.34,0,0,1,2.52-2.06.91.91,0,0,1,.93.36c.41.62-.05,1.64.51,2.11.62.05,1-.41,1.34-.82a19.45,19.45,0,0,0,1.13-1.7c0-.21.21-.41.31-.62.77-1,1.59-2.21,2.93-2.47a1,1,0,0,1,1,.46,2.16,2.16,0,0,1,.21,1c-.1.1.05.15,0,.26a.45.45,0,0,0,.31.46,1.73,1.73,0,0,0,1.34-.26c1.75-.67,2.67-2.31,4.52-2.78a2.72,2.72,0,0,1,2.36.21,2.13,2.13,0,0,1,.41,2.26c-.1.05-.05.15-.05.26-.46,1.18-1.23,2.21-1.8,3.34.05.15-.05.26-.1.41a1.29,1.29,0,0,0,.26,1,2.76,2.76,0,0,0,.57.26,1.71,1.71,0,0,1,1,.82,1.57,1.57,0,0,1-.93,1.49c-2,1.23-4.57.77-6.63,1.75-.57.15-1.34.46-1.49,1.13-.05.31.15.41.31.57.36.15.87.51.93,1,0,.82-.82,1.18-1.44,1.44L111,201c-3.14.72-6.53-.31-9.72.21a9,9,0,0,0-2.31.57c-.26,0-.41-.15-.67-.21a23.49,23.49,0,0,0-3.8-1.23c.87-.21,1.75-.36,2.57-.57.1-.05.31-.05.41-.1.62-.26,1.23-.21,1.85-.51.26,0,.46-.21.67-.15,1-.36,1.9-.62,2.93-.93q1.16-.46,2.47-.93c.1-.1.26-.1.31-.15a1.26,1.26,0,0,1,.57-.21c.31-.15.67-.31.93-.41,1.23-.62,2.57-1.13,3.7-1.85a12.26,12.26,0,0,0,1.13-.62c1.54-1.08,3.29-2.06,4.37-3.65.05-.15.15-.41,0-.51-.36-.21-.72.05-1,.15a45.59,45.59,0,0,1-5,3c-.93.46-1.8.87-2.72,1.29-.26.1-.51.15-.72.26-.93.41-1.9.77-2.83,1.13l-2.06.62c-.46.15-.87.26-1.34.41-2.83.82-6.84,1.8-9.2,2.26a18.22,18.22,0,0,1-2.42.41c-.05,0,0-.05,0-.1a8.61,8.61,0,0,0,3.24-2.83" transform="translate(-17.53 -85)"/><path class="cls-2" d="M74.44,199.63a19.51,19.51,0,0,0,5.35-3,18.57,18.57,0,0,0,6.12,3.29V200a25.6,25.6,0,0,1-6.12,4.47c-.15,0-.21-.1-.36-.15a23.32,23.32,0,0,1-5-3.65,3.18,3.18,0,0,1-.72-.72,3.45,3.45,0,0,1,.77-.31" transform="translate(-17.53 -85)"/><path class="cls-3" d="M61.79,203.49c.15-.15.41-.1.62-.26a60.23,60.23,0,0,1,6.17-1.59c1-.26,2.06-.51,3.08-.82a17.11,17.11,0,0,0,2,1.85,14.62,14.62,0,0,1-2.42.77c-2.67.87-5.5,1.18-8.17,2.11a11.5,11.5,0,0,0-4.93,2.93,7.14,7.14,0,0,0-1.44,2.21c-.57-.77-.93-1.64-1.54-2.42,1.39-2.36,4.16-3.75,6.63-4.78" transform="translate(-17.53 -85)"/><path class="cls-3" d="M83.79,204.1c0-.1.1-.15.21-.1a16.49,16.49,0,0,0,1.7.62A42,42,0,0,0,90.83,206a12.24,12.24,0,0,1,1.34.26c1.13.26,2.36.51,3.44.87.21.15.51.1.67.31a8.55,8.55,0,0,1,5.19,4.52l.05.26c-.62.93-1.08,1.75-1.7,2.67-.15-.15-.1-.41-.21-.67-.77-3.39-4.37-4.63-7.35-5.35a47.67,47.67,0,0,1-10.79-3.24c.77-.41,1.54-1,2.31-1.54" transform="translate(-17.53 -85)"/><path class="cls-2" d="M87.6,200.81c2.78.93,5.81,1.23,8.53,2.16a17.19,17.19,0,0,1,6.53,3.55,7.8,7.8,0,0,1,1.34,1.8c-.31.26-.36.62-.62.87a13.75,13.75,0,0,1-.93,1.44c-.05-.05-.05-.15-.1-.21a9,9,0,0,0-2.47-3.08c-.1,0-.21-.15-.31-.21-3.08-2.06-7-2.42-10.64-3.34-1.13-.36-2.26-.62-3.39-1.08.67-.62,1.39-1.23,2.06-1.9" transform="translate(-17.53 -85)"/><path class="cls-2" d="M59.68,209.5c2-1.75,4.68-2.52,7.25-3,.15-.1.31-.05.46-.1a5.68,5.68,0,0,0,.82-.15c.77-.21,1.64-.36,2.42-.57a33.47,33.47,0,0,0,4.52-1.54c.77.57,1.54,1.13,2.36,1.64A54.2,54.2,0,0,1,66,209.19a12.87,12.87,0,0,0-5.14,2.62A6.93,6.93,0,0,0,59.27,215h-.05c-.51-.87-1.08-1.75-1.59-2.57a7.06,7.06,0,0,1,2.06-2.93" transform="translate(-17.53 -85)"/><path class="cls-3" d="M72.38,188.58a8.69,8.69,0,0,0-3.65-.93,82.62,82.62,0,0,0,7.66,9.1,7.15,7.15,0,0,0,2-1.29,76.38,76.38,0,0,1-6-6.89" transform="translate(-17.53 -85)"/><path class="cls-2" d="M66.11,186.93c-.26-.41-2-.82-3.34-.82a89.94,89.94,0,0,0,9.51,12.39,15.5,15.5,0,0,0,2.31-.93,75.06,75.06,0,0,1-8.48-10.64" transform="translate(-17.53 -85)"/><path class="cls-3" d="M87.18,188.58a8.64,8.64,0,0,1,3.6-.93,82.62,82.62,0,0,1-7.66,9.1,7.15,7.15,0,0,1-2-1.29,69.52,69.52,0,0,0,6-6.89" transform="translate(-17.53 -85)"/><path class="cls-2" d="M93.46,186.93c.26-.41,2-.82,3.34-.82a86.41,86.41,0,0,1-9.56,12.39,15.5,15.5,0,0,1-2.31-.93,72.18,72.18,0,0,0,8.53-10.64" transform="translate(-17.53 -85)"/><path d="M79.78,180.46c4-2.47,9-2.78,13.78-3.5,6.27-.93,11.05-5.24,11.05-11.82v-51H55v50.94c0,6.63,4.78,10.9,11.05,11.82,4.73.77,9.77,1.08,13.78,3.55m0,2.88a6.58,6.58,0,0,0-1.85-1.44c-3.44-1.85-9.1-2.31-12.18-2.78-7.71-1.18-13-6.58-13-14.08V112h54.08v53c0,7.56-5.24,13-13,14.08-3.14.46-8.74.93-12.18,2.78a5.31,5.31,0,0,0-2,1.44" transform="translate(-17.53 -85)"/><rect x="41.38" y="4.63" width="2.21" height="4.47"/><polygon points="59.17 0 61.38 0 61.38 2.31 63.12 2.31 63.12 0 65.33 0 65.33 4.52 59.17 4.52 59.17 0"/><polygon points="45.39 7.45 45.39 2.31 47.6 2.31 47.6 6.84 49.81 10.23 49.81 17.17 47.6 17.17 47.6 10.85 45.39 7.45"/><polygon points="51.56 4.63 53.36 4.63 53.36 6.84 49.4 6.84 49.4 2.31 51.56 2.31 51.56 4.63"/><polygon points="55.36 21.18 39.63 21.18 39.63 13.16 37.42 9.77 37.42 4.63 39.63 4.63 39.63 9.1 41.79 12.49 41.79 18.97 55.36 18.97 55.36 21.18"/><rect x="80.91" y="4.63" width="2.21" height="4.47"/><polygon points="79.11 7.45 79.11 2.31 76.9 2.31 76.9 6.84 74.69 10.23 74.69 17.17 76.9 17.17 76.9 10.85 79.11 7.45"/><polygon points="72.89 4.63 71.14 4.63 71.14 6.84 75.1 6.84 75.1 2.31 72.89 2.31 72.89 4.63"/><path d="M57.16,110.19V108H74.69v-4a5.09,5.09,0,1,1,10.18,0v4H102.4v2.21H82.66V104a2.88,2.88,0,0,0-5.76,0v6.17Z" transform="translate(-17.53 -85)"/><polygon points="69.14 21.18 84.87 21.18 84.87 13.16 87.08 9.77 87.08 4.63 84.87 4.63 84.87 9.1 82.71 12.49 82.71 18.97 69.14 18.97 69.14 21.18"/><path d="M76.9,97.75V92.61l-2-3.08V85H72.69v5.14l2,3.08v6.12a6.75,6.75,0,0,1,2.21-1.59" transform="translate(-17.53 -85)"/><path d="M82.66,97.75V92.61l2-3.08V85h2.21v5.14l-2,3.08v6.12a6.25,6.25,0,0,0-2.21-1.59" transform="translate(-17.53 -85)"/></svg>