<svg id="Layer_7" data-name="Layer 7" xmlns="http://www.w3.org/2000/svg" viewBox="0 0 283.87 130"><defs><style>.cls-1{isolation:isolate;font-size:2.87px;font-family:ArialNarrow, Arial Narrow;}</style></defs><title>newyorkcity-logo</title><path d="M203.54,85H161.38a1.27,1.27,0,0,0-.87.39L148.23,97.76a1.27,1.27,0,0,0-.39.87v42.62a1.27,1.27,0,0,0,.39.87l12.21,12.37a1.27,1.27,0,0,0,.87.39h42.15a1.27,1.27,0,0,0,.87-.39l12.21-12.37a1.27,1.27,0,0,0,.39-.87V129.12a1.27,1.27,0,0,0-.39-.87l-3.62-3.62a1.27,1.27,0,0,0-.87-.39h-19.7a1.24,1.24,0,0,0-1.26,1.26v1.89a1.24,1.24,0,0,1-1.26,1.26H175a1.24,1.24,0,0,1-1.26-1.26v-15a1.24,1.24,0,0,1,1.26-1.26h14.81a1.24,1.24,0,0,1,1.26,1.26v1.81a1.24,1.24,0,0,0,1.26,1.26H212.2a1.27,1.27,0,0,0,.87-.39l3.62-3.55a1.27,1.27,0,0,0,.39-.87V98.63a1.27,1.27,0,0,0-.39-.87L204.4,85.39a1.27,1.27,0,0,0-.87-.39" transform="translate(-8.06 -85)"/><path d="M73.85,85H57.62a1.27,1.27,0,0,0-.87.39L53.13,89a1.27,1.27,0,0,0-.39.87v13.95a1.24,1.24,0,0,1-2.13.87L31.54,85.39a1.27,1.27,0,0,0-.87-.39H14.37a1.27,1.27,0,0,0-.87.39L9.88,89a1.18,1.18,0,0,0-.32.87v60a1.27,1.27,0,0,0,.39.87l3.55,3.62a1.27,1.27,0,0,0,.87.39H30.6a1.27,1.27,0,0,0,.87-.39l3.62-3.62a1.27,1.27,0,0,0,.39-.87V136a1.24,1.24,0,0,1,2.13-.87l19.15,19.3a1.27,1.27,0,0,0,.87.39H73.85a1.27,1.27,0,0,0,.87-.39l3.62-3.62a1.27,1.27,0,0,0,.39-.87v-60a1.27,1.27,0,0,0-.39-.87l-3.62-3.62a1.27,1.27,0,0,0-.87-.39" transform="translate(-8.06 -85)"/><path d="M105.13,154.81h16.31a1.27,1.27,0,0,0,.87-.39l3.62-3.62a1.27,1.27,0,0,0,.39-.87V137.87a1.27,1.27,0,0,1,.39-.87l20.88-21.12A1.27,1.27,0,0,0,148,115V89.88a1.27,1.27,0,0,0-.39-.87L144,85.39a1.27,1.27,0,0,0-.87-.39H126.88a1.27,1.27,0,0,0-.87.39L122.38,89a1.27,1.27,0,0,0-.39.87v7.72a1.27,1.27,0,0,1-.39.87L114.19,106a1.24,1.24,0,0,1-1.73,0l-7.41-7.48a1.27,1.27,0,0,1-.39-.87V89.88a1.27,1.27,0,0,0-.39-.87l-3.62-3.62a1.27,1.27,0,0,0-.87-.39H83.54a1.27,1.27,0,0,0-.87.39L79.05,89a1.27,1.27,0,0,0-.39.87V115a1.27,1.27,0,0,0,.39.87L99.93,137a1.27,1.27,0,0,1,.39.87v12.05a1.27,1.27,0,0,0,.39.87l3.62,3.62a1,1,0,0,0,.79.39" transform="translate(-8.06 -85)"/><path d="M14.05,163.39l4,11.9h.08L22,163.39h5.36v17.25H23.74V168.44h0l-4.25,12.21H16.57l-4.25-12.13h-.08v12.13H8.69V163.39Z" transform="translate(-8.06 -85)"/><path d="M30.12,172.06a4.19,4.19,0,0,1,.63-2,4.08,4.08,0,0,1,1.34-1.26A6.73,6.73,0,0,1,34,168a9.08,9.08,0,0,1,2-.24,15.3,15.3,0,0,1,1.89.16,4.09,4.09,0,0,1,1.73.55,3.6,3.6,0,0,1,1.34,1.1,3.26,3.26,0,0,1,.47,1.81V178a11.64,11.64,0,0,0,.08,1.65,3.61,3.61,0,0,0,.32,1.18H38.4c-.08-.16-.08-.39-.16-.63a1.73,1.73,0,0,1-.08-.63,4.56,4.56,0,0,1-2,1.18A9.3,9.3,0,0,1,34,181a5.24,5.24,0,0,1-1.65-.24A3.63,3.63,0,0,1,31,180.1a3.49,3.49,0,0,1-.95-1.18,3.65,3.65,0,0,1-.32-1.65,3.76,3.76,0,0,1,.39-1.73,3.21,3.21,0,0,1,.95-1.1,7,7,0,0,1,1.34-.63,9.29,9.29,0,0,1,1.58-.32,10.77,10.77,0,0,1,1.5-.16l1.34-.24a2.63,2.63,0,0,0,.95-.39.91.91,0,0,0,.32-.79,2.43,2.43,0,0,0-.16-.87,1.34,1.34,0,0,0-.47-.47,1.27,1.27,0,0,0-.71-.24,3,3,0,0,0-.87-.08,2.35,2.35,0,0,0-1.58.47,2.05,2.05,0,0,0-.71,1.42H30.12Zm8,2.52a1.27,1.27,0,0,1-.55.32,2.3,2.3,0,0,1-.71.16c-.24.08-.55.08-.79.16a2.8,2.8,0,0,0-.79.16c-.24.08-.55.08-.79.16a1.58,1.58,0,0,0-.63.32,3.43,3.43,0,0,0-.47.55,2,2,0,0,0,0,1.58.71.71,0,0,0,.47.47,1,1,0,0,0,.71.24,2.68,2.68,0,0,0,.79.08,2.94,2.94,0,0,0,1.58-.32,1.89,1.89,0,0,0,.79-.79,2.24,2.24,0,0,0,.32-.95,3,3,0,0,0,.08-.79Z" transform="translate(-8.06 -85)"/><path d="M48.8,184.43a4.62,4.62,0,0,1-2.76.63H45c-.32,0-.71-.08-1-.08v-2.84c.32,0,.63.08,1,.08a4.45,4.45,0,0,0,1,0,1.46,1.46,0,0,0,1-.55,1.58,1.58,0,0,0,.32-1,2.8,2.8,0,0,0-.16-.79l-4.41-11.74h3.62l2.84,8.59h.08l2.76-8.59h3.55l-5.2,14.1A4.94,4.94,0,0,1,48.8,184.43Z" transform="translate(-8.06 -85)"/><path d="M56.83,171.75a5.15,5.15,0,0,1,1.34-2,6.16,6.16,0,0,1,2-1.34,7.07,7.07,0,0,1,2.68-.47,7.36,7.36,0,0,1,2.68.47A6,6,0,0,1,69,171.75a7.49,7.49,0,0,1,.47,2.76,7.07,7.07,0,0,1-.47,2.68,5.15,5.15,0,0,1-1.34,2,6.16,6.16,0,0,1-2,1.34,7.07,7.07,0,0,1-2.68.47,7.36,7.36,0,0,1-2.68-.47,5.15,5.15,0,0,1-2-1.34,6.16,6.16,0,0,1-1.34-2,7.36,7.36,0,0,1-.47-2.68A7.49,7.49,0,0,1,56.83,171.75ZM60,175.92a3.48,3.48,0,0,0,.47,1.26,2.49,2.49,0,0,0,2.36,1.26,3,3,0,0,0,1.5-.32,2.72,2.72,0,0,0,.95-.95,3.48,3.48,0,0,0,.47-1.26,8.73,8.73,0,0,0,.16-1.5,9.65,9.65,0,0,0-.16-1.5,3,3,0,0,0-.47-1.26,2.72,2.72,0,0,0-.95-.95,2.82,2.82,0,0,0-1.5-.32,2.53,2.53,0,0,0-1.42.32,2.72,2.72,0,0,0-.95.95,3.48,3.48,0,0,0-.47,1.26,8.73,8.73,0,0,0-.16,1.5A4.61,4.61,0,0,0,60,175.92Z" transform="translate(-8.06 -85)"/><path d="M74.8,168.2v2.28h.08a7.87,7.87,0,0,1,.63-1.1,3.36,3.36,0,0,1,.95-.87,7.2,7.2,0,0,1,1.1-.55,3.27,3.27,0,0,1,1.26-.16,3.47,3.47,0,0,1,.79.16v3.23c-.16,0-.39-.08-.55-.08h-.63a3.12,3.12,0,0,0-1.58.32,2.25,2.25,0,0,0-1,.87,3.62,3.62,0,0,0-.55,1.26,9.7,9.7,0,0,0-.16,1.58v5.67H71.65V168.28H74.8Z" transform="translate(-8.06 -85)"/><path d="M84.72,163.39v3.7a4.59,4.59,0,0,1-.24,1.5,4,4,0,0,1-.71,1.26,3.83,3.83,0,0,1-1.1.87,3.77,3.77,0,0,1-1.42.47v-1.58a2.33,2.33,0,0,0,1.26-.95,3,3,0,0,0,.32-1.5H81.26v-3.7h3.47Z" transform="translate(-8.06 -85)"/><path d="M88.82,177.58a1.61,1.61,0,0,0,.63.63,2.91,2.91,0,0,0,.87.39,4,4,0,0,0,.95.16,3,3,0,0,0,.79-.08l.71-.24a3.43,3.43,0,0,0,.55-.47,1.33,1.33,0,0,0,.24-.79c0-.55-.32-.87-1-1.18a22.55,22.55,0,0,0-2.84-.79,10.5,10.5,0,0,1-1.5-.39,6.28,6.28,0,0,1-1.26-.63,2,2,0,0,1-.87-.95,2.7,2.7,0,0,1-.32-1.42,3.64,3.64,0,0,1,.47-2,3.23,3.23,0,0,1,1.26-1.26,6.51,6.51,0,0,1,1.73-.63,8.32,8.32,0,0,1,2-.16,16.59,16.59,0,0,1,2,.16,6.51,6.51,0,0,1,1.73.63,3.85,3.85,0,0,1,1.26,1.26,4.47,4.47,0,0,1,.63,1.89H93.55a1.59,1.59,0,0,0-.79-1.34,3.32,3.32,0,0,0-1.58-.32h-.63a1.85,1.85,0,0,0-.63.16c-.16.08-.32.24-.47.32a.85.85,0,0,0-.16.63,1,1,0,0,0,.32.79,8.59,8.59,0,0,0,.87.47,5.9,5.9,0,0,0,1.26.32c.47.08.95.24,1.42.32a10.5,10.5,0,0,1,1.5.39,6.28,6.28,0,0,1,1.26.63,2.74,2.74,0,0,1,.87,1,2.82,2.82,0,0,1,.32,1.5A3.77,3.77,0,0,1,95.36,180a6.21,6.21,0,0,1-1.81.71,9.69,9.69,0,0,1-4.25,0A6.73,6.73,0,0,1,87.4,180a4.34,4.34,0,0,1-1.34-1.34,4.24,4.24,0,0,1-.55-2.13h3.23A1.1,1.1,0,0,0,88.82,177.58Z" transform="translate(-8.06 -85)"/><path d="M105.84,168.52a9.66,9.66,0,0,1,1.65-2.92,8.44,8.44,0,0,1,2.68-2,8.63,8.63,0,0,1,3.55-.71,8.38,8.38,0,0,1,3.55.71,7.41,7.41,0,0,1,2.68,2,8.79,8.79,0,0,1,1.65,2.92,10.61,10.61,0,0,1,.55,3.62,10.45,10.45,0,0,1-.55,3.55,8.41,8.41,0,0,1-1.65,2.84,7.48,7.48,0,0,1-2.68,1.89,9.22,9.22,0,0,1-7.09,0,8.24,8.24,0,0,1-2.68-1.89,8.41,8.41,0,0,1-1.65-2.84,10.45,10.45,0,0,1-.55-3.55A9,9,0,0,1,105.84,168.52Zm3.47,5.75a6.82,6.82,0,0,0,.79,1.89,4.58,4.58,0,0,0,1.42,1.34,5.38,5.38,0,0,0,4.41,0,3.34,3.34,0,0,0,1.42-1.34,5.07,5.07,0,0,0,.79-1.89,9.78,9.78,0,0,0,.24-2.13,10,10,0,0,0-.24-2.21,6.82,6.82,0,0,0-.79-1.89,4.58,4.58,0,0,0-1.42-1.34,5.38,5.38,0,0,0-4.41,0,3.34,3.34,0,0,0-1.42,1.34,5.07,5.07,0,0,0-.79,1.89,10,10,0,0,0-.24,2.21A9.78,9.78,0,0,0,109.31,174.27Z" transform="translate(-8.06 -85)"/><path d="M123.17,170.48V168.2h2v-.95a3.74,3.74,0,0,1,1-2.76,4.25,4.25,0,0,1,3.15-1.1h.95c.32,0,.63.08.87.08v2.6a6.37,6.37,0,0,0-1.26-.08,1.34,1.34,0,0,0-1,.32,1.43,1.43,0,0,0-.32,1.1v.79H131v2.28h-2.36v10.24h-3.47V170.48Z" transform="translate(-8.06 -85)"/><path d="M130.82,170.48V168.2h2v-.95a3.74,3.74,0,0,1,1-2.76,4.25,4.25,0,0,1,3.15-1.1H138c.32,0,.63.08.87.08v2.6a6.37,6.37,0,0,0-1.26-.08,1.34,1.34,0,0,0-1,.32,1.43,1.43,0,0,0-.32,1.1v.79h2.36v2.28h-2.36v10.24h-3.47V170.48Z" transform="translate(-8.06 -85)"/><path d="M140.27,166.23v-2.84h3.47v2.84Zm3.39,2v12.53h-3.47V168.2Z" transform="translate(-8.06 -85)"/><path d="M152.4,170.41a2.76,2.76,0,0,0-2.36,1.34,3.88,3.88,0,0,0-.47,1.34,6.46,6.46,0,0,0,0,2.84,3.48,3.48,0,0,0,.47,1.26,3.36,3.36,0,0,0,.87.95,2.44,2.44,0,0,0,1.34.39,2.56,2.56,0,0,0,1.89-.71,3.52,3.52,0,0,0,.87-1.89h3.31a5.55,5.55,0,0,1-2,3.78,6.4,6.4,0,0,1-4.1,1.34,6.94,6.94,0,0,1-2.6-.47,5.82,5.82,0,0,1-2-1.34,6,6,0,0,1-1.26-2,6.94,6.94,0,0,1-.47-2.6,9.55,9.55,0,0,1,.39-2.68,5.66,5.66,0,0,1,1.26-2.13,4.8,4.8,0,0,1,2-1.42,7.36,7.36,0,0,1,2.68-.47,6.64,6.64,0,0,1,2.13.32,4.83,4.83,0,0,1,1.81.87,4.94,4.94,0,0,1,1.34,1.5,4.24,4.24,0,0,1,.55,2.13h-3.39A2.13,2.13,0,0,0,152.4,170.41Z" transform="translate(-8.06 -85)"/><path d="M164,177.65a3.26,3.26,0,0,0,2.21.79,2.91,2.91,0,0,0,1.81-.55,2.46,2.46,0,0,0,.95-1.1h3a5.93,5.93,0,0,1-2.21,3.23,6.71,6.71,0,0,1-3.62.95,7.36,7.36,0,0,1-2.68-.47,6.16,6.16,0,0,1-2-1.34,6,6,0,0,1-1.26-2,7.36,7.36,0,0,1-.47-2.68,6.94,6.94,0,0,1,.47-2.6,6.07,6.07,0,0,1,1.34-2.13,7.88,7.88,0,0,1,2-1.42,6.94,6.94,0,0,1,2.6-.47,5.94,5.94,0,0,1,2.76.63,5.68,5.68,0,0,1,2,1.65,8.13,8.13,0,0,1,1.1,2.36,8,8,0,0,1,.24,2.76h-9.06A3.34,3.34,0,0,0,164,177.65Zm3.86-6.54a2.33,2.33,0,0,0-1.89-.71,2.25,2.25,0,0,0-1.34.32,1.93,1.93,0,0,0-.87.71,1.88,1.88,0,0,0-.47.87,3.47,3.47,0,0,0-.16.79h5.59A4.15,4.15,0,0,0,167.85,171.12Z" transform="translate(-8.06 -85)"/><path d="M181,171.75a5.15,5.15,0,0,1,1.34-2,6.16,6.16,0,0,1,2-1.34,7.07,7.07,0,0,1,2.68-.47,7.36,7.36,0,0,1,2.68.47,6,6,0,0,1,3.39,3.39,7.49,7.49,0,0,1,.47,2.76,7.07,7.07,0,0,1-.47,2.68,5.15,5.15,0,0,1-1.34,2,6.16,6.16,0,0,1-2,1.34,7.07,7.07,0,0,1-2.68.47,7.36,7.36,0,0,1-2.68-.47,5.15,5.15,0,0,1-2-1.34,6.16,6.16,0,0,1-1.34-2,7.36,7.36,0,0,1-.47-2.68A7.49,7.49,0,0,1,181,171.75Zm3.07,4.18a3.48,3.48,0,0,0,.47,1.26,2.49,2.49,0,0,0,2.36,1.26,3,3,0,0,0,1.5-.32,2.72,2.72,0,0,0,.95-.95,3.48,3.48,0,0,0,.47-1.26,8.73,8.73,0,0,0,.16-1.5,9.65,9.65,0,0,0-.16-1.5,3,3,0,0,0-.47-1.26,2.72,2.72,0,0,0-.95-.95,2.82,2.82,0,0,0-1.5-.32,2.37,2.37,0,0,0-1.42.32,2.72,2.72,0,0,0-.95.95,3.48,3.48,0,0,0-.47,1.26,8.73,8.73,0,0,0-.16,1.5C184,175,184,175.45,184.08,175.92Z" transform="translate(-8.06 -85)"/><path d="M194.4,170.48V168.2h2v-.95a3.74,3.74,0,0,1,1-2.76,4.25,4.25,0,0,1,3.15-1.1h.95c.32,0,.63.08.87.08v2.6a6.37,6.37,0,0,0-1.26-.08,1.34,1.34,0,0,0-1,.32,1.43,1.43,0,0,0-.32,1.1v.79h2.36v2.28h-2.36v10.24h-3.47V170.48Z" transform="translate(-8.06 -85)"/><path d="M217.4,168.2v2.28h-2.52v6.22a1.64,1.64,0,0,0,.32,1.18,1.76,1.76,0,0,0,1.18.32h.55c.16,0,.32-.08.47-.08v2.68a3.84,3.84,0,0,1-.95.08h-1a9,9,0,0,1-1.5-.08,5.9,5.9,0,0,1-1.26-.39,2.29,2.29,0,0,1-.87-.87,2.82,2.82,0,0,1-.32-1.5v-7.41h-2v-2.28h2v-3.78H215v3.78h2.44Z" transform="translate(-8.06 -85)"/><path d="M222.45,163.39v6.54h.08a4.48,4.48,0,0,1,1.65-1.58,4.79,4.79,0,0,1,2-.47,6.26,6.26,0,0,1,2.28.39,4.68,4.68,0,0,1,1.42,1,4.57,4.57,0,0,1,.71,1.65,8.79,8.79,0,0,1,.24,2.13v7.72h-3.47v-7.09a4.3,4.3,0,0,0-.47-2.28,1.94,1.94,0,0,0-1.73-.79,2.5,2.5,0,0,0-2,.87,4.9,4.9,0,0,0-.63,2.76v6.54H219V163.39Z" transform="translate(-8.06 -85)"/><path d="M237,177.65a3.26,3.26,0,0,0,2.21.79,2.91,2.91,0,0,0,1.81-.55,2.46,2.46,0,0,0,.95-1.1h3a5.93,5.93,0,0,1-2.21,3.23,6.71,6.71,0,0,1-3.62.95,7.36,7.36,0,0,1-2.68-.47,6.16,6.16,0,0,1-2-1.34,6,6,0,0,1-1.26-2,7.36,7.36,0,0,1-.47-2.68,6.94,6.94,0,0,1,.47-2.6,6.07,6.07,0,0,1,1.34-2.13,7.88,7.88,0,0,1,2-1.42,6.94,6.94,0,0,1,2.6-.47,5.94,5.94,0,0,1,2.76.63,5.68,5.68,0,0,1,2,1.65,8.13,8.13,0,0,1,1.1,2.36,8,8,0,0,1,.24,2.76h-9.06A3.71,3.71,0,0,0,237,177.65Zm3.94-6.54a2.33,2.33,0,0,0-1.89-.71,2.25,2.25,0,0,0-1.34.32,1.93,1.93,0,0,0-.87.71,1.88,1.88,0,0,0-.47.87,3.47,3.47,0,0,0-.16.79h5.59A4.15,4.15,0,0,0,241,171.12Z" transform="translate(-8.06 -85)"/><path d="M19.8,197.67a2.5,2.5,0,0,0-.87-.95,4.18,4.18,0,0,0-1.18-.63,3.68,3.68,0,0,0-1.34-.24,4.8,4.8,0,0,0-2.21.47,3.34,3.34,0,0,0-1.42,1.34,5.07,5.07,0,0,0-.79,1.89,10,10,0,0,0-.24,2.21,9.78,9.78,0,0,0,.24,2.13,6.82,6.82,0,0,0,.79,1.89,4.58,4.58,0,0,0,1.42,1.34,4.8,4.8,0,0,0,2.21.47,3.41,3.41,0,0,0,2.76-1.1,5.19,5.19,0,0,0,1.18-2.84h3.7a7,7,0,0,1-.79,2.92,7.49,7.49,0,0,1-1.58,2.21,6.22,6.22,0,0,1-2.28,1.42,8.7,8.7,0,0,1-2.92.47,8.38,8.38,0,0,1-3.55-.71,8.24,8.24,0,0,1-2.68-1.89,8.41,8.41,0,0,1-1.65-2.84,10.45,10.45,0,0,1-.55-3.55,10.92,10.92,0,0,1,.55-3.62,9.66,9.66,0,0,1,1.65-2.92,8.44,8.44,0,0,1,2.68-2,8.63,8.63,0,0,1,3.55-.71,9.55,9.55,0,0,1,2.68.39A7.86,7.86,0,0,1,21.46,194a6.69,6.69,0,0,1,1.65,2,5.92,5.92,0,0,1,.79,2.68H20.2A1.86,1.86,0,0,0,19.8,197.67Z" transform="translate(-8.06 -85)"/><path d="M29.73,193v6.54h.08A4.48,4.48,0,0,1,31.46,198a4.79,4.79,0,0,1,2-.47,6.26,6.26,0,0,1,2.28.39,4.68,4.68,0,0,1,1.42,1,4.57,4.57,0,0,1,.71,1.65,8.79,8.79,0,0,1,.24,2.13v7.72H34.62v-7.09a4.3,4.3,0,0,0-.47-2.28,1.94,1.94,0,0,0-1.73-.79,2.5,2.5,0,0,0-2,.87,4.9,4.9,0,0,0-.63,2.76v6.54H26.26V193.18h3.47Z" transform="translate(-8.06 -85)"/><path d="M40.76,195.85V193h3.47v2.84Zm3.39,2v12.53H40.68V197.82Z" transform="translate(-8.06 -85)"/><path d="M50.53,207.28a3.26,3.26,0,0,0,2.21.79,2.91,2.91,0,0,0,1.81-.55,2.46,2.46,0,0,0,.95-1.1h3a5.93,5.93,0,0,1-2.21,3.23,6.71,6.71,0,0,1-3.62.95,7.36,7.36,0,0,1-2.68-.47,6.16,6.16,0,0,1-2-1.34,6,6,0,0,1-1.26-2A7.36,7.36,0,0,1,46.2,204a6.94,6.94,0,0,1,.47-2.6A6.07,6.07,0,0,1,48,199.32a7.88,7.88,0,0,1,2-1.42,6.94,6.94,0,0,1,2.6-.47,5.94,5.94,0,0,1,2.76.63,5.68,5.68,0,0,1,2,1.65,8.13,8.13,0,0,1,1.1,2.36,8,8,0,0,1,.24,2.76h-9A3.34,3.34,0,0,0,50.53,207.28Zm3.94-6.54a2.33,2.33,0,0,0-1.89-.71,2.25,2.25,0,0,0-1.34.32,1.93,1.93,0,0,0-.87.71,1.88,1.88,0,0,0-.47.87,3.47,3.47,0,0,0-.16.79h5.59A5.1,5.1,0,0,0,54.47,200.74Z" transform="translate(-8.06 -85)"/><path d="M59.43,200.11v-2.28h2.13v-1a3.74,3.74,0,0,1,1-2.76,4.25,4.25,0,0,1,3.15-1.1h.95c.32,0,.63.08.87.08v2.6a6.37,6.37,0,0,0-1.26-.08,1.34,1.34,0,0,0-1,.32,1.43,1.43,0,0,0-.32,1.1v.79h2.36V200H64.95v10.24H61.56V200H59.43Z" transform="translate(-8.06 -85)"/><path d="M74.56,196.25V193H88.74v3.23h-5.2v14.1H79.76v-14.1Z" transform="translate(-8.06 -85)"/><path d="M91.34,207.28a3.26,3.26,0,0,0,2.21.79,2.91,2.91,0,0,0,1.81-.55,2.46,2.46,0,0,0,.95-1.1h3a5.93,5.93,0,0,1-2.21,3.23,6.71,6.71,0,0,1-3.62.95,7.36,7.36,0,0,1-2.68-.47,6.16,6.16,0,0,1-2-1.34,6,6,0,0,1-1.26-2A7.36,7.36,0,0,1,87,204a6.94,6.94,0,0,1,.47-2.6,6.07,6.07,0,0,1,1.34-2.13,7.88,7.88,0,0,1,2-1.42,6.94,6.94,0,0,1,2.6-.47,5.94,5.94,0,0,1,2.76.63,5.68,5.68,0,0,1,2,1.65,8.13,8.13,0,0,1,1.1,2.36,8,8,0,0,1,.24,2.76H90.48A3.34,3.34,0,0,0,91.34,207.28Zm3.86-6.54a2.33,2.33,0,0,0-1.89-.71,2.25,2.25,0,0,0-1.34.32,1.93,1.93,0,0,0-.87.71,1.88,1.88,0,0,0-.47.87,3.47,3.47,0,0,0-.16.79h5.59A3.51,3.51,0,0,0,95.2,200.74Z" transform="translate(-8.06 -85)"/><path d="M107.57,200a2.76,2.76,0,0,0-2.36,1.34,3.88,3.88,0,0,0-.47,1.34,6.46,6.46,0,0,0,0,2.84,3.48,3.48,0,0,0,.47,1.26,3.36,3.36,0,0,0,.87.95,2.44,2.44,0,0,0,1.34.39,2.56,2.56,0,0,0,1.89-.71,3.52,3.52,0,0,0,.87-1.89h3.31a5.55,5.55,0,0,1-2,3.78,6.4,6.4,0,0,1-4.1,1.34,6.94,6.94,0,0,1-2.6-.47,5.82,5.82,0,0,1-2-1.34,6,6,0,0,1-1.26-2,6.94,6.94,0,0,1-.47-2.6,9.55,9.55,0,0,1,.39-2.68,5.66,5.66,0,0,1,1.26-2.13,4.8,4.8,0,0,1,2-1.42,7.36,7.36,0,0,1,2.68-.47,6.64,6.64,0,0,1,2.13.32,4.83,4.83,0,0,1,1.81.87,4.94,4.94,0,0,1,1.34,1.5,4.24,4.24,0,0,1,.55,2.13h-3.39A2.13,2.13,0,0,0,107.57,200Z" transform="translate(-8.06 -85)"/><path d="M118.92,193v6.54H119a4.48,4.48,0,0,1,1.65-1.58,4.79,4.79,0,0,1,2-.47,6.26,6.26,0,0,1,2.28.39,4.68,4.68,0,0,1,1.42,1,4.57,4.57,0,0,1,.71,1.65,8.79,8.79,0,0,1,.24,2.13v7.72H123.8v-7.09a4.3,4.3,0,0,0-.47-2.28,1.94,1.94,0,0,0-1.73-.79,2.5,2.5,0,0,0-2,.87,4.9,4.9,0,0,0-.63,2.76v6.54h-3.47V193.18h3.47Z" transform="translate(-8.06 -85)"/><path d="M133.1,197.82v1.73h.08a4.14,4.14,0,0,1,1.73-1.58,5.2,5.2,0,0,1,2.13-.47,6.26,6.26,0,0,1,2.28.39,4.68,4.68,0,0,1,1.42,1,4.57,4.57,0,0,1,.71,1.65,8.79,8.79,0,0,1,.24,2.13v7.72h-3.47v-7.09a4.3,4.3,0,0,0-.47-2.28,1.94,1.94,0,0,0-1.73-.79,2.5,2.5,0,0,0-2,.87,4.9,4.9,0,0,0-.63,2.76v6.54h-3.47V197.9h3.23Z" transform="translate(-8.06 -85)"/><path d="M144.21,201.37a5.15,5.15,0,0,1,1.34-2,6.16,6.16,0,0,1,2-1.34,7.07,7.07,0,0,1,2.68-.47A7.36,7.36,0,0,1,153,198a6,6,0,0,1,3.39,3.39,7.49,7.49,0,0,1,.47,2.76,7.07,7.07,0,0,1-.47,2.68,5.15,5.15,0,0,1-1.34,2,6.16,6.16,0,0,1-2,1.34,7.07,7.07,0,0,1-2.68.47,7.36,7.36,0,0,1-2.68-.47,5.15,5.15,0,0,1-2-1.34,6.16,6.16,0,0,1-1.34-2,7.36,7.36,0,0,1-.47-2.68A13.36,13.36,0,0,1,144.21,201.37Zm3.15,4.18a3.48,3.48,0,0,0,.47,1.26,2.49,2.49,0,0,0,2.36,1.26,3,3,0,0,0,1.5-.32,2.72,2.72,0,0,0,.95-.95,3.48,3.48,0,0,0,.47-1.26,8.73,8.73,0,0,0,.16-1.5,9.65,9.65,0,0,0-.16-1.5,3,3,0,0,0-.47-1.26,2.72,2.72,0,0,0-.95-.95,2.82,2.82,0,0,0-1.5-.32,2.53,2.53,0,0,0-1.42.32,2.72,2.72,0,0,0-.95.95,3.48,3.48,0,0,0-.47,1.26,7.19,7.19,0,0,0,0,3Z" transform="translate(-8.06 -85)"/><path d="M162.49,193v17.25H159V193Z" transform="translate(-8.06 -85)"/><path d="M165.25,201.37a5.15,5.15,0,0,1,1.34-2,6.16,6.16,0,0,1,2-1.34,7.07,7.07,0,0,1,2.68-.47A7.36,7.36,0,0,1,174,198a6,6,0,0,1,3.39,3.39,7.49,7.49,0,0,1,.47,2.76,7.07,7.07,0,0,1-.47,2.68,5.15,5.15,0,0,1-1.34,2,6.16,6.16,0,0,1-2,1.34,7.07,7.07,0,0,1-2.68.47,7.36,7.36,0,0,1-2.68-.47,5.15,5.15,0,0,1-2-1.34,6.16,6.16,0,0,1-1.34-2,7.36,7.36,0,0,1-.47-2.68A13.36,13.36,0,0,1,165.25,201.37Zm3.15,4.18a3.48,3.48,0,0,0,.47,1.26,2.49,2.49,0,0,0,2.36,1.26,3,3,0,0,0,1.5-.32,2.72,2.72,0,0,0,.95-.95,3.48,3.48,0,0,0,.47-1.26,8.73,8.73,0,0,0,.16-1.5,9.65,9.65,0,0,0-.16-1.5,3,3,0,0,0-.47-1.26,2.72,2.72,0,0,0-.95-.95,2.82,2.82,0,0,0-1.5-.32,2.53,2.53,0,0,0-1.42.32,2.72,2.72,0,0,0-.95.95,3.48,3.48,0,0,0-.47,1.26,7.19,7.19,0,0,0,0,3Z" transform="translate(-8.06 -85)"/><path d="M191.8,211.22a4.28,4.28,0,0,1-.87,1.81,5.52,5.52,0,0,1-2,1.42,8.39,8.39,0,0,1-3.47.55,7.77,7.77,0,0,1-1.89-.24,6.69,6.69,0,0,1-1.73-.71,4.08,4.08,0,0,1-1.34-1.26,4.12,4.12,0,0,1-.63-1.81h3.39a1.93,1.93,0,0,0,.95,1.34,3.66,3.66,0,0,0,1.65.39,2.67,2.67,0,0,0,2.13-.87,3.33,3.33,0,0,0,.63-2.21V208h-.08a3.62,3.62,0,0,1-1.58,1.5,5.2,5.2,0,0,1-2.13.47,5.87,5.87,0,0,1-2.44-.47,4,4,0,0,1-1.65-1.34,4.47,4.47,0,0,1-.95-2,8.31,8.31,0,0,1-.32-2.44,8.13,8.13,0,0,1,.32-2.36,5.21,5.21,0,0,1,1-2A5.39,5.39,0,0,1,182.5,198a5.14,5.14,0,0,1,2.28-.47,4.46,4.46,0,0,1,2.13.47,3.78,3.78,0,0,1,1.58,1.58h.08V197.9h3.23v11.74A2.15,2.15,0,0,1,191.8,211.22ZM187.15,207a2.32,2.32,0,0,0,.95-.79,4.81,4.81,0,0,0,.55-1.1,3.47,3.47,0,0,0,.16-1.26,8.73,8.73,0,0,0-.16-1.5,3.48,3.48,0,0,0-.47-1.26,3,3,0,0,0-.87-.87,2.7,2.7,0,0,0-1.42-.32,2.31,2.31,0,0,0-1.26.32,2.73,2.73,0,0,0-.87.79,2.76,2.76,0,0,0-.47,1.1,6.94,6.94,0,0,0-.16,1.34,7.76,7.76,0,0,0,.16,1.34,2.67,2.67,0,0,0,.47,1.18,2.29,2.29,0,0,0,.87.87,2.41,2.41,0,0,0,1.34.32A1.31,1.31,0,0,0,187.15,207Z" transform="translate(-8.06 -85)"/><path d="M199.44,214.05a4.62,4.62,0,0,1-2.76.63h-1c-.32,0-.71-.08-1-.08v-2.84c.32,0,.63.08,1,.08a4.45,4.45,0,0,0,1,0,1.46,1.46,0,0,0,1-.55,1.58,1.58,0,0,0,.32-1,2.8,2.8,0,0,0-.16-.79l-4.41-11.74h3.62l2.84,8.59H200l2.76-8.59h3.55l-5.2,14.1A5.58,5.58,0,0,1,199.44,214.05Z" transform="translate(-8.06 -85)"/><path d="M214.25,198.14a9.66,9.66,0,0,1,1.65-2.92,8.44,8.44,0,0,1,2.68-2,8.63,8.63,0,0,1,3.55-.71,8.38,8.38,0,0,1,3.55.71,7.41,7.41,0,0,1,2.68,2,8.79,8.79,0,0,1,1.65,2.92,10.61,10.61,0,0,1,.55,3.62,10.45,10.45,0,0,1-.55,3.55,8.41,8.41,0,0,1-1.65,2.84,7.48,7.48,0,0,1-2.68,1.89,9.22,9.22,0,0,1-7.09,0,8.24,8.24,0,0,1-2.68-1.89,8.41,8.41,0,0,1-1.65-2.84,10.45,10.45,0,0,1-.55-3.55A10.61,10.61,0,0,1,214.25,198.14Zm3.47,5.75a6.82,6.82,0,0,0,.79,1.89,4.58,4.58,0,0,0,1.42,1.34,5.38,5.38,0,0,0,4.41,0,3.34,3.34,0,0,0,1.42-1.34,5.07,5.07,0,0,0,.79-1.89,9.78,9.78,0,0,0,.24-2.13,10,10,0,0,0-.24-2.21,6.82,6.82,0,0,0-.79-1.89,4.58,4.58,0,0,0-1.42-1.34,5.38,5.38,0,0,0-4.41,0,3.34,3.34,0,0,0-1.42,1.34,5.07,5.07,0,0,0-.79,1.89,10,10,0,0,0-.24,2.21A9.78,9.78,0,0,0,217.72,203.89Z" transform="translate(-8.06 -85)"/><path d="M231.58,200.11v-2.28h2v-1a3.74,3.74,0,0,1,1-2.76,4.25,4.25,0,0,1,3.15-1.1h.95c.32,0,.63.08.87.08v2.6a6.37,6.37,0,0,0-1.26-.08,1.34,1.34,0,0,0-1,.32A1.43,1.43,0,0,0,237,197v.79h2.36V200H237v10.24h-3.47V200h-2Z" transform="translate(-8.06 -85)"/><path d="M240.41,200.11v-2.28h2v-1a3.74,3.74,0,0,1,1-2.76,4.25,4.25,0,0,1,3.15-1.1h.95c.32,0,.63.08.87.08v2.6a6.37,6.37,0,0,0-1.26-.08,1.34,1.34,0,0,0-1,.32,1.43,1.43,0,0,0-.32,1.1v.79h2.36V200h-2.36v10.24h-3.47V200h-2Z" transform="translate(-8.06 -85)"/><path d="M249.94,195.85V193h3.47v2.84Zm3.39,2v12.53h-3.47V197.82Z" transform="translate(-8.06 -85)"/><path d="M262.08,200a2.76,2.76,0,0,0-2.36,1.34,3.88,3.88,0,0,0-.47,1.34,6.46,6.46,0,0,0,0,2.84,3.48,3.48,0,0,0,.47,1.26,3.36,3.36,0,0,0,.87.95,2.44,2.44,0,0,0,1.34.39,2.56,2.56,0,0,0,1.89-.71,3.52,3.52,0,0,0,.87-1.89H268a5.55,5.55,0,0,1-2,3.78,6.4,6.4,0,0,1-4.1,1.34,6.94,6.94,0,0,1-2.6-.47,5.82,5.82,0,0,1-2-1.34,6,6,0,0,1-1.26-2,6.94,6.94,0,0,1-.47-2.6,9.55,9.55,0,0,1,.39-2.68,5.66,5.66,0,0,1,1.26-2.13,4.8,4.8,0,0,1,2-1.42,7.36,7.36,0,0,1,2.68-.47,6.64,6.64,0,0,1,2.13.32,4.83,4.83,0,0,1,1.81.87,4.94,4.94,0,0,1,1.34,1.5,4.24,4.24,0,0,1,.55,2.13h-3.39A2.13,2.13,0,0,0,262.08,200Z" transform="translate(-8.06 -85)"/><path d="M273.66,207.28a3.26,3.26,0,0,0,2.21.79,2.91,2.91,0,0,0,1.81-.55,2.46,2.46,0,0,0,.95-1.1h3a5.93,5.93,0,0,1-2.21,3.23,6.71,6.71,0,0,1-3.62.95,7.36,7.36,0,0,1-2.68-.47,6.16,6.16,0,0,1-2-1.34,6,6,0,0,1-1.26-2,7.36,7.36,0,0,1-.47-2.68,6.94,6.94,0,0,1,.47-2.6,6.07,6.07,0,0,1,1.34-2.13,7.88,7.88,0,0,1,2-1.42,6.94,6.94,0,0,1,2.6-.47,5.94,5.94,0,0,1,2.76.63,5.68,5.68,0,0,1,2,1.65,8.13,8.13,0,0,1,1.1,2.36,8,8,0,0,1,.24,2.76h-9.06A3.34,3.34,0,0,0,273.66,207.28Zm3.86-6.54a2.33,2.33,0,0,0-1.89-.71,2.25,2.25,0,0,0-1.34.32,1.93,1.93,0,0,0-.87.71,1.88,1.88,0,0,0-.47.87,3.47,3.47,0,0,0-.16.79h5.59A4.15,4.15,0,0,0,277.52,200.74Z" transform="translate(-8.06 -85)"/><path d="M287.13,197.82v2.28h.08a7.87,7.87,0,0,1,.63-1.1,3.36,3.36,0,0,1,.95-.87,7.2,7.2,0,0,1,1.1-.55,3.27,3.27,0,0,1,1.26-.16,3.47,3.47,0,0,1,.79.16v3.23c-.16,0-.39-.08-.55-.08h-.63a3.12,3.12,0,0,0-1.58.32,2.25,2.25,0,0,0-1,.87,3.62,3.62,0,0,0-.55,1.26,9.7,9.7,0,0,0-.16,1.58v5.67H284V197.9h3.15Z" transform="translate(-8.06 -85)"/><text class="cls-1" transform="translate(206.16 3.46)">R</text><circle cx="206.9" cy="2.6" r="1.89"/></svg>