<?xml version="1.0" encoding="utf-8"?>
<!-- Generator: Adobe Illustrator 22.0.0, SVG Export Plug-In . SVG Version: 6.00 Build 0)  -->
<svg version="1.1" id="Layer_1" xmlns="http://www.w3.org/2000/svg" xmlns:xlink="http://www.w3.org/1999/xlink" x="0px" y="0px"
	 viewBox="0 0 365.7 165.5" style="enable-background:new 0 0 365.7 165.5;" xml:space="preserve">
<style type="text/css">
	.st0{fill:#FFFFFF;}
	.st1{font-family:'ArialNarrow';}
	.st2{font-size:3.6375px;}
</style>
<g>
	<path class="st0" d="M249.2,0.1h-53.5c-0.4,0-0.8,0.2-1.1,0.5L179,16.3c-0.3,0.3-0.5,0.7-0.5,1.1v54.1c0,0.4,0.2,0.8,0.5,1.1
		l15.5,15.7c0.3,0.3,0.7,0.5,1.1,0.5h53.5c0.4,0,0.8-0.2,1.1-0.5l15.5-15.7c0.3-0.3,0.5-0.7,0.5-1.1V56.1c0-0.4-0.2-0.8-0.5-1.1
		l-4.6-4.6c-0.3-0.3-0.7-0.5-1.1-0.5H235c-0.9,0-1.6,0.7-1.6,1.6v2.4c0,0.9-0.7,1.6-1.6,1.6H213c-0.9,0-1.6-0.7-1.6-1.6v-19
		c0-0.9,0.7-1.6,1.6-1.6h18.8c0.9,0,1.6,0.7,1.6,1.6v2.3c0,0.9,0.7,1.6,1.6,1.6h25.2c0.4,0,0.8-0.2,1.1-0.5l4.6-4.5
		c0.3-0.3,0.5-0.7,0.5-1.1V17.4c0-0.4-0.2-0.8-0.5-1.1L250.3,0.6C250,0.3,249.6,0.1,249.2,0.1"/>
	<path class="st0" d="M84.6,0.1H64c-0.4,0-0.8,0.2-1.1,0.5l-4.6,4.6c-0.3,0.3-0.5,0.7-0.5,1.1V24c0,1.4-1.7,2.1-2.7,1.1L30.9,0.6
		c-0.3-0.3-0.7-0.5-1.1-0.5H9.1C8.7,0.1,8.3,0.3,8,0.6L3.4,5.2C3.1,5.5,3,5.9,3,6.3v76.2c0,0.4,0.2,0.8,0.5,1.1L8,88.2
		c0.3,0.3,0.7,0.5,1.1,0.5h20.6c0.4,0,0.8-0.2,1.1-0.5l4.6-4.6c0.3-0.3,0.5-0.7,0.5-1.1V64.8c0-1.4,1.7-2.1,2.7-1.1l24.3,24.5
		c0.3,0.3,0.7,0.5,1.1,0.5h20.6c0.4,0,0.8-0.2,1.1-0.5l4.6-4.6c0.3-0.3,0.5-0.7,0.5-1.1V6.3c0-0.4-0.2-0.8-0.5-1.1l-4.6-4.6
		C85.4,0.3,85,0.1,84.6,0.1"/>
	<path class="st0" d="M124.3,88.7H145c0.4,0,0.8-0.2,1.1-0.5l4.6-4.6c0.3-0.3,0.5-0.7,0.5-1.1V67.2c0-0.4,0.2-0.8,0.5-1.1l26.5-26.8
		c0.3-0.3,0.5-0.7,0.5-1.1V6.3c0-0.4-0.2-0.8-0.5-1.1l-4.6-4.6c-0.3-0.3-0.7-0.5-1.1-0.5h-20.6c-0.4,0-0.8,0.2-1.1,0.5l-4.6,4.6
		c-0.3,0.3-0.5,0.7-0.5,1.1v9.8c0,0.4-0.2,0.8-0.5,1.1l-9.4,9.5c-0.6,0.6-1.6,0.6-2.2,0l-9.4-9.5c-0.3-0.3-0.5-0.7-0.5-1.1V6.3
		c0-0.4-0.2-0.8-0.5-1.1l-4.6-4.6c-0.3-0.3-0.7-0.5-1.1-0.5H96.9c-0.4,0-0.8,0.2-1.1,0.5l-4.6,4.6c-0.3,0.3-0.5,0.7-0.5,1.1v31.9
		c0,0.4,0.2,0.8,0.5,1.1l26.5,26.8c0.3,0.3,0.5,0.7,0.5,1.1v15.3c0,0.4,0.2,0.8,0.5,1.1l4.6,4.6C123.5,88.5,123.9,88.7,124.3,88.7"
		/>
	<g>
		<g>
			<path class="st0" d="M8.7,99.6l5.1,15.1h0.1l4.9-15.1h6.8v21.9H21V106H21l-5.4,15.5h-3.7l-5.4-15.4H6.4v15.4H1.9V99.6H8.7z"/>
		</g>
		<g>
			<path class="st0" d="M29.1,110.6c0.1-1,0.3-1.9,0.8-2.6c0.5-0.7,1-1.2,1.7-1.6c0.7-0.4,1.5-0.7,2.4-0.9c0.9-0.2,1.7-0.3,2.6-0.3
				c0.8,0,1.6,0.1,2.4,0.2c0.8,0.1,1.6,0.3,2.2,0.7c0.7,0.3,1.2,0.8,1.7,1.4c0.4,0.6,0.6,1.4,0.6,2.3v8.3c0,0.7,0,1.4,0.1,2.1
				c0.1,0.7,0.2,1.1,0.4,1.5h-4.4c-0.1-0.2-0.1-0.5-0.2-0.8c-0.1-0.3-0.1-0.5-0.1-0.8c-0.7,0.7-1.5,1.2-2.5,1.5
				C36,121.8,35,122,34,122c-0.8,0-1.5-0.1-2.1-0.3c-0.7-0.2-1.2-0.5-1.7-0.9c-0.5-0.4-0.9-0.9-1.2-1.5c-0.3-0.6-0.4-1.3-0.4-2.1
				c0-0.9,0.2-1.6,0.5-2.2c0.3-0.6,0.7-1,1.2-1.4c0.5-0.3,1.1-0.6,1.7-0.8c0.6-0.2,1.3-0.3,2-0.4c0.7-0.1,1.3-0.2,1.9-0.2
				c0.6-0.1,1.2-0.2,1.7-0.3c0.5-0.1,0.9-0.3,1.2-0.5c0.3-0.2,0.4-0.6,0.4-1c0-0.5-0.1-0.8-0.2-1.1c-0.2-0.3-0.4-0.5-0.6-0.6
				c-0.3-0.2-0.6-0.3-0.9-0.3c-0.3-0.1-0.7-0.1-1.1-0.1c-0.9,0-1.5,0.2-2,0.6c-0.5,0.4-0.8,1-0.9,1.8H29.1z M39.2,113.8
				c-0.2,0.2-0.4,0.3-0.7,0.4s-0.6,0.2-0.9,0.2c-0.3,0.1-0.7,0.1-1,0.2c-0.3,0-0.7,0.1-1,0.2c-0.3,0.1-0.7,0.1-1,0.2
				c-0.3,0.1-0.6,0.2-0.8,0.4c-0.2,0.2-0.4,0.4-0.6,0.7c-0.1,0.3-0.2,0.6-0.2,1c0,0.4,0.1,0.7,0.2,1c0.1,0.3,0.3,0.5,0.6,0.6
				c0.2,0.2,0.5,0.3,0.9,0.3c0.3,0.1,0.7,0.1,1,0.1c0.9,0,1.5-0.1,2-0.4c0.5-0.3,0.8-0.6,1-1c0.2-0.4,0.4-0.8,0.4-1.2
				c0.1-0.4,0.1-0.7,0.1-1V113.8z"/>
		</g>
		<g>
			<path class="st0" d="M52.8,126.3c-0.8,0.6-2,0.8-3.5,0.8c-0.5,0-0.9,0-1.3,0c-0.4,0-0.9-0.1-1.3-0.1v-3.6c0.4,0,0.8,0.1,1.3,0.1
				c0.4,0,0.9,0.1,1.3,0c0.6-0.1,1-0.3,1.3-0.7c0.3-0.4,0.4-0.8,0.4-1.3c0-0.3-0.1-0.7-0.2-1l-5.6-14.9h4.6l3.6,10.9h0.1l3.5-10.9
				h4.5l-6.6,17.9C54.3,124.8,53.7,125.7,52.8,126.3z"/>
		</g>
		<g>
			<path class="st0" d="M63,110.2c0.4-1,0.9-1.9,1.7-2.6c0.7-0.7,1.6-1.3,2.6-1.7c1-0.4,2.1-0.6,3.4-0.6c1.2,0,2.4,0.2,3.4,0.6
				c1,0.4,1.9,1,2.6,1.7c0.7,0.7,1.3,1.6,1.7,2.6c0.4,1,0.6,2.2,0.6,3.5c0,1.3-0.2,2.4-0.6,3.4c-0.4,1-0.9,1.9-1.7,2.6
				c-0.7,0.7-1.6,1.3-2.6,1.7c-1,0.4-2.1,0.6-3.4,0.6c-1.2,0-2.4-0.2-3.4-0.6c-1-0.4-1.9-0.9-2.6-1.7c-0.7-0.7-1.3-1.6-1.7-2.6
				c-0.4-1-0.6-2.2-0.6-3.4C62.4,112.4,62.6,111.2,63,110.2z M67,115.5c0.1,0.6,0.3,1.1,0.6,1.6c0.3,0.5,0.7,0.9,1.2,1.2
				c0.5,0.3,1.1,0.4,1.8,0.4c0.7,0,1.4-0.1,1.9-0.4c0.5-0.3,0.9-0.7,1.2-1.2c0.3-0.5,0.5-1,0.6-1.6c0.1-0.6,0.2-1.2,0.2-1.9
				c0-0.6-0.1-1.3-0.2-1.9c-0.1-0.6-0.3-1.2-0.6-1.6c-0.3-0.5-0.7-0.9-1.2-1.2c-0.5-0.3-1.1-0.4-1.9-0.4c-0.7,0-1.4,0.1-1.8,0.4
				c-0.5,0.3-0.9,0.7-1.2,1.2c-0.3,0.5-0.5,1-0.6,1.6c-0.1,0.6-0.2,1.2-0.2,1.9C66.8,114.3,66.8,114.9,67,115.5z"/>
		</g>
		<g>
			<path class="st0" d="M85.8,105.7v2.9h0.1c0.2-0.5,0.5-0.9,0.8-1.4c0.3-0.4,0.7-0.8,1.2-1.1c0.5-0.3,0.9-0.5,1.4-0.7
				c0.5-0.2,1-0.2,1.6-0.2c0.3,0,0.6,0.1,1,0.2v4.1c-0.2,0-0.5-0.1-0.7-0.1c-0.3,0-0.6,0-0.8,0c-0.8,0-1.5,0.1-2,0.4
				c-0.6,0.3-1,0.6-1.3,1.1c-0.3,0.5-0.6,1-0.7,1.6c-0.1,0.6-0.2,1.3-0.2,2v7.2h-4.4v-15.9H85.8z"/>
		</g>
		<g>
			<path class="st0" d="M98.4,99.6v4.7c0,0.7-0.1,1.3-0.3,1.9c-0.2,0.6-0.5,1.1-0.9,1.6c-0.4,0.5-0.9,0.8-1.4,1.1
				c-0.5,0.3-1.1,0.5-1.8,0.6v-2c0.8-0.3,1.3-0.7,1.6-1.2c0.3-0.5,0.4-1.2,0.4-1.9h-2v-4.7H98.4z"/>
		</g>
		<g>
			<path class="st0" d="M103.6,117.6c0.2,0.3,0.4,0.6,0.8,0.8c0.3,0.2,0.7,0.4,1.1,0.5c0.4,0.1,0.8,0.2,1.2,0.2c0.3,0,0.6,0,1-0.1
				c0.3-0.1,0.6-0.2,0.9-0.3c0.3-0.2,0.5-0.4,0.7-0.6c0.2-0.3,0.3-0.6,0.3-1c0-0.7-0.4-1.1-1.3-1.5c-0.9-0.3-2.1-0.7-3.6-1
				c-0.6-0.1-1.3-0.3-1.9-0.5c-0.6-0.2-1.1-0.5-1.6-0.8c-0.5-0.3-0.9-0.7-1.1-1.2c-0.3-0.5-0.4-1.1-0.4-1.8c0-1,0.2-1.9,0.6-2.5
				c0.4-0.7,0.9-1.2,1.6-1.6c0.7-0.4,1.4-0.6,2.2-0.8c0.8-0.2,1.7-0.2,2.5-0.2s1.7,0.1,2.5,0.2c0.8,0.2,1.5,0.4,2.2,0.8
				c0.6,0.4,1.2,0.9,1.6,1.6c0.4,0.6,0.7,1.5,0.8,2.4h-4.1c-0.1-0.8-0.4-1.4-1-1.7c-0.6-0.3-1.2-0.4-2-0.4c-0.2,0-0.5,0-0.8,0
				c-0.3,0-0.5,0.1-0.8,0.2c-0.2,0.1-0.4,0.3-0.6,0.4c-0.2,0.2-0.2,0.5-0.2,0.8c0,0.4,0.1,0.7,0.4,1c0.3,0.2,0.7,0.4,1.1,0.6
				c0.5,0.2,1,0.3,1.6,0.4c0.6,0.1,1.2,0.3,1.8,0.4c0.6,0.1,1.3,0.3,1.9,0.5c0.6,0.2,1.1,0.5,1.6,0.8c0.5,0.3,0.8,0.8,1.1,1.3
				c0.3,0.5,0.4,1.1,0.4,1.9c0,1-0.2,1.9-0.6,2.6c-0.4,0.7-1,1.3-1.6,1.7c-0.7,0.4-1.4,0.7-2.3,0.9c-0.9,0.2-1.8,0.3-2.7,0.3
				c-0.9,0-1.8-0.1-2.7-0.3c-0.9-0.2-1.7-0.5-2.4-0.9c-0.7-0.4-1.2-1-1.7-1.7c-0.4-0.7-0.7-1.6-0.7-2.7h4.1
				C103.3,116.9,103.4,117.3,103.6,117.6z"/>
		</g>
		<g>
			<path class="st0" d="M125.2,106.1c0.5-1.4,1.2-2.6,2.1-3.7c0.9-1,2.1-1.9,3.4-2.5c1.3-0.6,2.9-0.9,4.5-0.9c1.7,0,3.2,0.3,4.5,0.9
				c1.3,0.6,2.5,1.4,3.4,2.5c0.9,1,1.6,2.3,2.1,3.7c0.5,1.4,0.7,2.9,0.7,4.6c0,1.6-0.2,3.1-0.7,4.5c-0.5,1.4-1.2,2.6-2.1,3.6
				c-0.9,1-2,1.8-3.4,2.4c-1.3,0.6-2.8,0.9-4.5,0.9c-1.7,0-3.2-0.3-4.5-0.9c-1.3-0.6-2.5-1.4-3.4-2.4c-0.9-1-1.6-2.2-2.1-3.6
				c-0.5-1.4-0.7-2.9-0.7-4.5C124.4,109,124.7,107.5,125.2,106.1z M129.6,113.4c0.2,0.9,0.6,1.7,1,2.4c0.5,0.7,1.1,1.3,1.8,1.7
				c0.8,0.4,1.7,0.6,2.8,0.6c1.1,0,2-0.2,2.8-0.6c0.8-0.4,1.4-1,1.8-1.7c0.5-0.7,0.8-1.5,1-2.4c0.2-0.9,0.3-1.8,0.3-2.7
				c0-1-0.1-1.9-0.3-2.8c-0.2-0.9-0.6-1.7-1-2.4c-0.5-0.7-1.1-1.3-1.8-1.7c-0.8-0.4-1.7-0.6-2.8-0.6c-1.1,0-2,0.2-2.8,0.6
				c-0.8,0.4-1.4,1-1.8,1.7c-0.5,0.7-0.8,1.5-1,2.4c-0.2,0.9-0.3,1.8-0.3,2.8C129.3,111.6,129.4,112.5,129.6,113.4z"/>
		</g>
		<g>
			<path class="st0" d="M147.2,108.6v-2.9h2.6v-1.2c0-1.4,0.4-2.6,1.3-3.5c0.9-0.9,2.2-1.4,4-1.4c0.4,0,0.8,0,1.2,0
				c0.4,0,0.8,0.1,1.1,0.1v3.3c-0.5-0.1-1-0.1-1.6-0.1c-0.6,0-1,0.1-1.3,0.4c-0.3,0.3-0.4,0.7-0.4,1.4v1h3v2.9h-3v13h-4.4v-13H147.2
				z"/>
		</g>
		<g>
			<path class="st0" d="M156.9,108.6v-2.9h2.6v-1.2c0-1.4,0.4-2.6,1.3-3.5c0.9-0.9,2.2-1.4,4-1.4c0.4,0,0.8,0,1.2,0
				c0.4,0,0.8,0.1,1.1,0.1v3.3c-0.5-0.1-1-0.1-1.6-0.1c-0.6,0-1,0.1-1.3,0.4c-0.3,0.3-0.4,0.7-0.4,1.4v1h3v2.9h-3v13h-4.4v-13H156.9
				z"/>
		</g>
		<g>
			<path class="st0" d="M168.9,103.2v-3.6h4.4v3.6H168.9z M173.2,105.7v15.9h-4.4v-15.9H173.2z"/>
		</g>
		<g>
			<path class="st0" d="M184.3,108.5c-0.7,0-1.3,0.2-1.8,0.5c-0.5,0.3-0.9,0.7-1.2,1.2c-0.3,0.5-0.5,1.1-0.6,1.7
				c-0.1,0.6-0.2,1.2-0.2,1.8c0,0.6,0.1,1.2,0.2,1.8c0.1,0.6,0.3,1.1,0.6,1.6c0.3,0.5,0.7,0.9,1.1,1.2c0.5,0.3,1,0.5,1.7,0.5
				c1,0,1.8-0.3,2.4-0.9c0.6-0.6,0.9-1.4,1.1-2.4h4.2c-0.3,2.1-1.1,3.7-2.5,4.8c-1.4,1.1-3.1,1.7-5.2,1.7c-1.2,0-2.3-0.2-3.3-0.6
				c-1-0.4-1.8-1-2.5-1.7c-0.7-0.7-1.2-1.6-1.6-2.6c-0.4-1-0.6-2.1-0.6-3.3c0-1.2,0.2-2.4,0.5-3.4c0.4-1.1,0.9-2,1.6-2.7
				c0.7-0.8,1.5-1.4,2.6-1.8c1-0.4,2.2-0.6,3.4-0.6c0.9,0,1.8,0.1,2.7,0.4c0.9,0.2,1.6,0.6,2.3,1.1c0.7,0.5,1.2,1.1,1.7,1.9
				c0.4,0.7,0.7,1.6,0.7,2.7h-4.3C187.2,109.4,186.1,108.5,184.3,108.5z"/>
		</g>
		<g>
			<path class="st0" d="M199,117.7c0.7,0.6,1.6,1,2.8,1c0.9,0,1.6-0.2,2.3-0.7c0.6-0.4,1-0.9,1.2-1.4h3.8c-0.6,1.9-1.6,3.3-2.8,4.1
				c-1.3,0.8-2.8,1.2-4.6,1.2c-1.2,0-2.4-0.2-3.4-0.6c-1-0.4-1.9-1-2.6-1.7c-0.7-0.7-1.2-1.6-1.6-2.6c-0.4-1-0.6-2.2-0.6-3.4
				c0-1.2,0.2-2.3,0.6-3.3c0.4-1,0.9-1.9,1.7-2.7c0.7-0.7,1.6-1.3,2.6-1.8c1-0.4,2.1-0.6,3.3-0.6c1.4,0,2.5,0.3,3.5,0.8
				c1,0.5,1.8,1.2,2.5,2.1c0.6,0.9,1.1,1.9,1.4,3c0.3,1.1,0.4,2.3,0.3,3.5h-11.5C198,116.1,198.3,117.1,199,117.7z M203.9,109.4
				c-0.5-0.6-1.3-0.9-2.4-0.9c-0.7,0-1.3,0.1-1.7,0.4c-0.5,0.2-0.8,0.5-1.1,0.9c-0.3,0.3-0.5,0.7-0.6,1.1c-0.1,0.4-0.2,0.7-0.2,1
				h7.1C204.8,110.8,204.4,110,203.9,109.4z"/>
		</g>
		<g>
			<path class="st0" d="M220.6,110.2c0.4-1,0.9-1.9,1.7-2.6c0.7-0.7,1.6-1.3,2.6-1.7c1-0.4,2.1-0.6,3.4-0.6c1.2,0,2.4,0.2,3.4,0.6
				c1,0.4,1.9,1,2.6,1.7c0.7,0.7,1.3,1.6,1.7,2.6c0.4,1,0.6,2.2,0.6,3.5c0,1.3-0.2,2.4-0.6,3.4c-0.4,1-0.9,1.9-1.7,2.6
				c-0.7,0.7-1.6,1.3-2.6,1.7c-1,0.4-2.1,0.6-3.4,0.6c-1.2,0-2.4-0.2-3.4-0.6c-1-0.4-1.9-0.9-2.6-1.7c-0.7-0.7-1.3-1.6-1.7-2.6
				c-0.4-1-0.6-2.2-0.6-3.4C220,112.4,220.2,111.2,220.6,110.2z M224.5,115.5c0.1,0.6,0.3,1.1,0.6,1.6c0.3,0.5,0.7,0.9,1.2,1.2
				c0.5,0.3,1.1,0.4,1.8,0.4s1.4-0.1,1.9-0.4c0.5-0.3,0.9-0.7,1.2-1.2c0.3-0.5,0.5-1,0.6-1.6c0.1-0.6,0.2-1.2,0.2-1.9
				c0-0.6-0.1-1.3-0.2-1.9c-0.1-0.6-0.3-1.2-0.6-1.6c-0.3-0.5-0.7-0.9-1.2-1.2c-0.5-0.3-1.1-0.4-1.9-0.4s-1.4,0.1-1.8,0.4
				c-0.5,0.3-0.9,0.7-1.2,1.2c-0.3,0.5-0.5,1-0.6,1.6c-0.1,0.6-0.2,1.2-0.2,1.9C224.4,114.3,224.4,114.9,224.5,115.5z"/>
		</g>
		<g>
			<path class="st0" d="M237.6,108.6v-2.9h2.6v-1.2c0-1.4,0.4-2.6,1.3-3.5c0.9-0.9,2.2-1.4,4-1.4c0.4,0,0.8,0,1.2,0
				c0.4,0,0.8,0.1,1.1,0.1v3.3c-0.5-0.1-1-0.1-1.6-0.1c-0.6,0-1,0.1-1.3,0.4c-0.3,0.3-0.4,0.7-0.4,1.4v1h3v2.9h-3v13h-4.4v-13H237.6
				z"/>
		</g>
		<g>
			<path class="st0" d="M266.8,105.7v2.9h-3.2v7.9c0,0.7,0.1,1.2,0.4,1.5c0.2,0.2,0.7,0.4,1.5,0.4c0.2,0,0.5,0,0.7,0
				c0.2,0,0.4-0.1,0.6-0.1v3.4c-0.4,0.1-0.8,0.1-1.2,0.1c-0.5,0-0.9,0-1.3,0c-0.7,0-1.3,0-1.9-0.1c-0.6-0.1-1.1-0.3-1.6-0.5
				c-0.5-0.3-0.8-0.6-1.1-1.1c-0.3-0.5-0.4-1.1-0.4-1.9v-9.4h-2.6v-2.9h2.6v-4.8h4.4v4.8H266.8z"/>
		</g>
		<g>
			<path class="st0" d="M273.2,99.6v8.3h0.1c0.6-0.9,1.3-1.6,2.1-2c0.9-0.4,1.7-0.6,2.5-0.6c1.2,0,2.1,0.2,2.9,0.5
				c0.7,0.3,1.3,0.8,1.8,1.3c0.4,0.6,0.7,1.2,0.9,2.1c0.2,0.8,0.3,1.7,0.3,2.7v9.8h-4.4v-9c0-1.3-0.2-2.3-0.6-2.9
				c-0.4-0.6-1.1-1-2.2-1c-1.2,0-2,0.4-2.6,1.1c-0.5,0.7-0.8,1.9-0.8,3.5v8.3h-4.4V99.6H273.2z"/>
		</g>
		<g>
			<path class="st0" d="M291.7,117.7c0.7,0.6,1.6,1,2.8,1c0.9,0,1.6-0.2,2.3-0.7c0.6-0.4,1-0.9,1.2-1.4h3.8
				c-0.6,1.9-1.6,3.3-2.8,4.1c-1.3,0.8-2.8,1.2-4.6,1.2c-1.2,0-2.4-0.2-3.4-0.6c-1-0.4-1.9-1-2.6-1.7c-0.7-0.7-1.2-1.6-1.6-2.6
				c-0.4-1-0.6-2.2-0.6-3.4c0-1.2,0.2-2.3,0.6-3.3c0.4-1,0.9-1.9,1.7-2.7c0.7-0.7,1.6-1.3,2.6-1.8c1-0.4,2.1-0.6,3.3-0.6
				c1.4,0,2.5,0.3,3.5,0.8c1,0.5,1.8,1.2,2.5,2.1c0.6,0.9,1.1,1.9,1.4,3c0.3,1.1,0.4,2.3,0.3,3.5h-11.5
				C290.7,116.1,291.1,117.1,291.7,117.7z M296.7,109.4c-0.5-0.6-1.3-0.9-2.4-0.9c-0.7,0-1.3,0.1-1.7,0.4c-0.5,0.2-0.8,0.5-1.1,0.9
				c-0.3,0.3-0.5,0.7-0.6,1.1c-0.1,0.4-0.2,0.7-0.2,1h7.1C297.6,110.8,297.2,110,296.7,109.4z"/>
		</g>
		<g>
			<path class="st0" d="M16,143.1c-0.3-0.5-0.6-0.9-1.1-1.2c-0.4-0.3-0.9-0.6-1.5-0.8c-0.5-0.2-1.1-0.3-1.7-0.3
				c-1.1,0-2,0.2-2.8,0.6c-0.8,0.4-1.4,1-1.8,1.7c-0.5,0.7-0.8,1.5-1,2.4c-0.2,0.9-0.3,1.8-0.3,2.8c0,0.9,0.1,1.8,0.3,2.7
				c0.2,0.9,0.6,1.7,1,2.4c0.5,0.7,1.1,1.3,1.8,1.7c0.8,0.4,1.7,0.6,2.8,0.6c1.5,0,2.6-0.4,3.5-1.4c0.8-0.9,1.3-2.1,1.5-3.6h4.7
				c-0.1,1.4-0.4,2.6-1,3.7c-0.5,1.1-1.2,2-2,2.8c-0.8,0.8-1.8,1.4-2.9,1.8c-1.1,0.4-2.4,0.6-3.7,0.6c-1.7,0-3.2-0.3-4.5-0.9
				c-1.3-0.6-2.5-1.4-3.4-2.4c-0.9-1-1.6-2.2-2.1-3.6c-0.5-1.4-0.7-2.9-0.7-4.5c0-1.6,0.2-3.2,0.7-4.6c0.5-1.4,1.2-2.6,2.1-3.7
				c0.9-1,2.1-1.9,3.4-2.5c1.3-0.6,2.9-0.9,4.5-0.9c1.2,0,2.4,0.2,3.4,0.5c1.1,0.3,2,0.9,2.9,1.5c0.8,0.7,1.6,1.5,2.1,2.5
				c0.6,1,0.9,2.1,1,3.4h-4.7C16.5,144,16.3,143.5,16,143.1z"/>
		</g>
		<g>
			<path class="st0" d="M28.6,137.2v8.3h0.1c0.6-0.9,1.3-1.6,2.1-2c0.9-0.4,1.7-0.6,2.5-0.6c1.2,0,2.1,0.2,2.9,0.5
				c0.7,0.3,1.3,0.8,1.8,1.3c0.4,0.6,0.7,1.2,0.9,2.1c0.2,0.8,0.3,1.7,0.3,2.7v9.8h-4.4v-9c0-1.3-0.2-2.3-0.6-2.9
				c-0.4-0.6-1.1-1-2.2-1c-1.2,0-2,0.4-2.6,1.1c-0.5,0.7-0.8,1.9-0.8,3.5v8.3h-4.4v-21.9H28.6z"/>
		</g>
		<g>
			<path class="st0" d="M42.6,140.8v-3.6h4.4v3.6H42.6z M46.9,143.3v15.9h-4.4v-15.9H46.9z"/>
		</g>
		<g>
			<path class="st0" d="M55,155.3c0.7,0.6,1.6,1,2.8,1c0.9,0,1.6-0.2,2.3-0.7c0.6-0.4,1-0.9,1.2-1.4h3.8c-0.6,1.9-1.6,3.3-2.8,4.1
				c-1.3,0.8-2.8,1.2-4.6,1.2c-1.2,0-2.4-0.2-3.4-0.6c-1-0.4-1.9-1-2.6-1.7c-0.7-0.7-1.2-1.6-1.6-2.6c-0.4-1-0.6-2.2-0.6-3.4
				c0-1.2,0.2-2.3,0.6-3.3c0.4-1,0.9-1.9,1.7-2.7c0.7-0.7,1.6-1.3,2.6-1.8c1-0.4,2.1-0.6,3.3-0.6c1.4,0,2.5,0.3,3.5,0.8
				c1,0.5,1.8,1.2,2.5,2.1c0.6,0.9,1.1,1.9,1.4,3c0.3,1.1,0.4,2.3,0.3,3.5H54C54,153.7,54.4,154.7,55,155.3z M60,147
				c-0.5-0.6-1.3-0.9-2.4-0.9c-0.7,0-1.3,0.1-1.7,0.4c-0.5,0.2-0.8,0.5-1.1,0.9c-0.3,0.3-0.5,0.7-0.6,1.1c-0.1,0.4-0.2,0.7-0.2,1
				h7.1C60.8,148.4,60.5,147.6,60,147z"/>
		</g>
		<g>
			<path class="st0" d="M66.3,146.2v-2.9H69V142c0-1.4,0.4-2.6,1.3-3.5c0.9-0.9,2.2-1.4,4-1.4c0.4,0,0.8,0,1.2,0
				c0.4,0,0.8,0.1,1.1,0.1v3.3c-0.5-0.1-1-0.1-1.6-0.1c-0.6,0-1,0.1-1.3,0.4c-0.3,0.3-0.4,0.7-0.4,1.4v1h3v2.9h-3v13H69v-13H66.3z"
				/>
		</g>
		<g>
			<path class="st0" d="M85.5,141.3v-4.1h18v4.1h-6.6v17.9h-4.8v-17.9H85.5z"/>
		</g>
		<g>
			<path class="st0" d="M106.8,155.3c0.7,0.6,1.6,1,2.8,1c0.9,0,1.6-0.2,2.3-0.7c0.6-0.4,1-0.9,1.2-1.4h3.8
				c-0.6,1.9-1.6,3.3-2.8,4.1c-1.3,0.8-2.8,1.2-4.6,1.2c-1.2,0-2.4-0.2-3.4-0.6c-1-0.4-1.9-1-2.6-1.7c-0.7-0.7-1.2-1.6-1.6-2.6
				c-0.4-1-0.6-2.2-0.6-3.4c0-1.2,0.2-2.3,0.6-3.3c0.4-1,0.9-1.9,1.7-2.7c0.7-0.7,1.6-1.3,2.6-1.8c1-0.4,2.1-0.6,3.3-0.6
				c1.4,0,2.5,0.3,3.5,0.8c1,0.5,1.8,1.2,2.5,2.1c0.6,0.9,1.1,1.9,1.4,3c0.3,1.1,0.4,2.3,0.3,3.5h-11.5
				C105.8,153.7,106.1,154.7,106.8,155.3z M111.7,147c-0.5-0.6-1.3-0.9-2.4-0.9c-0.7,0-1.3,0.1-1.7,0.4c-0.5,0.2-0.8,0.5-1.1,0.9
				c-0.3,0.3-0.5,0.7-0.6,1.1c-0.1,0.4-0.2,0.7-0.2,1h7.1C112.6,148.4,112.3,147.6,111.7,147z"/>
		</g>
		<g>
			<path class="st0" d="M127.4,146.1c-0.7,0-1.3,0.2-1.8,0.5c-0.5,0.3-0.9,0.7-1.2,1.2c-0.3,0.5-0.5,1.1-0.6,1.7
				c-0.1,0.6-0.2,1.2-0.2,1.8c0,0.6,0.1,1.2,0.2,1.8c0.1,0.6,0.3,1.1,0.6,1.6c0.3,0.5,0.7,0.9,1.1,1.2c0.5,0.3,1,0.5,1.7,0.5
				c1,0,1.8-0.3,2.4-0.9c0.6-0.6,0.9-1.4,1.1-2.4h4.2c-0.3,2.1-1.1,3.7-2.5,4.8c-1.4,1.1-3.1,1.7-5.2,1.7c-1.2,0-2.3-0.2-3.3-0.6
				c-1-0.4-1.8-1-2.5-1.7c-0.7-0.7-1.2-1.6-1.6-2.6c-0.4-1-0.6-2.1-0.6-3.3c0-1.2,0.2-2.4,0.5-3.4c0.4-1.1,0.9-2,1.6-2.7
				c0.7-0.8,1.5-1.4,2.6-1.8c1-0.4,2.2-0.6,3.4-0.6c0.9,0,1.8,0.1,2.7,0.4c0.9,0.2,1.6,0.6,2.3,1.1c0.7,0.5,1.2,1.1,1.7,1.9
				c0.4,0.7,0.7,1.6,0.7,2.7h-4.3C130.3,147,129.2,146.1,127.4,146.1z"/>
		</g>
		<g>
			<path class="st0" d="M141.8,137.2v8.3h0.1c0.6-0.9,1.3-1.6,2.1-2c0.9-0.4,1.7-0.6,2.5-0.6c1.2,0,2.1,0.2,2.9,0.5
				c0.7,0.3,1.3,0.8,1.8,1.3c0.4,0.6,0.7,1.2,0.9,2.1c0.2,0.8,0.3,1.7,0.3,2.7v9.8h-4.4v-9c0-1.3-0.2-2.3-0.6-2.9
				c-0.4-0.6-1.1-1-2.2-1c-1.2,0-2,0.4-2.6,1.1c-0.5,0.7-0.8,1.9-0.8,3.5v8.3h-4.4v-21.9H141.8z"/>
		</g>
		<g>
			<path class="st0" d="M159.8,143.3v2.2h0.1c0.6-0.9,1.3-1.6,2.2-2c0.9-0.4,1.8-0.6,2.7-0.6c1.2,0,2.1,0.2,2.9,0.5
				c0.7,0.3,1.3,0.8,1.8,1.3c0.4,0.6,0.7,1.2,0.9,2.1c0.2,0.8,0.3,1.7,0.3,2.7v9.8h-4.4v-9c0-1.3-0.2-2.3-0.6-2.9
				c-0.4-0.6-1.1-1-2.2-1c-1.2,0-2,0.4-2.6,1.1c-0.5,0.7-0.8,1.9-0.8,3.5v8.3h-4.4v-15.9H159.8z"/>
		</g>
		<g>
			<path class="st0" d="M173.9,147.8c0.4-1,0.9-1.9,1.7-2.6c0.7-0.7,1.6-1.3,2.6-1.7c1-0.4,2.1-0.6,3.4-0.6c1.2,0,2.4,0.2,3.4,0.6
				c1,0.4,1.9,1,2.6,1.7c0.7,0.7,1.3,1.6,1.7,2.6c0.4,1,0.6,2.2,0.6,3.5c0,1.3-0.2,2.4-0.6,3.4c-0.4,1-0.9,1.9-1.7,2.6
				c-0.7,0.7-1.6,1.3-2.6,1.7c-1,0.4-2.1,0.6-3.4,0.6c-1.2,0-2.4-0.2-3.4-0.6c-1-0.4-1.9-0.9-2.6-1.7c-0.7-0.7-1.3-1.6-1.7-2.6
				c-0.4-1-0.6-2.2-0.6-3.4C173.4,150,173.6,148.8,173.9,147.8z M177.9,153.1c0.1,0.6,0.3,1.1,0.6,1.6c0.3,0.5,0.7,0.9,1.2,1.2
				c0.5,0.3,1.1,0.4,1.8,0.4c0.7,0,1.4-0.1,1.9-0.4c0.5-0.3,0.9-0.7,1.2-1.2c0.3-0.5,0.5-1,0.6-1.6c0.1-0.6,0.2-1.2,0.2-1.9
				c0-0.6-0.1-1.3-0.2-1.9c-0.1-0.6-0.3-1.2-0.6-1.6c-0.3-0.5-0.7-0.9-1.2-1.2c-0.5-0.3-1.1-0.4-1.9-0.4c-0.7,0-1.4,0.1-1.8,0.4
				c-0.5,0.3-0.9,0.7-1.2,1.2c-0.3,0.5-0.5,1-0.6,1.6c-0.1,0.6-0.2,1.2-0.2,1.9C177.7,151.9,177.8,152.5,177.9,153.1z"/>
		</g>
		<g>
			<path class="st0" d="M197.1,137.2v21.9h-4.4v-21.9H197.1z"/>
		</g>
		<g>
			<path class="st0" d="M200.6,147.8c0.4-1,0.9-1.9,1.7-2.6c0.7-0.7,1.6-1.3,2.6-1.7c1-0.4,2.1-0.6,3.4-0.6c1.2,0,2.4,0.2,3.4,0.6
				c1,0.4,1.9,1,2.6,1.7c0.7,0.7,1.3,1.6,1.7,2.6c0.4,1,0.6,2.2,0.6,3.5c0,1.3-0.2,2.4-0.6,3.4c-0.4,1-0.9,1.9-1.7,2.6
				c-0.7,0.7-1.6,1.3-2.6,1.7c-1,0.4-2.1,0.6-3.4,0.6c-1.2,0-2.4-0.2-3.4-0.6c-1-0.4-1.9-0.9-2.6-1.7c-0.7-0.7-1.3-1.6-1.7-2.6
				c-0.4-1-0.6-2.2-0.6-3.4C200.1,150,200.3,148.8,200.6,147.8z M204.6,153.1c0.1,0.6,0.3,1.1,0.6,1.6c0.3,0.5,0.7,0.9,1.2,1.2
				c0.5,0.3,1.1,0.4,1.8,0.4c0.7,0,1.4-0.1,1.9-0.4c0.5-0.3,0.9-0.7,1.2-1.2c0.3-0.5,0.5-1,0.6-1.6c0.1-0.6,0.2-1.2,0.2-1.9
				c0-0.6-0.1-1.3-0.2-1.9c-0.1-0.6-0.3-1.2-0.6-1.6c-0.3-0.5-0.7-0.9-1.2-1.2c-0.5-0.3-1.1-0.4-1.9-0.4c-0.7,0-1.4,0.1-1.8,0.4
				c-0.5,0.3-0.9,0.7-1.2,1.2c-0.3,0.5-0.5,1-0.6,1.6c-0.1,0.6-0.2,1.2-0.2,1.9C204.4,151.9,204.5,152.5,204.6,153.1z"/>
		</g>
		<g>
			<path class="st0" d="M234.3,160.3c-0.2,0.8-0.5,1.6-1.1,2.3c-0.6,0.7-1.4,1.3-2.5,1.8c-1.1,0.5-2.5,0.7-4.4,0.7
				c-0.8,0-1.6-0.1-2.4-0.3c-0.8-0.2-1.5-0.5-2.2-0.9c-0.7-0.4-1.2-0.9-1.7-1.6c-0.4-0.6-0.7-1.4-0.8-2.3h4.3
				c0.2,0.8,0.6,1.4,1.2,1.7c0.6,0.3,1.3,0.5,2.1,0.5c1.2,0,2.1-0.4,2.7-1.1c0.6-0.7,0.8-1.7,0.8-2.8v-2.1h-0.1
				c-0.5,0.8-1.1,1.5-2,1.9c-0.9,0.4-1.8,0.6-2.7,0.6c-1.2,0-2.2-0.2-3.1-0.6c-0.9-0.4-1.6-1-2.1-1.7c-0.6-0.7-1-1.6-1.2-2.6
				c-0.3-1-0.4-2-0.4-3.1c0-1,0.1-2,0.4-3c0.3-1,0.7-1.8,1.3-2.5c0.6-0.7,1.3-1.3,2.1-1.7c0.8-0.4,1.8-0.6,2.9-0.6
				c1,0,2,0.2,2.7,0.6c0.8,0.4,1.4,1,2,2h0.1v-2.1h4.1v14.9C234.6,158.8,234.5,159.5,234.3,160.3z M228.4,155c0.5-0.2,0.9-0.6,1.2-1
				c0.3-0.4,0.5-0.9,0.7-1.4c0.2-0.5,0.2-1.1,0.2-1.6c0-0.7-0.1-1.3-0.2-1.9c-0.1-0.6-0.3-1.1-0.6-1.6c-0.3-0.5-0.7-0.8-1.1-1.1
				c-0.5-0.3-1.1-0.4-1.8-0.4c-0.6,0-1.1,0.1-1.6,0.4c-0.4,0.2-0.8,0.6-1.1,1c-0.3,0.4-0.5,0.9-0.6,1.4c-0.1,0.5-0.2,1.1-0.2,1.7
				c0,0.6,0.1,1.1,0.2,1.7c0.1,0.6,0.3,1.1,0.6,1.5c0.3,0.5,0.6,0.8,1.1,1.1c0.5,0.3,1,0.4,1.7,0.4
				C227.3,155.4,227.9,155.3,228.4,155z"/>
		</g>
		<g>
			<path class="st0" d="M244,163.9c-0.8,0.6-2,0.8-3.5,0.8c-0.5,0-0.9,0-1.3,0c-0.4,0-0.9-0.1-1.3-0.1V161c0.4,0,0.8,0.1,1.3,0.1
				c0.4,0,0.9,0.1,1.3,0c0.6-0.1,1-0.3,1.3-0.7c0.3-0.4,0.4-0.8,0.4-1.3c0-0.3-0.1-0.7-0.2-1l-5.6-14.9h4.6l3.6,10.9h0.1l3.5-10.9
				h4.5l-6.6,17.9C245.5,162.4,244.8,163.3,244,163.9z"/>
		</g>
		<g>
			<path class="st0" d="M262.8,143.7c0.5-1.4,1.2-2.6,2.1-3.7c0.9-1,2.1-1.9,3.4-2.5c1.3-0.6,2.9-0.9,4.5-0.9c1.7,0,3.2,0.3,4.5,0.9
				c1.3,0.6,2.5,1.4,3.4,2.5c0.9,1,1.6,2.3,2.1,3.7c0.5,1.4,0.7,2.9,0.7,4.6c0,1.6-0.2,3.1-0.7,4.5c-0.5,1.4-1.2,2.6-2.1,3.6
				c-0.9,1-2,1.8-3.4,2.4c-1.3,0.6-2.8,0.9-4.5,0.9c-1.7,0-3.2-0.3-4.5-0.9c-1.3-0.6-2.5-1.4-3.4-2.4c-0.9-1-1.6-2.2-2.1-3.6
				c-0.5-1.4-0.7-2.9-0.7-4.5C262.1,146.6,262.3,145.1,262.8,143.7z M267.2,151c0.2,0.9,0.6,1.7,1,2.4c0.5,0.7,1.1,1.3,1.8,1.7
				c0.8,0.4,1.7,0.6,2.8,0.6c1.1,0,2-0.2,2.8-0.6c0.8-0.4,1.4-1,1.8-1.7c0.5-0.7,0.8-1.5,1-2.4c0.2-0.9,0.3-1.8,0.3-2.7
				c0-1-0.1-1.9-0.3-2.8c-0.2-0.9-0.6-1.7-1-2.4c-0.5-0.7-1.1-1.3-1.8-1.7c-0.8-0.4-1.7-0.6-2.8-0.6c-1.1,0-2,0.2-2.8,0.6
				c-0.8,0.4-1.4,1-1.8,1.7c-0.5,0.7-0.8,1.5-1,2.4c-0.2,0.9-0.3,1.8-0.3,2.8C266.9,149.2,267,150.1,267.2,151z"/>
		</g>
		<g>
			<path class="st0" d="M284.8,146.2v-2.9h2.6V142c0-1.4,0.4-2.6,1.3-3.5c0.9-0.9,2.2-1.4,4-1.4c0.4,0,0.8,0,1.2,0
				c0.4,0,0.8,0.1,1.1,0.1v3.3c-0.5-0.1-1-0.1-1.6-0.1c-0.6,0-1,0.1-1.3,0.4c-0.3,0.3-0.4,0.7-0.4,1.4v1h3v2.9h-3v13h-4.4v-13H284.8
				z"/>
		</g>
		<g>
			<path class="st0" d="M296,146.2v-2.9h2.6V142c0-1.4,0.4-2.6,1.3-3.5c0.9-0.9,2.2-1.4,4-1.4c0.4,0,0.8,0,1.2,0
				c0.4,0,0.8,0.1,1.1,0.1v3.3c-0.5-0.1-1-0.1-1.6-0.1c-0.6,0-1,0.1-1.3,0.4c-0.3,0.3-0.4,0.7-0.4,1.4v1h3v2.9h-3v13h-4.4v-13H296z"
				/>
		</g>
		<g>
			<path class="st0" d="M308.1,140.8v-3.6h4.4v3.6H308.1z M312.4,143.3v15.9h-4.4v-15.9H312.4z"/>
		</g>
		<g>
			<path class="st0" d="M323.5,146.1c-0.7,0-1.3,0.2-1.8,0.5c-0.5,0.3-0.9,0.7-1.2,1.2c-0.3,0.5-0.5,1.1-0.6,1.7
				c-0.1,0.6-0.2,1.2-0.2,1.8c0,0.6,0.1,1.2,0.2,1.8c0.1,0.6,0.3,1.1,0.6,1.6c0.3,0.5,0.7,0.9,1.1,1.2c0.5,0.3,1,0.5,1.7,0.5
				c1,0,1.8-0.3,2.4-0.9c0.6-0.6,0.9-1.4,1.1-2.4h4.2c-0.3,2.1-1.1,3.7-2.5,4.8c-1.4,1.1-3.1,1.7-5.2,1.7c-1.2,0-2.3-0.2-3.3-0.6
				c-1-0.4-1.8-1-2.5-1.7c-0.7-0.7-1.2-1.6-1.6-2.6c-0.4-1-0.6-2.1-0.6-3.3c0-1.2,0.2-2.4,0.5-3.4c0.4-1.1,0.9-2,1.6-2.7
				c0.7-0.8,1.5-1.4,2.6-1.8c1-0.4,2.2-0.6,3.4-0.6c0.9,0,1.8,0.1,2.7,0.4c0.9,0.2,1.6,0.6,2.3,1.1c0.7,0.5,1.2,1.1,1.7,1.9
				c0.4,0.7,0.7,1.6,0.7,2.7h-4.3C326.4,147,325.3,146.1,323.5,146.1z"/>
		</g>
		<g>
			<path class="st0" d="M338.2,155.3c0.7,0.6,1.6,1,2.8,1c0.9,0,1.6-0.2,2.3-0.7c0.6-0.4,1-0.9,1.2-1.4h3.8
				c-0.6,1.9-1.6,3.3-2.8,4.1c-1.3,0.8-2.8,1.2-4.6,1.2c-1.2,0-2.4-0.2-3.4-0.6c-1-0.4-1.9-1-2.6-1.7c-0.7-0.7-1.2-1.6-1.6-2.6
				c-0.4-1-0.6-2.2-0.6-3.4c0-1.2,0.2-2.3,0.6-3.3c0.4-1,0.9-1.9,1.7-2.7c0.7-0.7,1.6-1.3,2.6-1.8c1-0.4,2.1-0.6,3.3-0.6
				c1.4,0,2.5,0.3,3.5,0.8c1,0.5,1.8,1.2,2.5,2.1c0.6,0.9,1.1,1.9,1.4,3c0.3,1.1,0.4,2.3,0.3,3.5h-11.5
				C337.2,153.7,337.5,154.7,338.2,155.3z M343.1,147c-0.5-0.6-1.3-0.9-2.4-0.9c-0.7,0-1.3,0.1-1.7,0.4c-0.5,0.2-0.8,0.5-1.1,0.9
				c-0.3,0.3-0.5,0.7-0.6,1.1c-0.1,0.4-0.2,0.7-0.2,1h7.1C344,148.4,343.6,147.6,343.1,147z"/>
		</g>
		<g>
			<path class="st0" d="M355.3,143.3v2.9h0.1c0.2-0.5,0.5-0.9,0.8-1.4c0.3-0.4,0.7-0.8,1.2-1.1c0.5-0.3,0.9-0.5,1.4-0.7
				c0.5-0.2,1-0.2,1.6-0.2c0.3,0,0.6,0.1,1,0.2v4.1c-0.2,0-0.5-0.1-0.7-0.1c-0.3,0-0.6,0-0.8,0c-0.8,0-1.5,0.1-2,0.4
				c-0.6,0.3-1,0.6-1.3,1.1c-0.3,0.5-0.6,1-0.7,1.6c-0.1,0.6-0.2,1.3-0.2,2v7.2h-4.4v-15.9H355.3z"/>
		</g>
	</g>
	<text transform="matrix(1 0 0 1 262.7597 4.4893)" class="st0 st1 st2">R</text>
	<g>
		<circle class="st0" cx="263.7" cy="3.4" r="2.4"/>
	</g>
</g>
</svg>
