<svg id="Layer_6" data-name="Layer 6" xmlns="http://www.w3.org/2000/svg" viewBox="0 0 277.92 155.3"><defs><style>.cls-1{fill:#404041;}.cls-2{fill:#6b6b6b;}.cls-3{fill:#ccc;}.cls-4{fill:#ced1d2;}.cls-5{fill:#fff;}.cls-6{fill:#d3d3d3;}.cls-7{fill:#888;}</style></defs><title>tirana-logo</title><path class="cls-1" d="M125.38,129.34c8.19,0,10.92,2.64,10.92,7.49a5.84,5.84,0,0,1-5.2,6.08v.18c4.76.26,7.49,3.44,7.49,7.49,0,5.2-3.08,8.81-12.16,8.81h-10v-30Zm-2.91,11.8h2.47c3.88,0,5.2-1.32,5.2-3.61s-1.32-3.52-5.2-3.52h-2.47Zm0,13.48h4c4.05,0,5.64-1.41,5.64-4.32s-1.67-4.32-5.9-4.32h-3.7Z" transform="translate(-11.04 -72.35)"/><path class="cls-1" d="M156.12,128.9l11.8,30.48h-6.61l-3-7.93h-9.6l-3,7.93h-5.37l11.54-29.51Zm-5.73,18h6.25l-3.17-8.46Z" transform="translate(-11.04 -72.35)"/><path class="cls-1" d="M187.92,135.33a14.19,14.19,0,0,0-6.69-1.85c-2.91,0-4.67,1.23-4.67,3.35a2.54,2.54,0,0,0,.79,1.85,12.17,12.17,0,0,0,3.44,2l1.94.88c5.55,2.64,7.4,5.37,7.4,9.34,0,6.17-4.67,9-11,9a20.32,20.32,0,0,1-8.63-1.94l.35-5.46a16.55,16.55,0,0,0,8.19,2.55c3,0,5.29-1.15,5.29-3.61s-2-3.7-4.76-4.93l-1.15-.44c-3.79-1.67-8.1-3.61-8.1-8.9,0-5.64,4.93-8.46,10.13-8.46a18.34,18.34,0,0,1,7.84,1.76Z" transform="translate(-11.04 -72.35)"/><polygon class="cls-1" points="190.18 56.99 190.18 69.94 201.81 69.94 201.81 56.99 207.8 56.99 207.8 87.03 201.81 87.03 201.81 74.7 190.18 74.7 190.18 87.03 184.19 87.03 184.19 56.99 190.18 56.99"/><polygon class="cls-1" points="220.22 56.99 220.22 70.65 230.18 56.99 236.08 56.99 226.21 70.56 237.05 87.03 230.44 87.03 222.34 74.79 220.22 74.79 220.22 87.03 214.23 87.03 214.23 56.99 220.22 56.99"/><rect class="cls-1" x="240.66" y="56.99" width="5.99" height="30.04"/><path class="cls-1" d="M277.07,128.9,289,159.38h-6.61l-3-7.93h-9.6l-3,7.93h-5.37l11.54-29.51Zm-5.73,18h6.25l-3.17-8.46Z" transform="translate(-11.04 -72.35)"/><polygon class="cls-1" points="127.2 98.57 126.58 103.33 117.95 103.33 117.95 128.7 111.96 128.7 111.96 103.33 102.97 103.33 103.59 98.57 127.2 98.57"/><rect class="cls-1" x="131.08" y="98.57" width="5.99" height="30.04"/><path class="cls-1" d="M162.38,170.92c9.16,0,13.13,2.91,13.13,9.07,0,3.61-1.5,6.17-4.76,8.19L177.88,201h-6.52l-5.81-11.28H160.7V201h-6V171h7.66Zm-1.76,14.27h3c3.61,0,5.55-1.32,5.55-4.76s-1.85-4.76-5.55-4.76h-3Z" transform="translate(-11.04 -72.35)"/><path class="cls-1" d="M194.62,170.57,206.42,201h-6.61l-3-7.93h-9.6l-3,7.93h-5.29l11.54-29.51Zm-5.73,18h6.25L192,180.08Z" transform="translate(-11.04 -72.35)"/><polygon class="cls-1" points="203.13 98.57 217.93 118.66 217.93 98.57 223.04 98.57 223.04 128.7 218.64 128.7 204.19 109.67 204.19 128.7 198.99 128.7 198.99 98.57 203.13 98.57"/><path class="cls-1" d="M258.92,170.92l-1.41,4.76h-11V184h10.13l-1.15,4.76h-9v7.58h13L258.39,201h-18V171h18.5Zm-10.83-3.08h-4.93v-4.76h4.93Zm8.1,0h-4.93v-4.76h4.93Z" transform="translate(-11.04 -72.35)"/><path class="cls-2" d="M55.17,227.65A40.15,40.15,0,0,1,78,215.32C90.41,213,96.4,205.89,96.4,193.47V122.38H55.17Z" transform="translate(-11.04 -72.35)"/><path class="cls-3" d="M12.19,193.47c0,12.42,6,19.56,18.41,21.85a40.46,40.46,0,0,1,22.81,12.33V122.38H12.19Z" transform="translate(-11.04 -72.35)"/><path class="cls-4" d="M22,124Z" transform="translate(-11.04 -72.35)"/><polygon class="cls-3" points="44.13 105.97 44.13 116.54 85.36 89.76 85.36 79.63 44.13 105.97"/><path class="cls-5" d="M90.41,174.18l-1.67-1.41a5.39,5.39,0,0,1-1.32-1.5,4.2,4.2,0,0,1-.53-1.59L87,169l-1.41,1h0v.18a5.22,5.22,0,0,0,1.76,3.26,4.84,4.84,0,0,0,.79.62,14.38,14.38,0,0,1,1.76,1.5,2.22,2.22,0,0,1,.53,1.94,2,2,0,0,1-3.35,1.15,16.08,16.08,0,0,0-1.41-1.15v-.88h0a4.77,4.77,0,0,0-.26-1.67v-.09h0A5.5,5.5,0,0,0,83,171.63l-11.28,7.31c.18,2.47-.79,3.08-1.85,3.7-.18.09-.35.26-.53.35h-.09l-.09.09h0a3.09,3.09,0,0,1-.7.44h-.09a1.42,1.42,0,0,0-.62-.35,1.37,1.37,0,0,0-1.41.35c.09,0,.26.09.35.09s.26.09.35.26a1.49,1.49,0,0,0-1.23,1.32c.09-.09.26-.09.35-.18s.26-.09.35-.09h0a1.08,1.08,0,0,0-.18.88c.09.35.09.62.44.88a2.18,2.18,0,0,1,.7-1.23,1.34,1.34,0,0,0,.88,1.06,3.75,3.75,0,0,1,.18-1,.75.75,0,0,1,.26-.44h0c.53-1,3.44-2.2,3.44-2.2a10.68,10.68,0,0,1,1.23-.44,6.07,6.07,0,0,0,.7-.26c.44-.18.53-2.11.53-3.17v-.53a.74.74,0,0,1,.18-.53h0a3.06,3.06,0,0,1,1.76-.88.74.74,0,0,1,.53.18c.18.18.18.53-.09,1.06a8.13,8.13,0,0,1-.44.7A3.29,3.29,0,0,0,76,180.7c-.26,1.5-.7,4.05.18,5.2l.7.79c1.67,1.85,2.38,2.64,2.38,4.23a6.07,6.07,0,0,1-1,3.08h0a4.6,4.6,0,0,1-1,1.32,1.4,1.4,0,0,0-.88-.7c0,.18.09.26.09.44v.44a1.17,1.17,0,0,0-1.67-.18,1.58,1.58,0,0,1,.79.7,1.29,1.29,0,0,0-1.32,1,2.49,2.49,0,0,1,1.59.18.89.89,0,0,0-.35.62.52.52,0,0,0,.09.62c.09.09.09.09.18,0a3,3,0,0,1,1.85-.88c.18,0,.26-.09.44-.18l.53-.53a14.38,14.38,0,0,0,1.5-1.76c.09-.18.18-.26.26-.44h0c.09-.09.09-.18.18-.26a8.9,8.9,0,0,1,1.94-3.17l.26-.26a.32.32,0,0,0,.09-.26,3.06,3.06,0,0,0-1-2.73c-.09,0-.09-.09-.18-.09a1.76,1.76,0,0,1-.18-2.29l.18-.18.18-.09h0a.31.31,0,0,1,.18-.09h0a13.71,13.71,0,0,0,1.5-1.59c.18-.35.44-.62.62-1h0c.26-.35.44-.7.62-1a.09.09,0,0,1,.09-.09h0a7,7,0,0,0,.7-2c.18.09.26.09.35.18h0a1.55,1.55,0,0,0,.44.35,3,3,0,0,0,2.91.79A3.57,3.57,0,0,0,92.17,177a7.36,7.36,0,0,0-1.76-2.82" transform="translate(-11.04 -72.35)"/><path class="cls-5" d="M92.43,148.81c-2,2.11-3.35,2.11-3.35,2.11s.09-.09.18-.09.26-.09.35-.18c1-.53,2.73-1.59,2.82-2.64a3.08,3.08,0,0,1-1.32,1.06c-.53.26-1,.53-1.5.79a5.63,5.63,0,0,1,1.41-1l.09-.09h0c.26-.18,1.06-.53,1.32-1.06,0-.09.09-.18.09-.26V147a6.9,6.9,0,0,0-.44-1.23H92c0,.09-.09.18-.09.26a.9.9,0,0,1-.44.53,3.09,3.09,0,0,1-.7.44c-.53.35-1.06.62-1.59,1a2.68,2.68,0,0,0-1.32,2.64,2.13,2.13,0,0,1-.35,1.5,5,5,0,0,0,.18,4.84l1.15-.79a3.13,3.13,0,0,1-.35-.79,4.1,4.1,0,0,1,.35-2.91c.09-.26.18-.26.44-.18a2.16,2.16,0,0,0,2.29-.35,2.49,2.49,0,0,0,.88-3.08" transform="translate(-11.04 -72.35)"/><path class="cls-5" d="M67.77,169a1.55,1.55,0,0,1,.53-.09c.09,0,.18-.09.26-.09h.09c11.8-7.58,14.09-9,14.53-9.25h0a8.61,8.61,0,0,0,1.5-5c0-.53,0-.7.18-.79a2.61,2.61,0,0,0,.35-.26.68.68,0,0,0-.09-.26,2.81,2.81,0,0,1,.26-2.47c.09-.09.09-.09.09-.18s-.18-.26-.26-.44c-.35-.35-.18-.88-.09-1.32a2.19,2.19,0,0,0,.09-.7.23.23,0,0,0-.26-.26c-.18,0-.35-.09-.35-.26a.67.67,0,0,1,.18-.35c0-.09.09-.09.09-.18l-.09-.09a1.68,1.68,0,0,1-.88-1.59c.09-.35-.88-1-1.32-1.23s-.53-.26-.53-.44a4.77,4.77,0,0,0-2.11-2.38c-.09.53-.35,1.94-.35,2a.19.19,0,0,1-.18.18h0a.31.31,0,0,1-.18-.09,5.69,5.69,0,0,0-1.5-1.94v2.11c0,.09-.09.09-.18.09h0a1.72,1.72,0,0,0-.62-.09,1.38,1.38,0,0,0-1.23.79.85.85,0,0,1-.79.53,1.42,1.42,0,0,1-.79-.26,1.25,1.25,0,0,0-.53-.18c-.18,0-.35.18-.53.26s-.44.35-.7.35A.53.53,0,0,1,72,145a5.87,5.87,0,0,0-1-.53.31.31,0,0,0-.18.09c-.09.26.09.62.35,1.06a4.11,4.11,0,0,1,.44.88,1.68,1.68,0,0,0,.26.7.81.81,0,0,0,.62.26A11.36,11.36,0,0,1,75,147.4h.44a1.28,1.28,0,0,1,.79.53,2.38,2.38,0,0,1,.53,1.5c0,.09,0,.09-.09.18l-.09.09c-.09.09-.18.09-.26.18a6.45,6.45,0,0,1-2.47-.09h0a2,2,0,0,1-1.15-.35c-.26-.26-.35-.26-.53-.26s-.18.18-.18.18v.44h0a.19.19,0,0,0,.18.18.32.32,0,0,0,.26.09h.09c.09,0,.18-.09.26-.09s.09-.09.18-.09c.26,0,.26.18.35,1v.26c.09.44.26.7.62.7a1.31,1.31,0,0,0,.79-.35.68.68,0,0,0,.09-.26.53.53,0,0,1,.09-.35,1.05,1.05,0,0,1,.79-.44.48.48,0,0,1,.53.35,2.48,2.48,0,0,0,1.41.79c.18.09.35.09.44.18s.44.35.35.62a.19.19,0,0,1-.18.18h0a.39.39,0,0,0-.26.09h0c-4.49,1.76-7.22,4.05-7.66,6.34a.32.32,0,0,1-.09.26h-.09a6.33,6.33,0,0,1-4.4-2.47A23.61,23.61,0,0,1,64,153.92h0l-.26-.26-.09-.09c-.09-.09-.09-.09,0-.18v-.26a1.31,1.31,0,0,0-.35-.79,1.27,1.27,0,0,0-1.15-.26,1.84,1.84,0,0,1,.35.53,1.07,1.07,0,0,0-1.41.09,1.12,1.12,0,0,1,.79.62c-.53-.18-1.15.53-1.06,1.23a.09.09,0,0,0,.09-.09.8.8,0,0,1,.62-.26h.18a1.08,1.08,0,0,0,.18,1.06l.44-.44h0a21.72,21.72,0,0,1,2.55,4.93c.18.7.35,1.23.44,1.5.35.88,2.91,1.32,3.61,1.32.09,0,.44,0,.53.26V163a2.58,2.58,0,0,1-.35,1.32h0a4.41,4.41,0,0,1-2.73,2.29h0a10.34,10.34,0,0,1-5.29.53H60.9c-.09,0-.18,0-.18-.09s-.09-.18-.18-.18a1.08,1.08,0,0,0-.88-.18,1.17,1.17,0,0,0-1,.7,1.94,1.94,0,0,1,.7.09,1.32,1.32,0,0,0-.88,1.32,1.48,1.48,0,0,1,1.06-.26c-.53.35-.35,1.32.35,1.76v-.09a1.66,1.66,0,0,1,.18-.7c0-.09.09-.09.09-.18a1.34,1.34,0,0,0,1.06.62c0-.26-.09-.44-.09-.7a62.47,62.47,0,0,0,6.61-.26m9-23h-.18c-.26-.09-.62-.26-.62-.44s.18-.18.53-.35h.09c.18,0,.53.09.88.62a1.66,1.66,0,0,1-.7.18" transform="translate(-11.04 -72.35)"/><path class="cls-5" d="M72.79,149.08H73s1.94-.18,2.73.53a2,2,0,0,0-.26-.79c-.35-.79-2.11-.53-2.11-.53a4.21,4.21,0,0,1-4.23-3.08s0,3.88,3.7,3.88" transform="translate(-11.04 -72.35)"/><polygon class="cls-5" points="78.4 90.64 76.64 90.29 77.08 88.62 75.58 89.59 74.61 88.09 74.35 89.85 72.67 89.32 73.64 90.82 72.06 91.79 73.82 92.14 73.38 93.81 74.88 92.84 75.84 94.34 76.11 92.58 77.78 93.11 76.81 91.61 78.4 90.64"/><polygon class="cls-5" points="57.43 104.12 55.76 103.86 56.2 102.18 54.7 103.15 53.73 101.65 53.47 103.33 51.71 102.89 52.68 104.39 51.18 105.35 52.94 105.62 52.41 107.38 54 106.41 54.97 107.91 55.23 106.15 56.91 106.67 55.94 105.09 57.43 104.12"/><rect class="cls-5" x="16.74" y="67.04" width="0.79" height="6.61"/><rect class="cls-5" x="20.26" y="67.04" width="0.79" height="6.61"/><rect class="cls-5" x="23.87" y="67.04" width="0.79" height="6.61"/><rect class="cls-5" x="27.4" y="67.04" width="0.79" height="6.61"/><rect class="cls-5" x="15.86" y="65.71" width="13.13" height="0.88"/><path class="cls-5" d="M33.33,147.84v-1.5H27.6l3.26,2.55a4,4,0,0,1,2.47-1.06" transform="translate(-11.04 -72.35)"/><path class="cls-5" d="M27.25,155.77l3.08-2.47a3.26,3.26,0,0,1-.53-1.85v-.09H27.25Z" transform="translate(-11.04 -72.35)"/><path class="cls-5" d="M33.24,155.07a3.58,3.58,0,0,1-2.73-1.5l-3.08,2.38h5.81Z" transform="translate(-11.04 -72.35)"/><path class="cls-5" d="M27.25,151H29.8a3.51,3.51,0,0,1,.79-1.85l-3.35-2.64Z" transform="translate(-11.04 -72.35)"/><path class="cls-5" d="M39.76,151.37H37v.09a3.77,3.77,0,0,1-.53,1.94l3.26,2.55Z" transform="translate(-11.04 -72.35)"/><path class="cls-5" d="M36.32,153.66a3.78,3.78,0,0,1-2.73,1.41v1h5.64Z" transform="translate(-11.04 -72.35)"/><path class="cls-5" d="M39.76,146.34H33.68v1.59a3.81,3.81,0,0,1,2.55,1.32Z" transform="translate(-11.04 -72.35)"/><path class="cls-5" d="M39.76,146.78l-3.26,2.73A4.34,4.34,0,0,1,37,151h2.73Z" transform="translate(-11.04 -72.35)"/><path class="cls-5" d="M36.67,151.45a3.31,3.31,0,0,0-3.26-3.26,3.26,3.26,0,1,0,0,6.52,3.15,3.15,0,0,0,3.26-3.26m-3.35,0,1.15-1.15.26.26-1,1,1.41,1.23L35,153l-1.67-1.41v-.18Z" transform="translate(-11.04 -72.35)"/><rect class="cls-5" x="14.18" y="91.35" width="16.56" height="1.67"/><rect class="cls-5" x="15.33" y="84.12" width="14.36" height="0.44"/><polygon class="cls-5" points="29.42 126.58 29.42 126.14 24.31 126.14 24.31 128.52 20.61 128.52 20.61 126.14 15.5 126.14 15.5 126.58 14.36 126.58 14.36 129.05 30.57 129.05 30.57 126.58 29.42 126.58"/><polygon class="cls-5" points="22.46 56.91 17.53 65.36 27.4 65.36 22.46 56.91"/><path class="cls-5" d="M33.41,159.21a1.17,1.17,0,0,0-1.15,1.15v2.91h2.38v-2.91a1.19,1.19,0,0,0-1.23-1.15" transform="translate(-11.04 -72.35)"/><path class="cls-5" d="M26.63,157.27v6H32v-2.91a1.5,1.5,0,0,1,3,0v2.91h5.46v-6Z" transform="translate(-11.04 -72.35)"/><path class="cls-5" d="M33.5,194.79A1.47,1.47,0,0,0,32,196.2h0v4.32h3V196.2a1.53,1.53,0,0,0-1.5-1.41" transform="translate(-11.04 -72.35)"/><path class="cls-5" d="M26.54,165.64v32.5h5.11v-1.85h0a1.79,1.79,0,0,1,1.85-1.76,1.84,1.84,0,0,1,1.85,1.76h0v1.85h5.11v-32.5ZM35.79,196a2.29,2.29,0,0,0-4.58,0h-.35a2.64,2.64,0,0,1,5.29,0Z" transform="translate(-11.04 -72.35)"/><path class="cls-6" d="M58.43,147.31s-1.15-1.41,0-2.38c.79-.53,2.2.35,2.11,1.15.09.79.35,1.76-.44,2.38-.35.18-1-.26-.53-.7.26-.18.44.18.7.09.09-.18.26-1.15-.26-1.5s-1.59-.35-1.59,1" transform="translate(-11.04 -72.35)"/><path class="cls-6" d="M63.89,147.31s1.06-1.41,0-2.38a1.62,1.62,0,0,0-2.2,1.15c-.09.79-.35,1.76.44,2.38.35.18,1-.26.53-.7-.26-.18-.44.18-.7.09-.09-.18-.26-1.15.26-1.5a1,1,0,0,1,1.67,1" transform="translate(-11.04 -72.35)"/><path class="cls-6" d="M61.16,149.16a2,2,0,0,1-.18-1.32,5,5,0,0,0-.09-2.11c-.18-.26-.79-.79-.62-1.5a20.67,20.67,0,0,1,.88-1.94" transform="translate(-11.04 -72.35)"/><path class="cls-6" d="M61.16,149.16a2,2,0,0,0,.18-1.32,5,5,0,0,1,.09-2.11c.18-.26.79-.79.62-1.5a20.67,20.67,0,0,0-.88-1.94" transform="translate(-11.04 -72.35)"/><rect class="cls-6" x="48.89" y="74.61" width="2.38" height="0.35"/><path class="cls-7" d="M22.84,103.62c.26,1.32.44,2,.7,3.44,1.76-.44,3.61-.79,5.37-1.15-.26-1.32-.35-2.11-.62-3.44-1.85.35-3.61.79-5.46,1.15" transform="translate(-11.04 -72.35)"/><path class="cls-7" d="M86.27,103.8c-.26,1.32-.44,2-.79,3.44,1.76.44,3.52.88,5.37,1.32.35-1.32.53-2,.88-3.35a55.09,55.09,0,0,0-5.46-1.41" transform="translate(-11.04 -72.35)"/><path class="cls-7" d="M16.85,105.12c.35,1.32.53,2,.88,3.35,1.76-.44,3.52-.88,5.37-1.32-.26-1.32-.44-2.11-.79-3.44-1.76.44-3.61,1-5.46,1.41" transform="translate(-11.04 -72.35)"/><path class="cls-7" d="M14.92,102.65c.7.79,1.06,1.23,1.76,2A161.83,161.83,0,0,1,49,99.39c.09-.09.18-.18.26-.18a7.8,7.8,0,0,1,4.84-1.59A8,8,0,0,1,59,99.22c.09.09.18.18.26.18a159.75,159.75,0,0,1,32.86,5.29c.7-.79,1.06-1.23,1.76-2a144.75,144.75,0,0,0-78.93,0" transform="translate(-11.04 -72.35)"/><path class="cls-7" d="M30.95,79c-.26-1.94-.44-2.91-.7-4.84a.53.53,0,0,0-.35.09c-.53.09-1.06.18-1.5.26s-1.06.18-1.76.26A22.13,22.13,0,0,1,27,77.19a.28.28,0,0,1-.26.26c-1.67.26-2.47.44-4.14.79-.18,0-.26,0-.35-.18-.18-1-.26-1.41-.44-2.38-1.06.18-1.59.35-2.64.53a23,23,0,0,0,.53,2.38.28.28,0,0,1-.26.26c-1.5.53-2.29.7-4,1.15-.18,0-.35,0-.35-.18a23,23,0,0,0-.53-2.38c-.7.18-1.23.35-1.76.44s-.88.26-1.41.44c-.09,0-.26.09-.35.09.44,1.85.7,2.82,1.23,4.67,6.17-1.59,12.33-3,18.67-4.05" transform="translate(-11.04 -72.35)"/><path class="cls-7" d="M30.95,94.11c.09.7.18,1,.26,1.67q.92-.13,1.59-.26L31.92,90A158.52,158.52,0,0,0,16.06,93.4h-.18c.35,1.32.53,2,.88,3.35l.09.44c.18.62.26,1,.44,1.59,1.41-.35,2.11-.53,3.44-.88a9.36,9.36,0,0,1-.35-1.67c0-.18-.09-.26-.09-.44a.32.32,0,0,0,.26-.09h0c1.15-.26,1.85-.44,3.08-.7h0a.32.32,0,0,0,.26-.09c0,.18.09.26.09.44.18.62.18,1,.35,1.67,1.41-.26,2.11-.44,3.52-.7-.09-.62-.18-1-.26-1.67,0-.18-.09-.26-.09-.44,1.32-.26,2.11-.35,3.35-.62h.26a.74.74,0,0,0-.18.53" transform="translate(-11.04 -72.35)"/><path class="cls-7" d="M18.88,92.08h0l-.79-3.35c-1.23.35-1.94.53-3.26.88.35,1.32.53,2,.88,3.35l3.17-.88h0" transform="translate(-11.04 -72.35)"/><path class="cls-7" d="M28.31,90.06h0c1.32-.18,2.11-.35,3.52-.53L31.21,86c-1.32.18-2.11.35-3.44.62l.53,3.44Z" transform="translate(-11.04 -72.35)"/><path class="cls-7" d="M92.43,97.46c-.18.7-.26,1.15-.44,1.85,0,.09-.18.18-.35.18-1.59-.44-2.38-.62-4-1.06-.18,0-.26-.18-.18-.26.18-.7.26-1.15.44-1.85-1-.26-1.5-.35-2.55-.62A13.68,13.68,0,0,0,85,97.54c0,.09-.18.18-.26.18-1.59-.35-2.38-.53-4-.79-.18,0-.26-.18-.18-.26A11.48,11.48,0,0,1,81,94.81l-2.55-.44h0c-.09.79-.18,1.15-.26,1.85,0,.09-.18.18-.26.18-1.59-.26-2.38-.44-4.05-.62a.28.28,0,0,1-.26-.26c.09-.79.18-1.15.26-1.85-1.06-.18-1.5-.18-2.55-.35-.09.79-.09,1.15-.18,1.94,0,.09-.18.18-.26.18L66.8,95a.23.23,0,0,1-.26-.26c.09-.79.09-1.15.18-1.94a6.67,6.67,0,0,0-1.32-.09c-.53,0-.79-.09-1.23-.09h0a14.27,14.27,0,0,0-.09,1.94c0,.09-.09.26-.26.18-1.59-.09-2.47-.18-4.05-.18a.23.23,0,0,1-.26-.26,13,13,0,0,1,.09-1.85v-.09c-1.06,0-1.5-.09-2.55-.09h0V94.2a.28.28,0,0,1-.26.26H52.71a.23.23,0,0,1-.26-.26V92.26a23.92,23.92,0,0,0-2.55.09A14.27,14.27,0,0,0,50,94.28a.28.28,0,0,1-.26.26c-1.59.09-2.47.09-4.05.18-.18,0-.26-.09-.26-.18a14.27,14.27,0,0,1-.09-1.94h0c-.53,0-.79.09-1.23.09s-.79.09-1.32.09c.09.79.09,1.15.18,1.94a.28.28,0,0,1-.26.26l-4.05.44c-.18,0-.26-.09-.26-.18-.09-.79-.09-1.15-.18-1.94a25.42,25.42,0,0,0-2.55.35c.09.79.18,1.15.26,1.85a.28.28,0,0,1-.26.26c-1.59.26-2.38.35-4.05.62-.18,0-.26-.09-.26-.18-.09-.79-.18-1.15-.26-1.85l-2.55.44a11.49,11.49,0,0,0,.35,1.85c0,.09-.09.26-.18.26-1.59.35-2.38.44-4,.79-.18,0-.26,0-.26-.18a13.68,13.68,0,0,1-.35-1.85l-2.55.62c.18.7.26,1.15.44,1.85,0,.09-.09.26-.18.26-1.59.35-2.38.62-4,1.06-.18,0-.26,0-.35-.18-.18-.7-.26-1.15-.44-1.85-1.06.26-1.59.44-2.64.79.44,1.59.7,2.47,1.15,4.05a144.35,144.35,0,0,1,79.28,0c.44-1.59.7-2.47,1.15-4.05-1.94-.35-2.47-.53-3.52-.79" transform="translate(-11.04 -72.35)"/><path class="cls-7" d="M67.95,104.15c1.85.18,3.61.44,5.37.7.18-1.41.26-2.2.44-3.44-1.85-.26-3.7-.53-5.55-.7-.09,1.23-.18,2-.26,3.44" transform="translate(-11.04 -72.35)"/><path class="cls-7" d="M70.76,108.47l5.29.79c.18-1.32.35-2.11.53-3.44-1.76-.35-3.61-.62-5.37-.79a20.3,20.3,0,0,0-.44,3.44" transform="translate(-11.04 -72.35)"/><path class="cls-7" d="M73.85,104.94c1.76.26,3.61.62,5.37.88.26-1.41.35-2.11.62-3.44-1.85-.35-3.7-.62-5.55-1-.18,1.32-.26,2.11-.44,3.52" transform="translate(-11.04 -72.35)"/><path class="cls-7" d="M61.34,111.37l5.37.53c.09-1.32.18-2.2.35-3.44l-5.55-.53c-.09,1.06-.09,2.11-.18,3.44" transform="translate(-11.04 -72.35)"/><path class="cls-7" d="M58.61,99.57a7.49,7.49,0,0,0-9,0,2.34,2.34,0,0,1-.53.44,7.11,7.11,0,0,0-1.94,3.44c0,.18-.09.26-.09.44A5.42,5.42,0,0,0,47,105c.09,2.47.18,3.79.35,6.25.79,0,1.23-.09,2-.09-.09-2.55-.18-3.79-.26-6.34a5.42,5.42,0,0,1,.09-1.15,1.25,1.25,0,0,1,.18-.53,4.91,4.91,0,0,1,4.76-3.26,5,5,0,0,1,4.76,3.26c.09.18.09.35.18.53a5,5,0,0,1,.09,1.15c-.09,2.55-.09,3.79-.18,6.34.79,0,1.23.09,2,.09.09-2.47.18-3.79.26-6.25a5.42,5.42,0,0,0-.09-1.15.79.79,0,0,0-.09-.44A6.17,6.17,0,0,0,59.14,100a2.34,2.34,0,0,1-.53-.44" transform="translate(-11.04 -72.35)"/><path class="cls-7" d="M80.28,102.48c-.26,1.32-.35,2-.62,3.44,1.76.35,3.61.7,5.37,1.15.26-1.32.44-2.11.7-3.44-1.76-.35-3.61-.79-5.46-1.15" transform="translate(-11.04 -72.35)"/><path class="cls-7" d="M61.52,107.5l3,.26c.09-1.32.18-2.11.26-3.44l-3.17-.26a5.42,5.42,0,0,1,.09,1.15c-.09.79-.09,1.59-.18,2.29" transform="translate(-11.04 -72.35)"/><path class="cls-7" d="M65,107.76c1.76.18,3.52.35,5.29.62.18-1.41.26-2.2.35-3.44-1.76-.26-3.61-.44-5.37-.62-.09,1.32-.09,2.11-.26,3.44" transform="translate(-11.04 -72.35)"/><path class="cls-7" d="M78.43,110.14c-1.76-.35-3.44-.62-5.2-.88-.18,1.32-.26,2.11-.44,3.44,1.67.26,3.44.53,5.11.88.18-1.32.35-2.11.53-3.44" transform="translate(-11.04 -72.35)"/><path class="cls-7" d="M89,116.66a125.75,125.75,0,0,0-13.65-2.91h0a122.53,122.53,0,0,0-21.32-2,115.22,115.22,0,0,0-21.32,2s-6.87,1.32-10,2.2l-3.17.79-1,.26c.35,1.32.53,2,.88,3.35a127.29,127.29,0,0,1,69.41,0c.35-1.32.53-2,.88-3.35a1.33,1.33,0,0,0-.7-.35" transform="translate(-11.04 -72.35)"/><path class="cls-7" d="M67.15,112c1.67.18,3.44.44,5.11.7.18-1.41.26-2.2.44-3.44-1.76-.26-3.52-.53-5.29-.7a24.39,24.39,0,0,1-.26,3.44" transform="translate(-11.04 -72.35)"/><path class="cls-7" d="M82.83,107.06c-.26,1.32-.44,2-.7,3.44,2.55.53,5.11,1.15,7.75,1.85.35-1.32.53-2,.88-3.35-2.64-.79-5.29-1.41-7.93-1.94" transform="translate(-11.04 -72.35)"/><path class="cls-7" d="M82.39,107,77,105.91c-.18,1.32-.35,2-.53,3.44a49.33,49.33,0,0,1,5.2,1.06c.26-1.41.44-2.2.7-3.44" transform="translate(-11.04 -72.35)"/><path class="cls-7" d="M89.79,112.78l-5.2-1.32c-.26,1.32-.44,2-.79,3.44,1.67.35,3.35.79,5,1.23.44-1.32.62-2,1-3.35" transform="translate(-11.04 -72.35)"/><path class="cls-7" d="M84.15,111.37c-1.76-.35-3.44-.79-5.2-1.15-.26,1.32-.35,2-.62,3.44,1.67.35,3.35.7,5.11,1.06a20.5,20.5,0,0,1,.7-3.35" transform="translate(-11.04 -72.35)"/><path class="cls-7" d="M28.83,102.39c.26,1.32.35,2.11.62,3.44,1.76-.35,3.61-.62,5.37-1-.18-1.41-.26-2.2-.44-3.44-1.85.35-3.7.62-5.55,1" transform="translate(-11.04 -72.35)"/><path class="cls-7" d="M17.91,108.91l.88,3.35c.7-.18,1.41-.35,2-.53-.35-1.32-.53-2.11-.79-3.35l-2.11.53" transform="translate(-11.04 -72.35)"/><path class="cls-7" d="M24.78,114.9c-.26-1.32-.44-2.11-.79-3.44-1.76.44-3.44.79-5.2,1.32.35,1.32.53,2,.88,3.35,1.76-.44,3.44-.88,5.11-1.23" transform="translate(-11.04 -72.35)"/><path class="cls-7" d="M35.88,112.69c-.18-1.41-.26-2.11-.44-3.44-1.76.26-3.52.53-5.2.88.26,1.32.35,2,.62,3.44,1.59-.26,3.35-.62,5-.88" transform="translate(-11.04 -72.35)"/><path class="cls-7" d="M30.33,113.66c-.26-1.32-.35-2.11-.62-3.44-1.76.35-3.44.7-5.2,1.15.26,1.32.44,2,.7,3.44,1.76-.44,3.44-.79,5.11-1.15" transform="translate(-11.04 -72.35)"/><path class="cls-7" d="M41.43,112c-.09-1.32-.18-2.2-.35-3.44-1.76.18-3.52.44-5.29.7.18,1.32.26,2.11.44,3.44,1.76-.26,3.52-.53,5.2-.7" transform="translate(-11.04 -72.35)"/><path class="cls-7" d="M32.62,109.26l5.29-.79c-.18-1.41-.26-2.2-.44-3.44l-5.37.79c.26,1.23.35,2,.53,3.44" transform="translate(-11.04 -72.35)"/><path class="cls-7" d="M34.82,101.42c.18,1.32.26,2.11.44,3.44,1.76-.26,3.61-.53,5.37-.7-.09-1.32-.18-2.2-.35-3.44-1.76.18-3.61.35-5.46.7" transform="translate(-11.04 -72.35)"/><path class="cls-7" d="M32.18,109.35c-.18-1.32-.35-2.11-.53-3.44L26.28,107c.26,1.32.44,2,.7,3.44a49.33,49.33,0,0,1,5.2-1.06" transform="translate(-11.04 -72.35)"/><path class="cls-7" d="M43.9,104.24c.09,1.32.18,2.11.26,3.44l2.47-.26c0-.7-.09-1.41-.09-2.38v-1.15c-.88.18-1.76.26-2.64.35" transform="translate(-11.04 -72.35)"/><path class="cls-7" d="M41.87,111.9l4.93-.53c-.09-1.32-.09-2.38-.18-3.52l-5,.53c.09,1.41.18,2.2.26,3.52" transform="translate(-11.04 -72.35)"/><path class="cls-7" d="M41.17,104.06l5.46-.53v-.09a6.85,6.85,0,0,1,1.85-3.52c-2.55.18-5.11.35-7.58.62.09,1.32.18,2.11.26,3.52" transform="translate(-11.04 -72.35)"/><path class="cls-7" d="M38.35,108.38c1.76-.26,3.52-.44,5.29-.62-.09-1.32-.18-2.11-.26-3.44-1.85.18-3.61.44-5.37.62.18,1.23.26,2,.35,3.44" transform="translate(-11.04 -72.35)"/><path class="cls-7" d="M20.47,108.29c.35,1.32.53,2,.79,3.35,1.76-.44,3.44-.88,5.2-1.23-.26-1.32-.44-2.11-.7-3.44l-5.29,1.32" transform="translate(-11.04 -72.35)"/><path class="cls-7" d="M61.52,103.45h0c2,.18,4,.44,5.9.62.09-1.32.18-2.2.35-3.44-2.64-.26-5.37-.53-8.1-.7a6.85,6.85,0,0,1,1.85,3.52" transform="translate(-11.04 -72.35)"/><path class="cls-7" d="M84.42,87.33l-.62,3.44h0c1.06.18,1.59.35,2.64.53l.7-3.44c-1.15-.18-1.76-.35-2.73-.53" transform="translate(-11.04 -72.35)"/><path class="cls-7" d="M86.8,83.8c-.26,1.32-.44,2.11-.7,3.44l1.06.26.18-.7a1.27,1.27,0,0,1,.62-.88,1.78,1.78,0,0,1,1.5-.18,1.72,1.72,0,0,1,1.41,1.94l-.18.7c1.23.35,1.94.53,3.26.88.35-1.32.53-2,.88-3.35a72,72,0,0,0-8-2.11" transform="translate(-11.04 -72.35)"/><path class="cls-7" d="M81,86.18l.09-.79a1.27,1.27,0,0,1,.62-.88,1.88,1.88,0,0,1,1.41-.26,1.71,1.71,0,0,1,1.5,1.85l-.18.79a9.14,9.14,0,0,1,1.06.26c.26-1.32.44-2.11.7-3.44-2.64-.62-5.37-1.06-8.1-1.5H78l-.62,3.44c1.5.18,2.29.26,3.61.53" transform="translate(-11.04 -72.35)"/><path class="cls-7" d="M80.37,90.06h0l.53-3.52c-1.32-.26-2.11-.35-3.52-.62l-.62,3.52a28.18,28.18,0,0,0,3.61.62h0" transform="translate(-11.04 -72.35)"/><path class="cls-7" d="M77.72,79.57c.18.88.26,1.23.44,2.11A159,159,0,0,1,95,85.3a21.37,21.37,0,0,1,1.23-1.76c-6.17-1.59-12.24-2.91-18.5-4" transform="translate(-11.04 -72.35)"/><path class="cls-7" d="M90.5,88.73l-.79,3.35h0c1.23.35,1.94.53,3.26.88.35-1.32.53-2,.88-3.35l-3.35-.88" transform="translate(-11.04 -72.35)"/><path class="cls-7" d="M19.23,85.56a2.17,2.17,0,0,1,1.5.18,1.27,1.27,0,0,1,.62.88l.18.7c.44-.09.7-.18,1.06-.26-.26-1.32-.44-2.11-.7-3.44-2.64.62-5.37,1.23-8,1.94.35,1.32.53,2,.88,3.35,1.32-.35,2-.53,3.26-.88l-.18-.7c-.18-.62.44-1.5,1.41-1.76" transform="translate(-11.04 -72.35)"/><path class="cls-7" d="M44,78.25c.62.79,1,1.15,1.59,1.94a144,144,0,0,1,17.44,0c.62-.79,1-1.15,1.67-1.94a135.33,135.33,0,0,0-20.7,0" transform="translate(-11.04 -72.35)"/><path class="cls-7" d="M97.28,78.34h0a13.74,13.74,0,0,1-1.41-.44c-.53-.18-1.06-.26-1.76-.44a23,23,0,0,0-.53,2.38c0,.09-.18.18-.35.18-1.59-.44-2.47-.62-4.05-1a.28.28,0,0,1-.26-.26,23,23,0,0,1,.53-2.38c-1.06-.26-1.59-.35-2.64-.53-.18,1-.26,1.41-.44,2.38,0,.09-.18.18-.35.18-1.67-.35-2.47-.53-4.14-.79a.28.28,0,0,1-.26-.26A22.13,22.13,0,0,0,82,75c-.53-.09-.88-.18-1.32-.26s-.88-.18-1.41-.26c-.26,0-.53-.09-.88-.09-.26,1.94-.44,2.91-.7,4.84a190.32,190.32,0,0,1,18.67,4.05c.44-1.85.7-2.82,1.23-4.67q-.13-.26-.26-.26" transform="translate(-11.04 -72.35)"/><path class="cls-7" d="M92.87,93.4A124.87,124.87,0,0,0,76.75,90l-.88,5.55q.66.13,1.59.26c.09-.7.18-1,.26-1.67h0a.79.79,0,0,1,.09-.44c1.41.26,2.2.35,3.61.62,0,.18-.09.26-.09.44h0c-.09.62-.18,1-.26,1.67,1.41.26,2.11.44,3.52.7a14.31,14.31,0,0,1,.35-1.67h0c0-.18.09-.26.09-.44,1.41.35,2.11.53,3.61.88,0,.18-.09.26-.09.44h0A9.36,9.36,0,0,0,88.21,98c1.41.35,2.11.53,3.44.88.18-.62.26-1,.44-1.59h0a.79.79,0,0,0,.09-.44h0a26.48,26.48,0,0,1,.7-3.44h0" transform="translate(-11.04 -72.35)"/><path class="cls-7" d="M43.63,72.88h-.18c.09,1.94.18,2.91.26,4.84a142.32,142.32,0,0,1,21.23,0c.09-1.94.18-2.91.26-4.84h-.44a1.31,1.31,0,0,1-.62-.09,1.72,1.72,0,0,1-.62-.09,24.76,24.76,0,0,1-.09,2.55c0,.09-.09.26-.26.18-1.15-.09-1.67-.09-2.82-.18a.23.23,0,0,1-.26-.26c0-1,.09-1.5.09-2.47-.7,0-1.06-.09-1.67-.09a23.08,23.08,0,0,1-.09,2.47.28.28,0,0,1-.26.26c-1.15,0-1.67-.09-2.82-.09a.23.23,0,0,1-.26-.26V72.35H53.41v2.47a.28.28,0,0,1-.26.26c-1.15,0-1.67,0-2.82.09a.23.23,0,0,1-.26-.26A23.08,23.08,0,0,0,50,72.44a10.12,10.12,0,0,0-1.67.09c0,1,.09,1.5.09,2.47a.28.28,0,0,1-.26.26c-1.15.09-1.67.09-2.82.18-.18,0-.26-.09-.26-.18A23.08,23.08,0,0,1,45,72.79a2.44,2.44,0,0,0-.79.09h-.53" transform="translate(-11.04 -72.35)"/><path class="cls-7" d="M13.68,85.3a159,159,0,0,1,16.82-3.61c.18-.88.26-1.23.44-2.11-6.25,1.06-12.33,2.38-18.5,4a21.37,21.37,0,0,1,1.23,1.76" transform="translate(-11.04 -72.35)"/><path class="cls-7" d="M30.51,82.13c-2.73.44-5.37,1-8.1,1.5.26,1.32.44,2.11.7,3.44l1.06-.26L24,86a1.71,1.71,0,0,1,1.5-1.85,1.88,1.88,0,0,1,1.41.26,1.49,1.49,0,0,1,.62.88l.09.79c1.32-.26,2.11-.35,3.44-.62l-.53-3.35h0" transform="translate(-11.04 -72.35)"/><path class="cls-7" d="M25,90.76h0l-.7-3.44c-1.06.18-1.67.35-2.73.62l.7,3.44c1.06-.26,1.67-.44,2.73-.62h0" transform="translate(-11.04 -72.35)"/><path class="cls-7" d="M56.76,80.37c0,1.32,0,2.11-.09,3.44h.7V82a.28.28,0,0,1,.26-.26c.88,0,1.32.09,2.2.09a.23.23,0,0,1,.26.26A11.81,11.81,0,0,1,60,83.89c1.23.09,1.76.09,3,.18-.09-1.41-.09-2.11-.18-3.52-2-.09-4.05-.18-6.08-.18" transform="translate(-11.04 -72.35)"/><path class="cls-7" d="M45.31,88.12c1.23-.09,1.85-.18,3.08-.18-.09-1.41-.09-2.11-.09-3.52-1.15.09-1.67.09-2.82.18-.09,1.41-.09,2.11-.18,3.52" transform="translate(-11.04 -72.35)"/><path class="cls-7" d="M56.23,83.71V80.28H52.09c0,1.32,0,2.11.09,3.44h.7V82a.28.28,0,0,1,.26-.26h2.2a.23.23,0,0,1,.26.26v1.76h.62" transform="translate(-11.04 -72.35)"/><path class="cls-7" d="M52.88,84.24H51c0,1.41,0,2.11.09,3.52h1.76V84.24" transform="translate(-11.04 -72.35)"/><path class="cls-7" d="M63.1,84.59c-1.23-.09-1.85-.18-3.08-.18-.09,1.41-.09,2.11-.09,3.52,1.32.09,2,.09,3.35.26-.09-1.5-.09-2.2-.18-3.61" transform="translate(-11.04 -72.35)"/><path class="cls-7" d="M57.37,84.24H55.53v3.52h1.76c0-1.41.09-2.11.09-3.52" transform="translate(-11.04 -72.35)"/><path class="cls-7" d="M63.28,88.56c-1.41-.09-2.2-.18-3.61-.26-.88,0-1.32-.09-2.11-.09h-.88c0,1.32,0,2.11-.09,3.52,1.15,0,1.85,0,3.17.09v.44h0a10.66,10.66,0,0,1-.09,1.67c1.41.09,2.11.09,3.52.18,0-.7.09-1,.09-1.67h0V92c0-1.41.09-2,0-3.44" transform="translate(-11.04 -72.35)"/><path class="cls-7" d="M56.14,91.73V88.21H52.53c0,1.32,0,2.2.09,3.61h0v2h3.52V92.17h0v-.44Z" transform="translate(-11.04 -72.35)"/><path class="cls-7" d="M50.94,82V83.8h.7c0-1.32,0-2.11-.09-3.44-1.94,0-4,.09-6,.18-.09,1.41-.09,2.11-.18,3.52,1.15-.09,1.67-.09,2.82-.18a11.81,11.81,0,0,0-.09-1.76.28.28,0,0,1,.26-.26,18.41,18.41,0,0,1,2.2-.09c.26,0,.35.18.35.26" transform="translate(-11.04 -72.35)"/><path class="cls-7" d="M52,88.21H50.86c-.88,0-1.32.09-2.11.09-1.32.09-2,.09-3.35.26-.09,1.41,0,2,0,3.44v.44h0c0,.7.09,1,.09,1.67C46.89,94,47.6,94,49,93.93a10.66,10.66,0,0,0-.09-1.67h0v-.44c1.32-.09,2-.09,3.17-.09C52,90.32,52,89.53,52,88.21" transform="translate(-11.04 -72.35)"/></svg>