<?xml version="1.0" encoding="utf-8"?>
<!-- Generator: Adobe Illustrator 22.0.0, SVG Export Plug-In . SVG Version: 6.00 Build 0)  -->
<svg version="1.1" id="Layer_2" xmlns="http://www.w3.org/2000/svg" xmlns:xlink="http://www.w3.org/1999/xlink" x="0px" y="0px"
	 viewBox="0 0 618.8 829.3" style="enable-background:new 0 0 618.8 829.3;" xml:space="preserve">
<style type="text/css">
	.st0{fill:none;}
	.st1{fill:none;stroke:#000000;stroke-width:8.5039;stroke-linecap:round;stroke-miterlimit:10;}
	.st2{fill:#FFD409;stroke:#000000;stroke-width:4;stroke-miterlimit:10;}
	.st3{fill:#FF5570;stroke:#000000;stroke-width:4;stroke-miterlimit:10;}
	.st4{fill:none;stroke:#000000;stroke-width:4;stroke-miterlimit:10;}
	.st5{fill:url(#SVGID_1_);stroke:#000000;stroke-width:4;stroke-linecap:round;stroke-linejoin:round;stroke-miterlimit:10;}
	.st6{fill:#00CAAC;stroke:#000000;stroke-width:4;stroke-miterlimit:10;}
	.st7{fill:#2D2D2D;stroke:#000000;stroke-width:4;stroke-miterlimit:10;}
	.st8{fill:#8C89FF;stroke:#000000;stroke-width:4;stroke-miterlimit:10;}
	.st9{fill:#DBDBDB;stroke:#000000;stroke-width:4;stroke-miterlimit:10;}
	.st10{fill:#0DBBFF;stroke:#000000;stroke-width:4;stroke-miterlimit:10;}
	.st11{fill:#FFFFFF;stroke:#000000;stroke-width:4;stroke-miterlimit:10;}
	.st12{fill:#636363;stroke:#000000;stroke-width:4;stroke-miterlimit:10;}
	.st13{fill:#777777;stroke:#000000;stroke-width:4;stroke-miterlimit:10;}
	.st14{fill:#A8A8A8;stroke:#000000;stroke-width:4;stroke-miterlimit:10;}
	.st15{fill:#662D91;stroke:#000000;stroke-width:4;stroke-linecap:round;stroke-miterlimit:10;}
	.st16{fill:none;stroke:#000000;stroke-width:4;stroke-miterlimit:10;stroke-dasharray:8.5039;}
	.st17{fill:#00BA00;stroke:#000000;stroke-width:4;stroke-miterlimit:10;}
	.st18{fill:#1D1D1D;}
</style>
<pattern  x="-202.4" y="829.3" width="50" height="50" patternUnits="userSpaceOnUse" id="SVGID_2_2" viewBox="89.5 -139.6 50 50" style="overflow:visible;">
	<g>
		<rect x="89.5" y="-139.6" class="st0" width="50" height="50"/>
		<g>
			<rect x="89.5" y="-139.6" class="st0" width="50" height="50"/>
			<g>
				<rect x="89.5" y="-139.6" class="st0" width="50" height="50"/>
				<g>
					<rect x="89.5" y="-139.6" class="st0" width="50" height="50"/>
					<g>
						<rect x="89.5" y="-139.6" class="st0" width="50" height="50"/>
						<g>
							<rect x="89.5" y="-139.6" class="st0" width="50" height="50"/>
							<line class="st1" x1="224.8" y1="-104.3" x2="104.3" y2="-224.8"/>
							<line class="st1" x1="174.8" y1="-104.3" x2="54.3" y2="-224.8"/>
							<line class="st1" x1="124.8" y1="-104.3" x2="4.3" y2="-224.8"/>
							<line class="st1" x1="224.8" y1="-54.3" x2="104.3" y2="-174.8"/>
							<line class="st1" x1="174.8" y1="-54.3" x2="54.3" y2="-174.8"/>
							<line class="st1" x1="124.8" y1="-54.3" x2="4.3" y2="-174.8"/>
							<line class="st1" x1="224.8" y1="-4.3" x2="104.3" y2="-124.8"/>
							<line class="st1" x1="174.8" y1="-4.3" x2="54.3" y2="-124.8"/>
							<line class="st1" x1="124.8" y1="-4.3" x2="4.3" y2="-124.8"/>
						</g>
					</g>
				</g>
			</g>
		</g>
	</g>
</pattern>
<polygon class="st2" points="46.6,671.6 35.2,671.6 29.5,681.5 35.2,691.4 46.6,691.4 52.3,681.5 "/>
<ellipse class="st3" cx="562" cy="640.3" rx="19.8" ry="19.8"/>
<line class="st4" x1="516.4" y1="723.9" x2="511.1" y2="718.6"/>
<line class="st4" x1="500.3" y1="707.8" x2="505.6" y2="713.1"/>
<line class="st4" x1="516.4" y1="707.8" x2="511.1" y2="713.1"/>
<line class="st4" x1="500.3" y1="723.9" x2="505.6" y2="718.6"/>
<g>
	<pattern  id="SVGID_1_" xlink:href="#SVGID_2_2" patternTransform="matrix(0.3362 0 0 -0.3362 -17316.2852 -21846.5098)">
	</pattern>
	<circle class="st5" cx="41.2" cy="596.3" r="17"/>
	<polygon class="st6" points="38.9,620.3 38.9,597.5 58.8,586.1 78.5,597.5 78.5,620.3 58.8,631.8 	"/>
</g>
<path class="st7" d="M375.4,806.9h-37.2c-1.9,0-3.3-1.5-3.3-3.3v-58c0-1.9,1.5-3.3,3.3-3.3h37.2c1.9,0,3.3,1.5,3.3,3.3v58
	C378.7,805.3,377.2,806.9,375.4,806.9z"/>
<path class="st8" d="M331.1,806.9h-25.7c-1.9,0-3.3-1.5-3.3-3.3v-46.7c0-1.9,1.5-3.3,3.3-3.3h25.7c1.9,0,3.3,1.5,3.3,3.3v46.7
	C334.4,805.4,333,806.9,331.1,806.9z"/>
<path class="st9" d="M298.4,806.9h-50.7c-1.9,0-3.3-1.5-3.3-3.3v-73.8c0-1.9,1.5-3.3,3.3-3.3h50.7c1.9,0,3.3,1.5,3.3,3.3v73.8
	C301.7,805.4,300.2,806.9,298.4,806.9z"/>
<path class="st6" d="M401.3,806.9h-18.7c-1.9,0-3.3-1.5-3.3-3.3v-84.4c0-1.9,1.5-3.3,3.3-3.3h18.7c1.9,0,3.3,1.5,3.3,3.3v84.4
	C404.6,805.4,403.1,806.9,401.3,806.9z"/>
<path class="st10" d="M426.7,806.9h-18.7c-1.9,0-3.3-1.5-3.3-3.3v-68.4c0-1.9,2.1-4.6,3.3-3.3c5.1,5.1,18.7,20,18.7,20
	c1,1,3.3,3,3.3,6.5v45.2C430,805.4,428.5,806.9,426.7,806.9z"/>
<line class="st4" x1="256.6" y1="737.3" x2="289.5" y2="737.3"/>
<line class="st4" x1="309.2" y1="765.1" x2="314.9" y2="765.1"/>
<line class="st4" x1="256.6" y1="764.8" x2="289.5" y2="764.8"/>
<line class="st4" x1="256.6" y1="774.8" x2="289.5" y2="774.8"/>
<line class="st4" x1="256.6" y1="784.9" x2="289.5" y2="784.9"/>
<line class="st4" x1="256.6" y1="747.4" x2="289.5" y2="747.4"/>
<line class="st4" x1="321.5" y1="765.1" x2="327.2" y2="765.1"/>
<line class="st4" x1="309.2" y1="776" x2="314.9" y2="776"/>
<line class="st4" x1="321.5" y1="776" x2="327.2" y2="776"/>
<line class="st4" x1="309.2" y1="787" x2="314.9" y2="787"/>
<line class="st4" x1="321.5" y1="787" x2="327.2" y2="787"/>
<line class="st4" x1="419.2" y1="765.1" x2="424.8" y2="765.1"/>
<line class="st4" x1="419.2" y1="776" x2="424.8" y2="776"/>
<line class="st4" x1="419.2" y1="787" x2="424.8" y2="787"/>
<line class="st4" x1="409.7" y1="765.1" x2="415.4" y2="765.1"/>
<line class="st4" x1="409.7" y1="776" x2="415.4" y2="776"/>
<line class="st4" x1="409.7" y1="787" x2="415.4" y2="787"/>
<line class="st4" x1="409.7" y1="754.4" x2="415.4" y2="754.4"/>
<line class="st4" x1="179.1" y1="708.6" x2="201.9" y2="708.6"/>
<line class="st4" x1="385.6" y1="740.4" x2="397.1" y2="740.4"/>
<line class="st4" x1="385.6" y1="757.8" x2="397.1" y2="757.8"/>
<line class="st4" x1="385.6" y1="767.8" x2="397.1" y2="767.8"/>
<line class="st4" x1="385.6" y1="730.4" x2="397.1" y2="730.4"/>
<line class="st4" x1="385.6" y1="777.9" x2="397.1" y2="777.9"/>
<line class="st4" x1="385.6" y1="788" x2="397.1" y2="788"/>
<path class="st3" d="M241.1,806.9h-81.6c-1.9,0-3.3-1.5-3.3-3.3V754c0-1.9,1.5-3.3,3.3-3.3h81.6c1.9,0,3.3,1.5,3.3,3.3v49.6
	C244.4,805.4,242.9,806.9,241.1,806.9z"/>
<path class="st11" d="M230.6,769.8H170c-0.4,0-0.7-0.3-0.7-0.7V762c0-0.3,0.3-0.7,0.7-0.7h60.6c0.4,0,0.7,0.3,0.7,0.7v7.1
	C231.2,769.5,231,769.8,230.6,769.8z"/>
<path class="st11" d="M230.6,786.3H170c-0.4,0-0.7-0.3-0.7-0.7v-7.1c0-0.3,0.3-0.7,0.7-0.7h60.6c0.4,0,0.7,0.3,0.7,0.7v7.1
	C231.2,786,231,786.3,230.6,786.3z"/>
<path class="st11" d="M369.2,759.1h-24.9c-0.4,0-0.7-0.3-0.7-0.7v-7.1c0-0.3,0.3-0.7,0.7-0.7h24.9c0.4,0,0.7,0.3,0.7,0.7v7.1
	C369.9,758.9,369.6,759.1,369.2,759.1z"/>
<path class="st11" d="M369.2,775.1h-24.9c-0.4,0-0.7-0.3-0.7-0.7v-7.1c0-0.4,0.3-0.7,0.7-0.7h24.9c0.4,0,0.7,0.3,0.7,0.7v7.1
	C369.9,774.8,369.6,775.1,369.2,775.1z"/>
<path class="st11" d="M369.2,791h-24.9c-0.4,0-0.7-0.3-0.7-0.7v-7.1c0-0.3,0.3-0.7,0.7-0.7h24.9c0.4,0,0.7,0.3,0.7,0.7v7.1
	C369.9,790.7,369.6,791,369.2,791z"/>
<path class="st12" d="M120.6,806.9h30c2.9,0,5.3-1.5,5.3-3.3v-68.4c0-1.9-3.3-4.6-5.3-3.3c-8.2,5.1-30,20-30,20
	c-1.6,1-5.3,3-5.3,6.5v45.2C115.3,805.4,117.7,806.9,120.6,806.9z"/>
<path class="st11" d="M131.9,769.2h-8.1c-0.3,0-0.7-0.3-0.7-0.7v-7.1c0-0.4,0.3-0.7,0.7-0.7h8.1c0.3,0,0.7,0.3,0.7,0.7v7.1
	C132.6,768.9,132.3,769.2,131.9,769.2z"/>
<path class="st11" d="M148.4,777.6h-8.1c-0.4,0-0.7-0.3-0.7-0.7v-7.1c0-0.3,0.3-0.7,0.7-0.7h8.1c0.3,0,0.7,0.3,0.7,0.7v7.1
	C149.1,777.3,148.8,777.6,148.4,777.6z"/>
<path class="st11" d="M131.9,791.2h-8.1c-0.3,0-0.7-0.3-0.7-0.7v-7.1c0-0.3,0.3-0.7,0.7-0.7h8.1c0.3,0,0.7,0.3,0.7,0.7v7.1
	C132.6,791,132.3,791.2,131.9,791.2z"/>
<path class="st13" d="M497.5,806.9h-64.3c-1.9,0-3.3-1.5-3.3-3.3v-36.3c0-1.9,1.5-3.3,3.3-3.3h64.3c1.9,0,3.3,1.5,3.3,3.3v36.3
	C500.8,805.4,499.4,806.9,497.5,806.9z"/>
<line class="st4" x1="447.9" y1="773.3" x2="453.7" y2="773.3"/>
<line class="st4" x1="438" y1="773.3" x2="443.9" y2="773.3"/>
<line class="st4" x1="467.4" y1="773.3" x2="473.2" y2="773.3"/>
<line class="st4" x1="457.6" y1="773.3" x2="463.4" y2="773.3"/>
<line class="st4" x1="486.9" y1="773.3" x2="492.7" y2="773.3"/>
<line class="st4" x1="438" y1="784.3" x2="492.7" y2="784.3"/>
<line class="st4" x1="477.2" y1="773.3" x2="483" y2="773.3"/>
<line class="st4" x1="447.9" y1="795.2" x2="453.7" y2="795.2"/>
<line class="st4" x1="438" y1="795.2" x2="443.9" y2="795.2"/>
<line class="st4" x1="467.4" y1="795.2" x2="473.2" y2="795.2"/>
<line class="st4" x1="457.6" y1="795.2" x2="463.4" y2="795.2"/>
<line class="st4" x1="486.9" y1="795.2" x2="492.7" y2="795.2"/>
<line class="st4" x1="477.2" y1="795.2" x2="483" y2="795.2"/>
<line class="st4" x1="221.7" y1="692.1" x2="267" y2="692.1"/>
<line class="st4" x1="50.3" y1="741" x2="47.2" y2="737.9"/>
<line class="st4" x1="40.9" y1="731.6" x2="44" y2="734.7"/>
<line class="st4" x1="50.3" y1="731.6" x2="47.2" y2="734.7"/>
<line class="st4" x1="40.9" y1="741" x2="44" y2="737.9"/>
<line class="st4" x1="417.4" y1="691.4" x2="432.2" y2="691.4"/>
<path class="st14" d="M111.9,806.9H86.2c-1.9,0-3.3-1.5-3.3-3.3v-63.5c0-1.9,1.5-3.3,3.3-3.3h25.7c1.9,0,3.3,1.5,3.3,3.3v63.5
	C115.2,805.4,113.7,806.9,111.9,806.9z"/>
<path class="st15" d="M79.5,806.8H30.6c-1.9,0-3.3-1.5-3.3-3.3v-32.8c0-1.9,1.5-3.3,3.3-3.3h48.9c1.9,0,3.3,1.5,3.3,3.3v32.8
	C82.8,805.3,81.3,806.8,79.5,806.8z"/>
<path class="st2" d="M504.2,806.9c-1.9,0-3.3-1.5-3.3-3.3v-58.1c0-1.9,1.5-3.3,3.3-3.3h39.3v-7c0-1.9,3.3-4.6,5.4-3.3
	c8.4,5.1,30.4,20,30.4,20c1.7,1,5.4,3,5.4,6.5v45.2c0,1.9-2.5,3.3-5.4,3.3L504.2,806.9L504.2,806.9z"/>
<path class="st11" d="M566,781.9h-8.1c-0.3,0-0.7-0.3-0.7-0.7v-7.1c0-0.3,0.3-0.7,0.7-0.7h8.1c0.4,0,0.7,0.3,0.7,0.7v7.1
	C566.7,781.7,566.4,781.9,566,781.9z"/>
<path class="st11" d="M566,767.6h-8.1c-0.3,0-0.7-0.3-0.7-0.7v-7.1c0-0.3,0.3-0.7,0.7-0.7h8.1c0.4,0,0.7,0.3,0.7,0.7v7.1
	C566.7,767.3,566.4,767.6,566,767.6z"/>
<path class="st11" d="M566,796.6h-8.1c-0.3,0-0.7-0.3-0.7-0.7v-7.1c0-0.3,0.3-0.7,0.7-0.7h8.1c0.4,0,0.7,0.3,0.7,0.7v7.1
	C566.7,796.4,566.4,796.6,566,796.6z"/>
<path class="st11" d="M544,787.3h-34c-0.3,0-0.7-0.3-0.7-0.7V781c0-0.4,0.3-0.7,0.7-0.7h34c0.3,0,0.7,0.3,0.7,0.7v5.6
	C544.6,786.9,544.3,787.3,544,787.3z"/>
<path class="st11" d="M544,772.6h-34c-0.3,0-0.7-0.3-0.7-0.7v-5.6c0-0.3,0.3-0.7,0.7-0.7h34c0.3,0,0.7,0.3,0.7,0.7v5.6
	C544.6,772.4,544.3,772.6,544,772.6z"/>
<path class="st11" d="M544,758.1h-34c-0.3,0-0.7-0.3-0.7-0.7v-5.6c0-0.3,0.3-0.7,0.7-0.7h34c0.3,0,0.7,0.3,0.7,0.7v5.6
	C544.6,757.8,544.3,758.1,544,758.1z"/>
<line class="st4" x1="104.1" y1="718.5" x2="99.8" y2="714.3"/>
<line class="st4" x1="91.1" y1="705.6" x2="95.4" y2="709.8"/>
<line class="st4" x1="104.1" y1="705.6" x2="99.8" y2="709.8"/>
<line class="st4" x1="91.1" y1="718.5" x2="95.4" y2="714.3"/>
<ellipse transform="matrix(0.9951 -9.853774e-02 9.853774e-02 0.9951 -64.3832 10.9388)" cx="78.5" cy="657.3" rx="4.3" ry="4.3"/>
<g>
	<line class="st4" x1="201.5" y1="649.6" x2="198.4" y2="646.6"/>
	<line class="st4" x1="192.1" y1="640.3" x2="195.2" y2="643.3"/>
	<line class="st4" x1="201.5" y1="640.3" x2="198.4" y2="643.3"/>
	<line class="st4" x1="192.1" y1="649.6" x2="195.2" y2="646.6"/>
</g>
<circle cx="553.3" cy="686" r="10.8"/>
<line class="st4" x1="565.3" y1="691.4" x2="582" y2="691.4"/>
<circle cx="516.4" cy="661.7" r="4.5"/>
<g>
	<line class="st4" x1="119.1" y1="169.5" x2="115.4" y2="166"/>
	<line class="st4" x1="108" y1="158.6" x2="111.7" y2="162.1"/>
	<line class="st4" x1="119.1" y1="158.6" x2="115.4" y2="162.1"/>
	<line class="st4" x1="108" y1="169.5" x2="111.7" y2="166"/>
</g>
<g>
	<line class="st4" x1="598" y1="726.2" x2="594.8" y2="723.2"/>
	<line class="st4" x1="588.5" y1="716.8" x2="591.6" y2="719.9"/>
	<line class="st4" x1="598" y1="716.8" x2="594.8" y2="719.9"/>
	<line class="st4" x1="588.5" y1="726.2" x2="591.6" y2="723.2"/>
</g>
<circle cx="356.1" cy="714.3" r="7.2"/>
<line class="st4" x1="90.3" y1="746.5" x2="106.8" y2="746.5"/>
<line class="st4" x1="90.3" y1="756.6" x2="106.8" y2="756.6"/>
<line class="st4" x1="90.3" y1="766.7" x2="106.8" y2="766.7"/>
<line class="st4" x1="90.3" y1="777" x2="106.8" y2="777"/>
<line class="st4" x1="90.3" y1="787.1" x2="106.8" y2="787.1"/>
<line class="st4" x1="42.7" y1="793.7" x2="48.5" y2="793.7"/>
<line class="st4" x1="32.9" y1="793.7" x2="38.8" y2="793.7"/>
<line class="st4" x1="62.2" y1="793.7" x2="68.1" y2="793.7"/>
<line class="st4" x1="52.5" y1="793.7" x2="58.3" y2="793.7"/>
<line class="st4" x1="72" y1="793.7" x2="77.8" y2="793.7"/>
<path class="st11" d="M75.5,783H34.8c-0.4,0-0.7-0.3-0.7-0.7v-7.1c0-0.3,0.3-0.7,0.7-0.7h40.7c0.3,0,0.7,0.3,0.7,0.7v7.1
	C76.2,782.7,75.9,783,75.5,783z"/>
<polyline class="st16" points="457.4,753.5 457.4,686 557.3,686 "/>
<polyline class="st16" points="135.7,721.5 135.7,681.5 65.2,681.5 "/>
<polyline class="st16" points="356.1,730.4 356.1,714.3 318.3,714.3 318.3,736.7 "/>
<g>
	<line class="st4" x1="509.9" y1="242.1" x2="503.3" y2="235.6"/>
	<line class="st4" x1="490" y1="222.3" x2="496.6" y2="228.7"/>
	<line class="st4" x1="509.9" y1="222.3" x2="503.3" y2="228.7"/>
	<line class="st4" x1="490" y1="242.1" x2="496.6" y2="235.6"/>
</g>
<line class="st4" x1="25.7" y1="460.2" x2="40.4" y2="460.2"/>
<g>
	<line class="st4" x1="146.5" y1="571.2" x2="142" y2="566.7"/>
	<line class="st4" x1="132.8" y1="557.5" x2="137.3" y2="562"/>
	<line class="st4" x1="146.5" y1="557.5" x2="142" y2="562"/>
	<line class="st4" x1="132.8" y1="571.2" x2="137.3" y2="566.7"/>
</g>
<g>
	<ellipse cx="145" cy="62.3" rx="9.3" ry="9.1"/>
</g>
<line class="st4" x1="89.6" y1="478.2" x2="96.9" y2="478.2"/>
<circle cx="424.8" cy="646.6" r="7.2"/>
<g>
	<circle class="st17" cx="106" cy="791.6" r="5.7"/>
</g>
<line class="st4" x1="106" y1="807.7" x2="106" y2="797.3"/>
<g>
	<circle class="st17" cx="124.7" cy="791.6" r="5.7"/>
</g>
<line class="st4" x1="124.7" y1="807.8" x2="124.7" y2="797.4"/>
<g>
	<circle class="st17" cx="287.4" cy="794.1" r="5.7"/>
</g>
<line class="st4" x1="287.4" y1="806.3" x2="287.4" y2="799.8"/>
<g>
	<circle class="st17" cx="302.1" cy="791.6" r="5.7"/>
</g>
<line class="st4" x1="302.1" y1="807.8" x2="302.1" y2="797.4"/>
<g>
	<circle class="st17" cx="379.2" cy="791.6" r="5.7"/>
</g>
<line class="st4" x1="379.2" y1="807.8" x2="379.2" y2="797.4"/>
<g>
	<circle class="st17" cx="45.6" cy="791.6" r="5.7"/>
</g>
<line class="st4" x1="45.6" y1="807.7" x2="45.6" y2="797.3"/>
<g>
	<circle class="st17" cx="516.4" cy="794.1" r="5.7"/>
</g>
<line class="st4" x1="516.4" y1="806.3" x2="516.4" y2="799.8"/>
<g>
	<circle class="st17" cx="544.6" cy="791.6" r="5.7"/>
</g>
<line class="st4" x1="544.6" y1="807.8" x2="544.6" y2="797.4"/>
<g>
	<circle class="st17" cx="603.7" cy="794.1" r="5.7"/>
</g>
<line class="st4" x1="603.7" y1="806.3" x2="603.7" y2="799.8"/>
<line class="st4" x1="94.6" y1="242.1" x2="113.6" y2="242.1"/>
<rect y="805" class="st18" width="618.5" height="24.3"/>
<circle cx="95.4" cy="335.6" r="5.5"/>
<g>
	<line class="st4" x1="41.4" y1="41.7" x2="36.6" y2="37"/>
	<line class="st4" x1="26.9" y1="27.3" x2="31.7" y2="32"/>
	<line class="st4" x1="41.4" y1="27.3" x2="36.6" y2="32"/>
	<line class="st4" x1="26.9" y1="41.7" x2="31.7" y2="37"/>
</g>
<g>
	<circle cx="46.7" cy="115.2" r="11.6"/>
</g>
<line class="st4" x1="32.6" y1="201.9" x2="70" y2="201.9"/>
<g>
	<line class="st4" x1="538" y1="582.9" x2="583" y2="582.9"/>
	<line class="st4" x1="538" y1="571.2" x2="550.3" y2="571.2"/>
	<line class="st4" x1="560.5" y1="571.2" x2="567" y2="571.2"/>
	<line class="st4" x1="575.5" y1="571.2" x2="583" y2="571.2"/>
	<line class="st4" x1="538" y1="594.5" x2="563.8" y2="594.5"/>
	<line class="st4" x1="572.7" y1="594.5" x2="583" y2="594.5"/>
</g>
<g>
	<line class="st4" x1="68" y1="288.7" x2="22.9" y2="288.7"/>
	<line class="st4" x1="68" y1="300.4" x2="55.7" y2="300.4"/>
	<line class="st4" x1="45.4" y1="300.4" x2="38.9" y2="300.4"/>
	<line class="st4" x1="30.5" y1="300.4" x2="22.9" y2="300.4"/>
	<line class="st4" x1="68" y1="277" x2="42.2" y2="277"/>
	<line class="st4" x1="33.2" y1="277" x2="22.9" y2="277"/>
</g>
<g>
	<line class="st4" x1="73.9" y1="407.3" x2="65.9" y2="399.5"/>
	<line class="st4" x1="49.8" y1="383.4" x2="57.8" y2="391.2"/>
	<line class="st4" x1="73.9" y1="383.4" x2="65.9" y2="391.2"/>
	<line class="st4" x1="49.8" y1="407.3" x2="57.8" y2="399.5"/>
</g>
<line class="st4" x1="577.9" y1="465.4" x2="592.6" y2="465.4"/>
<g>
	<circle cx="565.5" cy="38.7" r="7.9"/>
</g>
<line class="st4" x1="556.5" y1="538.9" x2="563.8" y2="538.9"/>
<line class="st4" x1="542.1" y1="292.8" x2="569.2" y2="292.8"/>
<circle cx="496.6" cy="586.1" r="5.5"/>
<g>
	<line class="st4" x1="548.3" y1="104.1" x2="543.5" y2="108.8"/>
	<line class="st4" x1="553.3" y1="99.1" x2="558.1" y2="94.4"/>
	<line class="st4" x1="548.3" y1="99.1" x2="543.5" y2="94.4"/>
	<line class="st4" x1="553.3" y1="104.1" x2="558.1" y2="108.8"/>
</g>
<line class="st4" x1="502.8" y1="499.5" x2="515.9" y2="499.5"/>
<g>
	<circle cx="532.6" cy="454.9" r="11.6"/>
</g>
<line class="st4" x1="495.2" y1="158.6" x2="532.5" y2="158.6"/>
<g>
	<line class="st4" x1="601.6" y1="183.4" x2="571.7" y2="183.4"/>
	<line class="st4" x1="579.8" y1="191.2" x2="571.7" y2="191.2"/>
	<line class="st4" x1="591" y1="191.2" x2="586.7" y2="191.2"/>
	<line class="st4" x1="601.6" y1="191.2" x2="596.6" y2="191.2"/>
	<line class="st4" x1="588.8" y1="175.7" x2="571.7" y2="175.7"/>
	<line class="st4" x1="601.6" y1="175.7" x2="594.8" y2="175.7"/>
</g>
<g>
	<line class="st4" x1="446.7" y1="66.4" x2="438.7" y2="74.2"/>
	<line class="st4" x1="454.8" y1="58.1" x2="462.8" y2="50.3"/>
	<line class="st4" x1="446.7" y1="58.1" x2="438.7" y2="50.3"/>
	<line class="st4" x1="454.8" y1="66.4" x2="462.8" y2="74.2"/>
</g>
<g>
	<line class="st4" x1="312.9" y1="693.7" x2="309.1" y2="697.5"/>
	<line class="st4" x1="316.9" y1="689.7" x2="320.7" y2="685.9"/>
	<line class="st4" x1="312.9" y1="689.7" x2="309.1" y2="685.9"/>
	<line class="st4" x1="316.9" y1="693.7" x2="320.7" y2="697.5"/>
</g>
<g>
	<circle cx="553.3" cy="375.1" r="14.2"/>
</g>
<g>
	<line class="st4" x1="232.6" y1="74.2" x2="271.7" y2="74.2"/>
	<line class="st4" x1="261.1" y1="64.1" x2="271.7" y2="64.1"/>
	<line class="st4" x1="246.5" y1="64.1" x2="252.1" y2="64.1"/>
	<line class="st4" x1="232.6" y1="64.1" x2="239.1" y2="64.1"/>
	<line class="st4" x1="249.3" y1="84.4" x2="271.7" y2="84.4"/>
	<line class="st4" x1="232.6" y1="84.4" x2="241.5" y2="84.4"/>
</g>
<g>
	<circle cx="337.2" cy="37" r="7.5"/>
</g>
<g>
	<line class="st4" x1="383.9" y1="93.8" x2="380.8" y2="90.7"/>
	<line class="st4" x1="374.5" y1="84.4" x2="377.6" y2="87.4"/>
	<line class="st4" x1="383.9" y1="84.4" x2="380.8" y2="87.4"/>
	<line class="st4" x1="374.5" y1="93.8" x2="377.6" y2="90.7"/>
</g>
</svg>
