<?xml version="1.0" encoding="utf-8"?>
<!-- Generator: Adobe Illustrator 22.0.0, SVG Export Plug-In . SVG Version: 6.00 Build 0)  -->
<svg version="1.1" id="Layer_1" xmlns="http://www.w3.org/2000/svg" xmlns:xlink="http://www.w3.org/1999/xlink" x="0px" y="0px"
	 viewBox="0 0 1295.4 829.3" style="enable-background:new 0 0 1295.4 829.3;" xml:space="preserve">
<style type="text/css">
	.st0{fill:none;}
	.st1{fill:none;stroke:#000000;stroke-width:8.5039;stroke-linecap:round;stroke-miterlimit:10;}
	.st2{fill:url(#SVGID_3_);stroke:#000000;stroke-width:5.6693;stroke-linecap:round;stroke-miterlimit:10;}
	.st3{display:none;}
	.st4{fill:#FFD409;stroke:#000000;stroke-width:5.6693;stroke-miterlimit:10;}
	.st5{fill:#FF5570;stroke:#000000;stroke-width:5.6693;stroke-miterlimit:10;}
	.st6{fill:none;stroke:#000000;stroke-width:5.6693;stroke-miterlimit:10;}
	.st7{fill:url(#SVGID_4_);stroke:#000000;stroke-width:5.6693;stroke-linecap:round;stroke-linejoin:round;stroke-miterlimit:10;}
	.st8{fill:#00CAAC;stroke:#000000;stroke-width:5.6693;stroke-miterlimit:10;}
	.st9{fill:#2D2D2D;stroke:#000000;stroke-width:5.6693;stroke-miterlimit:10;}
	.st10{fill:#8C89FF;stroke:#000000;stroke-width:5.6693;stroke-miterlimit:10;}
	.st11{fill:#DBDBDB;stroke:#000000;stroke-width:5.6693;stroke-miterlimit:10;}
	.st12{fill:#0DBBFF;stroke:#000000;stroke-width:5.6693;stroke-miterlimit:10;}
	.st13{fill:none;stroke:#000000;stroke-width:8.5039;stroke-miterlimit:10;}
	.st14{fill:#FFFFFF;stroke:#000000;stroke-width:5.6693;stroke-miterlimit:10;}
	.st15{fill:#636363;stroke:#000000;stroke-width:5.6693;stroke-miterlimit:10;}
	.st16{fill:#777777;stroke:#000000;stroke-width:5.6693;stroke-miterlimit:10;}
	.st17{fill:#A8A8A8;stroke:#000000;stroke-width:5.6693;stroke-miterlimit:10;}
	.st18{fill:#662D91;stroke:#000000;stroke-width:5.6693;stroke-linecap:round;stroke-miterlimit:10;}
	.st19{fill:none;stroke:#000000;stroke-width:5.6693;stroke-miterlimit:10;stroke-dasharray:8.5039;}
	.st20{fill:none;stroke:#000000;stroke-width:5.6693;stroke-miterlimit:10;stroke-dasharray:11.3386;}
	.st21{fill:#00BA00;stroke:#000000;stroke-width:2.8346;stroke-miterlimit:10;}
	.st22{fill:none;stroke:#000000;stroke-width:2.8346;stroke-miterlimit:10;}
	.st23{fill:#1D1D1D;}
</style>
<pattern  y="829.3" width="49.5" height="33" patternUnits="userSpaceOnUse" id="SVGID_1_" viewBox="10.5 -43.5 49.5 33" style="overflow:visible;">
	<g>
		<rect x="10.5" y="-43.5" class="st0" width="49.5" height="33"/>
		<g>
			<rect x="10.5" y="-43.5" class="st0" width="49.5" height="33"/>
			<g>
				<rect x="10.5" y="-43.5" class="st0" width="49.5" height="33"/>
				<g>
					<rect x="10.5" y="-43.5" class="st0" width="49.5" height="33"/>
					<g>
						<rect x="10.5" y="-43.5" class="st0" width="49.5" height="33"/>
						<g>
							<rect x="10.5" y="-43.5" class="st0" width="49.5" height="33"/>
							<g>
								<circle cx="60" cy="-43.5" r="10"/>
								<path d="M60-34c-5.2,0-9.5-4.3-9.5-9.5S54.8-53,60-53s9.5,4.3,9.5,9.5S65.2-34,60-34 M60-33c5.8,0,10.5-4.7,10.5-10.5
									S65.8-54,60-54s-10.5,4.7-10.5,10.5S54.2-33,60-33L60-33z"/>
							</g>
							<g>
								<circle cx="10.5" cy="-43.5" r="10"/>
								<path d="M10.5-34C5.3-34,1-38.3,1-43.5S5.3-53,10.5-53s9.5,4.3,9.5,9.5S15.7-34,10.5-34 M10.5-33C16.3-33,21-37.7,21-43.5
									S16.3-54,10.5-54S0-49.3,0-43.5S4.7-33,10.5-33L10.5-33z"/>
							</g>
							<g>
								<circle cx="60" cy="-10.5" r="10"/>
								<path d="M60-1c-5.2,0-9.5-4.3-9.5-9.5S54.8-20,60-20s9.5,4.3,9.5,9.5S65.2-1,60-1 M60,0c5.8,0,10.5-4.7,10.5-10.5
									S65.8-21,60-21s-10.5,4.7-10.5,10.5S54.2,0,60,0L60,0z"/>
							</g>
							<g>
								<circle cx="35.2" cy="-27" r="10"/>
								<path d="M35.2-17.5c-5.2,0-9.5-4.3-9.5-9.5s4.3-9.5,9.5-9.5s9.5,4.3,9.5,9.5S40.5-17.5,35.2-17.5 M35.2-16.5
									c5.8,0,10.5-4.7,10.5-10.5S41-37.5,35.2-37.5S24.8-32.8,24.8-27S29.5-16.5,35.2-16.5L35.2-16.5z"/>
							</g>
							<g>
								<circle cx="10.5" cy="-10.5" r="10"/>
								<path d="M10.5-1C5.3-1,1-5.3,1-10.5S5.3-20,10.5-20s9.5,4.3,9.5,9.5S15.7-1,10.5-1 M10.5,0C16.3,0,21-4.7,21-10.5
									S16.3-21,10.5-21S0-16.3,0-10.5S4.7,0,10.5,0L10.5,0z"/>
							</g>
						</g>
					</g>
				</g>
			</g>
		</g>
	</g>
</pattern>
<pattern  y="829.3" width="50" height="50" patternUnits="userSpaceOnUse" id="SVGID_2_" viewBox="89.5 -139.6 50 50" style="overflow:visible;">
	<g>
		<rect x="89.5" y="-139.6" class="st0" width="50" height="50"/>
		<g>
			<rect x="89.5" y="-139.6" class="st0" width="50" height="50"/>
			<g>
				<rect x="89.5" y="-139.6" class="st0" width="50" height="50"/>
				<g>
					<rect x="89.5" y="-139.6" class="st0" width="50" height="50"/>
					<g>
						<rect x="89.5" y="-139.6" class="st0" width="50" height="50"/>
						<g>
							<rect x="89.5" y="-139.6" class="st0" width="50" height="50"/>
							<line class="st1" x1="224.8" y1="-104.3" x2="104.3" y2="-224.8"/>
							<line class="st1" x1="174.8" y1="-104.3" x2="54.3" y2="-224.8"/>
							<line class="st1" x1="124.8" y1="-104.3" x2="4.3" y2="-224.8"/>
							<line class="st1" x1="224.8" y1="-54.3" x2="104.3" y2="-174.8"/>
							<line class="st1" x1="174.8" y1="-54.3" x2="54.3" y2="-174.8"/>
							<line class="st1" x1="124.8" y1="-54.3" x2="4.3" y2="-174.8"/>
							<line class="st1" x1="224.8" y1="-4.3" x2="104.3" y2="-124.8"/>
							<line class="st1" x1="174.8" y1="-4.3" x2="54.3" y2="-124.8"/>
							<line class="st1" x1="124.8" y1="-4.3" x2="4.3" y2="-124.8"/>
						</g>
					</g>
				</g>
			</g>
		</g>
	</g>
</pattern>
<pattern  id="SVGID_3_" xlink:href="#SVGID_1_" patternTransform="matrix(0.8918 0 0 -0.8918 -1306.3334 -45802.418)">
</pattern>
<circle class="st2" cx="1165.2" cy="641.1" r="33.9"/>
<g id="Layer_1_1_" class="st3">
</g>
<polygon class="st4" points="278.8,603.5 261.6,603.5 253,618.3 261.6,633.2 278.8,633.2 287.3,618.3 "/>
<ellipse transform="matrix(0.9985 -5.529870e-02 5.529870e-02 0.9985 -38.4597 11.7287)" class="st5" cx="192.7" cy="700.8" rx="46.4" ry="46.4"/>
<g>
	<ellipse transform="matrix(0.9999 -1.020301e-02 1.020301e-02 0.9999 -6.4555 0.9614)" cx="91" cy="633.2" rx="19.1" ry="19.1"/>
</g>
<g>
	<line class="st6" x1="1205.8" y1="560.5" x2="1139.3" y2="560.5"/>
	<line class="st6" x1="1205.8" y1="575.4" x2="1187.7" y2="575.4"/>
	<line class="st6" x1="1172.5" y1="575.4" x2="1162.9" y2="575.4"/>
	<line class="st6" x1="1150.4" y1="575.4" x2="1139.3" y2="575.4"/>
	<line class="st6" x1="1205.8" y1="545.6" x2="1167.7" y2="545.6"/>
	<line class="st6" x1="1154.5" y1="545.6" x2="1139.3" y2="545.6"/>
</g>
<g>
	<line class="st6" x1="985.7" y1="682.1" x2="977.7" y2="674.2"/>
	<line class="st6" x1="961.5" y1="658" x2="969.5" y2="665.9"/>
	<line class="st6" x1="985.7" y1="658" x2="977.7" y2="665.9"/>
	<line class="st6" x1="961.5" y1="682.1" x2="969.5" y2="674.2"/>
</g>
<pattern  id="SVGID_4_" xlink:href="#SVGID_2_" patternTransform="matrix(0.3362 0 0 -0.3362 -17402.4609 -21846.5098)">
</pattern>
<circle class="st7" cx="143.1" cy="546.7" r="22.3"/>
<g>
	<polygon class="st8" points="152.9,578.2 152.9,548.3 178.9,533.4 204.8,548.3 204.8,578.2 178.9,593.2 	"/>
</g>
<path class="st9" d="M773.5,807h-56c-2.8,0-5-2.2-5-5v-87.3c0-2.8,2.2-5,5-5h56c2.8,0,5,2.2,5,5V802
	C778.5,804.7,776.3,807,773.5,807z"/>
<path class="st10" d="M706.9,807.1h-38.7c-2.8,0-5-2.2-5-5v-70.3c0-2.8,2.2-5,5-5h38.7c2.8,0,5,2.2,5,5v70.3
	C711.9,804.8,709.7,807.1,706.9,807.1z"/>
<path class="st11" d="M657.7,807.1h-76.3c-2.8,0-5-2.2-5-5V691c0-2.8,2.2-5,5-5h76.3c2.8,0,5,2.2,5,5v111.1
	C662.7,804.8,660.4,807.1,657.7,807.1z"/>
<path class="st8" d="M812.5,807.1h-28.2c-2.8,0-5-2.2-5-5v-127c0-2.8,2.2-5,5-5h28.2c2.8,0,5,2.2,5,5v127
	C817.5,804.8,815.2,807.1,812.5,807.1z"/>
<path class="st12" d="M850.7,807.1h-28.2c-2.8,0-5-2.2-5-5V699.2c0-2.8,3.1-6.9,5-5c7.7,7.7,28.2,30.1,28.2,30.1
	c1.5,1.5,5,4.5,5,9.8v68C855.7,804.8,853.4,807.1,850.7,807.1z"/>
<line class="st6" x1="594.8" y1="702.4" x2="644.3" y2="702.4"/>
<line class="st13" x1="674" y1="744.1" x2="682.5" y2="744.1"/>
<line class="st6" x1="594.8" y1="743.7" x2="644.3" y2="743.7"/>
<line class="st6" x1="594.8" y1="758.8" x2="644.3" y2="758.8"/>
<line class="st6" x1="594.8" y1="774" x2="644.3" y2="774"/>
<line class="st6" x1="594.8" y1="717.6" x2="644.3" y2="717.6"/>
<line class="st13" x1="692.5" y1="744.1" x2="701" y2="744.1"/>
<line class="st13" x1="674" y1="760.6" x2="682.5" y2="760.6"/>
<line class="st13" x1="692.5" y1="760.6" x2="701" y2="760.6"/>
<line class="st13" x1="674" y1="777.1" x2="682.5" y2="777.1"/>
<line class="st13" x1="692.5" y1="777.1" x2="701" y2="777.1"/>
<line class="st13" x1="839.5" y1="744.1" x2="847.9" y2="744.1"/>
<line class="st13" x1="839.5" y1="760.6" x2="847.9" y2="760.6"/>
<line class="st13" x1="839.5" y1="777.1" x2="847.9" y2="777.1"/>
<line class="st13" x1="825.2" y1="744.1" x2="833.7" y2="744.1"/>
<line class="st13" x1="825.2" y1="760.6" x2="833.7" y2="760.6"/>
<line class="st13" x1="825.2" y1="777.1" x2="833.7" y2="777.1"/>
<line class="st13" x1="825.2" y1="728.1" x2="833.7" y2="728.1"/>
<line class="st6" x1="478.1" y1="659.1" x2="512.5" y2="659.1"/>
<line class="st6" x1="788.9" y1="707" x2="806.2" y2="707"/>
<line class="st6" x1="788.9" y1="733.2" x2="806.2" y2="733.2"/>
<line class="st6" x1="788.9" y1="748.3" x2="806.2" y2="748.3"/>
<line class="st6" x1="788.9" y1="691.9" x2="806.2" y2="691.9"/>
<line class="st6" x1="788.9" y1="763.5" x2="806.2" y2="763.5"/>
<line class="st6" x1="788.9" y1="778.6" x2="806.2" y2="778.6"/>
<path class="st5" d="M571.4,807.1H448.6c-2.8,0-5-2.2-5-5v-74.6c0-2.8,2.2-5,5-5h122.8c2.8,0,5,2.2,5,5v74.6
	C576.4,804.8,574.1,807.1,571.4,807.1z"/>
<path class="st14" d="M555.6,751.2h-91.2c-0.6,0-1-0.5-1-1v-10.7c0-0.5,0.4-1,1-1h91.2c0.6,0,1,0.5,1,1v10.7
	C556.6,750.8,556.2,751.2,555.6,751.2z"/>
<path class="st14" d="M555.6,776.1h-91.2c-0.6,0-1-0.5-1-1v-10.7c0-0.5,0.4-1,1-1h91.2c0.6,0,1,0.5,1,1v10.7
	C556.6,775.6,556.2,776.1,555.6,776.1z"/>
<path class="st14" d="M764.2,735.2h-37.4c-0.6,0-1-0.4-1-1v-10.7c0-0.5,0.4-1,1-1h37.4c0.6,0,1,0.5,1,1v10.7
	C765.2,734.8,764.8,735.2,764.2,735.2z"/>
<path class="st14" d="M764.2,759.2h-37.4c-0.6,0-1-0.5-1-1v-10.7c0-0.6,0.4-1,1-1h37.4c0.6,0,1,0.4,1,1v10.7
	C765.2,758.7,764.8,759.2,764.2,759.2z"/>
<path class="st14" d="M764.2,783.1h-37.4c-0.6,0-1-0.5-1-1v-10.7c0-0.5,0.4-1,1-1h37.4c0.6,0,1,0.5,1,1v10.7
	C765.2,782.7,764.8,783.1,764.2,783.1z"/>
<path class="st15" d="M390.2,807.1h45.2c4.4,0,8-2.2,8-5V699.2c0-2.8-4.9-6.9-8-5c-12.4,7.7-45.2,30.1-45.2,30.1
	c-2.4,1.5-8,4.5-8,9.8v68C382.2,804.8,385.8,807.1,390.2,807.1z"/>
<path class="st14" d="M407.2,750.4H395c-0.5,0-1-0.5-1-1v-10.7c0-0.6,0.5-1,1-1h12.2c0.5,0,1,0.4,1,1v10.7
	C408.2,749.9,407.8,750.4,407.2,750.4z"/>
<path class="st14" d="M432,763h-12.2c-0.6,0-1-0.5-1-1v-10.7c0-0.5,0.4-1,1-1H432c0.5,0,1,0.5,1,1V762C433,762.5,432.6,763,432,763z
	"/>
<path class="st14" d="M407.2,783.5H395c-0.5,0-1-0.5-1-1v-10.7c0-0.5,0.5-1,1-1h12.2c0.5,0,1,0.5,1,1v10.7
	C408.2,783.1,407.8,783.5,407.2,783.5z"/>
<path class="st16" d="M957.3,807.1h-96.7c-2.8,0-5-2.2-5-5v-54.6c0-2.8,2.2-5,5-5h96.7c2.8,0,5,2.2,5,5v54.6
	C962.3,804.8,960.1,807.1,957.3,807.1z"/>
<line class="st13" x1="882.6" y1="756.5" x2="891.3" y2="756.5"/>
<line class="st13" x1="867.8" y1="756.5" x2="876.6" y2="756.5"/>
<line class="st13" x1="912" y1="756.5" x2="920.7" y2="756.5"/>
<line class="st13" x1="897.3" y1="756.5" x2="906" y2="756.5"/>
<line class="st13" x1="941.4" y1="756.5" x2="950.1" y2="756.5"/>
<line class="st13" x1="867.8" y1="773" x2="950.1" y2="773"/>
<line class="st13" x1="926.7" y1="756.5" x2="935.4" y2="756.5"/>
<line class="st13" x1="882.6" y1="789.5" x2="891.3" y2="789.5"/>
<line class="st13" x1="867.8" y1="789.5" x2="876.6" y2="789.5"/>
<line class="st13" x1="912" y1="789.5" x2="920.7" y2="789.5"/>
<line class="st13" x1="897.3" y1="789.5" x2="906" y2="789.5"/>
<line class="st13" x1="941.4" y1="789.5" x2="950.1" y2="789.5"/>
<line class="st13" x1="926.7" y1="789.5" x2="935.4" y2="789.5"/>
<line class="st6" x1="542.2" y1="634.3" x2="610.5" y2="634.3"/>
<g>
	<line class="st6" x1="284.4" y1="707.9" x2="279.7" y2="703.3"/>
	<line class="st6" x1="270.2" y1="693.8" x2="274.9" y2="698.4"/>
	<line class="st6" x1="284.4" y1="693.8" x2="279.7" y2="698.4"/>
	<line class="st6" x1="270.2" y1="707.9" x2="274.9" y2="703.3"/>
</g>
<line class="st6" x1="836.8" y1="633.2" x2="859" y2="633.2"/>
<path class="st17" d="M377,807.1h-38.7c-2.8,0-5-2.2-5-5v-95.6c0-2.8,2.2-5,5-5H377c2.8,0,5,2.2,5,5v95.6
	C382,804.8,379.7,807.1,377,807.1z"/>
<path class="st18" d="M328.3,806.9h-73.6c-2.8,0-5-2.2-5-5v-49.4c0-2.8,2.2-5,5-5h73.6c2.8,0,5,2.2,5,5v49.4
	C333.3,804.6,331,806.9,328.3,806.9z"/>
<path class="st4" d="M967.3,807.1c-2.8,0-5-2.2-5-5v-87.4c0-2.8,2.2-5,5-5h59.1v-10.5c0-2.8,5-6.9,8.1-5
	c12.6,7.7,45.8,30.1,45.8,30.1c2.5,1.5,8.1,4.5,8.1,9.8v68c0,2.8-3.7,5-8.1,5L967.3,807.1L967.3,807.1z"/>
<path class="st14" d="M1060.4,769.5h-12.2c-0.5,0-1-0.5-1-1v-10.7c0-0.5,0.5-1,1-1h12.2c0.6,0,1,0.5,1,1v10.7
	C1061.4,769.1,1061,769.5,1060.4,769.5z"/>
<path class="st14" d="M1060.4,748h-12.2c-0.5,0-1-0.4-1-1v-10.7c0-0.5,0.5-1,1-1h12.2c0.6,0,1,0.5,1,1V747
	C1061.4,747.5,1061,748,1060.4,748z"/>
<path class="st14" d="M1060.4,791.6h-12.2c-0.5,0-1-0.5-1-1v-10.7c0-0.5,0.5-1,1-1h12.2c0.6,0,1,0.5,1,1v10.7
	C1061.4,791.2,1061,791.6,1060.4,791.6z"/>
<path class="st14" d="M1027.2,777.5H976c-0.5,0-1-0.5-1-1v-8.4c0-0.6,0.5-1,1-1h51.2c0.5,0,1,0.4,1,1v8.4
	C1028.2,777,1027.7,777.5,1027.2,777.5z"/>
<path class="st14" d="M1027.2,755.5H976c-0.5,0-1-0.5-1-1v-8.4c0-0.5,0.5-1,1-1h51.2c0.5,0,1,0.5,1,1v8.4
	C1028.2,755.1,1027.7,755.5,1027.2,755.5z"/>
<path class="st14" d="M1027.2,733.6H976c-0.5,0-1-0.5-1-1v-8.4c0-0.5,0.5-1,1-1h51.2c0.5,0,1,0.5,1,1v8.4
	C1028.2,733.2,1027.7,733.6,1027.2,733.6z"/>
<g>
	<line class="st6" x1="365.3" y1="674.1" x2="358.8" y2="667.7"/>
	<line class="st6" x1="345.7" y1="654.6" x2="352.2" y2="660.9"/>
	<line class="st6" x1="365.3" y1="654.6" x2="358.8" y2="660.9"/>
	<line class="st6" x1="345.7" y1="674.1" x2="352.2" y2="667.7"/>
</g>
<line class="st6" x1="170.5" y1="626" x2="192.7" y2="626"/>
<line class="st6" x1="89.7" y1="468.3" x2="117.1" y2="468.3"/>
<g>
	<line class="st6" x1="160.2" y1="740.3" x2="91" y2="740.3"/>
	<line class="st6" x1="160.2" y1="755.8" x2="141.4" y2="755.8"/>
	<line class="st6" x1="125.5" y1="755.8" x2="115.5" y2="755.8"/>
	<line class="st6" x1="102.6" y1="755.8" x2="91" y2="755.8"/>
	<line class="st6" x1="160.2" y1="724.8" x2="120.6" y2="724.8"/>
	<line class="st6" x1="106.8" y1="724.8" x2="91" y2="724.8"/>
</g>
<g>
	
		<ellipse transform="matrix(0.9951 -9.853774e-02 9.853774e-02 0.9951 -54.8258 27.5209)" cx="251.2" cy="568.8" rx="6.4" ry="6.4"/>
</g>
<g>
	<line class="st6" x1="694.7" y1="625.4" x2="690" y2="620.8"/>
	<line class="st6" x1="680.5" y1="611.3" x2="685.2" y2="615.9"/>
	<line class="st6" x1="694.7" y1="611.3" x2="690" y2="615.9"/>
	<line class="st6" x1="680.5" y1="625.4" x2="685.2" y2="620.8"/>
</g>
<g>
	<circle cx="1041.2" cy="625.1" r="16.3"/>
</g>
<circle class="st18" cx="1145" cy="693.9" r="47.7"/>
<line class="st6" x1="1059.3" y1="633.2" x2="1084.4" y2="633.2"/>
<g>
	<circle cx="985.7" cy="588.6" r="6.7"/>
</g>
<g>
	<line class="st6" x1="264.4" y1="524.3" x2="259.9" y2="520"/>
	<line class="st6" x1="250.9" y1="511" x2="255.4" y2="515.3"/>
	<line class="st6" x1="264.4" y1="511" x2="259.9" y2="515.3"/>
	<line class="st6" x1="250.9" y1="524.3" x2="255.4" y2="520"/>
</g>
<g>
	<line class="st6" x1="1083.5" y1="588.7" x2="1078.8" y2="584.1"/>
	<line class="st6" x1="1069.3" y1="574.6" x2="1074" y2="579.2"/>
	<line class="st6" x1="1083.5" y1="574.6" x2="1078.8" y2="579.2"/>
	<line class="st6" x1="1069.3" y1="588.7" x2="1074" y2="584.1"/>
</g>
<g>
	<circle cx="744.5" cy="667.7" r="10.9"/>
</g>
<g>
	<line class="st6" x1="1214.5" y1="742.3" x2="1209.8" y2="737.7"/>
	<line class="st6" x1="1200.3" y1="728.2" x2="1205" y2="732.8"/>
	<line class="st6" x1="1214.5" y1="728.2" x2="1209.8" y2="732.8"/>
	<line class="st6" x1="1200.3" y1="742.3" x2="1205" y2="737.7"/>
</g>
<g>
	<line class="st6" x1="344.6" y1="716.2" x2="369.3" y2="716.2"/>
	<line class="st6" x1="344.6" y1="731.4" x2="369.3" y2="731.4"/>
	<line class="st6" x1="344.6" y1="746.5" x2="369.3" y2="746.5"/>
</g>
<line class="st6" x1="344.6" y1="762" x2="369.3" y2="762"/>
<line class="st6" x1="344.6" y1="777.2" x2="369.3" y2="777.2"/>
<line class="st13" x1="272.9" y1="787.2" x2="281.7" y2="787.2"/>
<line class="st13" x1="258.2" y1="787.2" x2="267" y2="787.2"/>
<line class="st13" x1="302.3" y1="787.2" x2="311.1" y2="787.2"/>
<line class="st13" x1="287.6" y1="787.2" x2="296.4" y2="787.2"/>
<line class="st13" x1="317" y1="787.2" x2="325.8" y2="787.2"/>
<path class="st14" d="M322.3,771.1H261c-0.6,0-1-0.5-1-1v-10.7c0-0.5,0.4-1,1-1h61.3c0.5,0,1,0.5,1,1v10.7
	C323.3,770.7,322.9,771.1,322.3,771.1z"/>
<line class="st6" x1="172.7" y1="500.6" x2="190.6" y2="500.6"/>
<polyline class="st19" points="897,726.7 897,625.1 1047.3,625.1 "/>
<polyline class="st20" points="230.6,777.5 193.5,777.5 193.5,752.8 "/>
<polyline class="st19" points="412.8,678.6 412.8,618.3 306.7,618.3 "/>
<polyline class="st19" points="744.5,691.9 744.5,667.7 687.6,667.7 687.6,701.5 "/>
<g>
	<line class="st6" x1="247.9" y1="153.3" x2="239.9" y2="145.4"/>
	<line class="st6" x1="223.8" y1="129.3" x2="231.8" y2="137.1"/>
	<line class="st6" x1="247.9" y1="129.3" x2="239.9" y2="137.1"/>
	<line class="st6" x1="223.8" y1="153.3" x2="231.8" y2="145.4"/>
</g>
<line class="st6" x1="217.9" y1="331.4" x2="235.8" y2="331.4"/>
<g>
	<line class="st6" x1="134.4" y1="279.7" x2="126.4" y2="271.9"/>
	<line class="st6" x1="110.2" y1="255.7" x2="118.2" y2="263.5"/>
	<line class="st6" x1="134.4" y1="255.7" x2="126.4" y2="263.5"/>
	<line class="st6" x1="110.2" y1="279.7" x2="118.2" y2="271.9"/>
</g>
<g>
	<line class="st6" x1="303.5" y1="269" x2="298.8" y2="264.4"/>
	<line class="st6" x1="289.3" y1="254.9" x2="294" y2="259.5"/>
	<line class="st6" x1="303.5" y1="254.9" x2="298.8" y2="259.5"/>
	<line class="st6" x1="289.3" y1="269" x2="294" y2="264.4"/>
</g>
<g>
	<line class="st6" x1="107.6" y1="104.6" x2="102.9" y2="100.5"/>
	<line class="st6" x1="93.4" y1="92.2" x2="98.1" y2="96.2"/>
	<line class="st6" x1="107.6" y1="92.2" x2="102.9" y2="96.2"/>
	<line class="st6" x1="93.4" y1="104.6" x2="98.1" y2="100.5"/>
</g>
<g>
	<circle cx="147" cy="395.2" r="6.7"/>
</g>
<g>
	<circle cx="214.9" cy="229.6" r="6.7"/>
</g>
<line class="st6" x1="125.9" y1="177.5" x2="134.9" y2="177.5"/>
<line class="st6" x1="262.5" y1="427.6" x2="271.4" y2="427.6"/>
<line class="st6" x1="1054.4" y1="520" x2="1082.8" y2="520"/>
<g>
	<circle cx="325.8" cy="513.3" r="11.2"/>
</g>
<g>
	<g>
		<circle class="st21" cx="368.1" cy="784" r="8.6"/>
	</g>
	<line class="st22" x1="368.1" y1="808.3" x2="368.1" y2="792.6"/>
</g>
<g>
	<g>
		<circle class="st21" cx="396.3" cy="784.1" r="8.6"/>
	</g>
	<line class="st22" x1="396.3" y1="808.4" x2="396.3" y2="792.7"/>
</g>
<g>
	<g>
		
			<ellipse transform="matrix(0.9999 -1.020296e-02 1.020296e-02 0.9999 -7.9446 1.0557)" class="st21" cx="99.5" cy="779.2" rx="8.6" ry="8.6"/>
	</g>
	<line class="st22" x1="99.5" y1="807.1" x2="99.5" y2="787.8"/>
</g>
<g>
	<g>
		<circle class="st21" cx="163.2" cy="787.8" r="8.6"/>
	</g>
	<line class="st22" x1="163.2" y1="806.1" x2="163.2" y2="796.4"/>
</g>
<g>
	<g>
		<circle class="st21" cx="641.1" cy="787.8" r="8.6"/>
	</g>
	<line class="st22" x1="641.1" y1="806.1" x2="641.1" y2="796.4"/>
</g>
<g>
	<g>
		<circle class="st21" cx="663.2" cy="784.1" r="8.6"/>
	</g>
	<line class="st22" x1="663.2" y1="808.4" x2="663.2" y2="792.7"/>
</g>
<g>
	<g>
		<circle class="st21" cx="779.3" cy="784.1" r="8.6"/>
	</g>
	<line class="st22" x1="779.3" y1="808.4" x2="779.3" y2="792.7"/>
</g>
<g>
	<g>
		<circle class="st21" cx="277.3" cy="784" r="8.6"/>
	</g>
	<line class="st22" x1="277.3" y1="808.3" x2="277.3" y2="792.6"/>
</g>
<g>
	<g>
		<circle class="st21" cx="985.7" cy="787.8" r="8.6"/>
	</g>
	<line class="st22" x1="985.7" y1="806.1" x2="985.7" y2="796.4"/>
</g>
<g>
	<g>
		<circle class="st21" cx="1028.2" cy="784.1" r="8.6"/>
	</g>
	<line class="st22" x1="1028.2" y1="808.4" x2="1028.2" y2="792.7"/>
</g>
<g>
	<g>
		<circle class="st21" cx="1198.8" cy="781.7" r="8.6"/>
	</g>
	<line class="st22" x1="1198.8" y1="806" x2="1198.8" y2="790.3"/>
</g>
<g>
	<g>
		<circle class="st21" cx="1132.1" cy="787.8" r="8.6"/>
	</g>
	<line class="st22" x1="1132.1" y1="806.1" x2="1132.1" y2="796.4"/>
</g>
<line class="st6" x1="325.8" y1="110.5" x2="334.8" y2="110.5"/>
<rect y="803.5" class="st23" width="1295.4" height="25.8"/>
<line class="st6" x1="1189.6" y1="470.6" x2="1162.2" y2="470.6"/>
<g>
	<line class="st6" x1="1057.4" y1="143.6" x2="1049.4" y2="151.4"/>
	<line class="st6" x1="1065.5" y1="135.2" x2="1073.5" y2="127.4"/>
	<line class="st6" x1="1057.4" y1="135.2" x2="1049.4" y2="127.4"/>
	<line class="st6" x1="1065.5" y1="143.6" x2="1073.5" y2="151.4"/>
</g>
<line class="st6" x1="1043.4" y1="333.7" x2="1025.5" y2="333.7"/>
<g>
	<line class="st6" x1="1152.9" y1="274.2" x2="1144.9" y2="282"/>
	<line class="st6" x1="1161.1" y1="265.8" x2="1169.1" y2="258"/>
	<line class="st6" x1="1152.9" y1="265.8" x2="1144.9" y2="258"/>
	<line class="st6" x1="1161.1" y1="274.2" x2="1169.1" y2="282"/>
</g>
<g>
	<line class="st6" x1="983.3" y1="238.7" x2="978.6" y2="243.3"/>
	<line class="st6" x1="988.1" y1="233.8" x2="992.8" y2="229.2"/>
	<line class="st6" x1="983.3" y1="233.8" x2="978.6" y2="229.2"/>
	<line class="st6" x1="988.1" y1="238.7" x2="992.8" y2="243.3"/>
</g>
<g>
	<line class="st6" x1="1173.5" y1="119.3" x2="1168.8" y2="123.9"/>
	<line class="st6" x1="1178.3" y1="114.4" x2="1183" y2="109.8"/>
	<line class="st6" x1="1173.5" y1="114.4" x2="1168.8" y2="109.8"/>
	<line class="st6" x1="1178.3" y1="119.3" x2="1183" y2="123.9"/>
</g>
<g>
	<circle cx="1132.3" cy="397.5" r="6.7"/>
</g>
<g>
	<circle cx="1064.3" cy="231.9" r="6.7"/>
</g>
<line class="st6" x1="1153.4" y1="179.8" x2="1144.4" y2="179.8"/>
<line class="st6" x1="1016.8" y1="429.9" x2="1007.8" y2="429.9"/>
<line class="st6" x1="970" y1="107.5" x2="961" y2="107.5"/>
<g>
	<circle cx="356.9" cy="177.5" r="6.7"/>
</g>
<g>
	<circle cx="906" cy="155.6" r="6.7"/>
</g>
<g>
	<line class="st6" x1="440.1" y1="110.8" x2="435.4" y2="106.2"/>
	<line class="st6" x1="425.9" y1="96.7" x2="430.6" y2="101.3"/>
	<line class="st6" x1="440.1" y1="96.7" x2="435.4" y2="101.3"/>
	<line class="st6" x1="425.9" y1="110.8" x2="430.6" y2="106.2"/>
</g>
<line class="st6" x1="833.9" y1="96.7" x2="825" y2="96.7"/>
<g>
	<circle cx="1265" cy="678.2" r="6.7"/>
</g>
<line class="st6" x1="1262.8" y1="511" x2="1253.8" y2="511"/>
<g>
	<line class="st6" x1="1251.4" y1="364" x2="1246.7" y2="368.6"/>
	<line class="st6" x1="1256.2" y1="359.1" x2="1260.9" y2="354.5"/>
	<line class="st6" x1="1251.4" y1="359.1" x2="1246.7" y2="354.5"/>
	<line class="st6" x1="1256.2" y1="364" x2="1260.9" y2="368.6"/>
</g>
<line class="st6" x1="1246.7" y1="211.8" x2="1228.8" y2="211.8"/>
<g>
	<circle cx="1258.3" cy="101.3" r="11.2"/>
</g>
<g>
	<circle cx="36.9" cy="732.8" r="6.7"/>
</g>
<line class="st6" x1="48.3" y1="553" x2="39.3" y2="553"/>
<g>
	<line class="st6" x1="36.9" y1="406" x2="32.2" y2="410.6"/>
	<line class="st6" x1="41.7" y1="401.1" x2="46.4" y2="396.5"/>
	<line class="st6" x1="36.9" y1="401.1" x2="32.2" y2="396.5"/>
	<line class="st6" x1="41.7" y1="406" x2="46.4" y2="410.6"/>
</g>
<line class="st6" x1="32.2" y1="253.8" x2="14.3" y2="253.8"/>
<g>
	<circle cx="43.8" cy="143.3" r="11.2"/>
</g>
</svg>
