<?xml version="1.0" encoding="utf-8"?>
<!-- Generator: Adobe Illustrator 22.0.0, SVG Export Plug-In . SVG Version: 6.00 Build 0)  -->
<svg version="1.1" id="Layer_1" xmlns="http://www.w3.org/2000/svg" xmlns:xlink="http://www.w3.org/1999/xlink" x="0px" y="0px"
	 viewBox="0 0 765 285" style="enable-background:new 0 0 765 285;" xml:space="preserve">
<style type="text/css">
	.st0{fill:none;}
	.st1{fill:none;stroke:#000000;stroke-width:8.5039;stroke-linecap:round;stroke-miterlimit:10;}
	.st2{fill:url(#SVGID_1_);}
	.st3{fill:none;stroke:#000000;stroke-width:4.252;stroke-linecap:round;stroke-linejoin:round;stroke-miterlimit:10;}
	.st4{fill:#93278F;}
	.st5{fill:#71D331;}
	.st6{fill:url(#SVGID_2_);}
	.st7{fill:none;stroke:#000000;stroke-width:4.252;stroke-linecap:round;stroke-miterlimit:10;}
	.st8{fill:#FFD409;stroke:#000000;stroke-width:5.6693;stroke-miterlimit:10;}
	.st9{fill:#FF5570;stroke:#000000;stroke-width:5.6693;stroke-miterlimit:10;}
	.st10{fill:#29ABE2;}
	.st11{fill:#FFFFFF;}
	.st12{fill:#00A99D;stroke:#000000;stroke-width:4.252;stroke-miterlimit:10;}
	.st13{fill:#29ABE2;stroke:#000000;stroke-width:4.252;stroke-miterlimit:10;}
	.st14{fill:#F7931E;stroke:#000000;stroke-width:4.252;stroke-miterlimit:10;}
	.st15{fill:#FF3A79;stroke:#000000;stroke-width:5.6693;stroke-linecap:round;stroke-miterlimit:10;}
	.st16{fill:#FCEE21;stroke:#000000;stroke-width:4.252;stroke-miterlimit:10;}
	.st17{fill:none;stroke:#000000;stroke-width:4.252;stroke-miterlimit:10;}
	.st18{fill:#00CAAC;stroke:#000000;stroke-width:5.6693;stroke-miterlimit:10;}
	.st19{fill:#009245;}
	.st20{fill:none;stroke:#000000;stroke-width:5.6693;stroke-miterlimit:10;}
</style>
<pattern  y="285" width="50" height="50" patternUnits="userSpaceOnUse" id="SVGID_3_" viewBox="89.5 -139.5 50 50" style="overflow:visible;">
	<g>
		<rect x="89.5" y="-139.5" class="st0" width="50" height="50"/>
		<g>
			<rect x="89.5" y="-139.5" class="st0" width="50" height="50"/>
			<g>
				<rect x="89.5" y="-139.5" class="st0" width="50" height="50"/>
				<g>
					<rect x="89.5" y="-139.5" class="st0" width="50" height="50"/>
					<g>
						<rect x="89.5" y="-139.5" class="st0" width="50" height="50"/>
						<line class="st1" x1="224.8" y1="-124.8" x2="104.3" y2="-4.3"/>
						<line class="st1" x1="174.8" y1="-124.8" x2="54.3" y2="-4.3"/>
						<line class="st1" x1="124.8" y1="-124.8" x2="4.3" y2="-4.3"/>
						<line class="st1" x1="224.8" y1="-174.8" x2="104.3" y2="-54.3"/>
						<line class="st1" x1="174.8" y1="-174.8" x2="54.3" y2="-54.3"/>
						<line class="st1" x1="124.8" y1="-174.8" x2="4.3" y2="-54.3"/>
						<line class="st1" x1="224.8" y1="-224.8" x2="104.3" y2="-104.3"/>
						<line class="st1" x1="174.8" y1="-224.8" x2="54.3" y2="-104.3"/>
						<line class="st1" x1="124.8" y1="-224.8" x2="4.3" y2="-104.3"/>
					</g>
				</g>
			</g>
		</g>
	</g>
</pattern>
<pattern  y="285" width="49.5" height="33" patternUnits="userSpaceOnUse" id="SVGID_4_" viewBox="10.5 -43.5 49.5 33" style="overflow:visible;">
	<g>
		<rect x="10.5" y="-43.5" class="st0" width="49.5" height="33"/>
		<g>
			<rect x="10.5" y="-43.5" class="st0" width="49.5" height="33"/>
			<g>
				<rect x="10.5" y="-43.5" class="st0" width="49.5" height="33"/>
				<g>
					<rect x="10.5" y="-43.5" class="st0" width="49.5" height="33"/>
					<g>
						<rect x="10.5" y="-43.5" class="st0" width="49.5" height="33"/>
						<g>
							<circle cx="60" cy="-10.5" r="10"/>
							<path d="M60-20c-5.2,0-9.5,4.3-9.5,9.5S54.8-1,60-1s9.5-4.3,9.5-9.5S65.2-20,60-20 M60-21c5.8,0,10.5,4.7,10.5,10.5
								S65.8,0,60,0S49.5-4.7,49.5-10.5S54.2-21,60-21L60-21z"/>
						</g>
						<g>
							<circle cx="10.5" cy="-10.5" r="10"/>
							<path d="M10.5-20C5.3-20,1-15.7,1-10.5S5.3-1,10.5-1S20-5.3,20-10.5S15.7-20,10.5-20 M10.5-21C16.3-21,21-16.3,21-10.5
								S16.3,0,10.5,0S0-4.7,0-10.5S4.7-21,10.5-21L10.5-21z"/>
						</g>
						<g>
							<circle cx="60" cy="-43.5" r="10"/>
							<path d="M60-53c-5.2,0-9.5,4.3-9.5,9.5S54.8-34,60-34s9.5-4.3,9.5-9.5S65.2-53,60-53 M60-54c5.8,0,10.5,4.7,10.5,10.5
								S65.8-33,60-33s-10.5-4.7-10.5-10.5S54.2-54,60-54L60-54z"/>
						</g>
						<g>
							<circle cx="35.2" cy="-27" r="10"/>
							<path d="M35.2-36.5c-5.2,0-9.5,4.3-9.5,9.5s4.3,9.5,9.5,9.5s9.5-4.3,9.5-9.5S40.5-36.5,35.2-36.5 M35.2-37.5
								c5.8,0,10.5,4.7,10.5,10.5S41-16.5,35.2-16.5S24.8-21.2,24.8-27S29.5-37.5,35.2-37.5L35.2-37.5z"/>
						</g>
						<g>
							<circle cx="10.5" cy="-43.5" r="10"/>
							<path d="M10.5-53C5.3-53,1-48.7,1-43.5S5.3-34,10.5-34s9.5-4.3,9.5-9.5S15.7-53,10.5-53 M10.5-54C16.3-54,21-49.3,21-43.5
								S16.3-33,10.5-33S0-37.7,0-43.5S4.7-54,10.5-54L10.5-54z"/>
						</g>
					</g>
				</g>
			</g>
		</g>
	</g>
</pattern>
<g>
	<pattern  id="SVGID_1_" xlink:href="#SVGID_3_" patternTransform="matrix(1.0451 0 0 1.0451 873.2946 35139.2617)">
	</pattern>
	<circle class="st2" cx="689.2" cy="143.4" r="73.6"/>
	<path d="M689.2,72.1c39.3,0,71.3,32,71.3,71.3s-32,71.3-71.3,71.3s-71.3-32-71.3-71.3S649.9,72.1,689.2,72.1 M689.2,67.6
		c-41.8,0-75.8,34-75.8,75.8s34,75.8,75.8,75.8s75.8-34,75.8-75.8S731,67.6,689.2,67.6L689.2,67.6z"/>
</g>
<g>
	<circle cx="45.5" cy="93.2" r="8.8"/>
	<path d="M45.5,86.8c3.6,0,6.5,2.9,6.5,6.5s-2.9,6.5-6.5,6.5S39,96.9,39,93.3C39,89.7,41.9,86.8,45.5,86.8 M45.5,82.3
		c-6.1,0-11,4.9-11,11s4.9,11,11,11s11-4.9,11-11S51.5,82.3,45.5,82.3L45.5,82.3z"/>
</g>
<g>
	<circle cx="736.3" cy="252.1" r="8.8"/>
	<path d="M736.3,245.6c3.6,0,6.5,2.9,6.5,6.5s-2.9,6.5-6.5,6.5s-6.5-2.9-6.5-6.5S732.7,245.6,736.3,245.6 M736.3,241.1
		c-6.1,0-11,4.9-11,11s4.9,11,11,11s11-4.9,11-11S742.3,241.1,736.3,241.1L736.3,241.1z"/>
</g>
<line class="st3" x1="108.7" y1="207.7" x2="178.7" y2="76.5"/>
<line class="st3" x1="279.6" y1="191.5" x2="178.7" y2="76.5"/>
<g>
	<polygon class="st4" points="148,92.8 176.5,44.9 205,92.8 	"/>
	<path d="M176.5,49.2l24.6,41.3H152L176.5,49.2 M176.5,40.5L144.1,95h64.8L176.5,40.5L176.5,40.5z"/>
</g>
<line class="st3" x1="279.6" y1="191.5" x2="444.7" y2="91.2"/>
<g>
	<circle class="st5" cx="108.7" cy="207.7" r="67.8"/>
	<path d="M108.7,142.2c36.2,0,65.5,29.4,65.5,65.5s-29.4,65.5-65.5,65.5s-65.5-29.4-65.5-65.5S72.5,142.2,108.7,142.2 M108.7,137.7
		c-38.7,0-70,31.4-70,70s31.4,70,70,70s70-31.4,70-70S147.4,137.7,108.7,137.7L108.7,137.7z"/>
</g>
<g>
	<pattern  id="SVGID_2_" xlink:href="#SVGID_4_" patternTransform="matrix(0.9079 0 0 0.9079 -4026.2 29034.2402)">
	</pattern>
	<circle class="st6" cx="44.9" cy="200.4" r="42.7"/>
	<path d="M44.9,159.9c22.4,0,40.4,18.2,40.4,40.4s-18.1,40.4-40.4,40.4s-40.4-18-40.4-40.3S22.6,159.9,44.9,159.9 M44.9,155.4
		c-24.7,0-44.9,20.2-44.9,45s20.2,44.9,44.9,44.9s44.9-20.2,44.9-44.9S69.7,155.4,44.9,155.4L44.9,155.4z"/>
</g>
<g>
	<circle cx="553.4" cy="129.2" r="2.4"/>
	<path d="M553.4,127.8c0.8,0,1.4,0.7,1.4,1.4c0,0.8-0.7,1.4-1.4,1.4c-0.8,0-1.4-0.7-1.4-1.4S552.6,127.8,553.4,127.8 M553.4,126
		c-1.8,0-3.3,1.5-3.3,3.3s1.5,3.3,3.3,3.3s3.3-1.5,3.3-3.3S555.2,126,553.4,126L553.4,126z"/>
</g>
<g>
	<circle cx="187.6" cy="133.2" r="2.8"/>
	<path d="M187.6,131.5c1,0,1.7,0.8,1.7,1.7s-0.8,1.7-1.7,1.7s-1.7-0.8-1.7-1.7S186.6,131.5,187.6,131.5 M187.6,129.2
		c-2.2,0-3.9,1.8-3.9,3.9c0,2.2,1.8,3.9,3.9,3.9c2.2,0,3.9-1.8,3.9-3.9C191.6,131,189.8,129.2,187.6,129.2L187.6,129.2z"/>
</g>
<line class="st7" x1="444.7" y1="91.2" x2="632.8" y2="91.2"/>
<g>
	<circle class="st8" cx="280.1" cy="193" r="38.6"/>
	<path d="M280.1,156.8c20.1,0,36.3,16.3,36.3,36.3s-16.3,36.3-36.3,36.3s-36.3-16.3-36.3-36.3S260,156.8,280.1,156.8 M280.1,152.3
		c-22.5,0-40.8,18.3-40.8,40.8s18.3,40.8,40.8,40.8s40.8-18.3,40.8-40.8S302.6,152.3,280.1,152.3L280.1,152.3z"/>
</g>
<g>
	<circle class="st9" cx="633.3" cy="87.5" r="48"/>
	<path d="M633.3,41.8c25.2,0,45.7,20.5,45.7,45.7s-20.5,45.7-45.7,45.7s-45.7-20.5-45.7-45.7S608.1,41.8,633.3,41.8 M633.3,37.3
		c-27.7,0-50.2,22.5-50.2,50.2s22.5,50.2,50.2,50.2s50.2-22.5,50.2-50.2S661,37.3,633.3,37.3L633.3,37.3z"/>
</g>
<g>
	<rect x="421.3" y="67.7" class="st10" width="45.7" height="45.7"/>
	<path d="M464.7,70v41.3h-41.3V70H464.7 M469.2,65.5H419v50.2h50.2V65.5L469.2,65.5z"/>
</g>
<g>
	<circle cx="583.1" cy="184.9" r="13.5"/>
	<path d="M583.1,173.7c6.2,0,11.2,5,11.2,11.2s-5,11.2-11.2,11.2s-11.2-5-11.2-11.2S576.9,173.7,583.1,173.7 M583.1,169.2
		c-8.7,0-15.7,7-15.7,15.7s7,15.7,15.7,15.7s15.7-7,15.7-15.7C598.7,176.2,591.7,169.2,583.1,169.2L583.1,169.2z"/>
</g>
<g>
	<circle cx="105" cy="46.2" r="13"/>
	<path d="M105,35.6c6,0,10.7,4.8,10.7,10.7S110.9,57,105,57s-10.7-4.8-10.7-10.7S99.1,35.6,105,35.6 M105,31.1
		c-8.4,0-15.2,6.8-15.2,15.2s6.8,15.2,15.2,15.2s15.2-6.8,15.2-15.2S113.4,31.1,105,31.1L105,31.1z"/>
</g>
<g>
	<circle cx="260.8" cy="256.6" r="9.3"/>
	<path d="M260.8,249.6c3.9,0,7,3.1,7,7s-3.1,7-7,7s-7-3.1-7-7S256.9,249.6,260.8,249.6 M260.8,245.1c-6.4,0-11.5,5.1-11.5,11.5
		s5.1,11.5,11.5,11.5s11.5-5.1,11.5-11.5S267.2,245.1,260.8,245.1L260.8,245.1z"/>
</g>
<g>
	<g>
		<path class="st11" d="M407,44.9c-1.9,3.3-1.4,5.1-0.5,8.1s1.9,6.7,0.7,12.6c-1.2,6-3.8,8.4-6,10.3c-2.1,2-3.5,3.2-3,8.1
			c1.2,11.6,3.5,18.3,13.2,22.6c4.1,1.7,10.8,1.5,17.4,1.3c11.1-0.4,22.5-0.9,26.1,7.7c5.1,11.8,3.4,24.3-0.9,29.9
			c-2.6,3.4-2,15.7,3.5,24.5c2.8,4.5,6.8,6.5,11.1,8.5c3.6,1.8,7.4,3.6,10.1,6.9c1.7,2.1,2.9,3.2,3.7,3.9c2.2,2,2.7,2.9,3.4,7.7
			c4.4-2.7,15.9-18.3,15.9-25.9c0-7-6.5-18-10.8-25.2c-1.5-2.6-2.8-4.8-3.6-6.5c-3.2-6.5-6.5-30.3-3.5-36.8c0.7-1.7,1.9-2.2,2.7-2.5
			c2.6-0.6,10.3-7.9,15.5-13.2c-14.8-27.5-40.1-48.6-70.4-58l0,0C426,31.3,410.3,38.9,407,44.9z"/>
		<path class="st10" d="M504.4,91.3c-3.8,3.9-11.9,11.8-16.2,13.2c-1.9,3.2-0.1,26.1,3.4,33c0.7,1.6,2,3.7,3.5,6.2
			c4.8,8.1,11.4,19.2,11.4,27.5c0,9.1-14.5,30.4-20.9,30.8c-0.1,0-0.2,0-0.2,0c-1.5,0-3.2-0.9-3.6-3.5c-0.6-4.5-0.6-4.5-2-5.8
			c-0.9-0.9-2.2-2-4.2-4.4c-2.2-2.7-5.3-4.2-8.6-5.9c-4.5-2.1-9.5-4.7-12.9-10.2c-5.9-9.4-7.5-24-3.3-29.7c3-3.9,5-14.4,0.3-25.4
			c-2.5-5.7-12.3-5.3-21.9-4.9c-7.4,0.3-14.3,0.5-19.3-1.6c-12.9-5.5-14.9-15.6-16-26.2c-0.7-7.1,2-9.7,4.5-11.9
			c1.9-1.8,3.7-3.4,4.6-7.9c1-4.8,0.1-7.7-0.6-10.5c-1-3.3-1.9-6.7,1-11.6c3.2-6,14.8-12.3,21.8-15.5c-9.3-2.3-19.1-3.5-29.1-3.5
			c-41.8,0-78.7,21.3-100.4,53.8c0,1.5,0.6,5.3,6.9,7.5c3.6,1.2,6.4,1.4,8.6,1.6c3.4,0.3,6.8,0.5,7.8,5.4c0.3,1.5,1.7,3.5,3,5.4
			c2.8,4.2,6.6,9.8,1.5,13.9c-3.2,2.6-5.9,4.3-8.5,6c-1.9,1.2-3.6,2.3-5.3,3.6c-1.6,1.2-3.4,1.7-5,2.2c-3.6,1.2-5.8,1.8-5.8,7.7
			c0,10.2,3.3,23.4,3.3,23.5l0.4,1.6l-1.5,0.9c-0.1,0.1-9.8,5.9-12.9,7.9c-1.2,0.7-2.7,1.4-4.4,2.1c-1.7,0.7-5.2,2.2-5.8,3.2
			c6.3,28.9,22.9,54,45.8,71.1c1.4-7.1,3.1-19.5,0.2-24.5c-3.7-6.5-4.8-18.6-2.3-24.4c1.1-2.6,2.7-3.4,3.7-3.6
			c0.6-0.2,1.6-0.4,2.8-0.7c10.3-2.9,21.8-5.7,26.8-3.6c5.2,2.1,9,11.4,11.7,18.2c0.7,1.8,1.4,3.3,1.8,4.4
			c1.5,3,12.8,12.2,19.6,17.3c0.7,0.5,1.1,1.5,0.9,2.3c0,0-1,4.2,0,9.2c0.9,4.2,6.4,11.2,8.5,13.7c0.7,1,0.7,2.2-0.1,3.1l-12.8,12.5
			c3.7,0.3,7.5,0.5,11.2,0.5c66.6,0,120.6-54.1,120.6-120.6C516.7,125.2,512.2,107.2,504.4,91.3z"/>
		<path class="st11" d="M285.6,160.6c2.5-1.7,8.9-5.4,11.6-7.3c-1-3.9-3.1-14.2-3.1-22.9c0-9.2,5.2-10.8,9-11.9
			c1.4-0.4,2.7-0.9,3.6-1.6c1.9-1.4,3.7-2.6,5.7-3.8c2.6-1.6,5.2-3.3,8.2-5.8c1.6-1.3,0.5-3.3-2.5-7.8c-1.6-2.3-3.2-4.8-3.7-7.1
			c-0.3-1.4-0.3-1.5-3.7-1.8c-2.3-0.2-5.5-0.4-9.7-1.8c-4.7-1.6-7.4-4.2-8.7-6.7c-10.9,18.1-17.1,39.3-17.1,61.9
			c0,7,0.6,13.9,1.8,20.6c1.5-1,3.3-1.7,4.9-2.3C283.4,161.8,284.9,161.1,285.6,160.6z"/>
		<path class="st11" d="M384.7,235.9c-0.9-4.2-0.5-7.7-0.2-9.6c-4.7-3.5-17.7-13.7-19.8-18c-0.5-1.2-1.2-2.8-2-4.7
			c-2-5-5.8-14.3-9.3-15.7c-4.1-1.6-18.5,2.3-23.9,3.8c-1.2,0.3-2.2,0.6-2.9,0.7c-0.1,0-0.5,0.5-1,1.8c-1.5,4.7-0.7,14.3,2.3,19.7
			c4.3,7.5,1.1,24.2-0.1,29.7c14.9,10.2,32.3,17.3,51.1,19.9l14-13.5C390.5,247,385.7,240.6,384.7,235.9z"/>
		<path d="M395.9,18.9c-69,0-125.2,56.2-125.2,125.2c0,8.9,1,17.5,2.7,25.9c0,0.3,0.1,0.7,0.2,1.1c6.8,30.9,25.1,57.5,50.1,75.2
			c0.1,0.1,0.2,0.2,0.4,0.3c16,11.2,34.8,18.9,55,21.5c0.1,0,0.1,0,0.2,0c5.4,0.7,10.9,1.1,16.5,1.1c69,0,125.2-56.2,125.2-125.2
			C521.2,75,465,18.9,395.9,18.9z M395.9,264.8c-3.8,0-7.6-0.2-11.2-0.5l12.8-12.5c0.9-0.9,1-2.2,0.1-3.1c-2.1-2.3-7.7-9.5-8.5-13.7
			c-1-5,0-9.2,0-9.2c0.2-0.9-0.1-1.8-0.9-2.3c-6.8-5.1-18.1-14.3-19.6-17.3c-0.5-1-1.1-2.6-1.8-4.4c-2.8-6.8-6.5-16.1-11.7-18.2
			c-5.1-2-16.5,0.9-26.8,3.6c-1.2,0.3-2.1,0.5-2.8,0.7c-1.1,0.3-2.7,1.2-3.7,3.6c-2.6,5.9-1.4,18,2.3,24.4
			c2.8,4.9,1.2,17.3-0.2,24.5c-22.9-17.2-39.6-42.2-45.8-71.1c0.5-1,4.1-2.5,5.8-3.2c1.7-0.7,3.3-1.4,4.4-2.1
			c3.1-2,12.8-7.9,12.9-7.9l1.5-0.9l-0.4-1.6c0-0.1-3.3-13.2-3.3-23.5c0-5.9,2.1-6.5,5.8-7.7c1.6-0.5,3.4-1.1,5-2.2
			c1.7-1.3,3.5-2.5,5.3-3.6c2.7-1.7,5.3-3.4,8.5-6c5-4.1,1.3-9.7-1.5-13.9c-1.3-1.9-2.7-4.1-3-5.4c-1-4.9-4.5-5.1-7.8-5.4
			c-2.2-0.2-5-0.4-8.6-1.6c-6.3-2.1-6.9-6-6.9-7.5C317.5,44.4,354.4,23,396.2,23c10,0,19.7,1.3,29.1,3.5c-6.9,3.3-18.6,9.5-22,15.6
			c-2.9,5-1.9,8.4-1,11.6c0.9,2.8,1.6,5.7,0.6,10.5c-0.9,4.5-2.7,6.2-4.6,7.9c-2.5,2.2-5.1,4.7-4.5,11.9c1.1,10.7,3.1,20.7,16,26.2
			c5,2.1,11.9,1.9,19.3,1.6c9.5-0.3,19.4-0.7,21.9,4.9c4.7,11,2.7,21.4-0.3,25.4c-4.2,5.5-2.6,20.3,3.3,29.7
			c3.5,5.5,8.5,8,12.9,10.2c3.3,1.6,6.5,3.2,8.6,5.9c1.9,2.3,3.3,3.6,4.2,4.4c1.4,1.3,1.4,1.3,2,5.8c0.3,2.6,2.1,3.5,3.6,3.5
			c0.1,0,0.2,0,0.2,0c6.5-0.4,20.9-21.8,20.9-30.8c0-8.3-6.6-19.4-11.4-27.5c-1.5-2.5-2.8-4.6-3.5-6.2c-3.4-6.9-5.3-29.8-3.4-33
			c4.3-1.4,12.4-9.3,16.2-13.2c7.8,16,12.3,33.9,12.3,52.9C516.7,210.6,462.5,264.8,395.9,264.8z M327.9,243.7
			c1.2-5.4,4.4-22.2,0.1-29.7c-3.1-5.4-3.8-15-2.3-19.7c0.4-1.3,0.9-1.7,1-1.8c0.6-0.2,1.7-0.4,2.9-0.7c5.4-1.5,19.8-5.4,23.9-3.8
			c3.4,1.4,7.3,10.7,9.3,15.7c0.7,1.9,1.4,3.5,2,4.7c2.1,4.3,15.1,14.5,19.8,18c-0.3,1.9-0.5,5.5,0.2,9.6c1,4.7,5.7,11.1,8.1,14.1
			l-14,13.5C360.2,260.9,342.8,253.9,327.9,243.7z M275.3,144.2c0-22.6,6.3-43.7,17.1-61.9c1.4,2.6,4.1,5.1,8.7,6.7
			c4.2,1.4,7.4,1.6,9.7,1.8c3.4,0.3,3.4,0.3,3.7,1.8c0.4,2.3,2.1,4.8,3.7,7.1c3,4.5,4.1,6.5,2.5,7.8c-3,2.3-5.7,4.1-8.2,5.8
			c-1.9,1.3-3.7,2.5-5.7,3.8c-1,0.7-2.2,1.2-3.6,1.6c-3.8,1.2-9,2.8-9,11.9c0,8.7,2.1,19,3.1,22.9c-2.9,1.7-9.2,5.5-11.6,7.3
			c-0.7,0.5-2.2,1.2-3.6,1.7c-1.6,0.6-3.4,1.4-4.9,2.3C275.9,158,275.3,151.1,275.3,144.2z M502.3,87c-5.1,5.3-12.9,12.6-15.5,13.2
			c-0.9,0.2-1.9,0.7-2.7,2.5c-3,6.5,0.2,30.3,3.5,36.8c0.9,1.7,2.1,3.9,3.6,6.5c4.3,7.3,10.8,18.1,10.8,25.2
			c0,7.6-11.5,23.3-15.9,25.9c-0.7-4.8-1.2-5.7-3.4-7.7c-0.9-0.7-2-1.8-3.7-3.9c-2.8-3.4-6.5-5.2-10.1-6.9
			c-4.3-2.1-8.3-4.1-11.1-8.5c-5.4-8.7-6.1-21.1-3.5-24.5c4.2-5.7,6-18,0.9-29.9c-3.6-8.5-15.1-8.1-26.1-7.7
			c-6.5,0.2-13.3,0.5-17.4-1.3c-9.7-4.2-12.1-10.9-13.2-22.6c-0.5-4.9,0.9-6.1,3-8.1c2.1-1.9,4.8-4.4,6-10.3s0.1-9.6-0.7-12.6
			c-0.9-3-1.4-4.8,0.5-8.1c3.4-6,19.1-13.5,24.9-16l0,0C462.2,38.4,487.3,59.5,502.3,87z"/>
	</g>
	<circle class="st12" cx="293.3" cy="80.4" r="9.6"/>
	<line class="st7" x1="293.3" y1="113.4" x2="293.3" y2="90"/>
	<circle class="st13" cx="488.5" cy="148.7" r="9.6"/>
	<line class="st7" x1="488.5" y1="181.7" x2="488.5" y2="158.3"/>
	<circle class="st14" cx="449" cy="32.4" r="9.6"/>
	<line class="st7" x1="449" y1="65.4" x2="449" y2="42"/>
	<circle class="st15" cx="340.2" cy="184.9" r="9.6"/>
	<line class="st7" x1="340.2" y1="218" x2="340.2" y2="194.5"/>
	<circle class="st16" cx="377.6" cy="224.4" r="9.6"/>
	<line class="st7" x1="377.6" y1="257.5" x2="377.6" y2="234"/>
	<path class="st17" d="M274.1,123.1c-71.5-108.8,6.4-154.7,163.2-36.3"/>
	<path class="st17" d="M476.8,119.8c94.9,82.1,99.2,183.5-29.9,136.5"/>
	<circle class="st18" cx="457" cy="102.2" r="26.1"/>
	<polygon class="st14" points="248.7,27.3 235.3,33.6 234.1,48.3 246.2,56.7 259.6,50.4 260.8,35.7 	"/>
	<g>
		<polygon class="st19" points="491.4,274.4 502.1,256.6 512.6,274.4 		"/>
		<path d="M502.1,261l6.6,11.1h-13.2L502.1,261 M502.1,252.1l-14.6,24.5h29.2L502.1,252.1L502.1,252.1z"/>
	</g>
</g>
<g>
	<line class="st20" x1="110.6" y1="113.6" x2="103.1" y2="106.2"/>
	<line class="st20" x1="87.8" y1="90.8" x2="95.3" y2="98.2"/>
	<line class="st20" x1="110.6" y1="90.8" x2="103.1" y2="98.2"/>
	<line class="st20" x1="87.8" y1="113.6" x2="95.3" y2="106.2"/>
</g>
<g>
	<line class="st20" x1="729.2" y1="48.8" x2="721.6" y2="41.3"/>
	<line class="st20" x1="706.3" y1="26" x2="713.9" y2="33.4"/>
	<line class="st20" x1="729.2" y1="26" x2="721.6" y2="33.4"/>
	<line class="st20" x1="706.3" y1="48.8" x2="713.9" y2="41.3"/>
</g>
<g>
	<line class="st20" x1="640.4" y1="258.7" x2="631.5" y2="250"/>
	<line class="st20" x1="613.4" y1="231.9" x2="622.3" y2="240.6"/>
	<line class="st20" x1="640.4" y1="231.9" x2="631.5" y2="240.6"/>
	<line class="st20" x1="613.4" y1="258.7" x2="622.3" y2="250"/>
</g>
<g>
	<line class="st20" x1="220.3" y1="193.8" x2="212.8" y2="186.5"/>
	<line class="st20" x1="197.7" y1="171.4" x2="205.2" y2="178.7"/>
	<line class="st20" x1="220.3" y1="171.4" x2="212.8" y2="178.7"/>
	<line class="st20" x1="197.7" y1="193.8" x2="205.2" y2="186.5"/>
</g>
<g>
	<line class="st20" x1="513.7" y1="37.4" x2="508.7" y2="32.5"/>
	<line class="st20" x1="498.6" y1="22.4" x2="503.6" y2="27.3"/>
	<line class="st20" x1="513.7" y1="22.4" x2="508.7" y2="27.3"/>
	<line class="st20" x1="498.6" y1="37.4" x2="503.6" y2="32.5"/>
</g>
<g>
	<line class="st20" x1="42" y1="34.8" x2="37" y2="29.9"/>
	<line class="st20" x1="27" y1="19.8" x2="32" y2="24.7"/>
	<line class="st20" x1="42" y1="19.8" x2="37" y2="24.7"/>
	<line class="st20" x1="27" y1="34.8" x2="32" y2="29.9"/>
</g>
<g>
	<line class="st20" x1="120.2" y1="244" x2="216.5" y2="244"/>
	<line class="st20" x1="120.2" y1="227" x2="146.4" y2="227"/>
	<line class="st20" x1="168.4" y1="227" x2="182.4" y2="227"/>
	<line class="st20" x1="200.4" y1="227" x2="216.5" y2="227"/>
	<line class="st20" x1="120.2" y1="261" x2="175.3" y2="261"/>
	<line class="st20" x1="194.5" y1="261" x2="216.5" y2="261"/>
</g>
<g>
	<line class="st20" x1="617.8" y1="49.3" x2="538.8" y2="49.3"/>
	<line class="st20" x1="617.8" y1="64.7" x2="596.3" y2="64.7"/>
	<line class="st20" x1="578.2" y1="64.7" x2="566.8" y2="64.7"/>
	<line class="st20" x1="552" y1="64.7" x2="538.8" y2="64.7"/>
	<line class="st20" x1="617.8" y1="33.7" x2="572.5" y2="33.7"/>
	<line class="st20" x1="556.8" y1="33.7" x2="538.8" y2="33.7"/>
</g>
<g>
	<circle cx="197.7" cy="24.9" r="2.4"/>
	<path d="M197.7,23.4c0.8,0,1.4,0.7,1.4,1.4c0,0.8-0.7,1.4-1.4,1.4c-0.8,0-1.4-0.7-1.4-1.4S196.9,23.4,197.7,23.4 M197.7,21.6
		c-1.8,0-3.3,1.5-3.3,3.3s1.5,3.3,3.3,3.3s3.3-1.5,3.3-3.3S199.5,21.6,197.7,21.6L197.7,21.6z"/>
</g>
</svg>
