<?xml version="1.0" encoding="utf-8"?>
<!-- Generator: Adobe Illustrator 22.0.0, SVG Export Plug-In . SVG Version: 6.00 Build 0)  -->
<svg version="1.1" id="Layer_3" xmlns="http://www.w3.org/2000/svg" xmlns:xlink="http://www.w3.org/1999/xlink" x="0px" y="0px"
	 viewBox="0 0 765 285" style="enable-background:new 0 0 765 285;" xml:space="preserve">
<style type="text/css">
	.st0{fill:none;}
	.st1{fill:none;stroke:#000000;stroke-width:8.5039;stroke-linecap:round;stroke-miterlimit:10;}
	.st2{fill:none;stroke:#000000;stroke-width:5.6693;stroke-linecap:round;stroke-linejoin:round;stroke-miterlimit:10;}
	.st3{fill:#00CAAC;}
	.st4{fill:url(#SVGID_1_);stroke:#000000;stroke-width:5.6693;stroke-linecap:round;stroke-miterlimit:10;}
	.st5{fill:url(#SVGID_2_);stroke:#000000;stroke-width:5.6693;stroke-linecap:round;stroke-linejoin:round;stroke-miterlimit:10;}
	.st6{fill:#662D91;stroke:#000000;stroke-width:5.6693;stroke-linecap:round;stroke-miterlimit:10;}
	.st7{fill:#FFFFFF;stroke:#FFFFFF;stroke-width:5.6693;stroke-miterlimit:10;}
	.st8{fill:none;stroke:#000000;stroke-width:5.6693;stroke-linecap:round;stroke-miterlimit:10;}
	.st9{fill:none;stroke:#000000;stroke-width:5.6693;stroke-miterlimit:10;}
	.st10{fill:none;stroke:#000000;stroke-width:5.6693;stroke-linejoin:round;stroke-miterlimit:10;}
	.st11{fill:#FFFFFF;}
	.st12{fill:#FFD409;stroke:#000000;stroke-width:5.6693;stroke-miterlimit:10;}
	.st13{fill:none;stroke:#000000;stroke-width:5.6693;stroke-linejoin:round;stroke-miterlimit:10;stroke-dasharray:11.3386;}
	.st14{fill:#FF5570;stroke:#000000;stroke-width:5.6693;stroke-miterlimit:10;}
	.st15{fill:#93278F;}
	.st16{fill:#09CDFF;stroke:#000000;stroke-width:5.6693;stroke-linecap:round;stroke-linejoin:round;stroke-miterlimit:10;}
</style>
<pattern  y="285" width="49.5" height="33" patternUnits="userSpaceOnUse" id="SVGID_3_" viewBox="10.5 -43.5 49.5 33" style="overflow:visible;">
	<g>
		<rect x="10.5" y="-43.5" class="st0" width="49.5" height="33"/>
		<g>
			<rect x="10.5" y="-43.5" class="st0" width="49.5" height="33"/>
			<g>
				<rect x="10.5" y="-43.5" class="st0" width="49.5" height="33"/>
				<g>
					<circle cx="60" cy="-10.5" r="10"/>
					<path d="M60-20c-5.2,0-9.5,4.3-9.5,9.5S54.8-1,60-1s9.5-4.3,9.5-9.5S65.2-20,60-20 M60-21c5.8,0,10.5,4.7,10.5,10.5
						S65.8,0,60,0S49.5-4.7,49.5-10.5S54.2-21,60-21L60-21z"/>
				</g>
				<g>
					<circle cx="10.5" cy="-10.5" r="10"/>
					<path d="M10.5-20C5.3-20,1-15.7,1-10.5S5.3-1,10.5-1S20-5.3,20-10.5S15.7-20,10.5-20 M10.5-21C16.3-21,21-16.3,21-10.5
						S16.3,0,10.5,0S0-4.7,0-10.5S4.7-21,10.5-21L10.5-21z"/>
				</g>
				<g>
					<circle cx="60" cy="-43.5" r="10"/>
					<path d="M60-53c-5.2,0-9.5,4.3-9.5,9.5S54.8-34,60-34s9.5-4.3,9.5-9.5S65.2-53,60-53 M60-54c5.8,0,10.5,4.7,10.5,10.5
						S65.8-33,60-33s-10.5-4.7-10.5-10.5S54.2-54,60-54L60-54z"/>
				</g>
				<g>
					<circle cx="35.2" cy="-27" r="10"/>
					<path d="M35.2-36.5c-5.2,0-9.5,4.3-9.5,9.5s4.3,9.5,9.5,9.5s9.5-4.3,9.5-9.5S40.5-36.5,35.2-36.5 M35.2-37.5
						c5.8,0,10.5,4.7,10.5,10.5S41-16.5,35.2-16.5S24.8-21.2,24.8-27S29.5-37.5,35.2-37.5L35.2-37.5z"/>
				</g>
				<g>
					<circle cx="10.5" cy="-43.5" r="10"/>
					<path d="M10.5-53C5.3-53,1-48.7,1-43.5S5.3-34,10.5-34s9.5-4.3,9.5-9.5S15.7-53,10.5-53 M10.5-54C16.3-54,21-49.3,21-43.5
						S16.3-33,10.5-33S0-37.7,0-43.5S4.7-54,10.5-54L10.5-54z"/>
				</g>
			</g>
		</g>
	</g>
</pattern>
<pattern  y="285" width="50" height="50" patternUnits="userSpaceOnUse" id="SVGID_4_" viewBox="89.5 -139.5 50 50" style="overflow:visible;">
	<g>
		<rect x="89.5" y="-139.5" class="st0" width="50" height="50"/>
		<g>
			<rect x="89.5" y="-139.5" class="st0" width="50" height="50"/>
			<g>
				<rect x="89.5" y="-139.5" class="st0" width="50" height="50"/>
				<line class="st1" x1="224.8" y1="-124.8" x2="104.3" y2="-4.3"/>
				<line class="st1" x1="174.8" y1="-124.8" x2="54.3" y2="-4.3"/>
				<line class="st1" x1="124.8" y1="-124.8" x2="4.3" y2="-4.3"/>
				<line class="st1" x1="224.8" y1="-174.8" x2="104.3" y2="-54.3"/>
				<line class="st1" x1="174.8" y1="-174.8" x2="54.3" y2="-54.3"/>
				<line class="st1" x1="124.8" y1="-174.8" x2="4.3" y2="-54.3"/>
				<line class="st1" x1="224.8" y1="-224.8" x2="104.3" y2="-104.3"/>
				<line class="st1" x1="174.8" y1="-224.8" x2="54.3" y2="-104.3"/>
				<line class="st1" x1="124.8" y1="-224.8" x2="4.3" y2="-104.3"/>
			</g>
		</g>
	</g>
</pattern>
<polyline class="st2" points="665,87.7 556.4,217.8 516.6,217.8 "/>
<g>
	<polygon class="st3" points="180.7,126.1 180.7,61.6 236.7,29.4 292.6,61.6 292.6,126.1 236.7,158.5 	"/>
	<path d="M236.7,32.8l52.9,30.5v61.1l-52.9,30.5l-52.9-30.5V63.3L236.7,32.8 M236.7,25.8l-58.9,34v68.1l58.9,34.1l58.9-34.1V59.8
		L236.7,25.8L236.7,25.8z"/>
</g>
<pattern  id="SVGID_1_" xlink:href="#SVGID_3_" patternTransform="matrix(1.0752 0 0 1.0752 1094.4796 17777.9551)">
</pattern>
<circle class="st4" cx="597.3" cy="46.3" r="40.9"/>
<pattern  id="SVGID_2_" xlink:href="#SVGID_4_" patternTransform="matrix(0.8004 0 0 0.8004 -5422.6113 11110.168)">
</pattern>
<circle class="st5" cx="493.5" cy="217.3" r="53.2"/>
<circle class="st6" cx="665.5" cy="81.3" r="57.5"/>
<g>
	<rect x="259.6" y="63.1" class="st7" width="86.1" height="60.2"/>
	<path class="st7" d="M237,203h10.8c6.6,0,11.8-5.3,11.8-11.8v-89.3c0-6.6-5.3-11.8-11.8-11.8H237c-6.6,0-11.8,5.3-11.8,11.8v89.3
		C225.2,197.7,230.4,203,237,203z"/>
	<path class="st7" d="M347.8,203h-92.6c-6.6,0-11.8-5.3-11.8-11.8v-55.9c0-6.6,5.3-11.8,11.8-11.8h92.6c6.6,0,11.8,5.3,11.8,11.8
		v55.9C359.7,197.7,354.3,203,347.8,203z"/>
	<line class="st8" x1="269.9" y1="79.6" x2="334.7" y2="79.6"/>
	<line class="st8" x1="269.9" y1="92.9" x2="334.7" y2="92.9"/>
	<g>
		<path class="st9" d="M255.2,87.1c0,0-18.7,0-22.8,0s-9.4,4-9.4,11.4s0,90.3,0,97.1c0,6.7,3.3,10.8,9.4,10.8c0.9,0,4,0,8.7,0
			c26.9,0,105.4,0,111.1,0c6.7,0,10.8-2,10.8-8.1c0-6,0-58.9,0-64.3s-2-10-10.8-10c-8.7,0-91.7,0-96.3,0L255.2,87.1z"/>
		<path class="st9" d="M255.8,124c-8.7,0-12,2.7-12,10v72.3"/>
		<rect x="255.8" y="61.1" class="st10" width="94.4" height="62.9"/>
		<line class="st8" x1="269.9" y1="105.3" x2="334.7" y2="105.3"/>
		<g>
			<g>
				<path class="st11" d="M390.9,236H357c-7.1,0-12.9-5.8-12.9-12.9v-25.5c0-7.1,5.8-12.9,12.9-12.9h33.9c7.1,0,12.9,5.8,12.9,12.9
					v25.5C403.8,230.2,398,236,390.9,236z"/>
			</g>
			<path class="st9" d="M382.6,204.1c0-4.3-3.4-7.7-7.7-7.7c-4.3,0-7.7,3.4-7.7,7.7c0,2.7,1.3,4.9,3.3,6.3v5.7
				c0,2.4,1.9,4.4,4.4,4.4h0.6c2.4,0,4.4-1.9,4.4-4.4v-6c0-0.1,0-0.1,0-0.2C381.6,208.5,382.6,206.3,382.6,204.1z"/>
			<path class="st11" d="M352.5,182.8v-19.6l3.8-5.6l5.6-2.8l6.6-1.8h9.4l9.4,1.8l6.6,1.8l1.8,6.6v8.4v9.4l-9.4,1v-6.6l-1-7.4
				l-2.8-4.6c0,0-7.4-1.8-8.4-1.8s-6.6,1.8-6.6,1.8l-4.6,6.6l1,7.4v5.6h-11.3v-0.2H352.5z"/>
			<path d="M397.9,181.8c0.2-4.4,0.8-14.7-0.2-18.9c-1.9-9.2-9.5-13.7-23.7-13.7s-21.7,4.3-23.7,13.7c-0.9,4.2-0.4,14.3-0.2,18.8
				c-5.5,1.7-9.5,6.9-9.5,12.8v30.9c0,7.4,6,13.4,13.4,13.4h39c7.4,0,13.4-6,13.4-13.4v-30.9C407,188.6,403.2,183.6,397.9,181.8z
				 M355.6,163.9c1-4.7,4-9.5,18.6-9.5s17.6,4.8,18.6,9.5c0.6,3.2,0.3,11.9,0.1,17.1h-5.1c0.1-3.2,0.3-8.8-0.1-11.3
				c-1.1-6.3-5.4-9.6-13-9.6s-12,3.2-13,9.6c-0.4,2.5-0.2,8.1-0.1,11.3h-5.9C355.2,175.9,354.9,167.1,355.6,163.9z M366.6,181.1
				c-0.1-3.3-0.2-8.5,0.1-10.4c0.4-2.6,1.4-5.3,8-5.3s7.5,2.7,8,5.3c0.3,1.9,0.2,7.1,0.1,10.4H366.6z M401.8,225.4
				c0,4.6-3.8,8.3-8.3,8.3h-39c-4.6,0-8.3-3.8-8.3-8.3v-30.9c0-4.6,3.8-8.3,8.3-8.3h39c4.6,0,8.3,3.8,8.3,8.3V225.4z"/>
		</g>
	</g>
</g>
<polyline class="st10" points="78.3,87.1 151.1,182.7 151.1,250.1 291.9,250.1 "/>
<polygon class="st12" points="162.9,229.7 139.2,229.7 127.5,250.1 139.2,270.5 162.9,270.5 174.6,250.1 "/>
<polyline class="st13" points="0.9,230.7 78.3,230.9 78.3,152.8 "/>
<g>
	<circle cx="77.4" cy="226.3" r="10.6"/>
	<path d="M77.4,219.1c4,0,7.3,3.3,7.3,7.3c0,4-3.3,7.3-7.3,7.3c-4,0-7.3-3.3-7.3-7.3C70.3,222.3,73.4,219.1,77.4,219.1 M77.4,212.6
		c-7.7,0-13.8,6.1-13.8,13.8c0,7.7,6.1,13.8,13.8,13.8c7.7,0,13.8-6.1,13.8-13.8C91.2,218.7,85.1,212.6,77.4,212.6L77.4,212.6z"/>
</g>
<g>
	<circle cx="196.1" cy="213.7" r="3.1"/>
	<path d="M196.1,213c0.4,0,0.8,0.3,0.8,0.8c0,0.4-0.3,0.8-0.8,0.8s-0.8-0.3-0.8-0.8C195.4,213.3,195.7,213,196.1,213 M196.1,208.3
		c-3,0-5.4,2.4-5.4,5.4s2.4,5.4,5.4,5.4s5.4-2.4,5.4-5.4S199.1,208.3,196.1,208.3L196.1,208.3z"/>
</g>
<circle class="st14" cx="77.4" cy="90" r="51.6"/>
<g>
	<polygon class="st15" points="271.2,268.3 291.9,233.4 312.7,268.3 	"/>
	<path d="M291.9,237.9l16.7,28.1h-33.3L291.9,237.9 M291.9,228.9l-24.7,41.6h49.5L291.9,228.9L291.9,228.9z"/>
</g>
<polyline class="st13" points="762.7,247.9 668.2,247.9 668.2,149.3 "/>
<circle class="st16" cx="550.5" cy="217.3" r="33.9"/>
<polyline class="st10" points="475.8,167.3 456.4,111.4 381.2,111.4 "/>
<g>
	<circle cx="428" cy="36.2" r="14.4"/>
	<path d="M428,24.2c6.7,0,12,5.4,12,12s-5.4,12-12,12s-12-5.4-12-12S421.3,24.2,428,24.2 M428,19.5c-9.2,0-16.7,7.4-16.7,16.7
		s7.4,16.7,16.7,16.7s16.7-7.4,16.7-16.7S437.3,19.5,428,19.5L428,19.5z"/>
</g>
<g>
	<circle cx="374.2" cy="72.2" r="4.7"/>
	<path d="M374.2,69.8c1.3,0,2.4,1.1,2.4,2.4s-1.1,2.4-2.4,2.4s-2.4-1.1-2.4-2.4C371.8,70.9,372.9,69.8,374.2,69.8 M374.2,65.2
		c-3.9,0-7,3.1-7,7s3.1,7,7,7s7-3.1,7-7S378,65.2,374.2,65.2L374.2,65.2z"/>
</g>
<g>
	<circle cx="668.2" cy="247.9" r="14.9"/>
	<path d="M668.2,235.4c7,0,12.6,5.7,12.6,12.6c0,6.9-5.7,12.6-12.6,12.6s-12.6-5.7-12.6-12.6S661.2,235.4,668.2,235.4 M668.2,230.7
		c-9.5,0-17.2,7.7-17.2,17.2s7.7,17.2,17.2,17.2s17.2-7.7,17.2-17.2S677.7,230.7,668.2,230.7L668.2,230.7z"/>
</g>
<g>
	<circle cx="613.9" cy="220.5" r="3.7"/>
	<path d="M613.9,219.2c0.8,0,1.3,0.6,1.3,1.3s-0.6,1.3-1.3,1.3c-0.6,0-1.3-0.6-1.3-1.3S613.2,219.2,613.9,219.2 M613.9,214.6
		c-3.2,0-5.9,2.7-5.9,5.9s2.7,5.9,5.9,5.9s5.9-2.7,5.9-5.9C619.9,217.3,617.2,214.6,613.9,214.6L613.9,214.6z"/>
</g>
<g>
	<circle cx="514.4" cy="138.8" r="2.6"/>
	<path d="M514.4,138.6c0.1,0,0.2,0.1,0.2,0.2c0,0.1-0.1,0.2-0.2,0.2s-0.2-0.1-0.2-0.2C514.2,138.7,514.3,138.6,514.4,138.6
		 M514.4,134c-2.7,0-4.8,2.2-4.8,4.8s2.2,4.8,4.8,4.8c2.6,0,4.8-2.2,4.8-4.8S517,134,514.4,134L514.4,134z"/>
</g>
<g>
	<circle cx="735.2" cy="149.3" r="6.9"/>
	<path d="M735.2,144.8c2.5,0,4.5,2,4.5,4.5s-2,4.5-4.5,4.5s-4.5-2-4.5-4.5S732.8,144.8,735.2,144.8 M735.2,140.1
		c-5.1,0-9.1,4.1-9.1,9.1s4.1,9.1,9.1,9.1s9.1-4.1,9.1-9.1S740.3,140.1,735.2,140.1L735.2,140.1z"/>
</g>
<g>
	<circle cx="31.5" cy="181.5" r="7.5"/>
	<path d="M31.5,175.5c3.4,0,6.1,2.7,6.1,6.1c0,3.3-2.7,6.1-6.1,6.1s-6.1-2.7-6.1-6.1C25.5,178.2,28.2,175.5,31.5,175.5 M31.5,172.7
		c-4.8,0-8.8,4-8.8,8.8c0,4.8,4,8.8,8.8,8.8s8.8-4,8.8-8.8C40.3,176.7,36.4,172.7,31.5,172.7L31.5,172.7z"/>
</g>
<g>
	<circle cx="146.8" cy="36.1" r="6.3"/>
	<path d="M146.8,32.2c2.3,0,4,1.8,4,4s-1.8,4-4,4s-4-1.8-4-4S144.5,32.2,146.8,32.2 M146.8,27.5c-4.7,0-8.6,3.9-8.6,8.6
		s3.9,8.6,8.6,8.6s8.6-3.9,8.6-8.6S151.5,27.5,146.8,27.5L146.8,27.5z"/>
</g>
<g>
	<line class="st9" x1="523.3" y1="69.8" x2="459" y2="69.8"/>
	<line class="st9" x1="523.3" y1="84.2" x2="505.8" y2="84.2"/>
	<line class="st9" x1="491.1" y1="84.2" x2="481.8" y2="84.2"/>
	<line class="st9" x1="469.8" y1="84.2" x2="459" y2="84.2"/>
	<line class="st9" x1="523.3" y1="55.4" x2="486.5" y2="55.4"/>
	<line class="st9" x1="473.7" y1="55.4" x2="459" y2="55.4"/>
</g>
<g>
	<line class="st9" x1="423.1" y1="268.8" x2="418.4" y2="264.2"/>
	<line class="st9" x1="408.9" y1="254.7" x2="413.6" y2="259.2"/>
	<line class="st9" x1="423.1" y1="254.7" x2="418.4" y2="259.2"/>
	<line class="st9" x1="408.9" y1="268.8" x2="413.6" y2="264.2"/>
</g>
<g>
	<line class="st9" x1="575.3" y1="141.7" x2="568" y2="134.5"/>
	<line class="st9" x1="553.1" y1="119.6" x2="560.4" y2="126.8"/>
	<line class="st9" x1="575.3" y1="119.6" x2="568" y2="126.8"/>
	<line class="st9" x1="553.1" y1="141.7" x2="560.4" y2="134.5"/>
</g>
<g>
	<line class="st9" x1="184.9" y1="172.5" x2="180.2" y2="167.9"/>
	<line class="st9" x1="170.7" y1="158.4" x2="175.4" y2="163"/>
	<line class="st9" x1="184.9" y1="158.4" x2="180.2" y2="163"/>
	<line class="st9" x1="170.7" y1="172.5" x2="175.4" y2="167.9"/>
</g>
<g>
	<line class="st9" x1="102.2" y1="269.8" x2="97.5" y2="265.2"/>
	<line class="st9" x1="88" y1="255.7" x2="92.7" y2="260.3"/>
	<line class="st9" x1="102.2" y1="255.7" x2="97.5" y2="260.3"/>
	<line class="st9" x1="88" y1="269.8" x2="92.7" y2="265.2"/>
</g>
<g>
	<line class="st9" x1="323.8" y1="40.9" x2="316.5" y2="33.6"/>
	<line class="st9" x1="301.6" y1="18.7" x2="308.9" y2="26"/>
	<line class="st9" x1="323.8" y1="18.7" x2="316.5" y2="26"/>
	<line class="st9" x1="301.6" y1="40.9" x2="308.9" y2="33.6"/>
</g>
<g>
	<line class="st9" x1="34.2" y1="31.3" x2="29.5" y2="26.7"/>
	<line class="st9" x1="20" y1="17.2" x2="24.7" y2="21.8"/>
	<line class="st9" x1="34.2" y1="17.2" x2="29.5" y2="21.8"/>
	<line class="st9" x1="20" y1="31.3" x2="24.7" y2="26.7"/>
</g>
<g>
	<line class="st9" x1="744.3" y1="33.4" x2="738.3" y2="27.5"/>
	<line class="st9" x1="726.1" y1="15.3" x2="732.1" y2="21.2"/>
	<line class="st9" x1="744.3" y1="15.3" x2="738.3" y2="21.2"/>
	<line class="st9" x1="726.1" y1="33.4" x2="732.1" y2="27.5"/>
</g>
<g>
	<circle cx="426.5" cy="150.4" r="5.6"/>
	<path d="M426.5,149.9c0.2,0,0.4,0.2,0.4,0.4s-0.2,0.4-0.4,0.4c-0.2,0-0.4-0.2-0.4-0.4S426.3,149.9,426.5,149.9 M426.5,140.1
		c-5.8,0-10.3,4.7-10.3,10.3s4.7,10.3,10.3,10.3c5.6,0,10.3-4.7,10.3-10.3S432.1,140.1,426.5,140.1L426.5,140.1z"/>
</g>
</svg>
