<?xml version="1.0" encoding="utf-8"?>
<!-- Generator: Adobe Illustrator 22.0.0, SVG Export Plug-In . SVG Version: 6.00 Build 0)  -->
<svg version="1.1" id="Layer_3" xmlns="http://www.w3.org/2000/svg" xmlns:xlink="http://www.w3.org/1999/xlink" x="0px" y="0px"
	 viewBox="0 0 765 285" style="enable-background:new 0 0 765 285;" xml:space="preserve">
<style type="text/css">
	.st0{fill:none;}
	.st1{fill:none;stroke:#000000;stroke-width:8.5039;stroke-linecap:round;stroke-miterlimit:10;}
	.st2{fill:#0DBBFF;stroke:#000000;stroke-width:5.6693;stroke-miterlimit:10;}
	.st3{fill:#FF5570;stroke:#000000;stroke-width:5.6693;stroke-miterlimit:10;}
	.st4{fill:none;stroke:#000000;stroke-width:5.6693;stroke-miterlimit:10;}
	.st5{fill:#00CAAC;stroke:#000000;stroke-width:5.6693;stroke-miterlimit:10;}
	.st6{fill:#93278F;stroke:#000000;stroke-width:5.6693;stroke-miterlimit:10;}
	.st7{fill:#FFFFFF;}
	.st8{fill:url(#SVGID_3_);stroke:#000000;stroke-width:5.6693;stroke-linecap:round;stroke-linejoin:round;stroke-miterlimit:10;}
	.st9{fill:#FFFFFF;stroke:#000000;stroke-width:5.6693;stroke-miterlimit:10;}
	.st10{fill:#FFD409;stroke:#000000;stroke-width:5.6693;stroke-miterlimit:10;}
	.st11{fill:url(#SVGID_4_);stroke:#000000;stroke-width:5.6693;stroke-linecap:round;stroke-linejoin:round;stroke-miterlimit:10;}
	.st12{stroke:#000000;stroke-width:8.5039;stroke-miterlimit:10;}
	.st13{fill:none;stroke:#000000;stroke-width:4.252;stroke-miterlimit:10;}
	.st14{fill:none;stroke:#000000;stroke-width:5.6693;stroke-miterlimit:10;stroke-dasharray:11.3386;}
	.st15{stroke:#000000;stroke-width:2.8346;stroke-miterlimit:10;}
</style>
<pattern  y="285" width="50" height="50" patternUnits="userSpaceOnUse" id="SVGID_2_" viewBox="89.5 -139.6 50 50" style="overflow:visible;">
	<g>
		<rect x="89.5" y="-139.6" class="st0" width="50" height="50"/>
		<g>
			<rect x="89.5" y="-139.6" class="st0" width="50" height="50"/>
			<g>
				<rect x="89.5" y="-139.6" class="st0" width="50" height="50"/>
				<g>
					<rect x="89.5" y="-139.6" class="st0" width="50" height="50"/>
					<line class="st1" x1="224.8" y1="-104.3" x2="104.3" y2="-224.8"/>
					<line class="st1" x1="174.8" y1="-104.3" x2="54.3" y2="-224.8"/>
					<line class="st1" x1="124.8" y1="-104.3" x2="4.3" y2="-224.8"/>
					<line class="st1" x1="224.8" y1="-54.3" x2="104.3" y2="-174.8"/>
					<line class="st1" x1="174.8" y1="-54.3" x2="54.3" y2="-174.8"/>
					<line class="st1" x1="124.8" y1="-54.3" x2="4.3" y2="-174.8"/>
					<line class="st1" x1="224.8" y1="-4.3" x2="104.3" y2="-124.8"/>
					<line class="st1" x1="174.8" y1="-4.3" x2="54.3" y2="-124.8"/>
					<line class="st1" x1="124.8" y1="-4.3" x2="4.3" y2="-124.8"/>
				</g>
			</g>
		</g>
	</g>
</pattern>
<circle class="st2" cx="666" cy="167.8" r="68.3"/>
<g>
	<circle cx="70.1" cy="212.5" r="10.6"/>
	<path d="M70.1,205.3c4,0,7.3,3.3,7.3,7.3s-3.3,7.3-7.3,7.3s-7.3-3.3-7.3-7.3C63,208.5,66.1,205.3,70.1,205.3 M70.1,198.8
		c-7.7,0-13.8,6.1-13.8,13.8s6.1,13.8,13.8,13.8s13.8-6.1,13.8-13.8C83.9,204.9,77.8,198.8,70.1,198.8L70.1,198.8z"/>
</g>
<circle class="st3" cx="97.1" cy="94.4" r="85.6"/>
<g>
	<circle cx="456.7" cy="24.2" r="14.4"/>
	<path d="M456.7,12.2c6.7,0,12,5.4,12,12s-5.4,12-12,12s-12-5.4-12-12S450,12.2,456.7,12.2 M456.7,7.5c-9.2,0-16.7,7.4-16.7,16.7
		s7.4,16.7,16.7,16.7s16.7-7.4,16.7-16.7S466,7.5,456.7,7.5L456.7,7.5z"/>
</g>
<g>
	<circle cx="338.2" cy="34.7" r="4.7"/>
	<path d="M338.2,32.3c1.3,0,2.4,1.1,2.4,2.4s-1.1,2.4-2.4,2.4s-2.4-1.1-2.4-2.4C335.8,33.4,336.9,32.3,338.2,32.3 M338.2,27.7
		c-3.9,0-7,3.1-7,7s3.1,7,7,7s7-3.1,7-7S342,27.7,338.2,27.7L338.2,27.7z"/>
</g>
<g>
	<circle cx="732.8" cy="87.2" r="3.7"/>
	<path d="M732.8,85.9c0.8,0,1.3,0.6,1.3,1.3s-0.6,1.3-1.3,1.3c-0.6,0-1.3-0.6-1.3-1.3S732.1,85.9,732.8,85.9 M732.8,81.3
		c-3.2,0-5.9,2.7-5.9,5.9s2.7,5.9,5.9,5.9s5.9-2.7,5.9-5.9C738.8,84,736.1,81.3,732.8,81.3L732.8,81.3z"/>
</g>
<g>
	<ellipse transform="matrix(0.1602 -0.9871 0.9871 0.1602 234.9998 581.6093)" cx="459.3" cy="152.7" rx="2.6" ry="2.6"/>
	<path d="M459.3,152.5c0.1,0,0.2,0.1,0.2,0.2c0,0.1-0.1,0.2-0.2,0.2s-0.2-0.1-0.2-0.2C459.1,152.6,459.2,152.5,459.3,152.5
		 M459.3,147.9c-2.7,0-4.8,2.2-4.8,4.8s2.2,4.8,4.8,4.8s4.8-2.2,4.8-4.8S461.9,147.9,459.3,147.9L459.3,147.9z"/>
</g>
<g>
	<circle cx="747" cy="264.7" r="6.9"/>
	<path d="M747,260.2c2.5,0,4.5,2,4.5,4.5s-2,4.5-4.5,4.5s-4.5-2-4.5-4.5S744.6,260.2,747,260.2 M747,255.5c-5.1,0-9.1,4.1-9.1,9.1
		s4.1,9.1,9.1,9.1s9.1-4.1,9.1-9.1S752.1,255.5,747,255.5L747,255.5z"/>
</g>
<g>
	<circle cx="25.4" cy="182.3" r="7.5"/>
	<path d="M25.4,176.3c3.4,0,6.1,2.7,6.1,6.1c0,3.3-2.7,6.1-6.1,6.1s-6.1-2.7-6.1-6.1C19.4,179,22.1,176.3,25.4,176.3 M25.4,173.5
		c-4.8,0-8.8,4-8.8,8.8s4,8.8,8.8,8.8s8.8-4,8.8-8.8S30.3,173.5,25.4,173.5L25.4,173.5z"/>
</g>
<g>
	<circle cx="298.4" cy="244.6" r="6.3"/>
	<path d="M298.4,240.8c2.3,0,4,1.8,4,4c0,2.2-1.8,4-4,4c-2.2,0-4-1.8-4-4C294.4,242.5,296.1,240.8,298.4,240.8 M298.4,236
		c-4.7,0-8.6,3.9-8.6,8.6s3.9,8.6,8.6,8.6s8.6-3.9,8.6-8.6S303.1,236,298.4,236L298.4,236z"/>
</g>
<g>
	<line class="st4" x1="0.1" y1="113.7" x2="84.7" y2="113.7"/>
	<line class="st4" x1="0.1" y1="94.7" x2="23.1" y2="94.7"/>
	<line class="st4" x1="42.4" y1="94.7" x2="54.7" y2="94.7"/>
	<line class="st4" x1="70.5" y1="94.7" x2="84.7" y2="94.7"/>
	<line class="st4" x1="0.1" y1="132.7" x2="48.5" y2="132.7"/>
	<line class="st4" x1="65.3" y1="132.7" x2="84.7" y2="132.7"/>
</g>
<g>
	<line class="st4" x1="523.4" y1="261.7" x2="518.7" y2="257.1"/>
	<line class="st4" x1="509.2" y1="247.6" x2="513.9" y2="252.1"/>
	<line class="st4" x1="523.4" y1="247.6" x2="518.7" y2="252.1"/>
	<line class="st4" x1="509.2" y1="261.7" x2="513.9" y2="257.1"/>
</g>
<g>
	<line class="st4" x1="554.5" y1="43.9" x2="547.2" y2="36.7"/>
	<line class="st4" x1="532.3" y1="21.8" x2="539.6" y2="29"/>
	<line class="st4" x1="554.5" y1="21.8" x2="547.2" y2="29"/>
	<line class="st4" x1="532.3" y1="43.9" x2="539.6" y2="36.7"/>
</g>
<g>
	<line class="st4" x1="90.2" y1="267.3" x2="85.5" y2="262.8"/>
	<line class="st4" x1="76" y1="253.2" x2="80.7" y2="257.8"/>
	<line class="st4" x1="90.2" y1="253.2" x2="85.5" y2="257.8"/>
	<line class="st4" x1="76" y1="267.3" x2="80.7" y2="262.8"/>
</g>
<g>
	<line class="st4" x1="277.9" y1="59.9" x2="270.6" y2="52.6"/>
	<line class="st4" x1="255.7" y1="37.7" x2="263" y2="45"/>
	<line class="st4" x1="277.9" y1="37.7" x2="270.6" y2="45"/>
	<line class="st4" x1="255.7" y1="59.9" x2="263" y2="52.6"/>
</g>
<g>
	<line class="st4" x1="26.4" y1="28.1" x2="21.7" y2="23.6"/>
	<line class="st4" x1="12.2" y1="14.1" x2="16.9" y2="18.6"/>
	<line class="st4" x1="26.4" y1="14.1" x2="21.7" y2="18.6"/>
	<line class="st4" x1="12.2" y1="28.1" x2="16.9" y2="23.6"/>
</g>
<g>
	<circle cx="277.1" cy="137.7" r="5.6"/>
	<path d="M277.1,137.2c0.2,0,0.4,0.2,0.4,0.4s-0.2,0.4-0.4,0.4c-0.2,0-0.4-0.2-0.4-0.4S276.9,137.2,277.1,137.2 M277.1,127.4
		c-5.8,0-10.3,4.7-10.3,10.3s4.7,10.3,10.3,10.3c5.6,0,10.3-4.7,10.3-10.3S282.7,127.4,277.1,127.4L277.1,127.4z"/>
</g>
<g>
	<polygon class="st5" points="125.6,228.4 125.6,156.4 188.1,120.5 250.5,156.4 250.5,228.4 188.1,264.6 	"/>
</g>
<g>
	<polygon class="st6" points="338.2,260.3 397.1,122.9 456.3,260.3 	"/>
</g>
<g>
	<circle class="st7" cx="188.1" cy="99.5" r="50.8"/>
	
		<pattern  id="SVGID_3_" xlink:href="#SVGID_2_" patternTransform="matrix(-0.8001 -2.155087e-02 -2.155087e-02 0.8001 -8846.5449 9643.0547)">
	</pattern>
	<circle class="st8" cx="188.1" cy="99.5" r="53.2"/>
</g>
<g>
	<circle class="st7" cx="397.3" cy="99.5" r="50.8"/>
	<circle class="st9" cx="397.3" cy="99.5" r="53.2"/>
</g>
<path class="st10" d="M613,260.6h-37.6c-6.6,0-12-5.4-12-12V132.5c0-6.6,5.4-12,12-12H613c6.6,0,12,5.4,12,12v116.1
	C625,255.2,619.6,260.6,613,260.6z"/>
<g>
	<circle class="st7" cx="594.2" cy="102" r="50.8"/>
	<pattern  id="SVGID_4_" xlink:href="#SVGID_2_" patternTransform="matrix(-0.5719 -0.56 -0.56 0.5719 -20701.7715 4117.8228)">
	</pattern>
	<circle class="st11" cx="594.2" cy="102" r="53.2"/>
</g>
<g>
	<line class="st12" x1="285.1" y1="182.3" x2="324.2" y2="182.3"/>
	<line class="st12" x1="285.1" y1="202.8" x2="324.2" y2="202.8"/>
</g>
<g>
	<line class="st12" x1="476.7" y1="182.3" x2="515.7" y2="182.3"/>
	<line class="st12" x1="476.7" y1="202.8" x2="515.7" y2="202.8"/>
</g>
<g>
	<line class="st13" x1="694.8" y1="36.2" x2="651" y2="36.2"/>
	<line class="st13" x1="694.8" y1="46" x2="682.8" y2="46"/>
	<line class="st13" x1="672.8" y1="46" x2="666.5" y2="46"/>
	<line class="st13" x1="658.3" y1="46" x2="651" y2="46"/>
	<line class="st13" x1="694.8" y1="26.4" x2="669.7" y2="26.4"/>
	<line class="st13" x1="661" y1="26.4" x2="651" y2="26.4"/>
</g>
<line class="st14" x1="267.1" y1="99.5" x2="323.5" y2="99.5"/>
<line class="st14" x1="468" y1="99.5" x2="524.4" y2="99.5"/>
<g>
	<line class="st4" x1="742.3" y1="48.7" x2="737.6" y2="44.1"/>
	<line class="st4" x1="728.1" y1="34.6" x2="732.8" y2="39.1"/>
	<line class="st4" x1="742.3" y1="34.6" x2="737.6" y2="39.1"/>
	<line class="st4" x1="728.1" y1="48.7" x2="732.8" y2="44.1"/>
</g>
<g>
	<line class="st4" x1="689.1" y1="219.9" x2="764.7" y2="219.9"/>
	<line class="st4" x1="689.1" y1="203" x2="709.7" y2="203"/>
	<line class="st4" x1="727" y1="203" x2="737.9" y2="203"/>
	<line class="st4" x1="752" y1="203" x2="764.7" y2="203"/>
	<line class="st4" x1="689.1" y1="236.8" x2="732.4" y2="236.8"/>
	<line class="st4" x1="747.4" y1="236.8" x2="764.7" y2="236.8"/>
</g>
<circle class="st15" cx="400" cy="58.3" r="7.5"/>
<circle class="st15" cx="419.9" cy="71.3" r="7.5"/>
<circle class="st15" cx="440" cy="84.1" r="7.5"/>
<circle class="st15" cx="419.9" cy="98" r="7.5"/>
<circle class="st15" cx="440" cy="111.2" r="7.5"/>
<circle class="st15" cx="400" cy="85.2" r="7.5"/>
<circle class="st15" cx="379.5" cy="71.3" r="7.5"/>
<circle class="st15" cx="419.9" cy="124.6" r="7.5"/>
<circle class="st15" cx="400" cy="111.2" r="7.5"/>
<circle class="st15" cx="379.5" cy="98" r="7.5"/>
<circle class="st15" cx="360.4" cy="84.1" r="7.5"/>
<circle class="st15" cx="360.4" cy="111.2" r="7.5"/>
<circle class="st15" cx="380.2" cy="124.6" r="7.5"/>
<circle class="st15" cx="400" cy="138" r="7.5"/>
<path class="st15" d="M357.8,135.1c1.4-1.4,3.3-2.3,5.4-2.3c4.2,0,7.5,3.4,7.5,7.5c0,2-0.8,3.8-2,5.2"/>
<path class="st15" d="M430.3,141.9c-0.2-0.7-0.3-1.4-0.3-2.2c0-4.2,3.4-7.5,7.5-7.5c0.5,0,1,0.1,1.5,0.2"/>
<path class="st15" d="M371.9,53c0.1,0.7,0.1,1.5-0.1,2.2c-0.8,4.1-4.7,6.8-8.8,6c-0.5-0.1-1-0.2-1.5-0.4"/>
</svg>
