<?xml version="1.0" encoding="utf-8"?>
<!-- Generator: Adobe Illustrator 22.0.0, SVG Export Plug-In . SVG Version: 6.00 Build 0)  -->
<svg version="1.1" id="Layer_1" xmlns="http://www.w3.org/2000/svg" xmlns:xlink="http://www.w3.org/1999/xlink" x="0px" y="0px"
	 viewBox="0 0 765 285" style="enable-background:new 0 0 765 285;" xml:space="preserve">
<style type="text/css">
	.st0{fill:none;}
	.st1{fill:none;stroke:#000000;stroke-width:5.6693;stroke-miterlimit:10;}
	.st2{fill:none;stroke:#000000;stroke-width:8.5039;stroke-linecap:round;stroke-miterlimit:10;}
	.st3{fill:#FFFFFF;}
	.st4{display:none;}
	
		.st5{display:inline;fill:none;stroke:#000000;stroke-width:5.6693;stroke-linejoin:round;stroke-miterlimit:10;stroke-dasharray:8.5039;}
	.st6{display:inline;}
	.st7{fill:none;stroke:#000000;stroke-width:5.6693;stroke-linejoin:round;}
	.st8{fill:none;stroke:#000000;stroke-width:5.6693;stroke-linejoin:round;stroke-dasharray:13.3541,13.3541;}
	.st9{fill:none;stroke:#000000;stroke-width:5.6693;stroke-linejoin:round;stroke-dasharray:12.4422,12.4422;}
	.st10{fill:none;stroke:#000000;stroke-width:5.6693;stroke-linejoin:round;stroke-dasharray:13.095,13.095;}
	.st11{fill:none;stroke:#000000;stroke-width:5.6693;stroke-linejoin:round;stroke-dasharray:12.5335,12.5335;}
	
		.st12{display:inline;fill:none;stroke:#000000;stroke-width:5.6693;stroke-linejoin:round;stroke-miterlimit:10;stroke-dasharray:11.9991;}
	.st13{fill:none;stroke:#000000;stroke-width:5.6693;stroke-linecap:round;stroke-linejoin:round;stroke-miterlimit:10;}
	.st14{display:inline;fill:#29ABE2;stroke:#000000;stroke-width:5.6693;stroke-miterlimit:10;}
	.st15{display:inline;fill:#FFEE03;stroke:#000000;stroke-width:5.6693;stroke-miterlimit:10;}
	.st16{display:inline;fill:#71D331;stroke:#000000;stroke-width:5.6693;stroke-miterlimit:10;}
	.st17{display:inline;fill:#00A99D;stroke:#000000;stroke-width:4.252;stroke-miterlimit:10;}
	.st18{display:inline;fill:#5C007C;stroke:#000000;stroke-width:5.6693;stroke-miterlimit:10;}
	.st19{display:inline;fill:#F7931E;stroke:#000000;stroke-width:4.252;stroke-miterlimit:10;}
	.st20{fill:#D4145A;}
	.st21{display:inline;fill:url(#SVGID_1_);stroke:#000000;stroke-width:5.6693;stroke-miterlimit:10;}
	.st22{fill:#EAB318;}
	.st23{fill:#93278F;}
	.st24{display:inline;fill:#7EE100;stroke:#000000;stroke-width:5.6693;stroke-miterlimit:10;}
	.st25{display:inline;fill:url(#SVGID_2_);stroke:#000000;stroke-width:5.6693;stroke-miterlimit:10;}
	.st26{display:inline;fill:#00ACCA;stroke:#000000;stroke-width:5.6693;stroke-miterlimit:10;}
	.st27{fill:#0DBBFF;stroke:#000000;stroke-width:5.6693;stroke-miterlimit:10;}
	.st28{fill:#00CAAC;stroke:#000000;stroke-width:5.6693;stroke-miterlimit:10;}
	.st29{fill:#00A99D;stroke:#000000;stroke-width:2.8346;stroke-miterlimit:10;}
	.st30{fill:#FF1A38;stroke:#000000;stroke-width:2.8346;stroke-miterlimit:10;}
	.st31{fill:#29ABE2;stroke:#000000;stroke-width:2.8346;stroke-miterlimit:10;}
	.st32{fill:#F7931E;stroke:#000000;stroke-width:2.8346;stroke-miterlimit:10;}
	.st33{fill:#7EE100;stroke:#000000;stroke-width:2.8346;stroke-miterlimit:10;}
	.st34{fill:none;stroke:#000000;stroke-width:5.6693;stroke-miterlimit:10;stroke-dasharray:11.3386;}
	.st35{fill:#FFD409;stroke:#000000;stroke-width:5.6693;stroke-miterlimit:10;}
	.st36{fill:url(#SVGID_3_);stroke:#000000;stroke-width:2.8346;stroke-miterlimit:10;}
	.st37{fill:url(#SVGID_4_);stroke:#000000;stroke-width:2.8346;stroke-miterlimit:10;}
	.st38{fill:url(#SVGID_9_);stroke:#000000;stroke-width:5.6693;stroke-miterlimit:10;}
	.st39{fill:none;stroke:#000000;stroke-width:5.6693;stroke-miterlimit:10;stroke-dasharray:12.189;}
	.st40{fill:#FF5570;stroke:#000000;stroke-width:5.6693;stroke-miterlimit:10;}
	.st41{fill:none;stroke:#000000;stroke-width:4.252;stroke-miterlimit:10;}
</style>
<pattern  y="285" width="90" height="75" patternUnits="userSpaceOnUse" id="New_Pattern" viewBox="105.5 -75 90 75" style="overflow:visible;">
	<g>
		<rect x="105.5" y="-75" class="st0" width="90" height="75"/>
		<g>
			<rect x="105.5" y="-75" class="st0" width="90" height="75"/>
			<line class="st1" x1="180" y1="-67.5" x2="301.1" y2="-67.5"/>
			<line class="st1" x1="90" y1="-67.5" x2="211.1" y2="-67.5"/>
			<line class="st1" x1="0" y1="-67.5" x2="121.1" y2="-67.5"/>
			<line class="st1" x1="180" y1="-52.5" x2="301.1" y2="-52.5"/>
			<line class="st1" x1="90" y1="-52.5" x2="211.1" y2="-52.5"/>
			<line class="st1" x1="0" y1="-52.5" x2="121.1" y2="-52.5"/>
			<line class="st1" x1="180" y1="-37.5" x2="301.1" y2="-37.5"/>
			<line class="st1" x1="90" y1="-37.5" x2="211.1" y2="-37.5"/>
			<line class="st1" x1="0" y1="-37.5" x2="121.1" y2="-37.5"/>
			<line class="st1" x1="180" y1="-22.5" x2="301.1" y2="-22.5"/>
			<line class="st1" x1="90" y1="-22.5" x2="211.1" y2="-22.5"/>
			<line class="st1" x1="0" y1="-22.5" x2="121.1" y2="-22.5"/>
			<line class="st1" x1="180" y1="-7.5" x2="301.1" y2="-7.5"/>
			<line class="st1" x1="90" y1="-7.5" x2="211.1" y2="-7.5"/>
			<line class="st1" x1="0" y1="-7.5" x2="121.1" y2="-7.5"/>
		</g>
	</g>
</pattern>
<pattern  y="285" width="50" height="50" patternUnits="userSpaceOnUse" id="SVGID_5_" viewBox="89.5 -139.6 50 50" style="overflow:visible;">
	<g>
		<rect x="89.5" y="-139.6" class="st0" width="50" height="50"/>
		<g>
			<rect x="89.5" y="-139.6" class="st0" width="50" height="50"/>
			<g>
				<rect x="89.5" y="-139.6" class="st0" width="50" height="50"/>
				<g>
					<rect x="89.5" y="-139.6" class="st0" width="50" height="50"/>
					<line class="st2" x1="224.8" y1="-104.3" x2="104.3" y2="-224.8"/>
					<line class="st2" x1="174.8" y1="-104.3" x2="54.3" y2="-224.8"/>
					<line class="st2" x1="124.8" y1="-104.3" x2="4.3" y2="-224.8"/>
					<line class="st2" x1="224.8" y1="-54.3" x2="104.3" y2="-174.8"/>
					<line class="st2" x1="174.8" y1="-54.3" x2="54.3" y2="-174.8"/>
					<line class="st2" x1="124.8" y1="-54.3" x2="4.3" y2="-174.8"/>
					<line class="st2" x1="224.8" y1="-4.3" x2="104.3" y2="-124.8"/>
					<line class="st2" x1="174.8" y1="-4.3" x2="54.3" y2="-124.8"/>
					<line class="st2" x1="124.8" y1="-4.3" x2="4.3" y2="-124.8"/>
				</g>
			</g>
		</g>
	</g>
</pattern>
<pattern  y="285" width="49.5" height="33" patternUnits="userSpaceOnUse" id="SVGID_6_" viewBox="10.5 -43.5 49.5 33" style="overflow:visible;">
	<g>
		<rect x="10.5" y="-43.5" class="st0" width="49.5" height="33"/>
		<g>
			<rect x="10.5" y="-43.5" class="st0" width="49.5" height="33"/>
			<g>
				<rect x="10.5" y="-43.5" class="st0" width="49.5" height="33"/>
				<g>
					<rect x="10.5" y="-43.5" class="st0" width="49.5" height="33"/>
					<g>
						<circle cx="60" cy="-43.5" r="10"/>
						<path d="M60-34c-5.2,0-9.5-4.3-9.5-9.5S54.8-53,60-53s9.5,4.3,9.5,9.5S65.2-34,60-34 M60-33c5.8,0,10.5-4.7,10.5-10.5
							S65.8-54,60-54s-10.5,4.7-10.5,10.5S54.2-33,60-33L60-33z"/>
					</g>
					<g>
						<circle cx="10.5" cy="-43.5" r="10"/>
						<path d="M10.5-34C5.3-34,1-38.3,1-43.5S5.3-53,10.5-53s9.5,4.3,9.5,9.5S15.7-34,10.5-34 M10.5-33C16.3-33,21-37.7,21-43.5
							S16.3-54,10.5-54S0-49.3,0-43.5S4.7-33,10.5-33L10.5-33z"/>
					</g>
					<g>
						<circle cx="60" cy="-10.5" r="10"/>
						<path d="M60-1c-5.2,0-9.5-4.3-9.5-9.5S54.8-20,60-20s9.5,4.3,9.5,9.5S65.2-1,60-1 M60,0c5.8,0,10.5-4.7,10.5-10.5
							S65.8-21,60-21s-10.5,4.7-10.5,10.5S54.2,0,60,0L60,0z"/>
					</g>
					<g>
						<circle cx="35.2" cy="-27" r="10"/>
						<path d="M35.2-17.5c-5.2,0-9.5-4.3-9.5-9.5s4.3-9.5,9.5-9.5s9.5,4.3,9.5,9.5S40.5-17.5,35.2-17.5 M35.2-16.5
							c5.8,0,10.5-4.7,10.5-10.5S41-37.5,35.2-37.5S24.8-32.8,24.8-27S29.5-16.5,35.2-16.5L35.2-16.5z"/>
					</g>
					<g>
						<circle cx="10.5" cy="-10.5" r="10"/>
						<path d="M10.5-1C5.3-1,1-5.3,1-10.5S5.3-20,10.5-20s9.5,4.3,9.5,9.5S15.7-1,10.5-1 M10.5,0C16.3,0,21-4.7,21-10.5
							S16.3-21,10.5-21S0-16.3,0-10.5S4.7,0,10.5,0L10.5,0z"/>
					</g>
				</g>
			</g>
		</g>
	</g>
</pattern>
<pattern  y="285" width="50" height="50" patternUnits="userSpaceOnUse" id="SVGID_7_" viewBox="89.5 -139.6 50 50" style="overflow:visible;">
	<g>
		<rect x="89.5" y="-139.6" class="st0" width="50" height="50"/>
		<g>
			<rect x="89.5" y="-139.6" class="st0" width="50" height="50"/>
			<g>
				<rect x="89.5" y="-139.6" class="st0" width="50" height="50"/>
				<g>
					<rect x="89.5" y="-139.6" class="st0" width="50" height="50"/>
					<line class="st2" x1="224.8" y1="-104.3" x2="104.3" y2="-224.8"/>
					<line class="st2" x1="174.8" y1="-104.3" x2="54.3" y2="-224.8"/>
					<line class="st2" x1="124.8" y1="-104.3" x2="4.3" y2="-224.8"/>
					<line class="st2" x1="224.8" y1="-54.3" x2="104.3" y2="-174.8"/>
					<line class="st2" x1="174.8" y1="-54.3" x2="54.3" y2="-174.8"/>
					<line class="st2" x1="124.8" y1="-54.3" x2="4.3" y2="-174.8"/>
					<line class="st2" x1="224.8" y1="-4.3" x2="104.3" y2="-124.8"/>
					<line class="st2" x1="174.8" y1="-4.3" x2="54.3" y2="-124.8"/>
					<line class="st2" x1="124.8" y1="-4.3" x2="4.3" y2="-124.8"/>
				</g>
			</g>
		</g>
	</g>
</pattern>
<pattern  y="285" width="50" height="50" patternUnits="userSpaceOnUse" id="SVGID_8_" viewBox="89.5 -139.6 50 50" style="overflow:visible;">
	<g>
		<rect x="89.5" y="-139.6" class="st0" width="50" height="50"/>
		<g>
			<rect x="89.5" y="-139.6" class="st0" width="50" height="50"/>
			<g>
				<rect x="89.5" y="-139.6" class="st0" width="50" height="50"/>
				<g>
					<rect x="89.5" y="-139.6" class="st0" width="50" height="50"/>
					<line class="st2" x1="224.8" y1="-104.3" x2="104.3" y2="-224.8"/>
					<line class="st2" x1="174.8" y1="-104.3" x2="54.3" y2="-224.8"/>
					<line class="st2" x1="124.8" y1="-104.3" x2="4.3" y2="-224.8"/>
					<line class="st2" x1="224.8" y1="-54.3" x2="104.3" y2="-174.8"/>
					<line class="st2" x1="174.8" y1="-54.3" x2="54.3" y2="-174.8"/>
					<line class="st2" x1="124.8" y1="-54.3" x2="4.3" y2="-174.8"/>
					<line class="st2" x1="224.8" y1="-4.3" x2="104.3" y2="-124.8"/>
					<line class="st2" x1="174.8" y1="-4.3" x2="54.3" y2="-124.8"/>
					<line class="st2" x1="124.8" y1="-4.3" x2="4.3" y2="-124.8"/>
				</g>
			</g>
		</g>
	</g>
</pattern>
<polygon class="st3" points="324.1,269.2 386.8,227.4 453,271.6 320.5,271.6 "/>
<rect x="140.9" y="208.6" class="st3" width="491.7" height="12.9"/>
<circle class="st3" cx="384.8" cy="113.9" r="81.2"/>
<g id="Layer_2_1_" class="st4">
	<line class="st5" x1="714.1" y1="67.2" x2="675" y2="165.2"/>
	<g class="st6">
		<g>
			<line class="st7" x1="381.2" y1="34.7" x2="381.2" y2="40.7"/>
			<line class="st8" x1="381.2" y1="54" x2="381.2" y2="127.5"/>
			<polyline class="st7" points="381.2,134.2 381.2,140.2 375.9,143.1 			"/>
			<polyline class="st9" points="365.1,149.1 278.3,197.3 160.8,212.4 			"/>
			<polyline class="st7" points="154.6,213.2 148.7,213.9 144.4,209.7 			"/>
			<line class="st10" x1="135.2" y1="200.4" x2="84.6" y2="149.1"/>
			<polyline class="st7" points="80,144.4 75.8,140.2 69.8,140.2 			"/>
			<line class="st11" x1="57.3" y1="140.2" x2="13.4" y2="140.2"/>
			<line class="st7" x1="7.2" y1="140.2" x2="1.2" y2="140.2"/>
		</g>
	</g>
	<line class="st12" x1="487.8" y1="197.3" x2="381.2" y2="140.2"/>
	<polyline class="st12" points="484.3,90.5 587.8,90.5 670.7,173.3 763.8,173.3 	"/>
	<g class="st6">
		<polygon class="st13" points="278.3,90.5 381.2,34.7 484.3,90.5 484.3,197.3 381.2,251.3 278.3,197.3 		"/>
		<polyline class="st13" points="381.2,251.3 381.2,143.9 278.3,90.5 		"/>
		<line class="st13" x1="484.3" y1="90.5" x2="381.2" y2="143.9"/>
	</g>
	<circle class="st14" cx="278.3" cy="90.5" r="16.1"/>
	<circle class="st15" cx="381.2" cy="34.7" r="16.1"/>
	<circle class="st16" cx="484.3" cy="90.5" r="16.1"/>
	<circle class="st17" cx="278.3" cy="197.3" r="16.1"/>
	<circle class="st18" cx="381.2" cy="251.3" r="16.1"/>
	<circle class="st19" cx="484.3" cy="197.3" r="16.1"/>
	<g class="st6">
		<circle class="st20" cx="672.1" cy="173.3" r="48"/>
		<path d="M672.1,127.6c25.2,0,45.7,20.5,45.7,45.7S697.3,219,672.1,219s-45.7-20.5-45.7-45.7S646.9,127.6,672.1,127.6 M672.1,123.1
			c-27.7,0-50.2,22.5-50.2,50.2s22.5,50.2,50.2,50.2s50.2-22.5,50.2-50.2S699.8,123.1,672.1,123.1L672.1,123.1z"/>
	</g>
	<pattern  id="SVGID_1_" xlink:href="#SVGID_5_" patternTransform="matrix(0.5223 0 0 -0.5223 -7453.2759 -9041.0459)">
	</pattern>
	<polygon class="st21" points="129.4,202.7 90.8,202.7 71.5,236.1 90.8,269.5 129.4,269.5 148.7,236.1 	"/>
	<g class="st6">
		
			<ellipse transform="matrix(7.088901e-02 -0.9975 0.9975 7.088901e-02 -74.2671 347.8676)" class="st22" cx="149.6" cy="213.8" rx="38.6" ry="38.6"/>
		<path d="M149.6,177.6c20.1,0,36.3,16.3,36.3,36.3s-16.3,36.3-36.3,36.3s-36.3-16.3-36.3-36.3S129.5,177.6,149.6,177.6
			 M149.6,173.1c-22.5,0-40.8,18.3-40.8,40.8s18.3,40.8,40.8,40.8s40.8-18.3,40.8-40.8S172.1,173.1,149.6,173.1L149.6,173.1z"/>
	</g>
	<g class="st6">
		<circle cx="502.1" cy="33" r="5.6"/>
		<path d="M502.1,29.6c1.9,0,3.3,1.6,3.3,3.3c0,1.8-1.6,3.3-3.3,3.3c-1.8,0-3.3-1.6-3.3-3.3C498.7,31.2,500.2,29.6,502.1,29.6
			 M502.1,25.2c-4.3,0-7.8,3.6-7.8,7.8s3.6,7.8,7.8,7.8c4.3,0,7.8-3.6,7.8-7.8S506.3,25.2,502.1,25.2L502.1,25.2z"/>
	</g>
	<g class="st6">
		<circle cx="215" cy="166" r="5.6"/>
		<path d="M215,162.6c1.9,0,3.3,1.6,3.3,3.3c0,1.8-1.6,3.3-3.3,3.3c-1.8,0-3.3-1.6-3.3-3.3C211.7,164.2,213.1,162.6,215,162.6
			 M215,158.2c-4.3,0-7.8,3.6-7.8,7.8c0,4.3,3.6,7.8,7.8,7.8c4.3,0,7.8-3.6,7.8-7.8C222.9,161.7,219.3,158.2,215,158.2L215,158.2z"
			/>
	</g>
	<g class="st6">
		<polygon class="st23" points="690.6,76.7 711.5,41.7 732.4,76.7 		"/>
		<path d="M711.5,44.8l18,30.3h-36L711.5,44.8 M711.5,38.4l-23.7,39.9h47.5L711.5,38.4L711.5,38.4z"/>
	</g>
	<g class="st6">
		<circle cx="288" cy="246.4" r="9.6"/>
		<path d="M288,238.4c4.4,0,8,3.6,8,8s-3.6,8-8,8s-8-3.6-8-8S283.5,238.4,288,238.4 M288,235.2c-6.2,0-11.2,5-11.2,11.2
			s5,11.2,11.2,11.2s11.2-5,11.2-11.2C299.1,240.2,294.1,235.2,288,235.2L288,235.2z"/>
	</g>
	<g class="st6">
		<circle cx="209.9" cy="263.3" r="4.9"/>
		<path d="M209.9,259.3c2.3,0,4.1,1.8,4.1,4.1c0,2.3-1.8,4.1-4.1,4.1s-4.1-1.8-4.1-4.1C205.8,261.1,207.6,259.3,209.9,259.3
			 M209.9,257.6c-3.2,0-5.7,2.5-5.7,5.7s2.5,5.7,5.7,5.7s5.7-2.5,5.7-5.7C215.6,260.2,213,257.6,209.9,257.6L209.9,257.6z"/>
	</g>
	<g class="st6">
		<circle cx="506.1" cy="244.1" r="4.9"/>
		<path d="M506.1,240.1c2.3,0,4.1,1.8,4.1,4.1s-1.8,4.1-4.1,4.1s-4.1-1.8-4.1-4.1C502.1,241.9,503.9,240.1,506.1,240.1 M506.1,238.4
			c-3.2,0-5.7,2.5-5.7,5.7s2.5,5.7,5.7,5.7s5.7-2.5,5.7-5.7C511.8,241,509.2,238.4,506.1,238.4L506.1,238.4z"/>
	</g>
	<rect x="41.5" y="42.1" class="st24" width="96.5" height="40.1"/>
	<pattern  id="SVGID_2_" xlink:href="#SVGID_6_" patternTransform="matrix(1 0 0 -1 -6.3824 -16794.1504)">
	</pattern>
	<circle class="st25" cx="651" cy="223.5" r="39.7"/>
	<g class="st6">
		<line class="st1" x1="218.2" y1="58.8" x2="209" y2="49.6"/>
		<line class="st1" x1="190.2" y1="30.9" x2="199.4" y2="40"/>
		<line class="st1" x1="218.2" y1="30.9" x2="209" y2="40"/>
		<line class="st1" x1="190.2" y1="58.8" x2="199.4" y2="49.6"/>
	</g>
	<g class="st6">
		<line class="st1" x1="578.5" y1="253.2" x2="569.3" y2="244"/>
		<line class="st1" x1="550.6" y1="225.3" x2="559.7" y2="234.5"/>
		<line class="st1" x1="578.5" y1="225.3" x2="569.3" y2="234.5"/>
		<line class="st1" x1="550.6" y1="253.2" x2="559.7" y2="244"/>
	</g>
	<g class="st6">
		<line class="st1" x1="55.4" y1="197.1" x2="46.2" y2="187.9"/>
		<line class="st1" x1="27.5" y1="169.2" x2="36.7" y2="178.4"/>
		<line class="st1" x1="55.4" y1="169.2" x2="46.2" y2="178.4"/>
		<line class="st1" x1="27.5" y1="197.1" x2="36.7" y2="187.9"/>
	</g>
	<g class="st6">
		<line class="st1" x1="651.1" y1="75.8" x2="641.9" y2="66.6"/>
		<line class="st1" x1="623.2" y1="47.8" x2="632.3" y2="57"/>
		<line class="st1" x1="651.1" y1="47.8" x2="641.9" y2="57"/>
		<line class="st1" x1="623.2" y1="75.8" x2="632.3" y2="66.6"/>
	</g>
	<g class="st6">
		<circle cx="567.4" cy="54.8" r="8.5"/>
		<path d="M567.4,49.6c2.9,0,5,2.4,5,5c0,2.7-2.4,5-5,5c-2.7,0-5-2.4-5-5C562.3,52,564.6,49.6,567.4,49.6 M567.4,42.9
			c-6.5,0-11.9,5.5-11.9,11.9s5.5,11.9,11.9,11.9c6.5,0,11.9-5.5,11.9-11.9S573.8,42.9,567.4,42.9L567.4,42.9z"/>
	</g>
	<g class="st6">
		<circle cx="148.7" cy="125.3" r="16"/>
		<path d="M148.7,112c7.4,0,13.3,5.9,13.3,13.3c0,7.4-5.9,13.3-13.3,13.3s-13.3-5.9-13.3-13.3S141.3,112,148.7,112 M148.7,106.7
			c-10.3,0-18.6,8.3-18.6,18.6s8.3,18.6,18.6,18.6s18.6-8.3,18.6-18.6C167.2,115,158.9,106.7,148.7,106.7L148.7,106.7z"/>
	</g>
	<rect x="540.7" y="132.4" class="st26" width="29.7" height="49.8"/>
	<g class="st6">
		<circle cx="227.6" cy="102.8" r="4"/>
		<path d="M227.6,100.4c1.4,0,2.3,1.1,2.3,2.3c0,1.3-1.1,2.3-2.3,2.3c-1.3,0-2.3-1.1-2.3-2.3S226.3,100.4,227.6,100.4 M227.6,97.2
			c-3.1,0-5.5,2.6-5.5,5.5c0,3.1,2.6,5.5,5.5,5.5c3.1,0,5.5-2.6,5.5-5.5C233.3,99.7,230.7,97.2,227.6,97.2L227.6,97.2z"/>
	</g>
</g>
<circle class="st27" cx="110.4" cy="192.1" r="65.4"/>
<circle class="st28" cx="660.2" cy="192.1" r="65.5"/>
<path class="st1" d="M373.1,32.8c44.6-6.3,85.9,24.8,92.1,69.4s-24.8,85.9-69.4,92.1c-39.6,5.6-76.5-18.3-88.7-54.9"/>
<path class="st1" d="M442.5,95.5c2.5,9.4,2.9,19.6,0.6,29.8c-7.6,33.6-41,54.7-74.6,47.1s-54.7-41-47.1-74.6"/>
<path class="st1" d="M384.8,75.5c21,0.2,37.9,17.3,37.7,38.3c-0.2,21-17.3,37.9-38.3,37.7c-10.8-0.1-20.5-4.7-27.4-11.9"/>
<circle class="st29" cx="358.2" cy="139.4" r="9.8"/>
<circle class="st30" cx="373.1" cy="31.9" r="16.3"/>
<polygon class="st31" points="396.3,63.6 382.6,63.6 375.7,75.5 382.6,87.4 396.3,87.4 403.2,75.5 "/>
<g>
	<polygon class="st23" points="295.7,146.2 308,125.5 320.3,146.2 	"/>
	<path d="M308,127.4l10.6,17.8h-21.2L308,127.4 M308,123.6l-14,23.5h28L308,123.6L308,123.6z"/>
</g>
<circle class="st32" cx="319.8" cy="99.2" r="11.8"/>
<rect x="432.1" y="85.4" class="st33" width="20.3" height="20.3"/>
<polyline class="st34" points="391.9,125.4 326.1,59.5 170.3,60.1 170.3,126.6 "/>
<polygon class="st35" points="203,93.9 137.6,93.9 104.8,150.6 137.6,207.3 203,207.3 235.7,150.6 "/>
<pattern  id="SVGID_3_" xlink:href="#SVGID_7_" patternTransform="matrix(1 0 0 -1 -85.2362 -17086.6035)">
</pattern>
<rect x="140.9" y="208.6" class="st36" width="491.7" height="12.9"/>
<pattern  id="SVGID_4_" xlink:href="#New_Pattern" patternTransform="matrix(1 0 0 -1 -105.5 -16893)">
</pattern>
<polygon class="st37" points="386.8,227.4 320.5,271.6 453,271.6 "/>
<pattern  id="SVGID_9_" xlink:href="#SVGID_8_" patternTransform="matrix(0.8987 0 0 -0.8987 -1802.9229 -15392.4385)">
</pattern>
<polygon class="st38" points="613.5,125.6 683.2,55.9 752.9,125.6 683.2,195.3 "/>
<polyline class="st39" points="438.3,37.7 576.3,37.7 576.3,75.5 "/>
<g>
	<circle cx="523" cy="70.8" r="8.8"/>
	<path d="M523,64.3c3.6,0,6.5,2.9,6.5,6.5s-2.9,6.5-6.5,6.5s-6.5-2.9-6.5-6.5S519.4,64.3,523,64.3 M523,59.8c-6.1,0-11,4.9-11,11
		s4.9,11,11,11s11-4.9,11-11S529,59.8,523,59.8L523,59.8z"/>
</g>
<g>
	<circle cx="277.8" cy="177.7" r="6.8"/>
	<path d="M277.8,172.7c2.8,0,5,2.2,5,5s-2.2,5-5,5s-5-2.2-5-5S275,172.7,277.8,172.7 M277.8,169.2c-4.7,0-8.5,3.8-8.5,8.5
		s3.8,8.5,8.5,8.5s8.5-3.8,8.5-8.5C286.2,173,282.4,169.2,277.8,169.2L277.8,169.2z"/>
</g>
<g>
	<circle cx="488.4" cy="174" r="10.5"/>
	<path d="M488.4,166.2c4.3,0,7.7,3.5,7.7,7.7s-3.5,7.7-7.7,7.7s-7.7-3.5-7.7-7.7S484.1,166.2,488.4,166.2 M488.4,160.9
		c-7.3,0-13.1,5.8-13.1,13.1s5.8,13.1,13.1,13.1s13.1-5.8,13.1-13.1S495.5,160.9,488.4,160.9L488.4,160.9z"/>
</g>
<g>
	<circle cx="496.1" cy="105.7" r="4.7"/>
	<path d="M496.1,102.2c1.9,0,3.5,1.6,3.5,3.5s-1.6,3.5-3.5,3.5s-3.5-1.6-3.5-3.5S494.2,102.2,496.1,102.2 M496.1,99.8
		c-3.3,0-5.9,2.6-5.9,5.9s2.6,5.9,5.9,5.9s5.9-2.6,5.9-5.9S499.3,99.8,496.1,99.8L496.1,99.8z"/>
</g>
<g>
	<circle cx="120.1" cy="42.6" r="17.1"/>
	<path d="M120.1,29.9c7,0,12.6,5.6,12.6,12.6s-5.6,12.6-12.6,12.6s-12.6-5.6-12.6-12.6S113.1,29.9,120.1,29.9 M120.1,21.2
		c-11.9,0-21.4,9.5-21.4,21.4S108.2,64,120.1,64s21.4-9.5,21.4-21.4S131.8,21.2,120.1,21.2L120.1,21.2z"/>
</g>
<g>
	<circle cx="18.1" cy="267.5" r="5.6"/>
	<path d="M18.1,263.4c2.3,0,4.1,1.8,4.1,4.1c0,2.3-1.8,4.1-4.1,4.1s-4.1-1.8-4.1-4.1C14,265.2,15.8,263.4,18.1,263.4 M18.1,260.5
		c-3.9,0-7,3.1-7,7s3.1,7,7,7s7-3.1,7-7C25,263.6,21.9,260.5,18.1,260.5L18.1,260.5z"/>
</g>
<g>
	<circle cx="721.9" cy="37.7" r="11.3"/>
	<path d="M721.9,29.3c4.6,0,8.4,3.7,8.4,8.4s-3.7,8.4-8.4,8.4s-8.4-3.7-8.4-8.4S717.3,29.3,721.9,29.3 M721.9,23.5
		c-7.9,0-14.2,6.3-14.2,14.2s6.3,14.2,14.2,14.2s14.2-6.3,14.2-14.2S729.6,23.5,721.9,23.5L721.9,23.5z"/>
</g>
<g>
	<circle cx="742.4" cy="264.6" r="8.1"/>
	<path d="M742.4,258.6c3.3,0,6,2.7,6,6s-2.7,6-6,6s-6-2.7-6-6C736.4,261.3,739.1,258.6,742.4,258.6 M742.4,254.5
		c-5.6,0-10.2,4.5-10.2,10.2s4.5,10.2,10.2,10.2c5.6,0,10.2-4.5,10.2-10.2S747.9,254.5,742.4,254.5L742.4,254.5z"/>
</g>
<g>
	<circle cx="550.7" cy="250.4" r="4"/>
	<path d="M550.7,247.4c1.6,0,2.9,1.3,2.9,2.9c0,1.6-1.3,2.9-2.9,2.9c-1.6,0-2.9-1.3-2.9-2.9S549.1,247.4,550.7,247.4 M550.7,245.4
		c-2.8,0-5,2.2-5,5s2.2,5,5,5s5-2.2,5-5S553.4,245.4,550.7,245.4L550.7,245.4z"/>
</g>
<g>
	<circle cx="52.9" cy="87.4" r="10.1"/>
	<path d="M52.9,79.9c4.1,0,7.5,3.3,7.5,7.5c0,4.1-3.3,7.5-7.5,7.5s-7.5-3.3-7.5-7.5C45.4,83.3,48.7,79.9,52.9,79.9 M52.9,74.8
		c-7,0-12.6,5.6-12.6,12.6S45.9,100,52.9,100s12.6-5.6,12.6-12.6S59.8,74.8,52.9,74.8L52.9,74.8z"/>
</g>
<g>
	<line class="st1" x1="7.8" y1="150.6" x2="174.2" y2="150.6"/>
	<line class="st1" x1="7.8" y1="121.6" x2="52.9" y2="121.6"/>
	<line class="st1" x1="64.3" y1="121.6" x2="88.4" y2="121.6"/>
	<line class="st1" x1="146" y1="121.6" x2="174.2" y2="121.6"/>
	<line class="st1" x1="7.8" y1="179.6" x2="103" y2="179.6"/>
	<line class="st1" x1="115.5" y1="179.6" x2="174.2" y2="179.6"/>
</g>
<g>
	<line class="st1" x1="664.8" y1="257.3" x2="600.5" y2="257.3"/>
	<line class="st1" x1="664.8" y1="271.6" x2="647.3" y2="271.6"/>
	<line class="st1" x1="632.6" y1="271.6" x2="623.3" y2="271.6"/>
	<line class="st1" x1="611.3" y1="271.6" x2="600.5" y2="271.6"/>
	<line class="st1" x1="664.8" y1="242.9" x2="628" y2="242.9"/>
	<line class="st1" x1="615.2" y1="242.9" x2="600.5" y2="242.9"/>
</g>
<line class="st1" x1="91" y1="121.6" x2="129.7" y2="121.6"/>
<circle class="st40" cx="579.3" cy="145.2" r="60.4"/>
<g>
	<circle cx="261.1" cy="37.8" r="7.5"/>
	<path d="M261.1,32.3c3.1,0,5.5,2.5,5.5,5.5s-2.5,5.5-5.5,5.5c-3.1,0-5.5-2.5-5.5-5.5S258,32.3,261.1,32.3 M261.1,28.4
		c-5.2,0-9.4,4.2-9.4,9.4s4.2,9.4,9.4,9.4c5.2,0,9.4-4.2,9.4-9.4S266.2,28.4,261.1,28.4L261.1,28.4z"/>
</g>
<g>
	<circle cx="293.2" cy="250.4" r="5.6"/>
	<path d="M293.2,246.3c2.3,0,4.1,1.8,4.1,4.1s-1.8,4.1-4.1,4.1s-4.1-1.8-4.1-4.1S290.9,246.3,293.2,246.3 M293.2,243.4
		c-3.9,0-7,3.1-7,7s3.1,7,7,7s7-3.1,7-7C300.1,246.5,297,243.4,293.2,243.4L293.2,243.4z"/>
</g>
<g>
	<line class="st1" x1="227.8" y1="260.1" x2="220.8" y2="253.1"/>
	<line class="st1" x1="206.7" y1="238.9" x2="213.6" y2="245.9"/>
	<line class="st1" x1="227.8" y1="238.9" x2="220.8" y2="245.9"/>
	<line class="st1" x1="206.7" y1="260.1" x2="213.6" y2="253.1"/>
</g>
<g>
	<line class="st1" x1="506.7" y1="269.2" x2="499.7" y2="262.3"/>
	<line class="st1" x1="485.5" y1="248.1" x2="492.5" y2="255"/>
	<line class="st1" x1="506.7" y1="248.1" x2="499.7" y2="255"/>
	<line class="st1" x1="485.5" y1="269.2" x2="492.5" y2="262.3"/>
</g>
<g>
	<line class="st1" x1="638.5" y1="63.7" x2="631.6" y2="56.7"/>
	<line class="st1" x1="617.4" y1="42.6" x2="624.3" y2="49.5"/>
	<line class="st1" x1="638.5" y1="42.6" x2="631.6" y2="49.5"/>
	<line class="st1" x1="617.4" y1="63.7" x2="624.3" y2="56.7"/>
</g>
<g>
	<line class="st1" x1="45" y1="41.3" x2="38.1" y2="34.3"/>
	<line class="st1" x1="23.9" y1="20.2" x2="30.9" y2="27.1"/>
	<line class="st1" x1="45" y1="20.2" x2="38.1" y2="27.1"/>
	<line class="st1" x1="23.9" y1="41.3" x2="30.9" y2="34.3"/>
</g>
<g>
	<line class="st1" x1="272.8" y1="119.2" x2="263.9" y2="110.3"/>
	<line class="st1" x1="245.7" y1="92.1" x2="254.6" y2="101"/>
	<line class="st1" x1="272.8" y1="92.1" x2="263.9" y2="101"/>
	<line class="st1" x1="245.7" y1="119.2" x2="254.6" y2="110.3"/>
</g>
<g>
	<line class="st1" x1="210.8" y1="39" x2="206.1" y2="34.4"/>
	<line class="st1" x1="196.6" y1="24.9" x2="201.3" y2="29.5"/>
	<line class="st1" x1="210.8" y1="24.9" x2="206.1" y2="29.5"/>
	<line class="st1" x1="196.6" y1="39" x2="201.3" y2="34.4"/>
</g>
<g>
	<line class="st1" x1="690.3" y1="30.6" x2="685.6" y2="25.9"/>
	<line class="st1" x1="676.1" y1="16.4" x2="680.8" y2="21.1"/>
	<line class="st1" x1="690.3" y1="16.4" x2="685.6" y2="21.1"/>
	<line class="st1" x1="676.1" y1="30.6" x2="680.8" y2="25.9"/>
</g>
<line class="st41" x1="266.5" y1="15.7" x2="333.8" y2="15.7"/>
<line class="st41" x1="728.2" y1="63.6" x2="756.7" y2="63.6"/>
<line class="st41" x1="30" y1="253.3" x2="55.4" y2="253.3"/>
</svg>
