<svg id="Layer_1" data-name="Layer 1" xmlns="http://www.w3.org/2000/svg" viewBox="0 0 88 31"><defs><style>.cls-1{fill:#aab2ab;}.cls-2{fill:#fff;}</style></defs><title>CC-BY</title><g id="surface1"><path class="cls-1" d="M2.3.37,85.43.52c1.16,0,2.2-.17,2.2,2.34l-.1,27.55H.2V2.75C.2,1.52.32.37,2.3.37Z" transform="translate(0 0)"/><path d="M86.35,0H1.65A1.65,1.65,0,0,0,0,1.66v29A.38.38,0,0,0,.37,31H87.63a.38.38,0,0,0,.37-.38v-29A1.65,1.65,0,0,0,86.35,0ZM1.65.75h84.7a.9.9,0,0,1,.9.91V21.79H26.52a13,13,0,0,1-22.81,0h-3V1.66A.9.9,0,0,1,1.65.75Z" transform="translate(0 0)"/><path class="cls-2" d="M54.12,24.17a3.1,3.1,0,0,1,.64.06,1.44,1.44,0,0,1,.49.2,1,1,0,0,1,.32.38,1.35,1.35,0,0,1,.11.57,1.1,1.1,0,0,1-.17.62,1.17,1.17,0,0,1-.49.4,1.18,1.18,0,0,1,.67.46,1.33,1.33,0,0,1,.22.78,1.29,1.29,0,0,1-.14.64,1.16,1.16,0,0,1-.38.44,1.8,1.8,0,0,1-.56.26,2.72,2.72,0,0,1-.63.08H51.84V24.17Zm-.13,2a.77.77,0,0,0,.47-.14.52.52,0,0,0,.18-.44.55.55,0,0,0-.06-.28.38.38,0,0,0-.16-.17.63.63,0,0,0-.24-.09l-.27,0h-1v1.14Zm.06,2.07a1.39,1.39,0,0,0,.3,0,.74.74,0,0,0,.26-.1.56.56,0,0,0,.17-.2.68.68,0,0,0,.06-.31.65.65,0,0,0-.21-.54.89.89,0,0,0-.56-.16H52.91v1.34Z" transform="translate(0 0)"/><path class="cls-2" d="M56.1,24.17h1.2l1.14,1.93,1.13-1.93h1.19l-1.8,3v1.88H57.89v-1.9Z" transform="translate(0 0)"/><path class="cls-2" d="M25.12,14.47a10,10,0,1,1-20,0h0a10,10,0,1,1,20,0Z" transform="translate(0 0)"/><path d="M23.25,6.27a11.23,11.23,0,0,1,3.32,8.2,11,11,0,0,1-3.27,8.11A11.25,11.25,0,0,1,15.11,26a11,11,0,0,1-8.06-3.41,11.13,11.13,0,0,1-3.38-8.14,11.33,11.33,0,0,1,3.38-8.2,10.88,10.88,0,0,1,8.06-3.34A11,11,0,0,1,23.25,6.27ZM8.54,7.78a9.24,9.24,0,0,0-2.81,6.69,9.09,9.09,0,0,0,2.78,6.64,9,9,0,0,0,6.63,2.8,9.17,9.17,0,0,0,6.68-2.82,8.87,8.87,0,0,0,2.7-6.62,9.16,9.16,0,0,0-2.74-6.71A9,9,0,0,0,15.14,5,8.86,8.86,0,0,0,8.54,7.78Zm4.94,5.57a1.38,1.38,0,0,0-1.29-.94c-1,0-1.52.68-1.52,2.05s.51,2.05,1.52,2.05a1.47,1.47,0,0,0,1.43-1l1.4.75a3.23,3.23,0,0,1-3,1.79,3.28,3.28,0,0,1-2.48-.95,3.61,3.61,0,0,1-.93-2.63,3.53,3.53,0,0,1,1-2.61,3.2,3.2,0,0,1,2.39-1,3.18,3.18,0,0,1,3,1.68Zm6.59,0a1.36,1.36,0,0,0-1.26-.94c-1,0-1.55.68-1.55,2.05s.52,2.05,1.55,2.05a1.41,1.41,0,0,0,1.4-1l1.43.75a3.21,3.21,0,0,1-3,1.79,3.27,3.27,0,0,1-2.47-.95,3.61,3.61,0,0,1-.93-2.63,3.56,3.56,0,0,1,.94-2.61,3.2,3.2,0,0,1,2.41-1,3.16,3.16,0,0,1,3,1.68Z" transform="translate(0 0)"/><path class="cls-2" d="M63.8,11.23A7.88,7.88,0,1,1,55.93,3.3,7.9,7.9,0,0,1,63.8,11.23Z" transform="translate(0 0)"/><path d="M58.21,8.94a.55.55,0,0,0-.55-.55H54.18a.55.55,0,0,0-.55.55v3.5h1v4.15h2.64V12.44h1Z" transform="translate(0 0)"/><path d="M57.11,6.73a1.19,1.19,0,1,1-1.19-1.2A1.19,1.19,0,0,1,57.11,6.73Z" transform="translate(0 0)"/><path d="M55.91,2.5a8.08,8.08,0,0,0-6,2.48,8.38,8.38,0,0,0-2.51,6.08,8.23,8.23,0,0,0,2.51,6,8.15,8.15,0,0,0,6,2.52A8.37,8.37,0,0,0,62,17.07a8.18,8.18,0,0,0,2.43-6A8.32,8.32,0,0,0,62,5,8.24,8.24,0,0,0,55.91,2.5Zm0,1.54a6.64,6.64,0,0,1,4.92,2.05,6.75,6.75,0,0,1,2,5,6.58,6.58,0,0,1-2,4.9,6.8,6.8,0,0,1-5,2.09A6.72,6.72,0,0,1,51,16a6.93,6.93,0,0,1,0-9.89A6.55,6.55,0,0,1,55.93,4Z" transform="translate(0 0)"/></g></svg>