<?xml version="1.0" encoding="utf-8"?>
<!-- Generator: Adobe Illustrator 22.0.0, SVG Export Plug-In . SVG Version: 6.00 Build 0)  -->
<svg version="1.1" id="Layer_1" xmlns="http://www.w3.org/2000/svg" xmlns:xlink="http://www.w3.org/1999/xlink" x="0px" y="0px"
	 viewBox="0 0 440 570" style="enable-background:new 0 0 440 570;" xml:space="preserve">
<style type="text/css">
	.st0{fill:#FFFFFF;}
</style>
<title>Artboard 1</title>
<g>
	<g>
		<path class="st0" d="M385.9,538H56.5c-16.8,0-30.4-15-30.4-33.4V63.4C26.1,45,39.8,30,56.5,30h329.3c16.8,0,30.4,15,30.4,33.4
			v441.2C416.3,523,402.6,538,385.9,538z M56.5,52.5c-5.5,0-10,4.9-10,11v441.2c0,6,4.5,11,10,11h329.3c5.5,0,10-4.9,10-11V63.4
			c0-6-4.5-11-10-11L56.5,52.5L56.5,52.5z"/>
	</g>
	<g>
		<path class="st0" d="M172.9,344.2h27.4v-61.5H243v61.5h27.7l-49,64L172.9,344.2z"/>
	</g>
	<rect x="117.6" y="109.7" class="st0" width="208.3" height="6.7"/>
	<rect x="117.6" y="164.3" class="st0" width="208.3" height="6.7"/>
	<rect x="117.6" y="219" class="st0" width="208.3" height="6.7"/>
	<rect x="139.3" y="441.1" class="st0" width="164.9" height="26.1"/>
</g>
</svg>
